<?xml version="1.0" encoding="utf-8"?>
<!-- Generator: Adobe Illustrator 23.0.6, SVG Export Plug-In . SVG Version: 6.00 Build 0)  -->
<svg version="1.1" id="Capa_1" xmlns="http://www.w3.org/2000/svg" xmlns:xlink="http://www.w3.org/1999/xlink" x="0px" y="0px"
	 viewBox="0 0 200.2 157.1" style="enable-background:new 0 0 200.2 157.1;" xml:space="preserve">
<style type="text/css">
	.st0{fill:none;stroke:#870037;stroke-width:2.432;stroke-miterlimit:10;}
	.st1{fill:#870037;}
</style>
<path class="st0" d="M124.8,49.7c0-13.9-11.4-25.2-25.4-24.8C85.9,25.2,75,36.5,75.2,50.1c0.1,5.7,2.1,10.9,5.3,15
	c3.8,4.8,6.2,10.6,7,16.7c0.1,0.8,0.2,1.4,0.4,1.8c2.2,4.4,6.8,7.5,12.1,7.5c6.1,0,11.3-4.1,12.9-9.7c0-0.1,0-0.1,0-0.2
	c0.9-5.9,3.1-11.5,6.7-16.2C122.8,60.7,124.8,55.4,124.8,49.7z"/>
<path class="st0" d="M96.8,90.7c0,0-3.9-40.2-5.4-43.2s-5.2-0.7-3.8,1.9c1.4,2.6,3.6,3.6,7.1,1.4c3.5-2.2,6.6-4.3,6.6-7.5
	c0-1.6-0.8-2.3-1.6-2.3"/>
<path class="st0" d="M102.2,90.9c0,0,4.4-40.4,5.9-43.4s5.2-0.7,3.8,1.9c-1.4,2.6-3.6,3.6-7.1,1.4c-3.5-2.2-6.6-4.3-6.6-7.5
	c0-1.6,0.8-2.3,1.6-2.3"/>
<path class="st0" d="M112.9,81.1c0,0.1,0,0.2,0,0.2c-1.6,5.6-6.8,9.7-12.9,9.7c-5.3,0-9.9-3.1-12.1-7.5c0-0.1-0.1-0.2-0.1-0.3v7.4
	c0,7,5.7,12.7,12.7,12.7s12.7-5.7,12.7-12.7V79.8C113,80.3,113,80.7,112.9,81.1z"/>
<g>
	<path class="st1" d="M19,112.5h4.7v18.3H19V112.5z"/>
	<path class="st1" d="M26.7,112.5h3.2l8.5,9.9v-9.9h4.4v18.3h-3.1l-8.6-10.2v10.2h-4.4C26.7,130.8,26.7,112.5,26.7,112.5z"/>
	<path class="st1" d="M45.9,112.5h3.2l8.5,9.9v-9.9H62v18.3h-3.1l-8.6-10.2v10.2h-4.4V112.5z"/>
	<path class="st1" d="M69.1,129.9c-1.4-0.8-2.6-1.8-3.4-3.3c-0.8-1.4-1.3-3.1-1.3-5s0.4-3.6,1.2-5c0.8-1.4,2-2.5,3.4-3.2
		s3-1.1,4.8-1.1s3.4,0.4,4.8,1.1c1.4,0.8,2.6,1.8,3.4,3.3c0.8,1.4,1.2,3.1,1.2,5s-0.4,3.6-1.2,5c-0.8,1.4-2,2.5-3.4,3.3
		c-1.4,0.7-3,1.1-4.8,1.1C72.1,131.1,70.5,130.7,69.1,129.9z M76.3,126.2c0.7-0.5,1.2-1.1,1.6-1.9s0.5-1.7,0.5-2.7s-0.2-1.9-0.6-2.7
		c-0.4-0.8-0.9-1.4-1.6-1.9s-1.5-0.7-2.4-0.7c-1.4,0-2.5,0.5-3.3,1.5s-1.2,2.3-1.2,3.8c0,1,0.2,1.9,0.5,2.7c0.4,0.8,0.9,1.4,1.6,1.9
		s1.5,0.7,2.4,0.7C74.7,127,75.6,126.7,76.3,126.2z"/>
	<path class="st1" d="M83.3,112.5h5.4l4.4,11.3h0.3l3.9-11.3h5.5l-7.6,18.3h-4L83.3,112.5z"/>
	<path class="st1" d="M107.7,112.5h4.5l7.3,18.3h-5l-1.1-3.1h-6.8l-1.1,3.1h-5.2L107.7,112.5z M111.8,123.7l-1.8-5.1h-0.3l-1.8,5.1
		H111.8z"/>
	<path class="st1" d="M123.7,129.8c-1.5-0.8-2.6-1.9-3.3-3.3s-1.1-3-1.1-4.7c0-1.9,0.4-3.5,1.2-5c0.8-1.4,2-2.6,3.5-3.3
		c1.5-0.8,3.2-1.2,5.2-1.2c1.9,0,3.4,0.2,4.6,0.5l-0.4,4.1c-0.4-0.1-1-0.2-1.8-0.3c-0.8-0.1-1.5-0.1-2.3-0.1c-1,0-1.9,0.2-2.7,0.6
		c-0.8,0.4-1.4,1-1.9,1.7c-0.5,0.8-0.7,1.7-0.7,2.9c0,1.7,0.5,3,1.4,3.9s2.3,1.4,4,1.4c1.4,0,2.8-0.1,4.1-0.4l0.3,4
		c-0.5,0.2-1.2,0.3-2,0.4c-0.8,0.1-1.7,0.1-2.6,0.1C127.1,131.1,125.3,130.7,123.7,129.8z"/>
	<path class="st1" d="M136.5,112.5h4.7v18.3h-4.7V112.5z"/>
	<path class="st1" d="M148.3,129.9c-1.4-0.8-2.6-1.8-3.4-3.3c-0.8-1.4-1.3-3.1-1.3-5s0.4-3.6,1.2-5s2-2.5,3.4-3.2s3-1.1,4.8-1.1
		s3.4,0.4,4.8,1.1c1.4,0.8,2.6,1.8,3.4,3.3c0.8,1.4,1.2,3.1,1.2,5s-0.4,3.6-1.2,5c-0.8,1.4-2,2.5-3.4,3.3c-1.4,0.7-3,1.1-4.8,1.1
		C151.3,131.1,149.7,130.7,148.3,129.9z M155.4,126.2c0.7-0.5,1.2-1.1,1.6-1.9c0.4-0.8,0.5-1.7,0.5-2.7s-0.2-1.9-0.6-2.7
		c-0.4-0.8-0.9-1.4-1.6-1.9c-0.7-0.5-1.5-0.7-2.4-0.7c-1.4,0-2.5,0.5-3.3,1.5s-1.2,2.3-1.2,3.8c0,1,0.2,1.9,0.5,2.7
		c0.4,0.8,0.9,1.4,1.6,1.9s1.5,0.7,2.4,0.7C153.9,127,154.8,126.7,155.4,126.2z M149.6,108.5l5.8-3.6l1.8,3.6l-6,2.7L149.6,108.5z"
		/>
	<path class="st1" d="M164.7,112.5h3.2l8.5,9.9v-9.9h4.4v18.3h-3.1l-8.6-10.2v10.2h-4.4L164.7,112.5L164.7,112.5z"/>
</g>
</svg>
