<?xml version="1.0" encoding="utf-8"?>
<!-- Generator: Adobe Illustrator 23.0.6, SVG Export Plug-In . SVG Version: 6.00 Build 0)  -->
<svg version="1.1" id="Capa_1" xmlns="http://www.w3.org/2000/svg" xmlns:xlink="http://www.w3.org/1999/xlink" x="0px" y="0px"
	 viewBox="0 0 366.4 157.1" style="enable-background:new 0 0 366.4 157.1;" xml:space="preserve">
<style type="text/css">
	.st0{fill:#870037;}
	.st1{fill:none;stroke:#870037;stroke-width:2.396;stroke-linecap:round;stroke-linejoin:round;stroke-miterlimit:10;}
</style>
<g>
	<path class="st0" d="M17.2,116.3h13.3l-1,4.1H22v3.8h6.6l-0.2,4h-6.5v6.3h-4.7V116.3z"/>
	<path class="st0" d="M35.6,133.7c-1.4-0.8-2.6-1.8-3.4-3.3c-0.8-1.4-1.3-3.1-1.3-5s0.4-3.6,1.2-5c0.8-1.4,2-2.5,3.4-3.2
		s3-1.1,4.8-1.1s3.4,0.4,4.8,1.1c1.4,0.8,2.6,1.8,3.4,3.3c0.8,1.4,1.2,3.1,1.2,5s-0.4,3.6-1.2,5s-2,2.5-3.4,3.3
		c-1.4,0.7-3,1.1-4.8,1.1C38.6,134.9,37,134.5,35.6,133.7z M42.8,130c0.7-0.5,1.2-1.1,1.6-1.9c0.4-0.8,0.5-1.7,0.5-2.7
		s-0.2-1.9-0.6-2.7c-0.4-0.8-0.9-1.4-1.6-1.9c-0.7-0.5-1.5-0.7-2.4-0.7c-1.4,0-2.5,0.5-3.3,1.5s-1.2,2.3-1.2,3.8
		c0,1,0.2,1.9,0.5,2.7c0.4,0.8,0.9,1.4,1.6,1.9s1.5,0.7,2.4,0.7C41.3,130.8,42.1,130.5,42.8,130z"/>
	<path class="st0" d="M52.1,116.3h4.1l5.9,11.1h0.2l5.8-11.1h4v18.3h-4.6v-8.2l-3.5,6h-3.7l-3.6-6.4v8.5h-4.6
		C52.1,134.5,52.1,116.3,52.1,116.3z"/>
	<path class="st0" d="M75,116.3h13.3l-1,4.1h-7.6v3.2h6.8l-0.2,4h-6.6v2.9h8.6l-1,4.1H75V116.3z"/>
	<path class="st0" d="M90.5,116.3h3.2l8.5,9.9v-9.9h4.4v18.3h-3.1l-8.6-10.2v10.2h-4.4V116.3z"/>
	<path class="st0" d="M114,120.4h-5.3v-4.1h15.8l-1,4.1h-4.7v14.2H114V120.4z"/>
	<path class="st0" d="M129.8,116.3h4.5l7.3,18.3h-5l-1.1-3.1h-6.8l-1.1,3.1h-5.2L129.8,116.3z M133.9,127.5l-1.8-5.1h-0.3l-1.8,5.1
		H133.9z"/>
	<path class="st0" d="M149.8,130.5v-14.2h4.7v12.5c0,0.7,0.1,1.1,0.4,1.4c0.3,0.2,0.7,0.3,1.4,0.3h5.8l-1,4.1h-7.5
		C151.1,134.6,149.8,133.2,149.8,130.5z"/>
	<path class="st0" d="M170.7,116.3h4.5l7.3,18.3h-5l-1.1-3.1h-6.8l-1.1,3.1h-5.2L170.7,116.3z M174.8,127.5l-1.8-5.1h-0.3l-1.8,5.1
		H174.8z"/>
	<path class="st0" d="M194.5,133.6c-1.5-0.8-2.6-1.9-3.3-3.3s-1.1-3-1.1-4.7c0-1.9,0.4-3.5,1.2-5c0.8-1.4,2-2.6,3.5-3.3
		c1.5-0.8,3.2-1.2,5.2-1.2c1.9,0,3.4,0.2,4.6,0.5l-0.4,4.1c-0.4-0.1-1-0.2-1.8-0.3c-0.8-0.1-1.5-0.1-2.3-0.1c-1,0-1.9,0.2-2.7,0.6
		s-1.4,1-1.9,1.7c-0.5,0.8-0.7,1.7-0.7,2.9c0,1.7,0.5,3,1.4,3.9s2.3,1.4,4,1.4c1.4,0,2.8-0.1,4.1-0.4l0.3,4c-0.5,0.2-1.2,0.3-2,0.4
		c-0.8,0.1-1.7,0.1-2.6,0.1C197.9,134.9,196,134.5,194.5,133.6z"/>
	<path class="st0" d="M209.2,133c-1.4-1.2-2.1-3.1-2.1-5.6v-11.1h4.7V127c0,1.2,0.3,2.1,0.9,2.8s1.4,1,2.6,1c1.1,0,1.9-0.3,2.4-1
		c0.5-0.6,0.8-1.6,0.8-2.8v-10.7h4.7v11.1c0,2.5-0.7,4.3-2.1,5.6c-1.4,1.2-3.4,1.9-6,1.9C212.6,134.9,210.6,134.2,209.2,133z"/>
	<path class="st0" d="M242.5,130.5l-1.1,4.1h-1.9c-0.7,0-1.3-0.1-1.7-0.3s-0.8-0.6-1.3-1.2l-2.9-3.7c-0.2-0.3-0.4-0.5-0.6-0.6
		c-0.2-0.1-0.4-0.1-0.8-0.1h-1.3v5.8h-4.7v-18.3h7.9c2.3,0,4.1,0.5,5.2,1.4c1.2,1,1.7,2.5,1.7,4.7c0,1.2-0.3,2.3-0.8,3.3
		c-0.5,0.9-1.3,1.6-2.3,2.1l1.6,2c0.2,0.2,0.4,0.4,0.6,0.5c0.2,0.1,0.5,0.1,0.9,0.1h1.5V130.5z M235.6,124.3
		c0.4-0.4,0.7-0.9,0.7-1.7c0-0.8-0.2-1.4-0.7-1.7c-0.4-0.3-1.1-0.5-2-0.5h-2.8v4.5h2.8C234.6,124.8,235.2,124.6,235.6,124.3z"/>
	<path class="st0" d="M244.3,116.3h4.7v18.3h-4.7V116.3z"/>
	<path class="st0" d="M256,133.7c-1.4-0.8-2.6-1.8-3.4-3.3c-0.8-1.4-1.3-3.1-1.3-5s0.4-3.6,1.2-5s2-2.5,3.4-3.2s3-1.1,4.8-1.1
		s3.4,0.4,4.8,1.1c1.4,0.8,2.6,1.8,3.4,3.3c0.8,1.4,1.2,3.1,1.2,5s-0.4,3.6-1.2,5c-0.8,1.4-2,2.5-3.4,3.3c-1.4,0.7-3,1.1-4.8,1.1
		C259,134.9,257.4,134.5,256,133.7z M263.2,130c0.7-0.5,1.2-1.1,1.6-1.9c0.4-0.8,0.5-1.7,0.5-2.7s-0.2-1.9-0.6-2.7
		c-0.4-0.8-0.9-1.4-1.6-1.9s-1.5-0.7-2.4-0.7c-1.4,0-2.5,0.5-3.3,1.5s-1.2,2.3-1.2,3.8c0,1,0.2,1.9,0.5,2.7c0.4,0.8,0.9,1.4,1.6,1.9
		s1.5,0.7,2.4,0.7C261.7,130.8,262.5,130.5,263.2,130z"/>
	<path class="st0" d="M274.8,134.6c-1.1-0.2-2-0.4-2.8-0.7l0.2-4.3c0.8,0.4,1.8,0.7,2.8,0.9s2,0.4,2.9,0.4c1.6,0,2.5-0.5,2.5-1.5
		c0-0.3-0.1-0.6-0.3-0.8c-0.2-0.2-0.6-0.4-1.1-0.6c-0.5-0.2-1.3-0.5-2.5-0.9c-1.6-0.5-2.7-1.2-3.4-2.1c-0.7-0.9-1-2.1-1-3.6
		c0-1.7,0.6-3,1.9-3.9s3.1-1.4,5.4-1.4c0.9,0,1.8,0,2.7,0.1c0.9,0.1,1.6,0.2,2.2,0.4l-0.1,4.1c-1.7-0.4-3.2-0.6-4.5-0.6
		c-1.8,0-2.7,0.4-2.7,1.2c0,0.3,0.1,0.6,0.2,0.7s0.5,0.4,0.9,0.6c0.5,0.2,1.2,0.4,2.2,0.7c1.3,0.4,2.3,0.8,3.1,1.3
		c0.7,0.5,1.2,1,1.5,1.7c0.3,0.6,0.4,1.4,0.4,2.4c0,1.9-0.6,3.4-1.9,4.5c-1.2,1.1-2.9,1.7-5.1,1.7
		C277.1,134.9,275.9,134.8,274.8,134.6z"/>
	<path class="st0" d="M287.3,116.3h4.7v18.3h-4.7V116.3z"/>
	<path class="st0" d="M295.1,116.3h7.1c1.7,0,3.1,0.2,4.3,0.5s2.2,0.8,3,1.5s1.5,1.7,1.9,2.8c0.4,1.2,0.6,2.6,0.6,4.2
		c0,1.5-0.2,2.9-0.7,4.1c-0.5,1.2-1.1,2.2-2,3c-1.6,1.5-3.7,2.2-6.5,2.2H295v-18.3H295.1z M302.2,130.6c1.6,0,2.8-0.4,3.6-1.3
		c0.9-0.9,1.4-2.2,1.4-4c0-1-0.1-1.8-0.3-2.4c-0.2-0.7-0.5-1.2-0.9-1.6c-0.7-0.7-1.9-1-3.4-1h-2.8v10.3H302.2z"/>
	<path class="st0" d="M319.4,116.3h4.5l7.3,18.3h-5l-1.1-3.1h-6.8l-1.1,3.1H312L319.4,116.3z M323.6,127.5l-1.8-5.1h-0.3l-1.8,5.1
		H323.6z"/>
	<path class="st0" d="M333,116.3h7.1c1.7,0,3.1,0.2,4.3,0.5s2.2,0.8,3,1.5s1.5,1.7,1.9,2.8c0.4,1.2,0.6,2.6,0.6,4.2
		c0,1.5-0.2,2.9-0.7,4.1c-0.5,1.2-1.1,2.2-2,3c-1.6,1.5-3.7,2.2-6.5,2.2H333V116.3z M340.1,130.6c1.6,0,2.8-0.4,3.6-1.3
		c0.9-0.9,1.4-2.2,1.4-4c0-1-0.1-1.8-0.3-2.4c-0.2-0.7-0.5-1.2-0.9-1.6c-0.7-0.7-1.9-1-3.4-1h-2.8v10.3H340.1z"/>
</g>
<g>
	<path class="st1" d="M202.4,83c4.2,3.1,8.4,8.2,10.1,17"/>
	<path class="st1" d="M213.1,80.5c4.5,4.6,8.5,9.9,10,19.7"/>
	<path class="st0" d="M195.1,26.9l2.3,6.9l6.9,2.3l-6.9,2.3l-2.3,6.9l-2.3-6.9l-6.9-2.3l6.9-2.3L195.1,26.9z M195.1,24.5
		c-1,0-1.9,0.7-2.3,1.6l-2,5.8l-5.8,2c-1,0.3-1.6,1.2-1.6,2.3c0,1,0.7,1.9,1.6,2.3l5.8,2l2,5.8c0.3,1,1.2,1.6,2.3,1.6
		c1,0,1.9-0.7,2.3-1.6l2-5.8l5.8-2c1-0.3,1.6-1.2,1.6-2.3c0-1-0.7-1.9-1.6-2.3l-5.8-2l-2-5.8C197,25.2,196.1,24.5,195.1,24.5"/>
	<path class="st1" d="M138.4,77.7c-8.6-10,0.9-25.7,13.7-23.7c1.9-20.8,39-20.4,39-1.7c28.8-18.6,41.1,34.1,9.5,30.7
		c-1.7,8-20.7,15.2-31.4,6.2"/>
	<path class="st1" d="M157.5,67.5c-11.9,5.8-21,17.4-23.7,32.9"/>
	<path class="st1" d="M160.6,76.3c-8,4.3-14.3,13.4-16.7,24.1"/>
	<path class="st1" d="M155.3,100.5c2.3-8.2,7.4-15.4,14-18.1"/>
	<path class="st1" d="M172.6,83.5c-0.1,0-0.2,0-0.3,0C164.4,81,158,73.9,158,67.6c0-8.7,6.4-15,15.2-15c5.5,0,10.7,2.5,13.8,6.6"/>
	<path class="st0" d="M223.8,40.7l1.9,5.7l5.7,1.9l-5.7,1.9l-1.9,5.7l-1.9-5.7l-5.7-1.9l5.7-1.9L223.8,40.7z M223.8,38.3
		c-1,0-1.9,0.7-2.3,1.6l-1.5,4.6l-4.6,1.5c-1,0.3-1.6,1.2-1.6,2.3c0,1,0.7,1.9,1.6,2.3l4.6,1.5l1.5,4.6c0.3,1,1.2,1.6,2.3,1.6
		c1,0,1.9-0.7,2.3-1.6l1.5-4.6l4.6-1.5c1-0.3,1.6-1.2,1.6-2.3c0-1-0.7-1.9-1.6-2.3l-4.6-1.5l-1.5-4.6
		C225.8,39,224.8,38.3,223.8,38.3"/>
	<path class="st0" d="M198.4,59.9l1.9,5.7l5.7,1.9l-5.7,1.9l-1.9,5.7l-1.9-5.7l-5.7-1.9l5.7-1.9L198.4,59.9z M198.4,57.5
		c-1,0-1.9,0.7-2.3,1.6l-1.5,4.6l-4.6,1.5c-1,0.3-1.6,1.2-1.6,2.3c0,1,0.7,1.9,1.6,2.3l4.6,1.5l1.5,4.6c0.3,1,1.2,1.6,2.3,1.6
		s1.9-0.7,2.3-1.6l1.5-4.6l4.6-1.5c1-0.3,1.6-1.2,1.6-2.3c0-1-0.7-1.9-1.6-2.3l-4.6-1.5l-1.5-4.6C200.3,58.2,199.4,57.5,198.4,57.5"
		/>
</g>
</svg>
