<?xml version="1.0" encoding="utf-8"?>
<!-- Generator: Adobe Illustrator 23.0.6, SVG Export Plug-In . SVG Version: 6.00 Build 0)  -->
<svg version="1.1" id="Capa_1" xmlns="http://www.w3.org/2000/svg" xmlns:xlink="http://www.w3.org/1999/xlink" x="0px" y="0px"
	 viewBox="0 0 168.9 157.1" style="enable-background:new 0 0 168.9 157.1;" xml:space="preserve">
<style type="text/css">
	.st0{enable-background:new    ;}
	.st1{fill:#870037;}
</style>
<g class="st0">
	<path class="st1" d="M39.4,121.9c-1.5-0.8-2.6-1.9-3.3-3.3s-1.1-3-1.1-4.7c0-1.9,0.4-3.5,1.2-5c0.8-1.4,2-2.6,3.5-3.3
		c1.5-0.8,3.2-1.2,5.2-1.2c1.9,0,3.4,0.2,4.6,0.5l-0.4,4.1c-0.4-0.1-1-0.2-1.8-0.3c-0.8-0.1-1.5-0.1-2.3-0.1c-1,0-1.9,0.2-2.7,0.6
		c-0.8,0.4-1.4,1-1.9,1.7c-0.5,0.8-0.7,1.7-0.7,2.9c0,1.7,0.5,3,1.4,3.9c0.9,0.9,2.3,1.4,4,1.4c1.4,0,2.8-0.1,4.1-0.4l0.3,4
		c-0.5,0.2-1.2,0.3-2,0.4c-0.8,0.1-1.7,0.1-2.6,0.1C42.8,123.2,40.9,122.7,39.4,121.9z"/>
</g>
<g class="st0">
	<path class="st1" d="M58.8,104.6h4.5l7.3,18.3h-5l-1.1-3.1h-6.8l-1.1,3.1h-5.2L58.8,104.6z M62.9,115.8l-1.8-5.1h-0.3l-1.8,5.1
		H62.9z"/>
</g>
<g class="st0">
	<path class="st1" d="M88.7,118.8l-1.1,4.1h-1.9c-0.7,0-1.3-0.1-1.7-0.3c-0.4-0.2-0.8-0.6-1.3-1.2l-2.9-3.7
		c-0.2-0.3-0.4-0.5-0.6-0.6c-0.2-0.1-0.4-0.1-0.8-0.1h-1.3v5.8h-4.7v-18.3h7.9c2.3,0,4.1,0.5,5.2,1.4c1.2,1,1.7,2.5,1.7,4.7
		c0,1.2-0.3,2.3-0.8,3.3c-0.5,0.9-1.3,1.6-2.3,2.1l1.6,2c0.2,0.2,0.4,0.4,0.6,0.5c0.2,0.1,0.5,0.1,0.9,0.1H88.7z M81.9,112.6
		c0.4-0.4,0.7-0.9,0.7-1.7c0-0.8-0.2-1.4-0.7-1.7s-1.1-0.5-2-0.5h-2.8v4.5H80C80.8,113.1,81.4,112.9,81.9,112.6z"/>
</g>
<g class="st0">
	<path class="st1" d="M90.5,104.6h4.7v18.3h-4.7V104.6z"/>
	<path class="st1" d="M98.2,104.6h3.2l8.5,9.9v-9.9h4.4v18.3h-3.1l-8.6-10.2v10.2h-4.4V104.6z"/>
	<path class="st1" d="M121.2,122c-1.5-0.8-2.6-1.9-3.3-3.3c-0.8-1.4-1.1-3-1.1-4.9c0-1.8,0.4-3.5,1.3-4.9s2.1-2.6,3.7-3.4
		c1.6-0.8,3.4-1.2,5.5-1.2c1.1,0,2.1,0.1,3.1,0.2c1,0.1,1.7,0.3,2.4,0.5l-0.4,4.1c-0.6-0.2-1.3-0.3-2.1-0.4
		c-0.8-0.1-1.7-0.2-2.7-0.2c-1.9,0-3.3,0.5-4.4,1.4c-1.1,0.9-1.6,2.2-1.6,3.9c0,1.7,0.5,3,1.4,3.9s2.2,1.4,3.9,1.4
		c0.8,0,1.4,0,1.8-0.1v-4.8l4.7-1.2v8.8c-0.8,0.4-1.9,0.8-3.1,1c-1.2,0.2-2.5,0.4-3.8,0.4C124.5,123.2,122.7,122.8,121.2,122z"/>
</g>
<path class="st1" d="M102.6,60c-0.7-2.9-2.7-4.9-5.7-5.8c-2.8-0.8-5.6,0.4-7.6,2c-2-1.6-4.8-2.8-7.6-2C78.8,55,76.8,57.1,76,60
	c-0.8,3.2,0.3,5.8,3.9,9.4l8.2,7.3l0,0c0.3,0.3,0.7,0.4,1,0.4c0.4,0,0.7-0.1,1-0.4l8.2-7.2C102.5,65.6,103.4,63.3,102.6,60
	 M89.4,74.3l-7.6-6.7c-3.7-3.7-3.7-5.4-3.3-7.1c0.4-1.4,1.3-3.3,3.9-4c0.4-0.1,0.8-0.2,1.1-0.2c1.8,0,3.7,1.1,4.9,2.4
	c0.5,0.5,1.3,0.4,1.7-0.1c1.5-1.4,3.8-2.8,6-2.2c2.6,0.7,3.6,2.6,3.9,4c0.5,1.8,0.5,3.3-3.3,7.1L89.4,74.3z"/>
<path class="st1" d="M75.6,85.1c0.4,0.5,0.8,1.3,1.1,2.3c0.4,1.5,0.4,1.4,0.4,5.6c0,0.7,0.6,1.3,1.3,1.3c0.7,0,1.3-0.6,1.3-1.3
	c0-2.5-0.1-4.9-0.6-6.3c-0.4-1.3-0.9-2.4-1.6-3.1c-0.8-1-1.6-1.7-2.3-2.5c-2.1-2.2-4-4.1-6.2-10c-1.3-3.6-4.6-18.2-5.4-22
	c-0.2-0.8,0-1.5,0.4-2s0.8-0.6,1.1-0.5c1,0.1,2.2,1.1,3.2,2.7c1.3,2.2,2.5,5.6,3.5,10.1c0.2,0.7,0.4,1.3,0.6,1.7s0.7,0.7,1.2,0.6
	c0.5-0.1,0.9-0.5,1-1c0.2-1.1,0.2-5.8,0-13.9c-0.1-7.7-0.3-16.4,0-20.8c0.1-1.9,1.3-3,2.4-3.1c1.2-0.1,2.2,0.9,2.7,2.7
	c0,0.1,0.1,0.2,0.1,0.3c0,9.3,0,21.3,0,21.5c0,0.7,0.5,1.2,1.2,1.2l0,0c0.7,0,1.2-0.6,1.2-1.2c0-0.2-0.1-19.3,0-28
	c0-2,1.7-3.1,3.4-3.1c1.4,0,2.9,1.1,2.9,2.6v13.9c0,8.2,0,11.4,0,12.7v0.8l0,0c0,0.1,0,0.1,0,0.1c0.1,0.6,0.6,1.1,1.3,1.1
	c0.7,0,1.2-0.6,1.2-1.2V23c0.2-1.9,1.9-2.3,3-2.3c1.2,0,2.5,0.7,2.5,2.3c0,9.1,0,27,0,27h2.4c0,0,0-9.1,0-17.6c0,0,0,0,0-0.1
	c0-1,1.2-1.7,2.4-1.7c0,0,0,0,0.1,0c1.5,0,3.2,1,3.3,3.7c0.1,1.5,0.1,3.1,0.2,4.6c0.7,17.1,1.5,34.7-3.9,44.8
	c-0.6,1.1-0.8,2.1-0.9,3.5c0,1,0.1,3.3,0.2,5.9c0,0.7,0.6,1.2,1.3,1.2c0.7,0,1.3-0.6,1.3-1.4c-0.2-3.7-0.4-4.5-0.4-5.6
	c0-1.2,0.3-1.9,0.6-2.5c5.7-10.7,4.9-28.7,4.2-46.1c-0.1-1.5-0.1-3.1-0.2-4.6c-0.2-4.3-3-6.1-5.8-6.1c-0.9,0-1.6,0.2-2.3,0.5
	c0-2.1,0-4,0-5.7c0-2.7-2-4.6-4.8-4.7c-1.1,0-2.1,0.2-3.1,0.7v-0.1c0-2.9-2.8-5-5.3-5h-0.1c-2.8,0-5.7,1.9-5.8,5.5
	c0,0.6,0,1.4,0,2.1c-1-0.7-2.1-1-3.1-0.9c-2.2,0.2-4.4,2.1-4.6,5.4c-0.3,4.5-0.1,13.2,0,21c0,1.8,0.1,3.7,0.1,5.5
	c-0.6-1.7-1.3-3.2-2-4.4c-1.4-2.3-3.3-3.7-5.1-3.8c-1.2-0.1-2.3,0.4-3.1,1.5c-0.9,1.1-1.2,2.6-0.9,4.1c0.6,2.7,4,18.4,5.5,22.4
	c2.4,6.4,4.5,8.6,6.7,10.8C74.1,83.5,74.9,84.2,75.6,85.1"/>
</svg>
