<?xml version="1.0" encoding="utf-8"?>
<!-- Generator: Adobe Illustrator 23.0.6, SVG Export Plug-In . SVG Version: 6.00 Build 0)  -->
<svg version="1.1" id="Capa_1" xmlns="http://www.w3.org/2000/svg" xmlns:xlink="http://www.w3.org/1999/xlink" x="0px" y="0px"
	 viewBox="0 0 279.7 157.1" style="enable-background:new 0 0 279.7 157.1;" xml:space="preserve">
<style type="text/css">
	.st0{enable-background:new    ;}
	.st1{fill:#870037;}
	.st2{fill:none;stroke:#870037;stroke-width:1.518;stroke-miterlimit:10;}
	.st3{fill:none;stroke:#870037;stroke-width:1.727;stroke-miterlimit:10;}
</style>
<g class="st0">
	<path class="st1" d="M19.2,112.9H24v18.3h-4.7V112.9z"/>
	<path class="st1" d="M27,112.9h3.2l8.5,9.9v-9.9h4.4v18.3H40l-8.6-10.2v10.2H27V112.9z"/>
	<path class="st1" d="M46.1,112.9h4.7v18.3h-4.7V112.9z"/>
	<path class="st1" d="M57.5,130.2c-1.5-0.8-2.6-1.9-3.3-3.3s-1.1-3-1.1-4.7c0-1.9,0.4-3.5,1.2-5c0.8-1.4,2-2.6,3.5-3.3
		c1.5-0.8,3.2-1.2,5.2-1.2c1.9,0,3.4,0.2,4.6,0.5l-0.4,4.1c-0.4-0.1-1-0.2-1.8-0.3c-0.8-0.1-1.5-0.1-2.3-0.1c-1,0-1.9,0.2-2.7,0.6
		c-0.8,0.4-1.4,1-1.9,1.7c-0.5,0.8-0.7,1.7-0.7,2.9c0,1.7,0.5,3,1.4,3.9c0.9,0.9,2.3,1.4,4,1.4c1.4,0,2.8-0.1,4.1-0.4l0.3,4
		c-0.5,0.2-1.2,0.3-2,0.4c-0.8,0.1-1.7,0.1-2.6,0.1C60.9,131.4,59,131,57.5,130.2z"/>
	<path class="st1" d="M70.3,112.9H75v18.3h-4.7V112.9z"/>
</g>
<g class="st0">
	<path class="st1" d="M84.1,112.9h4.5l7.3,18.3h-5l-1.1-3.1h-6.8l-1.1,3.1h-5.2L84.1,112.9z M88.2,124l-1.8-5.1h-0.3l-1.8,5.1H88.2z
		"/>
</g>
<g class="st0">
	<path class="st1" d="M99.8,117h-5.3v-4.1h15.8l-1,4.1h-4.7v14.2h-4.8V117z"/>
	<path class="st1" d="M112.1,112.9h4.7v18.3h-4.7V112.9z"/>
</g>
<g class="st0">
	<path class="st1" d="M118.5,112.9h5.4l4.4,11.3h0.3l3.9-11.3h5.5l-7.6,18.3h-4L118.5,112.9z"/>
</g>
<g class="st0">
	<path class="st1" d="M142.9,112.9h4.5l7.3,18.3h-5l-1.1-3.1h-6.8l-1.1,3.1h-5.2L142.9,112.9z M147,124l-1.8-5.1H145l-1.8,5.1H147z"
		/>
</g>
<g class="st0">
	<path class="st1" d="M163,112.9h7.1c1.7,0,3.1,0.2,4.3,0.5s2.2,0.8,3,1.5c0.8,0.7,1.5,1.7,1.9,2.8c0.4,1.2,0.6,2.6,0.6,4.2
		c0,1.5-0.2,2.9-0.7,4.1c-0.4,1.2-1.1,2.2-2,3c-1.6,1.5-3.7,2.2-6.5,2.2H163V112.9z M170.1,127.2c1.6,0,2.8-0.4,3.6-1.3
		c0.9-0.9,1.3-2.2,1.3-4c0-1-0.1-1.8-0.3-2.4c-0.2-0.7-0.5-1.2-0.9-1.6c-0.7-0.7-1.9-1-3.4-1h-2.8v10.3H170.1z"/>
	<path class="st1" d="M182.2,112.9h4.7v18.3h-4.7V112.9z"/>
	<path class="st1" d="M193.8,130.3c-1.5-0.8-2.6-1.9-3.3-3.3c-0.8-1.4-1.1-3-1.1-4.9c0-1.8,0.4-3.5,1.3-4.9c0.9-1.4,2.1-2.6,3.7-3.4
		c1.6-0.8,3.4-1.2,5.5-1.2c1.1,0,2.1,0.1,3.1,0.2s1.7,0.3,2.4,0.5l-0.4,4.1c-0.6-0.2-1.3-0.3-2.1-0.4c-0.8-0.1-1.7-0.2-2.7-0.2
		c-1.9,0-3.3,0.5-4.4,1.4s-1.6,2.2-1.6,3.9c0,1.7,0.5,3,1.4,3.9c1,0.9,2.2,1.4,3.9,1.4c0.8,0,1.4,0,1.8-0.1v-4.8l4.7-1.2v8.8
		c-0.8,0.4-1.9,0.8-3.1,1c-1.2,0.2-2.5,0.4-3.8,0.4C197.1,131.4,195.3,131,193.8,130.3z"/>
	<path class="st1" d="M208.9,112.9h4.7v18.3h-4.7V112.9z"/>
</g>
<g class="st0">
	<path class="st1" d="M220.8,117h-5.3v-4.1h15.8l-1,4.1h-4.7v14.2h-4.8V117z"/>
</g>
<g class="st0">
	<path class="st1" d="M236.7,112.9h4.5l7.3,18.3h-5l-1.1-3.1h-6.8l-1.1,3.1h-5.2L236.7,112.9z M240.8,124L239,119h-0.3L237,124
		H240.8z"/>
</g>
<g class="st0">
	<path class="st1" d="M249.7,127.1v-14.2h4.7v12.5c0,0.7,0.1,1.1,0.4,1.3c0.3,0.2,0.7,0.3,1.4,0.3h5.8l-1,4.1h-7.5
		C251,131.2,249.7,129.8,249.7,127.1z"/>
</g>
<path class="st1" d="M117.3,76.4c-0.5,0-0.9-0.3-1.1-0.7c-1.3-3.2-2-6.5-2-10c0-0.7,0.5-1.2,1.2-1.2s1.2,0.5,1.2,1.2
	c0,3.1,0.6,6.2,1.8,9c0.3,0.6,0,1.3-0.6,1.6C117.6,76.4,117.5,76.4,117.3,76.4"/>
<path class="st1" d="M161.6,79.2c-0.2,0-0.3,0-0.5-0.1c-0.6-0.3-0.9-1-0.6-1.6c1-2.2,1.7-4.5,2-7c0.1-0.7,0.7-1.1,1.4-1.1
	c0.7,0.1,1.1,0.7,1.1,1.4c-0.3,2.7-1.1,5.3-2.2,7.7C162.5,79,162.1,79.2,161.6,79.2"/>
<path class="st1" d="M164.3,66.9c-0.7,0-1.2-0.5-1.2-1.2c0-9.4-5.6-17.8-14.2-21.4c-0.6-0.3-0.9-1-0.6-1.6c0.3-0.6,1-0.9,1.6-0.6
	c9.5,4,15.7,13.3,15.7,23.7C165.5,66.3,165,66.9,164.3,66.9"/>
<path class="st1" d="M116.7,58.8c-0.1,0-0.3,0-0.4-0.1c-0.6-0.2-1-0.9-0.7-1.5c3.6-10.3,13.3-17.2,24.2-17.2c0.7,0,1.2,0.5,1.2,1.2
	s-0.5,1.2-1.2,1.2c-9.9,0-18.7,6.3-22,15.6C117.7,58.5,117.2,58.8,116.7,58.8"/>
<path class="st1" d="M120.4,69.2c-0.6,0-1.1-0.5-1.2-1.1c-0.1-0.8-0.2-1.7-0.2-2.5c0-7.4,4-14.3,10.3-18c0.6-0.3,1.3-0.1,1.7,0.4
	c0.3,0.6,0.1,1.3-0.4,1.7c-5.6,3.3-9.1,9.4-9.1,15.9c0,0.7,0,1.5,0.1,2.2s-0.4,1.3-1.1,1.3C120.5,69.2,120.5,69.2,120.4,69.2"/>
<path class="st1" d="M151.9,51.4c-0.3,0-0.5-0.1-0.7-0.3c-3.2-2.5-7.1-3.9-11.3-3.9c-0.9,0-1.8,0.1-2.7,0.2c-0.7,0.1-1.3-0.4-1.4-1
	c-0.1-0.7,0.4-1.3,1-1.4c1-0.1,2-0.2,3-0.2c4.7,0,9.1,1.5,12.8,4.4c0.5,0.4,0.6,1.2,0.2,1.7C152.6,51.3,152.2,51.4,151.9,51.4"/>
<path class="st1" d="M152.7,87.7c-0.3,0-0.5-0.1-0.8-0.3c-0.5-0.4-0.6-1.2-0.2-1.7c6.3-7.7,9.3-21,3.5-30c-0.4-0.6-0.2-1.3,0.4-1.7
	c0.6-0.4,1.3-0.2,1.7,0.4c3,4.6,4.1,10.6,3.2,17c-0.8,5.8-3.3,11.6-6.9,15.9C153.4,87.5,153.1,87.7,152.7,87.7"/>
<path class="st1" d="M141.1,74.2c-0.6,0-1.2-0.5-1.2-1.2c-0.1-2.3-0.4-4.6-1-6.7c-0.2-0.6,0.2-1.3,0.9-1.5c0.6-0.2,1.3,0.2,1.5,0.9
	c0.6,2.3,1,4.7,1.1,7.3C142.3,73.6,141.8,74.2,141.1,74.2L141.1,74.2"/>
<path class="st1" d="M138.3,91.3c-0.2,0-0.3,0-0.5-0.1c-0.6-0.2-0.9-1-0.7-1.6c1.6-4,2.6-8.3,2.9-12.5c0-0.7,0.6-1.2,1.3-1.1
	c0.7,0,1.2,0.6,1.1,1.3c-0.3,4.4-1.4,8.9-3.1,13.2C139.2,91,138.8,91.3,138.3,91.3"/>
<path class="st1" d="M120.7,82.1c-0.1,0-0.2,0-0.3,0c-0.6-0.2-1-0.9-0.8-1.5c0.7-2.3,0.9-4.9,0.5-7.4c-0.1-0.7,0.4-1.3,1.1-1.4
	s1.3,0.4,1.4,1.1c0.4,2.8,0.1,5.7-0.6,8.4C121.7,81.7,121.2,82.1,120.7,82.1"/>
<path class="st1" d="M154.7,66.9c-0.7,0-1.2-0.5-1.2-1.2c0-4.5-2.2-8.7-5.9-11.2c-0.6-0.4-0.7-1.1-0.3-1.7s1.1-0.7,1.7-0.3
	c4.4,3,7,7.9,7,13.2C155.9,66.3,155.3,66.9,154.7,66.9"/>
<path class="st1" d="M125,66.9c-0.7,0-1.2-0.5-1.2-1.2c0-8.8,7.2-16,16-16c0.5,0,1.1,0,1.6,0.1c0.7,0.1,1.1,0.7,1.1,1.3
	c-0.1,0.7-0.7,1.2-1.3,1.1c-0.5,0-0.9-0.1-1.4-0.1c-7.5,0-13.6,6.1-13.6,13.6C126.2,66.3,125.7,66.9,125,66.9"/>
<path class="st1" d="M124.6,86c-0.1,0-0.3,0-0.4-0.1c-0.6-0.2-0.9-0.9-0.7-1.6c1-2.6,1.5-5.4,1.5-8.2c0-1.8-0.2-3.7-0.6-5.5
	c-0.2-0.7,0.2-1.3,0.9-1.5c0.7-0.2,1.3,0.2,1.5,0.9c0.5,2,0.7,4,0.7,6c0,3.1-0.6,6.2-1.6,9.1C125.6,85.7,125.1,86,124.6,86"/>
<path class="st1" d="M143.1,91.4c-0.4,0-0.8-0.2-1-0.5c-0.4-0.6-0.2-1.3,0.3-1.7c6.1-4.2,10-10.6,11-18.1c0.1-0.7,0.7-1.1,1.4-1
	s1.1,0.7,1,1.4c-1.1,8.2-5.4,15.2-12.1,19.8C143.5,91.3,143.3,91.4,143.1,91.4"/>
<path class="st1" d="M131.1,62.3c-0.2,0-0.4,0-0.6-0.1c-0.6-0.3-0.8-1-0.5-1.6c1.9-3.7,5.7-5.9,9.8-5.9c2.8,0,5.4,1,7.4,2.9
	c0.5,0.4,0.5,1.2,0.1,1.7c-0.5,0.5-1.2,0.5-1.7,0.1c-1.6-1.4-3.6-2.2-5.8-2.2c-3.2,0-6.2,1.8-7.6,4.6
	C132,62.1,131.6,62.3,131.1,62.3"/>
<path class="st1" d="M131.6,78.6c-0.7,0-1.2-0.5-1.2-1.2c0-3.5-0.5-6.9-1.4-10.2c-0.2-0.6,0.2-1.3,0.8-1.5s1.3,0.2,1.5,0.8
	c1,3.5,1.5,7.2,1.5,10.9C132.8,78,132.2,78.6,131.6,78.6L131.6,78.6z"/>
<path class="st1" d="M129.3,88.9c-0.2,0-0.3,0-0.5-0.1c-0.6-0.3-0.9-1-0.6-1.6c0.8-1.7,1.4-3.6,1.7-5.5c0.1-0.7,0.7-1.1,1.4-1
	s1.1,0.7,1,1.4c-0.3,2.1-1,4.2-1.8,6.1C130.2,88.6,129.7,88.9,129.3,88.9"/>
<path class="st1" d="M150.7,73.1C150.7,73.1,150.6,73.1,150.7,73.1c-0.7,0-1.3-0.6-1.2-1.3c0.2-2.9-0.2-5.7-1.1-8.3
	c-0.2-0.6,0.1-1.3,0.7-1.5c0.6-0.2,1.3,0.1,1.5,0.7c1,3,1.5,6.1,1.3,9.3C151.9,72.6,151.3,73.1,150.7,73.1"/>
<path class="st1" d="M133.5,90.5c-0.2,0-0.3,0-0.5-0.1c-0.6-0.3-0.9-1-0.6-1.6c0.6-1.3,1.1-2.6,1.4-3.9c0.2-0.6,0.9-1,1.5-0.8
	s1,0.9,0.8,1.5c-0.4,1.4-0.9,2.9-1.6,4.3C134.4,90.2,134,90.5,133.5,90.5"/>
<path class="st1" d="M135.8,82.6c-0.1,0-0.1,0-0.2,0c-0.7-0.1-1.1-0.7-1-1.4c0.3-1.9,0.4-3.8,0.2-5.8c-0.1-0.9-0.2-1.8-0.3-2.8
	c-0.1-0.7,0.3-1.3,1-1.4s1.3,0.3,1.4,1c0.2,1,0.3,2,0.3,3c0.1,2.1,0,4.2-0.3,6.3C136.9,82.2,136.4,82.6,135.8,82.6"/>
<path class="st1" d="M146.5,74.7c-0.7,0-1.2-0.5-1.2-1.2c0-4.1-1.1-11.7-5.4-11.7c-2.2,0-3.9,1.8-3.9,3.9c0,0.1,0,0.1,0,0.2
	c0,0.7-0.5,1.2-1.1,1.3c-0.7,0-1.2-0.5-1.3-1.1c0-0.1,0-0.2,0-0.4c0-3.5,2.8-6.3,6.3-6.3c5.8,0,7.8,7.6,7.8,14.2
	C147.7,74.1,147.1,74.7,146.5,74.7"/>
<path class="st1" d="M144.1,85.6c-0.2,0-0.3,0-0.5-0.1c-0.6-0.3-0.9-1-0.6-1.6c0.9-2.1,1.6-4.2,1.9-6.5c0.1-0.7,0.7-1.1,1.4-1
	s1.1,0.7,1,1.4c-0.4,2.4-1.1,4.8-2.1,7.1C145,85.3,144.6,85.6,144.1,85.6"/>
<ellipse class="st2" cx="139.8" cy="65.7" rx="34" ry="34"/>
<path class="st3" d="M102.9,54.4c3.2-10.5,10.8-19.1,20.5-23.7"/>
<path class="st3" d="M139.8,27.1c21.3,0,38.6,17.3,38.6,38.6s-17.3,38.6-38.6,38.6S101.2,87,101.2,65.7"/>
</svg>
