<?xml version="1.0" encoding="utf-8"?>
<!-- Generator: Adobe Illustrator 23.0.6, SVG Export Plug-In . SVG Version: 6.00 Build 0)  -->
<svg version="1.1" id="Capa_1" xmlns="http://www.w3.org/2000/svg" xmlns:xlink="http://www.w3.org/1999/xlink" x="0px" y="0px"
	 viewBox="0 0 205.8 157.1" style="enable-background:new 0 0 205.8 157.1;" xml:space="preserve">
<style type="text/css">
	.st0{enable-background:new    ;}
	.st1{fill:#870037;}
	.st2{fill:none;stroke:#870037;stroke-width:2.23;stroke-linecap:round;stroke-linejoin:round;stroke-miterlimit:10;}
</style>
<g class="st0">
	<path class="st1" d="M37.7,112.6h4.7v18.3h-4.7V112.6z"/>
	<path class="st1" d="M45.4,112.6h3.2l8.5,9.9v-9.9h4.4v18.3h-3.1l-8.6-10.2v10.2h-4.4V112.6z"/>
</g>
<g class="st0">
	<path class="st1" d="M68.4,129.9c-1.5-0.8-2.6-1.9-3.3-3.3s-1.1-3-1.1-4.7c0-1.9,0.4-3.5,1.2-5c0.8-1.4,2-2.6,3.5-3.3
		c1.5-0.8,3.2-1.2,5.2-1.2c1.9,0,3.4,0.2,4.6,0.5l-0.4,4.1c-0.4-0.1-1-0.2-1.8-0.3c-0.8-0.1-1.5-0.1-2.3-0.1c-1,0-1.9,0.2-2.7,0.6
		c-0.8,0.4-1.4,1-1.9,1.7c-0.5,0.8-0.7,1.7-0.7,2.9c0,1.7,0.5,3,1.4,3.9c0.9,0.9,2.3,1.4,4,1.4c1.4,0,2.8-0.1,4.1-0.4l0.3,4
		c-0.5,0.2-1.2,0.3-2,0.4c-0.8,0.1-1.7,0.1-2.6,0.1C71.7,131.1,69.9,130.7,68.4,129.9z"/>
</g>
<g class="st0">
	<path class="st1" d="M80.8,126.8v-14.2h4.7v12.5c0,0.7,0.1,1.1,0.4,1.3c0.3,0.2,0.7,0.3,1.4,0.3H93l-1,4.1h-7.5
		C82,130.8,80.8,129.5,80.8,126.8z"/>
</g>
<g class="st0">
	<path class="st1" d="M96.5,129.3c-1.4-1.2-2.1-3.1-2.1-5.6v-11.1h4.7v10.7c0,1.2,0.3,2.1,0.9,2.8s1.4,1,2.6,1c1.1,0,1.9-0.3,2.4-1
		s0.8-1.6,0.8-2.8v-10.7h4.7v11.1c0,2.5-0.7,4.3-2.1,5.6s-3.4,1.9-6,1.9C99.9,131.1,97.9,130.5,96.5,129.3z"/>
</g>
<g class="st0">
	<path class="st1" d="M115.7,130.8c-1.1-0.2-2-0.4-2.8-0.7l0.2-4.3c0.8,0.4,1.8,0.7,2.8,0.9c1,0.2,2,0.4,2.9,0.4
		c1.6,0,2.5-0.5,2.5-1.5c0-0.3-0.1-0.6-0.3-0.8c-0.2-0.2-0.6-0.4-1.1-0.6c-0.5-0.2-1.3-0.5-2.5-0.8c-1.6-0.5-2.7-1.2-3.4-2.1
		c-0.7-0.9-1-2.1-1-3.6c0-1.7,0.6-3,1.9-3.9c1.3-0.9,3.1-1.4,5.4-1.4c0.9,0,1.8,0,2.7,0.1s1.6,0.2,2.2,0.4l-0.1,4.1
		c-1.7-0.4-3.2-0.6-4.5-0.6c-1.8,0-2.7,0.4-2.7,1.2c0,0.3,0.1,0.6,0.2,0.7c0.2,0.2,0.5,0.4,0.9,0.6s1.2,0.4,2.2,0.7
		c1.3,0.4,2.3,0.8,3.1,1.3c0.7,0.5,1.2,1,1.5,1.7c0.3,0.6,0.4,1.4,0.4,2.4c0,1.9-0.6,3.4-1.9,4.5c-1.2,1.1-2.9,1.7-5.1,1.7
		C118,131.1,116.8,131,115.7,130.8z"/>
	<path class="st1" d="M128.2,112.6h4.7v18.3h-4.7V112.6z"/>
	<path class="st1" d="M134.6,112.6h5.4l4.4,11.3h0.3l3.9-11.3h5.5l-7.6,18.3h-4L134.6,112.6z"/>
	<path class="st1" d="M155.8,112.6h13.3l-1,4.1h-7.6v3.2h6.8l-0.2,4h-6.6v2.9h8.6l-1,4.1h-12.4V112.6z"/>
</g>
<path class="st2" d="M111.8,49c0-4.1-3.4-7.5-7.5-7.5c-1,0-2,0.2-2.8,0.6v-2.5c-3.2-3.6-9.1-10.1-18.2-10.1
	C69,29.6,60.2,43,60.2,55.5c0,3.8,0.8,7.4,2.3,10.9h14.9c-0.5-1-0.9-2.2-0.9-3.5c0-4.1,3.4-7.5,7.5-7.5s7.5,3.4,7.5,7.5
	c0,1.3-0.3,2.4-0.9,3.5h10.7V56c0.9,0.4,1.8,0.6,2.8,0.6C108.5,56.5,111.8,53.2,111.8,49z"/>
<path class="st2" d="M91.7,62.9c0-4.1-3.4-7.5-7.5-7.5s-7.5,3.4-7.5,7.5c0,1.3,0.3,2.4,0.9,3.5H62.5c5.3,12.2,19.1,23.1,36.9,36.1
	c0.6,0.4,1.3,0.7,2,0.7V90.4c-1,0.5-2.2,0.9-3.5,0.9c-4.1,0-7.5-3.4-7.5-7.5s3.4-7.5,7.5-7.5c1.3,0,2.4,0.3,3.5,0.9V66.4H90.8
	C91.3,65.3,91.7,64.1,91.7,62.9z"/>
<path class="st2" d="M125.5,66.4c0.5,1,0.9,2.2,0.9,3.5c0,4.1-3.4,7.5-7.5,7.5s-7.5-3.4-7.5-7.5c0-1.3,0.3-2.4,0.9-3.5h-10.7v10.7
	c-1-0.5-2.2-0.9-3.5-0.9c-4.1,0-7.5,3.4-7.5,7.5s3.4,7.5,7.5,7.5c1.3,0,2.4-0.3,3.5-0.9v12.8l0,0c0.7,0,1.4-0.2,2-0.7
	c17.8-13.1,31.6-24,36.9-36.1L125.5,66.4L125.5,66.4z"/>
<path class="st2" d="M119.7,29.6c-9.1,0-15,6.5-18.2,10.1l0,0v2.5c0.9-0.4,1.8-0.6,2.8-0.6c4.1,0,7.5,3.4,7.5,7.5s-3.4,7.5-7.5,7.5
	c-1,0-2-0.2-2.8-0.6v10.4h10.7c-0.5,1-0.9,2.2-0.9,3.5c0,4.1,3.4,7.5,7.5,7.5s7.5-3.4,7.5-7.5c0-1.3-0.3-2.4-0.9-3.5h14.9
	c1.5-3.5,2.3-7.1,2.3-10.9C142.7,43,133.9,29.6,119.7,29.6z"/>
</svg>
