<?xml version="1.0" encoding="utf-8"?>
<!-- Generator: Adobe Illustrator 23.0.6, SVG Export Plug-In . SVG Version: 6.00 Build 0)  -->
<svg version="1.1" id="Capa_1" xmlns="http://www.w3.org/2000/svg" xmlns:xlink="http://www.w3.org/1999/xlink" x="0px" y="0px"
	 viewBox="0 0 205.8 157.1" style="enable-background:new 0 0 205.8 157.1;" xml:space="preserve">
<style type="text/css">
	.st0{fill:#870037;}
	.st1{font-family:'ColgateReady-Heavy';}
	.st2{font-size:27px;}
	.st3{fill:none;stroke:#870037;stroke-width:2.23;stroke-linecap:round;stroke-linejoin:round;stroke-miterlimit:10;}
</style>
<text transform="matrix(1 0 0 1 36.2289 130.8321)" class="st0 st1 st2">IN</text>
<text transform="matrix(1 0 0 1 63.1289 130.8321)" class="st0 st1 st2">C</text>
<text transform="matrix(1 0 0 1 79.3289 130.8321)" class="st0 st1 st2">L</text>
<text transform="matrix(1 0 0 1 93.0289 130.8321)" class="st0 st1 st2">U</text>
<text transform="matrix(1 0 0 1 112.1289 130.8321)" class="st0 st1 st2">SIVE</text>
<path class="st3" d="M111.8,49c0-4.1-3.4-7.5-7.5-7.5c-1,0-2,0.2-2.8,0.6v-2.5c-3.2-3.6-9.1-10.1-18.2-10.1
	C69,29.6,60.2,43,60.2,55.5c0,3.8,0.8,7.4,2.3,10.9h14.9c-0.5-1-0.9-2.2-0.9-3.5c0-4.1,3.4-7.5,7.5-7.5s7.5,3.4,7.5,7.5
	c0,1.3-0.3,2.4-0.9,3.5h10.7V56c0.9,0.4,1.8,0.6,2.8,0.6C108.5,56.5,111.8,53.2,111.8,49z"/>
<path class="st3" d="M91.7,62.9c0-4.1-3.4-7.5-7.5-7.5s-7.5,3.4-7.5,7.5c0,1.3,0.3,2.4,0.9,3.5H62.5c5.3,12.2,19.1,23.1,36.9,36.1
	c0.6,0.4,1.3,0.7,2,0.7V90.4c-1,0.5-2.2,0.9-3.5,0.9c-4.1,0-7.5-3.4-7.5-7.5s3.4-7.5,7.5-7.5c1.3,0,2.4,0.3,3.5,0.9V66.4H90.8
	C91.3,65.3,91.7,64.1,91.7,62.9z"/>
<path class="st3" d="M125.5,66.4c0.5,1,0.9,2.2,0.9,3.5c0,4.1-3.4,7.5-7.5,7.5s-7.5-3.4-7.5-7.5c0-1.3,0.3-2.4,0.9-3.5h-10.7v10.7
	c-1-0.5-2.2-0.9-3.5-0.9c-4.1,0-7.5,3.4-7.5,7.5s3.4,7.5,7.5,7.5c1.3,0,2.4-0.3,3.5-0.9v12.8l0,0c0.7,0,1.4-0.2,2-0.7
	c17.8-13.1,31.6-24,36.9-36.1L125.5,66.4L125.5,66.4z"/>
<path class="st3" d="M119.7,29.6c-9.1,0-15,6.5-18.2,10.1l0,0v2.5c0.9-0.4,1.8-0.6,2.8-0.6c4.1,0,7.5,3.4,7.5,7.5s-3.4,7.5-7.5,7.5
	c-1,0-2-0.2-2.8-0.6v10.4h10.7c-0.5,1-0.9,2.2-0.9,3.5c0,4.1,3.4,7.5,7.5,7.5s7.5-3.4,7.5-7.5c0-1.3-0.3-2.4-0.9-3.5h14.9
	c1.5-3.5,2.3-7.1,2.3-10.9C142.7,43,133.9,29.6,119.7,29.6z"/>
</svg>
