<?xml version="1.0" encoding="utf-8"?>
<!-- Generator: Adobe Illustrator 23.0.6, SVG Export Plug-In . SVG Version: 6.00 Build 0)  -->
<svg version="1.1" id="Capa_1" xmlns="http://www.w3.org/2000/svg" xmlns:xlink="http://www.w3.org/1999/xlink" x="0px" y="0px"
	 viewBox="0 0 530.2 529.1" style="enable-background:new 0 0 530.2 529.1;" xml:space="preserve">
<style type="text/css">
	.st0{enable-background:new    ;}
	.st1{fill:#870037;}
	.st2{fill:#FFFFFF;}
	.st3{fill:#BE1E2D;}
	.st4{fill:#FF2C46;}
	.st5{fill:#FEC61E;}
	.st6{fill:#FEE37C;}
	.st7{fill:#FE8B00;}
	.st8{fill:#FEBE01;}
</style>
<g>
	<g class="st0">
		<path class="st1" d="M87.2,253.3c-1.3-0.3-2.6-0.8-3.8-1.4l0.5-2.3c1.1,0.6,2.2,1.1,3.6,1.4c1.3,0.4,2.6,0.5,3.7,0.5
			c2.1,0,3.6-0.4,4.7-1.3c1.1-0.9,1.6-2,1.6-3.4c0-0.9-0.2-1.6-0.5-2.1c-0.3-0.5-0.9-1-1.7-1.4c-0.8-0.4-2-0.9-3.5-1.4
			c-1.8-0.6-3.3-1.2-4.4-1.8c-1.1-0.6-1.9-1.3-2.4-2.2c-0.5-0.8-0.8-1.9-0.8-3.1c0-1.9,0.8-3.4,2.4-4.5c1.6-1.1,3.5-1.7,5.9-1.7
			c2.1,0,4.2,0.4,6.4,1.1l-0.3,2.4c-2.2-0.8-4.2-1.2-6-1.2c-1.9,0-3.3,0.3-4.2,1c-0.9,0.7-1.4,1.6-1.4,2.8c0,0.9,0.2,1.6,0.5,2.1
			c0.3,0.5,0.9,1,1.7,1.4c0.8,0.4,2,0.9,3.5,1.4c1.9,0.6,3.4,1.2,4.4,1.8c1,0.5,1.8,1.2,2.3,2.1c0.5,0.8,0.8,1.9,0.8,3.3
			c0,2.2-0.8,3.9-2.5,5.1c-1.7,1.2-3.8,1.9-6.4,1.9C89.9,253.8,88.6,253.6,87.2,253.3z"/>
	</g>
	<g class="st0">
		<path class="st1" d="M109.4,252.5c-1.4-0.9-2.4-2-3.2-3.5c-0.7-1.5-1.1-3.1-1.1-5c0-1.8,0.4-3.5,1.1-5c0.7-1.5,1.8-2.6,3.3-3.5
			c1.4-0.9,3.2-1.3,5.2-1.3c1.9,0,3.5,0.4,4.9,1.3c1.4,0.9,2.4,2,3.1,3.5c0.7,1.5,1.1,3.1,1.1,5c0,1.8-0.4,3.4-1.1,4.9
			c-0.7,1.5-1.8,2.7-3.2,3.5c-1.4,0.9-3.1,1.3-5.2,1.3C112.4,253.8,110.8,253.4,109.4,252.5z M119.3,249.7c1.2-1.4,1.8-3.3,1.8-5.6
			c0-2.4-0.6-4.2-1.8-5.6c-1.2-1.4-2.8-2.1-4.8-2.1c-2,0-3.6,0.7-4.8,2.1c-1.2,1.4-1.8,3.2-1.8,5.6c0,1.6,0.3,2.9,0.8,4.1
			s1.3,2.1,2.3,2.7c1,0.6,2.1,0.9,3.4,0.9C116.5,251.7,118.1,251.1,119.3,249.7z"/>
	</g>
	<g class="st0">
		<path class="st1" d="M129.7,234.6h2.3l0.2,1.7c0.9-0.6,1.9-1.1,3-1.5c1.1-0.4,2.2-0.6,3.3-0.6c1.1,0,2,0.2,2.9,0.6
			c0.9,0.4,1.6,1,2.1,1.7c1-0.7,2.1-1.2,3.3-1.6c1.2-0.4,2.4-0.6,3.6-0.6c2,0,3.6,0.6,4.6,1.7c1.1,1.1,1.6,2.8,1.6,5v12.4h-2.6V242
			c0-1.7-0.3-3-0.8-3.9c-0.6-1.1-1.8-1.7-3.6-1.7c-0.9,0-1.8,0.2-2.9,0.6c-1.1,0.4-2,0.9-2.7,1.4c0.2,0.8,0.3,1.8,0.3,3v12h-2.6V242
			c0-1,0-1.7-0.1-2.3c-0.1-0.6-0.3-1.1-0.5-1.6c-0.6-1.1-1.8-1.7-3.4-1.7c-1,0-2,0.2-3,0.6c-1,0.4-1.8,0.9-2.5,1.4v14.9h-2.6V234.6z
			"/>
		<path class="st1" d="M166.4,252.5c-1.4-0.9-2.4-2-3.2-3.5c-0.7-1.5-1.1-3.1-1.1-5c0-1.8,0.4-3.5,1.1-5c0.7-1.5,1.8-2.6,3.3-3.5
			c1.4-0.9,3.2-1.3,5.2-1.3c1.9,0,3.5,0.4,4.9,1.3c1.4,0.9,2.4,2,3.1,3.5c0.7,1.5,1.1,3.1,1.1,5c0,1.8-0.4,3.4-1.1,4.9
			c-0.7,1.5-1.8,2.7-3.2,3.5c-1.4,0.9-3.1,1.3-5.2,1.3C169.4,253.8,167.8,253.4,166.4,252.5z M176.3,249.7c1.2-1.4,1.8-3.3,1.8-5.6
			c0-2.4-0.6-4.2-1.8-5.6c-1.2-1.4-2.8-2.1-4.8-2.1c-2,0-3.6,0.7-4.8,2.1c-1.2,1.4-1.8,3.2-1.8,5.6c0,1.6,0.3,2.9,0.8,4.1
			s1.3,2.1,2.3,2.7c1,0.6,2.1,0.9,3.4,0.9C173.5,251.7,175.1,251.1,176.3,249.7z"/>
	</g>
	<g class="st0">
		<path class="st1" d="M188.9,253.4c-1.1-0.3-2-0.6-2.8-1l0.3-2.2c0.9,0.5,1.8,0.8,2.8,1.1s2,0.4,3,0.4c1.4,0,2.4-0.3,3.2-0.8
			c0.8-0.6,1.1-1.3,1.1-2.3c0-0.7-0.1-1.2-0.4-1.6c-0.3-0.4-0.7-0.7-1.2-1c-0.5-0.3-1.4-0.6-2.6-1c-2.1-0.8-3.6-1.6-4.5-2.4
			c-0.9-0.9-1.3-1.9-1.3-3.3c0-1.5,0.6-2.7,1.8-3.5c1.2-0.9,2.8-1.3,4.8-1.3c1.6,0,3.2,0.3,4.8,0.8l-0.3,2.1c-1.6-0.6-3-0.8-4.5-0.8
			c-1.3,0-2.3,0.2-3.1,0.7c-0.7,0.5-1.1,1.1-1.1,2c0,0.8,0.3,1.4,0.9,2c0.6,0.6,1.7,1.1,3.4,1.7c1.9,0.6,3.3,1.4,4.2,2.2
			s1.3,1.9,1.3,3.3c0,1.8-0.6,3.1-1.9,4.1c-1.3,1-2.9,1.5-4.9,1.5C191.1,253.8,190,253.7,188.9,253.4z"/>
	</g>
	<g class="st0">
		<path class="st1" d="M213.6,230.9c-0.4-0.4-0.6-0.9-0.6-1.4s0.2-1.1,0.6-1.4c0.4-0.4,0.9-0.6,1.5-0.6c0.6,0,1.1,0.2,1.5,0.6
			c0.4,0.4,0.6,0.9,0.6,1.4s-0.2,1.1-0.6,1.4c-0.4,0.4-0.9,0.6-1.5,0.6C214.5,231.4,214,231.2,213.6,230.9z M213.8,234.6h2.6v18.8
			h-2.6V234.6z"/>
		<path class="st1" d="M223.2,234.6h2.3l0.2,1.7c0.9-0.6,1.9-1.1,3-1.5c1.1-0.4,2.2-0.6,3.3-0.6c1.1,0,2,0.2,2.9,0.6
			c0.9,0.4,1.6,1,2.1,1.7c1-0.7,2.1-1.2,3.3-1.6c1.2-0.4,2.4-0.6,3.6-0.6c2,0,3.6,0.6,4.6,1.7c1.1,1.1,1.6,2.8,1.6,5v12.4h-2.6V242
			c0-1.7-0.3-3-0.8-3.9c-0.6-1.1-1.8-1.7-3.6-1.7c-0.9,0-1.8,0.2-2.9,0.6c-1.1,0.4-2,0.9-2.7,1.4c0.2,0.8,0.3,1.8,0.3,3v12h-2.6V242
			c0-1,0-1.7-0.1-2.3c-0.1-0.6-0.3-1.1-0.5-1.6c-0.6-1.1-1.8-1.7-3.4-1.7c-1,0-2,0.2-3,0.6c-1,0.4-1.8,0.9-2.5,1.4v14.9h-2.6V234.6z
			"/>
		<path class="st1" d="M256.8,234.6h2.4l0.2,2.9c0.7-1,1.7-1.8,2.9-2.4c1.2-0.6,2.5-0.8,3.9-0.8c1.6,0,3,0.4,4.3,1.2
			c1.3,0.8,2.4,1.9,3.2,3.3c0.8,1.4,1.2,3.1,1.2,5.1s-0.4,3.7-1.2,5.2s-1.9,2.7-3.3,3.5c-1.4,0.8-3,1.2-4.7,1.2
			c-1.3,0-2.5-0.2-3.6-0.6c-1.1-0.4-2-1-2.7-1.7v9.7l-2.6,0.8V234.6z M270.5,249.5c1.1-1.5,1.7-3.3,1.7-5.5c0-1.6-0.3-2.9-0.8-4.1
			c-0.6-1.1-1.3-2-2.3-2.6s-2.1-0.9-3.3-0.9c-1.1,0-2.2,0.3-3.1,0.8c-1,0.5-1.7,1.2-2.3,2.1s-0.8,1.8-0.8,2.8v6.7
			c0.7,0.9,1.6,1.6,2.7,2.1c1.1,0.5,2.3,0.8,3.6,0.8C267.8,251.7,269.4,250.9,270.5,249.5z"/>
	</g>
	<g class="st0">
		<path class="st1" d="M284.1,252c-1.4-1.2-2.1-3.1-2.1-5.6v-11.8h2.6v11.8c0,1.7,0.5,2.9,1.5,3.8c1,0.9,2.3,1.4,4,1.4
			c1.7,0,2.9-0.5,3.8-1.4c0.9-0.9,1.3-2.2,1.3-3.8v-11.8h2.6v11.8c0,2.3-0.7,4.1-2,5.4c-1.3,1.3-3.3,2-5.7,2
			C287.5,253.8,285.5,253.2,284.1,252z"/>
	</g>
	<g class="st0">
		<path class="st1" d="M304.7,227.8l2.6-0.8v26.4h-2.6V227.8z"/>
	</g>
	<g class="st0">
		<path class="st1" d="M316.3,253.4c-1.1-0.3-2-0.6-2.8-1l0.3-2.2c0.9,0.5,1.8,0.8,2.8,1.1c1,0.3,2,0.4,3,0.4c1.4,0,2.4-0.3,3.2-0.8
			c0.8-0.6,1.1-1.3,1.1-2.3c0-0.7-0.1-1.2-0.4-1.6c-0.3-0.4-0.7-0.7-1.2-1c-0.5-0.3-1.4-0.6-2.6-1c-2.1-0.8-3.6-1.6-4.5-2.4
			c-0.9-0.9-1.3-1.9-1.3-3.3c0-1.5,0.6-2.7,1.8-3.5c1.2-0.9,2.8-1.3,4.8-1.3c1.6,0,3.2,0.3,4.8,0.8l-0.3,2.1c-1.6-0.6-3-0.8-4.5-0.8
			c-1.3,0-2.3,0.2-3.1,0.7c-0.7,0.5-1.1,1.1-1.1,2c0,0.8,0.3,1.4,0.9,2c0.6,0.6,1.7,1.1,3.4,1.7c1.9,0.6,3.3,1.4,4.2,2.2
			s1.3,1.9,1.3,3.3c0,1.8-0.6,3.1-1.9,4.1c-1.3,1-2.9,1.5-4.9,1.5C318.5,253.8,317.4,253.7,316.3,253.4z"/>
	</g>
	<g class="st0">
		<path class="st1" d="M333.1,252.1c-1.3-1.1-1.9-2.6-1.9-4.5c0-1.5,0.5-2.6,1.6-3.5c1.1-0.8,2.6-1.2,4.6-1.2h3c0.9,0,2,0,3.2,0.1
			v-1.7c0-1.7-0.4-3-1.2-3.8c-0.8-0.8-2.1-1.2-3.8-1.2c-1.8,0-3.7,0.3-5.6,0.8l-0.3-2c0.9-0.3,1.9-0.5,3-0.7
			c1.1-0.2,2.2-0.3,3.4-0.3c2.3,0,4.1,0.6,5.3,1.7c1.2,1.1,1.9,2.7,1.9,4.9v7.8c0,1.2,0,2.7,0.1,4.8h-2.2c-0.1-0.5-0.2-1.3-0.3-2.3
			h-0.1c-0.5,0.8-1.2,1.5-2.2,2c-1,0.5-2.2,0.7-3.6,0.7C336,253.8,334.4,253.2,333.1,252.1z M342.3,250.4c1-0.8,1.4-2,1.4-3.5V245
			h-6.6c-1,0-1.8,0.2-2.3,0.6c-0.6,0.4-0.8,1.1-0.8,2.1c0,1.2,0.4,2.2,1.3,2.9s1.9,1,3.2,1C340,251.7,341.3,251.3,342.3,250.4z"/>
	</g>
	<g class="st0">
		<path class="st1" d="M356.5,252.6c-1.4-0.8-2.4-1.9-3.2-3.4c-0.8-1.5-1.1-3.1-1.1-5c0-1.9,0.4-3.7,1.3-5.2s2-2.7,3.5-3.5
			c1.5-0.8,3-1.2,4.7-1.2c1.3,0,2.5,0.2,3.5,0.7s1.8,1,2.4,1.7h0.1v-8.9l2.6-0.8v21.6c0,1.2,0,2.7,0.1,4.8h-2.2
			c-0.1-0.5-0.2-1.3-0.3-2.6h-0.1c-0.7,0.9-1.6,1.6-2.7,2.1s-2.4,0.8-3.7,0.8C359.5,253.8,357.9,253.4,356.5,252.6z M365.1,250.7
			c1.1-0.6,1.9-1.5,2.5-2.5v-6.2c0-1.6-0.5-2.9-1.6-4c-1.1-1.1-2.5-1.6-4.4-1.6c-1.3,0-2.5,0.3-3.5,1c-1,0.6-1.8,1.6-2.4,2.7
			c-0.6,1.2-0.8,2.5-0.8,4c0,1.6,0.3,2.9,0.9,4c0.6,1.1,1.4,2,2.4,2.6c1,0.6,2.1,0.9,3.4,0.9C362.9,251.7,364.1,251.3,365.1,250.7z"
			/>
	</g>
	<g class="st0">
		<path class="st1" d="M379.9,252.5c-1.4-0.9-2.4-2-3.2-3.5c-0.7-1.5-1.1-3.1-1.1-5c0-1.8,0.4-3.5,1.1-5c0.7-1.5,1.8-2.6,3.3-3.5
			c1.4-0.9,3.2-1.3,5.2-1.3c1.9,0,3.5,0.4,4.9,1.3c1.4,0.9,2.4,2,3.1,3.5c0.7,1.5,1.1,3.1,1.1,5c0,1.8-0.4,3.4-1.1,4.9
			c-0.7,1.5-1.8,2.7-3.2,3.5c-1.4,0.9-3.2,1.3-5.2,1.3C382.9,253.8,381.3,253.4,379.9,252.5z M389.8,249.7c1.2-1.4,1.8-3.3,1.8-5.6
			c0-2.4-0.6-4.2-1.8-5.6c-1.2-1.4-2.8-2.1-4.8-2.1c-2,0-3.6,0.7-4.8,2.1c-1.2,1.4-1.8,3.2-1.8,5.6c0,1.6,0.3,2.9,0.8,4.1
			s1.3,2.1,2.3,2.7s2.1,0.9,3.4,0.9C387,251.7,388.6,251.1,389.8,249.7z"/>
	</g>
	<g class="st0">
		<path class="st1" d="M400.2,234.6h2.4l0.2,2.7c0.8-0.8,1.7-1.5,2.9-2c1.2-0.6,2.4-0.9,3.8-1l-0.1,2.5c-1.1,0-2.3,0.3-3.5,0.8
			c-1.2,0.5-2.2,1.1-3.1,1.8v14h-2.6V234.6z"/>
	</g>
	<g class="st0">
		<path class="st1" d="M414.9,251.4c-1.7-1.6-2.5-4-2.5-7.3c0-1.9,0.4-3.5,1.1-5c0.7-1.5,1.8-2.6,3.1-3.5c1.4-0.8,3-1.3,4.9-1.3
			c2.5,0,4.4,0.7,5.7,2.2c1.2,1.4,1.9,3.3,1.9,5.7c0,1,0,1.9-0.1,2.6h-13.9c0.1,2.2,0.7,3.8,1.8,5.1c1.2,1.2,2.9,1.8,5.3,1.8
			c0.8,0,1.7-0.1,2.7-0.3c1-0.2,1.9-0.5,2.7-0.9l0.4,2c-2,0.9-4.1,1.3-6.2,1.3C418.9,253.8,416.6,253,414.9,251.4z M426.5,242.7
			c0-0.2,0-0.5,0-1c0-1.6-0.4-2.9-1.2-3.9s-2.1-1.5-3.9-1.5c-1.9,0-3.3,0.6-4.4,1.7c-1.1,1.2-1.7,2.7-1.8,4.6H426.5z"/>
	</g>
	<g class="st0">
		<path class="st1" d="M436.5,253.4c-1.1-0.3-2-0.6-2.8-1l0.3-2.2c0.9,0.5,1.8,0.8,2.8,1.1c1,0.3,2,0.4,3,0.4c1.4,0,2.4-0.3,3.2-0.8
			c0.8-0.6,1.1-1.3,1.1-2.3c0-0.7-0.1-1.2-0.4-1.6c-0.3-0.4-0.7-0.7-1.2-1c-0.5-0.3-1.4-0.6-2.6-1c-2.1-0.8-3.6-1.6-4.5-2.4
			c-0.9-0.9-1.3-1.9-1.3-3.3c0-1.5,0.6-2.7,1.8-3.5c1.2-0.9,2.8-1.3,4.8-1.3c1.6,0,3.2,0.3,4.8,0.8l-0.3,2.1c-1.6-0.6-3-0.8-4.5-0.8
			c-1.3,0-2.3,0.2-3.1,0.7c-0.7,0.5-1.1,1.1-1.1,2c0,0.8,0.3,1.4,0.9,2c0.6,0.6,1.7,1.1,3.4,1.7c1.9,0.6,3.3,1.4,4.2,2.2
			c0.9,0.8,1.3,1.9,1.3,3.3c0,1.8-0.6,3.1-1.9,4.1c-1.3,1-2.9,1.5-4.9,1.5C438.7,253.8,437.6,253.7,436.5,253.4z"/>
	</g>
	<g class="st0">
		<path class="st1" d="M80.2,293.6c-1.4-0.8-2.4-1.9-3.2-3.4c-0.8-1.5-1.1-3.1-1.1-5c0-1.9,0.4-3.7,1.3-5.2c0.9-1.5,2-2.7,3.5-3.5
			c1.5-0.8,3-1.2,4.7-1.2c1.3,0,2.5,0.2,3.5,0.7s1.8,1,2.4,1.7h0.1v-8.9l2.6-0.8v21.6c0,1.2,0,2.7,0.1,4.8h-2.2
			c-0.1-0.5-0.2-1.3-0.3-2.6h-0.1c-0.7,0.9-1.6,1.6-2.7,2.1c-1.1,0.6-2.4,0.8-3.7,0.8C83.2,294.8,81.6,294.4,80.2,293.6z
			 M88.8,291.7c1.1-0.6,1.9-1.5,2.5-2.5v-6.2c0-1.6-0.5-2.9-1.6-4c-1.1-1.1-2.5-1.6-4.4-1.6c-1.3,0-2.5,0.3-3.5,1
			c-1,0.6-1.8,1.6-2.4,2.7s-0.8,2.5-0.8,4c0,1.6,0.3,2.9,0.9,4c0.6,1.1,1.4,2,2.4,2.6c1,0.6,2.1,0.9,3.4,0.9
			C86.6,292.7,87.8,292.4,88.8,291.7z"/>
	</g>
	<g class="st0">
		<path class="st1" d="M101.8,292.4c-1.7-1.6-2.5-4-2.5-7.3c0-1.9,0.4-3.5,1.1-5c0.7-1.5,1.8-2.6,3.1-3.5c1.4-0.8,3-1.3,4.9-1.3
			c2.5,0,4.4,0.7,5.7,2.2c1.2,1.4,1.9,3.3,1.9,5.7c0,1,0,1.9-0.1,2.6H102c0.1,2.2,0.7,3.8,1.8,5.1c1.2,1.2,2.9,1.8,5.3,1.8
			c0.8,0,1.7-0.1,2.7-0.3c1-0.2,1.9-0.5,2.7-0.9l0.4,2c-2,0.9-4.1,1.3-6.2,1.3C105.8,294.8,103.5,294,101.8,292.4z M113.3,283.7
			c0-0.2,0-0.5,0-1c0-1.6-0.4-2.9-1.2-3.9c-0.8-1-2.1-1.5-3.9-1.5c-1.9,0-3.3,0.6-4.4,1.7c-1.1,1.2-1.7,2.7-1.8,4.6H113.3z"/>
		<path class="st1" d="M133.6,293.6c-1.5-0.8-2.6-1.9-3.4-3.4c-0.8-1.5-1.2-3.2-1.2-5.3c0-1.9,0.4-3.6,1.3-5.1
			c0.9-1.5,2-2.6,3.5-3.4c1.5-0.8,3.1-1.2,4.9-1.2c2.1,0,4,0.3,5.5,1l-0.4,2.1c-0.6-0.3-1.4-0.5-2.3-0.7c-0.9-0.2-1.8-0.3-2.6-0.3
			c-1.4,0-2.7,0.3-3.8,1c-1.1,0.6-1.9,1.5-2.5,2.7c-0.6,1.1-0.9,2.4-0.9,3.9c0,2.3,0.6,4.1,1.8,5.6c1.2,1.5,3.1,2.2,5.6,2.2
			c0.8,0,1.7-0.1,2.6-0.3c0.9-0.2,1.7-0.5,2.5-0.8l0.4,2c-1.9,0.9-3.8,1.3-5.8,1.3C136.8,294.8,135.1,294.4,133.6,293.6z"/>
	</g>
	<g class="st0">
		<path class="st1" d="M151.8,293.1c-1.3-1.1-1.9-2.6-1.9-4.5c0-1.5,0.5-2.6,1.6-3.5c1.1-0.8,2.6-1.2,4.6-1.2h3c0.9,0,2,0,3.2,0.1
			v-1.7c0-1.7-0.4-3-1.2-3.8c-0.8-0.8-2.1-1.2-3.8-1.2c-1.8,0-3.7,0.3-5.6,0.8l-0.3-2c0.9-0.3,1.9-0.5,3-0.7
			c1.1-0.2,2.2-0.3,3.4-0.3c2.3,0,4.1,0.6,5.3,1.7c1.2,1.1,1.9,2.7,1.9,4.9v7.8c0,1.2,0,2.7,0.1,4.8h-2.2c-0.1-0.5-0.2-1.3-0.3-2.3
			h-0.1c-0.5,0.8-1.2,1.5-2.2,2c-1,0.5-2.2,0.7-3.6,0.7C154.7,294.8,153.1,294.2,151.8,293.1z M160.9,291.4c1-0.8,1.4-2,1.4-3.5
			v-1.9h-6.6c-1,0-1.8,0.2-2.3,0.6c-0.6,0.4-0.8,1.1-0.8,2.1c0,1.2,0.4,2.2,1.3,2.9c0.8,0.7,1.9,1,3.2,1
			C158.7,292.7,160,292.3,160.9,291.4z"/>
	</g>
	<g class="st0">
		<path class="st1" d="M172.1,275.6h2.3l0.2,1.7c0.9-0.6,1.9-1.1,3-1.5c1.1-0.4,2.2-0.6,3.3-0.6c1.1,0,2,0.2,2.9,0.6
			c0.9,0.4,1.6,1,2.1,1.7c1-0.7,2.1-1.2,3.3-1.6c1.2-0.4,2.4-0.6,3.6-0.6c2,0,3.6,0.6,4.6,1.7c1.1,1.1,1.6,2.8,1.6,5v12.4h-2.6V283
			c0-1.7-0.3-3-0.8-3.9c-0.6-1.1-1.8-1.7-3.6-1.7c-0.9,0-1.8,0.2-2.9,0.6c-1.1,0.4-2,0.9-2.7,1.4c0.2,0.8,0.3,1.8,0.3,3v12h-2.6V283
			c0-1,0-1.7-0.1-2.3c-0.1-0.6-0.3-1.1-0.5-1.6c-0.6-1.1-1.8-1.7-3.4-1.7c-1,0-2,0.2-3,0.6c-1,0.4-1.8,0.9-2.5,1.4v14.9h-2.6V275.6z
			"/>
		<path class="st1" d="M209.4,294.3c-1.4-0.3-2.6-0.8-3.7-1.3v-24.2l2.6-0.8v10h0.2c0.7-0.8,1.6-1.4,2.7-2c1.1-0.5,2.4-0.8,3.8-0.8
			c1.6,0,3.1,0.4,4.4,1.1c1.3,0.7,2.3,1.8,3,3.2c0.7,1.4,1.1,3.1,1.1,5.1c0,2-0.4,3.8-1.2,5.4s-1.9,2.7-3.4,3.5s-3.1,1.2-5.1,1.2
			C212.3,294.8,210.8,294.6,209.4,294.3z M218.9,290.6c1.2-1.4,1.9-3.3,1.9-5.8c0-2.4-0.6-4.2-1.7-5.5c-1.1-1.3-2.6-1.9-4.5-1.9
			c-1.1,0-2.2,0.2-3.1,0.7c-1,0.5-1.7,1.2-2.3,2c-0.6,0.9-0.9,1.8-0.9,2.9v8.5c1.6,0.7,3.5,1,5.5,1C216,292.7,217.7,292,218.9,290.6
			z"/>
		<path class="st1" d="M229,271.9c-0.4-0.4-0.6-0.9-0.6-1.4s0.2-1.1,0.6-1.4c0.4-0.4,0.9-0.6,1.5-0.6c0.6,0,1.1,0.2,1.5,0.6
			c0.4,0.4,0.6,0.9,0.6,1.4s-0.2,1.1-0.6,1.4c-0.4,0.4-0.9,0.6-1.5,0.6C229.8,272.4,229.3,272.3,229,271.9z M229.1,275.6h2.6v18.8
			h-2.6V275.6z"/>
	</g>
	<g class="st0">
		<path class="st1" d="M242.9,293.5c-1.4-0.9-2.4-2-3.2-3.5c-0.7-1.5-1.1-3.1-1.1-5c0-1.8,0.4-3.5,1.1-5c0.7-1.5,1.8-2.6,3.3-3.5
			c1.4-0.9,3.2-1.3,5.2-1.3c1.9,0,3.5,0.4,4.9,1.3c1.4,0.9,2.4,2,3.1,3.5c0.7,1.5,1.1,3.1,1.1,5c0,1.8-0.4,3.4-1.1,4.9
			c-0.7,1.5-1.8,2.7-3.2,3.5c-1.4,0.9-3.1,1.3-5.2,1.3C245.9,294.8,244.2,294.4,242.9,293.5z M252.8,290.7c1.2-1.4,1.8-3.3,1.8-5.6
			c0-2.4-0.6-4.2-1.8-5.6c-1.2-1.4-2.8-2.1-4.8-2.1c-2,0-3.6,0.7-4.8,2.1c-1.2,1.4-1.8,3.2-1.8,5.6c0,1.6,0.3,2.9,0.8,4.1
			s1.3,2.1,2.3,2.7c1,0.6,2.1,0.9,3.4,0.9C249.9,292.7,251.6,292.1,252.8,290.7z"/>
		<path class="st1" d="M264.5,294.4c-1.1-0.3-2-0.6-2.8-1l0.3-2.2c0.9,0.5,1.8,0.8,2.8,1.1s2,0.4,3,0.4c1.4,0,2.4-0.3,3.2-0.8
			s1.1-1.3,1.1-2.3c0-0.7-0.1-1.2-0.4-1.6c-0.3-0.4-0.7-0.7-1.2-1c-0.5-0.3-1.4-0.6-2.6-1c-2.1-0.8-3.6-1.6-4.5-2.4
			c-0.9-0.9-1.3-1.9-1.3-3.3c0-1.5,0.6-2.7,1.8-3.5c1.2-0.9,2.8-1.3,4.8-1.3c1.6,0,3.2,0.3,4.8,0.8l-0.3,2.1c-1.6-0.6-3-0.8-4.5-0.8
			c-1.3,0-2.3,0.2-3.1,0.7c-0.7,0.5-1.1,1.1-1.1,2c0,0.8,0.3,1.4,0.9,2c0.6,0.6,1.7,1.1,3.4,1.7c1.9,0.6,3.3,1.4,4.2,2.2
			s1.3,1.9,1.3,3.3c0,1.8-0.6,3.1-1.9,4.1c-1.3,1-2.9,1.5-4.9,1.5C266.7,294.8,265.6,294.7,264.5,294.4z"/>
	</g>
	<g class="st0">
		<path class="st1" d="M289.7,275.6h2.4l0.2,2.9c0.7-1,1.7-1.8,2.9-2.4c1.2-0.6,2.5-0.8,3.9-0.8c1.6,0,3,0.4,4.3,1.2
			c1.3,0.8,2.4,1.9,3.2,3.3c0.8,1.4,1.2,3.1,1.2,5.1s-0.4,3.7-1.2,5.2s-1.9,2.7-3.3,3.5c-1.4,0.8-3,1.2-4.7,1.2
			c-1.3,0-2.5-0.2-3.6-0.6c-1.1-0.4-2-1-2.7-1.7v9.7l-2.6,0.8V275.6z M303.3,290.5c1.1-1.5,1.7-3.3,1.7-5.5c0-1.6-0.3-2.9-0.8-4.1
			c-0.6-1.1-1.3-2-2.3-2.6s-2.1-0.9-3.3-0.9c-1.1,0-2.2,0.3-3.1,0.8c-1,0.5-1.7,1.2-2.3,2.1c-0.6,0.9-0.8,1.8-0.8,2.8v6.7
			c0.7,0.9,1.6,1.6,2.7,2.1s2.3,0.8,3.6,0.8C300.6,292.7,302.2,292,303.3,290.5z"/>
		<path class="st1" d="M316.3,293.5c-1.4-0.9-2.4-2-3.2-3.5c-0.7-1.5-1.1-3.1-1.1-5c0-1.8,0.4-3.5,1.1-5c0.7-1.5,1.8-2.6,3.3-3.5
			c1.4-0.9,3.2-1.3,5.2-1.3c1.9,0,3.5,0.4,4.9,1.3c1.4,0.9,2.4,2,3.1,3.5c0.7,1.5,1.1,3.1,1.1,5c0,1.8-0.4,3.4-1.1,4.9
			c-0.7,1.5-1.8,2.7-3.2,3.5c-1.4,0.9-3.2,1.3-5.2,1.3C319.4,294.8,317.7,294.4,316.3,293.5z M326.2,290.7c1.2-1.4,1.8-3.3,1.8-5.6
			c0-2.4-0.6-4.2-1.8-5.6c-1.2-1.4-2.8-2.1-4.8-2.1s-3.6,0.7-4.8,2.1c-1.2,1.4-1.8,3.2-1.8,5.6c0,1.6,0.3,2.9,0.8,4.1
			c0.6,1.2,1.3,2.1,2.3,2.7c1,0.6,2.1,0.9,3.4,0.9C323.4,292.7,325,292.1,326.2,290.7z"/>
	</g>
	<g class="st0">
		<path class="st1" d="M339.3,294.4c-1.1-0.3-2-0.6-2.8-1l0.3-2.2c0.9,0.5,1.8,0.8,2.8,1.1c1,0.3,2,0.4,3,0.4c1.4,0,2.4-0.3,3.2-0.8
			s1.1-1.3,1.1-2.3c0-0.7-0.1-1.2-0.4-1.6c-0.3-0.4-0.7-0.7-1.2-1c-0.5-0.3-1.4-0.6-2.6-1c-2.1-0.8-3.6-1.6-4.5-2.4
			c-0.9-0.9-1.3-1.9-1.3-3.3c0-1.5,0.6-2.7,1.8-3.5c1.2-0.9,2.8-1.3,4.8-1.3c1.6,0,3.2,0.3,4.8,0.8l-0.3,2.1c-1.6-0.6-3-0.8-4.5-0.8
			c-1.3,0-2.3,0.2-3.1,0.7s-1.1,1.1-1.1,2c0,0.8,0.3,1.4,0.9,2s1.7,1.1,3.4,1.7c1.9,0.6,3.3,1.4,4.2,2.2s1.3,1.9,1.3,3.3
			c0,1.8-0.6,3.1-1.9,4.1c-1.3,1-2.9,1.5-4.9,1.5C341.5,294.8,340.4,294.7,339.3,294.4z"/>
	</g>
	<g class="st0">
		<path class="st1" d="M355,271.9c-0.4-0.4-0.6-0.9-0.6-1.4s0.2-1.1,0.6-1.4c0.4-0.4,0.9-0.6,1.5-0.6s1.1,0.2,1.5,0.6
			c0.4,0.4,0.6,0.9,0.6,1.4s-0.2,1.1-0.6,1.4c-0.4,0.4-0.9,0.6-1.5,0.6S355.4,272.3,355,271.9z M355.2,275.6h2.6v18.8h-2.6V275.6z"
			/>
	</g>
	<g class="st0">
		<path class="st1" d="M366.4,293.3c-0.9-0.8-1.4-2.1-1.4-3.9v-17.9l2.6-0.8v5.3h6.8l-0.9,2.2h-5.9V289c0,1.3,0.2,2.2,0.7,2.7
			s1.3,0.8,2.5,0.8c1.2,0,2.3-0.1,3.4-0.4l0.2,1.9c-1.1,0.3-2.3,0.5-3.7,0.5C368.7,294.6,367.3,294.2,366.4,293.3z"/>
	</g>
	<g class="st0">
		<path class="st1" d="M379.3,271.9c-0.4-0.4-0.6-0.9-0.6-1.4s0.2-1.1,0.6-1.4c0.4-0.4,0.9-0.6,1.5-0.6c0.6,0,1.1,0.2,1.5,0.6
			c0.4,0.4,0.6,0.9,0.6,1.4s-0.2,1.1-0.6,1.4c-0.4,0.4-0.9,0.6-1.5,0.6C380.2,272.4,379.7,272.3,379.3,271.9z M379.5,275.6h2.6v18.8
			h-2.6V275.6z"/>
	</g>
	<g class="st0">
		<path class="st1" d="M387.1,275.6h2.8l6.3,15h0.1l6.3-15h2.8l-8.4,18.8h-1.6L387.1,275.6z"/>
	</g>
	<g class="st0">
		<path class="st1" d="M412.6,293.5c-1.4-0.9-2.4-2-3.2-3.5c-0.7-1.5-1.1-3.1-1.1-5c0-1.8,0.4-3.5,1.1-5c0.7-1.5,1.8-2.6,3.3-3.5
			c1.4-0.9,3.2-1.3,5.2-1.3c1.9,0,3.5,0.4,4.9,1.3c1.4,0.9,2.4,2,3.1,3.5c0.7,1.5,1.1,3.1,1.1,5c0,1.8-0.4,3.4-1.1,4.9
			c-0.7,1.5-1.8,2.7-3.2,3.5c-1.4,0.9-3.2,1.3-5.2,1.3C415.6,294.8,413.9,294.4,412.6,293.5z M422.5,290.7c1.2-1.4,1.8-3.3,1.8-5.6
			c0-2.4-0.6-4.2-1.8-5.6c-1.2-1.4-2.8-2.1-4.8-2.1c-2,0-3.6,0.7-4.8,2.1c-1.2,1.4-1.8,3.2-1.8,5.6c0,1.6,0.3,2.9,0.8,4.1
			c0.6,1.2,1.3,2.1,2.3,2.7c1,0.6,2.1,0.9,3.4,0.9C419.6,292.7,421.3,292.1,422.5,290.7z"/>
		<path class="st1" d="M434.2,294.4c-1.1-0.3-2-0.6-2.8-1l0.3-2.2c0.9,0.5,1.8,0.8,2.8,1.1s2,0.4,3,0.4c1.4,0,2.4-0.3,3.2-0.8
			s1.1-1.3,1.1-2.3c0-0.7-0.1-1.2-0.4-1.6c-0.3-0.4-0.7-0.7-1.2-1c-0.5-0.3-1.4-0.6-2.6-1c-2.1-0.8-3.6-1.6-4.5-2.4
			c-0.9-0.9-1.3-1.9-1.3-3.3c0-1.5,0.6-2.7,1.8-3.5c1.2-0.9,2.8-1.3,4.8-1.3c1.6,0,3.2,0.3,4.8,0.8l-0.3,2.1c-1.6-0.6-3-0.8-4.5-0.8
			c-1.3,0-2.3,0.2-3.1,0.7c-0.7,0.5-1.1,1.1-1.1,2c0,0.8,0.3,1.4,0.9,2s1.7,1.1,3.4,1.7c1.9,0.6,3.3,1.4,4.2,2.2s1.3,1.9,1.3,3.3
			c0,1.8-0.6,3.1-1.9,4.1c-1.3,1-2.9,1.5-4.9,1.5C436.4,294.8,435.3,294.7,434.2,294.4z"/>
	</g>
	<g class="st0">
		<path class="st1" d="M452.5,291.1c0.5,0.5,0.7,1.3,0.7,2.3c0,1.5-0.3,2.9-1,4c-0.7,1.1-1.5,2-2.6,2.6l-1.2-1.1
			c1.7-1.2,2.6-2.5,2.8-4.1c-0.1,0-0.3,0.1-0.6,0.1c-0.6,0-1.2-0.2-1.6-0.6c-0.4-0.4-0.6-1-0.6-1.6c0-0.6,0.2-1.2,0.7-1.6
			s1-0.7,1.6-0.7C451.4,290.3,452,290.6,452.5,291.1z"/>
	</g>
	<g class="st0">
		<path class="st1" d="M95.8,316.7h2.4l0.2,2.7c0.8-0.8,1.7-1.5,2.9-2c1.2-0.6,2.4-0.9,3.8-1l-0.1,2.5c-1.1,0-2.3,0.3-3.5,0.8
			c-1.2,0.5-2.2,1.1-3.1,1.8v14h-2.6V316.7z"/>
	</g>
	<g class="st0">
		<path class="st1" d="M110.4,333.4c-1.7-1.6-2.5-4-2.5-7.3c0-1.9,0.4-3.5,1.1-5c0.7-1.5,1.8-2.6,3.1-3.5c1.4-0.8,3-1.3,4.9-1.3
			c2.5,0,4.4,0.7,5.7,2.2c1.2,1.4,1.9,3.3,1.9,5.7c0,1,0,1.9-0.1,2.6h-13.9c0.1,2.2,0.7,3.8,1.8,5.1c1.2,1.2,2.9,1.8,5.3,1.8
			c0.8,0,1.7-0.1,2.7-0.3c1-0.2,1.9-0.5,2.7-0.9l0.4,2c-2,0.9-4.1,1.3-6.2,1.3C114.4,335.8,112.1,335,110.4,333.4z M122,324.7
			c0-0.2,0-0.5,0-1c0-1.6-0.4-2.9-1.2-3.9c-0.8-1-2.1-1.5-3.9-1.5c-1.9,0-3.3,0.6-4.4,1.7c-1.1,1.2-1.7,2.7-1.8,4.6H122z"/>
	</g>
	<g class="st0">
		<path class="st1" d="M133.8,334.6c-1.5-0.8-2.6-1.9-3.4-3.4c-0.8-1.5-1.2-3.2-1.2-5.3c0-1.9,0.4-3.6,1.3-5.1
			c0.9-1.5,2-2.6,3.5-3.4c1.5-0.8,3.1-1.2,4.9-1.2c2.1,0,4,0.3,5.5,1l-0.4,2.1c-0.6-0.3-1.4-0.5-2.3-0.7c-0.9-0.2-1.8-0.3-2.6-0.3
			c-1.4,0-2.7,0.3-3.8,1c-1.1,0.6-1.9,1.5-2.5,2.7c-0.6,1.1-0.9,2.4-0.9,3.9c0,2.3,0.6,4.1,1.8,5.6c1.2,1.5,3.1,2.2,5.6,2.2
			c0.8,0,1.7-0.1,2.6-0.3c0.9-0.2,1.7-0.5,2.5-0.8l0.4,2c-1.9,0.9-3.8,1.3-5.8,1.3C137,335.8,135.3,335.4,133.8,334.6z"/>
	</g>
	<g class="st0">
		<path class="st1" d="M152.9,334.5c-1.4-0.9-2.4-2-3.2-3.5c-0.7-1.5-1.1-3.1-1.1-5c0-1.8,0.4-3.5,1.1-5c0.7-1.5,1.8-2.6,3.3-3.5
			c1.4-0.9,3.2-1.3,5.2-1.3c1.9,0,3.5,0.4,4.9,1.3c1.4,0.9,2.4,2,3.1,3.5c0.7,1.5,1.1,3.1,1.1,5c0,1.8-0.4,3.4-1.1,4.9
			c-0.7,1.5-1.8,2.7-3.2,3.5c-1.4,0.9-3.1,1.3-5.2,1.3C155.9,335.8,154.3,335.4,152.9,334.5z M162.8,331.7c1.2-1.4,1.8-3.3,1.8-5.6
			c0-2.4-0.6-4.2-1.8-5.6c-1.2-1.4-2.8-2.1-4.8-2.1c-2,0-3.6,0.7-4.8,2.1c-1.2,1.4-1.8,3.2-1.8,5.6c0,1.6,0.3,2.9,0.8,4.1
			s1.3,2.1,2.3,2.7c1,0.6,2.1,0.9,3.4,0.9C160,333.8,161.6,333.1,162.8,331.7z"/>
		<path class="st1" d="M172.8,316.7h2.3l0.2,1.7c1-0.6,2.1-1.1,3.3-1.5c1.2-0.4,2.4-0.6,3.5-0.6c2.2,0,3.8,0.6,4.9,1.7
			c0.5,0.6,0.9,1.2,1.1,2s0.4,1.7,0.4,2.8v12.6H186v-12.3c0-1.5-0.3-2.6-0.9-3.3c-0.4-0.5-0.8-0.8-1.3-1s-1.2-0.3-2.1-0.3
			c-1.1,0-2.1,0.2-3.2,0.6c-1.1,0.4-2.1,0.9-3,1.5v14.9h-2.6V316.7z"/>
	</g>
	<g class="st0">
		<path class="st1" d="M199,334.5c-1.4-0.9-2.4-2-3.2-3.5c-0.7-1.5-1.1-3.1-1.1-5c0-1.8,0.4-3.5,1.1-5c0.7-1.5,1.8-2.6,3.3-3.5
			c1.4-0.9,3.2-1.3,5.2-1.3c1.9,0,3.5,0.4,4.9,1.3c1.4,0.9,2.4,2,3.1,3.5c0.7,1.5,1.1,3.1,1.1,5c0,1.8-0.4,3.4-1.1,4.9
			c-0.7,1.5-1.8,2.7-3.2,3.5c-1.4,0.9-3.2,1.3-5.2,1.3C202,335.8,200.4,335.4,199,334.5z M208.9,331.7c1.2-1.4,1.8-3.3,1.8-5.6
			c0-2.4-0.6-4.2-1.8-5.6c-1.2-1.4-2.8-2.1-4.8-2.1s-3.6,0.7-4.8,2.1c-1.2,1.4-1.8,3.2-1.8,5.6c0,1.6,0.3,2.9,0.8,4.1
			c0.6,1.2,1.3,2.1,2.3,2.7c1,0.6,2.1,0.9,3.4,0.9C206.1,333.8,207.7,333.1,208.9,331.7z"/>
	</g>
	<g class="st0">
		<path class="st1" d="M222.8,334.6c-1.5-0.8-2.6-1.9-3.4-3.4c-0.8-1.5-1.2-3.2-1.2-5.3c0-1.9,0.4-3.6,1.3-5.1
			c0.9-1.5,2-2.6,3.5-3.4c1.5-0.8,3.1-1.2,4.9-1.2c2.1,0,4,0.3,5.5,1l-0.4,2.1c-0.6-0.3-1.4-0.5-2.3-0.7c-0.9-0.2-1.8-0.3-2.6-0.3
			c-1.4,0-2.7,0.3-3.8,1c-1.1,0.6-1.9,1.5-2.5,2.7c-0.6,1.1-0.9,2.4-0.9,3.9c0,2.3,0.6,4.1,1.8,5.6c1.2,1.5,3.1,2.2,5.6,2.2
			c0.8,0,1.7-0.1,2.6-0.3c0.9-0.2,1.7-0.5,2.5-0.8l0.4,2c-1.9,0.9-3.8,1.3-5.8,1.3C226,335.8,224.3,335.4,222.8,334.6z"/>
	</g>
	<g class="st0">
		<path class="st1" d="M240,333.4c-1.7-1.6-2.5-4-2.5-7.3c0-1.9,0.4-3.5,1.1-5c0.7-1.5,1.8-2.6,3.1-3.5c1.4-0.8,3-1.3,4.9-1.3
			c2.5,0,4.4,0.7,5.7,2.2c1.2,1.4,1.9,3.3,1.9,5.7c0,1,0,1.9-0.1,2.6h-13.9c0.1,2.2,0.7,3.8,1.8,5.1c1.2,1.2,2.9,1.8,5.3,1.8
			c0.8,0,1.7-0.1,2.7-0.3c1-0.2,1.9-0.5,2.7-0.9l0.4,2c-2,0.9-4.1,1.3-6.2,1.3C244,335.8,241.7,335,240,333.4z M251.6,324.7
			c0-0.2,0-0.5,0-1c0-1.6-0.4-2.9-1.2-3.9c-0.8-1-2.1-1.5-3.9-1.5c-1.9,0-3.3,0.6-4.4,1.7c-1.1,1.2-1.7,2.7-1.8,4.6H251.6z"/>
	</g>
	<g class="st0">
		<path class="st1" d="M263.1,334.6c-1.4-0.8-2.4-1.9-3.2-3.4c-0.8-1.5-1.1-3.1-1.1-5c0-1.9,0.4-3.7,1.3-5.2c0.9-1.5,2-2.7,3.5-3.5
			c1.5-0.8,3-1.2,4.7-1.2c1.3,0,2.5,0.2,3.5,0.7s1.8,1,2.4,1.7h0.1v-8.9l2.6-0.8v21.6c0,1.2,0,2.7,0.1,4.8h-2.2
			c-0.1-0.5-0.2-1.3-0.3-2.6h-0.1c-0.7,0.9-1.6,1.6-2.7,2.1c-1.1,0.6-2.4,0.8-3.7,0.8C266.1,335.8,264.5,335.4,263.1,334.6z
			 M271.7,332.7c1.1-0.6,1.9-1.5,2.5-2.5v-6.2c0-1.6-0.5-2.9-1.6-4c-1.1-1.1-2.5-1.6-4.4-1.6c-1.3,0-2.5,0.3-3.5,1
			c-1,0.6-1.8,1.6-2.4,2.7s-0.8,2.5-0.8,4c0,1.6,0.3,2.9,0.9,4c0.6,1.1,1.4,2,2.4,2.6c1,0.6,2.1,0.9,3.4,0.9
			C269.5,333.7,270.7,333.4,271.7,332.7z"/>
	</g>
	<g class="st0">
		<path class="st1" d="M286.5,334.5c-1.4-0.9-2.4-2-3.2-3.5c-0.7-1.5-1.1-3.1-1.1-5c0-1.8,0.4-3.5,1.1-5c0.7-1.5,1.8-2.6,3.3-3.5
			c1.4-0.9,3.2-1.3,5.2-1.3c1.9,0,3.5,0.4,4.9,1.3c1.4,0.9,2.4,2,3.1,3.5c0.7,1.5,1.1,3.1,1.1,5c0,1.8-0.4,3.4-1.1,4.9
			c-0.7,1.5-1.8,2.7-3.2,3.5c-1.4,0.9-3.2,1.3-5.2,1.3C289.5,335.8,287.9,335.4,286.5,334.5z M296.4,331.7c1.2-1.4,1.8-3.3,1.8-5.6
			c0-2.4-0.6-4.2-1.8-5.6c-1.2-1.4-2.8-2.1-4.8-2.1s-3.6,0.7-4.8,2.1c-1.2,1.4-1.8,3.2-1.8,5.6c0,1.6,0.3,2.9,0.8,4.1
			c0.6,1.2,1.3,2.1,2.3,2.7c1,0.6,2.1,0.9,3.4,0.9C293.6,333.8,295.2,333.1,296.4,331.7z"/>
	</g>
	<g class="st0">
		<path class="st1" d="M306.8,316.7h2.4l0.2,2.7c0.8-0.8,1.7-1.5,2.9-2c1.2-0.6,2.4-0.9,3.8-1l-0.1,2.5c-1.1,0-2.3,0.3-3.5,0.8
			c-1.2,0.5-2.2,1.1-3.1,1.8v14h-2.6V316.7z"/>
	</g>
	<g class="st0">
		<path class="st1" d="M321.4,333.4c-1.7-1.6-2.5-4-2.5-7.3c0-1.9,0.4-3.5,1.1-5c0.7-1.5,1.8-2.6,3.1-3.5c1.4-0.8,3-1.3,4.9-1.3
			c2.5,0,4.4,0.7,5.7,2.2c1.2,1.4,1.9,3.3,1.9,5.7c0,1,0,1.9-0.1,2.6h-13.9c0.1,2.2,0.7,3.8,1.8,5.1c1.2,1.2,2.9,1.8,5.3,1.8
			c0.8,0,1.7-0.1,2.7-0.3c1-0.2,1.9-0.5,2.7-0.9l0.4,2c-2,0.9-4.1,1.3-6.2,1.3C325.4,335.8,323.1,335,321.4,333.4z M333,324.7
			c0-0.2,0-0.5,0-1c0-1.6-0.4-2.9-1.2-3.9s-2.1-1.5-3.9-1.5c-1.9,0-3.3,0.6-4.4,1.7c-1.1,1.2-1.7,2.7-1.8,4.6H333z"/>
	</g>
	<g class="st0">
		<path class="st1" d="M343.1,335.4c-1.1-0.3-2-0.6-2.8-1l0.3-2.2c0.9,0.5,1.8,0.8,2.8,1.1c1,0.3,2,0.4,3,0.4c1.4,0,2.4-0.3,3.2-0.8
			c0.8-0.6,1.1-1.3,1.1-2.3c0-0.7-0.1-1.2-0.4-1.6c-0.3-0.4-0.7-0.7-1.2-1c-0.5-0.3-1.4-0.6-2.6-1c-2.1-0.8-3.6-1.6-4.5-2.4
			c-0.9-0.9-1.3-1.9-1.3-3.3c0-1.5,0.6-2.7,1.8-3.5c1.2-0.9,2.8-1.3,4.8-1.3c1.6,0,3.2,0.3,4.8,0.8l-0.3,2.1c-1.6-0.6-3-0.8-4.5-0.8
			c-1.3,0-2.3,0.2-3.1,0.7c-0.7,0.5-1.1,1.1-1.1,2c0,0.8,0.3,1.4,0.9,2c0.6,0.6,1.7,1.1,3.4,1.7c1.9,0.6,3.3,1.4,4.2,2.2
			s1.3,1.9,1.3,3.3c0,1.8-0.6,3.1-1.9,4.1c-1.3,1-2.9,1.5-4.9,1.5C345.3,335.8,344.2,335.7,343.1,335.4z"/>
	</g>
	<g class="st0">
		<path class="st1" d="M371.4,334.6c-1.4-0.8-2.4-1.9-3.2-3.4s-1.1-3.1-1.1-5c0-1.9,0.4-3.7,1.3-5.2c0.9-1.5,2-2.7,3.5-3.5
			c1.5-0.8,3-1.2,4.7-1.2c1.3,0,2.5,0.2,3.5,0.7s1.8,1,2.4,1.7h0.1v-8.9l2.6-0.8v21.6c0,1.2,0,2.7,0.1,4.8H383
			c-0.1-0.5-0.2-1.3-0.3-2.6h-0.1c-0.7,0.9-1.6,1.6-2.7,2.1c-1.1,0.6-2.4,0.8-3.7,0.8C374.4,335.8,372.8,335.4,371.4,334.6z
			 M380,332.7c1.1-0.6,1.9-1.5,2.5-2.5v-6.2c0-1.6-0.5-2.9-1.6-4c-1.1-1.1-2.5-1.6-4.4-1.6c-1.3,0-2.5,0.3-3.5,1
			c-1,0.6-1.8,1.6-2.4,2.7c-0.6,1.2-0.8,2.5-0.8,4c0,1.6,0.3,2.9,0.9,4c0.6,1.1,1.4,2,2.4,2.6c1,0.6,2.1,0.9,3.4,0.9
			C377.8,333.7,379,333.4,380,332.7z"/>
	</g>
	<g class="st0">
		<path class="st1" d="M393.1,333.4c-1.7-1.6-2.5-4-2.5-7.3c0-1.9,0.4-3.5,1.1-5c0.7-1.5,1.8-2.6,3.1-3.5c1.4-0.8,3-1.3,4.9-1.3
			c2.5,0,4.4,0.7,5.7,2.2s1.9,3.3,1.9,5.7c0,1,0,1.9-0.1,2.6h-13.9c0.1,2.2,0.7,3.8,1.8,5.1s2.9,1.8,5.3,1.8c0.8,0,1.7-0.1,2.7-0.3
			s1.9-0.5,2.7-0.9l0.4,2c-2,0.9-4.1,1.3-6.2,1.3C397.1,335.8,394.8,335,393.1,333.4z M404.7,324.7c0-0.2,0-0.5,0-1
			c0-1.6-0.4-2.9-1.2-3.9c-0.8-1-2.1-1.5-3.9-1.5c-1.9,0-3.3,0.6-4.4,1.7c-1.1,1.2-1.7,2.7-1.8,4.6H404.7z"/>
		<path class="st1" d="M412.8,309.8l2.6-0.8v26.4h-2.6V309.8z"/>
	</g>
	<g class="st0">
		<path class="st1" d="M86.4,350.8l2.6-0.8v26.4h-2.6V350.8z"/>
		<path class="st1" d="M95.8,353.9c-0.4-0.4-0.6-0.9-0.6-1.4s0.2-1.1,0.6-1.4c0.4-0.4,0.9-0.6,1.5-0.6c0.6,0,1.1,0.2,1.5,0.6
			c0.4,0.4,0.6,0.9,0.6,1.4s-0.2,1.1-0.6,1.4c-0.4,0.4-0.9,0.6-1.5,0.6C96.6,354.5,96.2,354.3,95.8,353.9z M95.9,357.7h2.6v18.8
			h-2.6V357.7z"/>
	</g>
	<g class="st0">
		<path class="st1" d="M109.3,375.6c-1.4-0.8-2.4-1.9-3.2-3.4c-0.8-1.5-1.1-3.1-1.1-5c0-1.9,0.4-3.7,1.3-5.2c0.9-1.5,2-2.7,3.5-3.5
			c1.5-0.8,3-1.2,4.7-1.2c1.3,0,2.5,0.2,3.5,0.7s1.8,1,2.4,1.7h0.1v-8.9l2.6-0.8v21.6c0,1.2,0,2.7,0.1,4.8h-2.2
			c-0.1-0.5-0.2-1.3-0.3-2.6h-0.1c-0.7,0.9-1.6,1.6-2.7,2.1c-1.1,0.6-2.4,0.8-3.7,0.8C112.3,376.8,110.7,376.4,109.3,375.6z
			 M117.9,373.7c1.1-0.6,1.9-1.5,2.5-2.5v-6.2c0-1.6-0.5-2.9-1.6-4c-1.1-1.1-2.5-1.6-4.4-1.6c-1.3,0-2.5,0.3-3.5,1
			c-1,0.6-1.8,1.6-2.4,2.7s-0.8,2.5-0.8,4c0,1.6,0.3,2.9,0.9,4c0.6,1.1,1.4,2,2.4,2.6c1,0.6,2.1,0.9,3.4,0.9
			C115.7,374.7,116.9,374.4,117.9,373.7z"/>
	</g>
	<g class="st0">
		<path class="st1" d="M131,374.4c-1.7-1.6-2.5-4-2.5-7.3c0-1.9,0.4-3.5,1.1-5c0.7-1.5,1.8-2.6,3.1-3.5c1.4-0.8,3-1.3,4.9-1.3
			c2.5,0,4.4,0.7,5.7,2.2c1.2,1.4,1.9,3.3,1.9,5.7c0,1,0,1.9-0.1,2.6h-13.9c0.1,2.2,0.7,3.8,1.8,5.1c1.2,1.2,2.9,1.8,5.3,1.8
			c0.8,0,1.7-0.1,2.7-0.3c1-0.2,1.9-0.5,2.7-0.9l0.4,2c-2,0.9-4.1,1.3-6.2,1.3C135,376.8,132.7,376,131,374.4z M142.5,365.7
			c0-0.2,0-0.5,0-1c0-1.6-0.4-2.9-1.2-3.9c-0.8-1-2.1-1.5-3.9-1.5c-1.9,0-3.3,0.6-4.4,1.7c-1.1,1.2-1.7,2.7-1.8,4.6H142.5z"/>
	</g>
	<g class="st0">
		<path class="st1" d="M151,357.7h2.4l0.2,2.7c0.8-0.8,1.7-1.5,2.9-2c1.2-0.6,2.4-0.9,3.8-1l-0.1,2.5c-1.1,0-2.3,0.3-3.5,0.8
			c-1.2,0.5-2.2,1.1-3.1,1.8v14H151V357.7z"/>
	</g>
	<g class="st0">
		<path class="st1" d="M165,375.2c-1.3-1.1-1.9-2.6-1.9-4.5c0-1.5,0.5-2.6,1.6-3.5c1.1-0.8,2.6-1.2,4.6-1.2h3c0.9,0,2,0,3.2,0.1
			v-1.7c0-1.7-0.4-3-1.2-3.8c-0.8-0.8-2.1-1.2-3.8-1.2c-1.8,0-3.7,0.3-5.6,0.8l-0.3-2c0.9-0.3,1.9-0.5,3-0.7
			c1.1-0.2,2.2-0.3,3.4-0.3c2.3,0,4.1,0.6,5.3,1.7c1.2,1.1,1.9,2.7,1.9,4.9v7.8c0,1.2,0,2.7,0.1,4.8h-2.2c-0.1-0.5-0.2-1.3-0.3-2.3
			h-0.1c-0.5,0.8-1.2,1.5-2.2,2c-1,0.5-2.2,0.7-3.6,0.7C167.9,376.8,166.3,376.3,165,375.2z M174.1,373.4c1-0.8,1.4-2,1.4-3.5v-1.9
			H169c-1,0-1.8,0.2-2.3,0.6c-0.6,0.4-0.8,1.1-0.8,2.1c0,1.2,0.4,2.2,1.3,2.9c0.8,0.7,1.9,1,3.2,1
			C171.9,374.7,173.2,374.3,174.1,373.4z"/>
	</g>
	<g class="st0">
		<path class="st1" d="M183.3,375.4l12.2-15.6h-10.8l-0.9-2.2h15.6v1.2l-12.1,15.5h12.2l-0.9,2.2h-15.2V375.4z"/>
	</g>
	<g class="st0">
		<path class="st1" d="M208.9,384.8c-1-0.2-1.9-0.4-2.5-0.7l0.2-2.1c0.8,0.3,1.7,0.5,2.6,0.7c0.9,0.2,1.9,0.2,2.7,0.2
			c2.1,0,3.7-0.6,4.8-1.9c1.1-1.2,1.6-3.1,1.6-5.5v-1.6c-0.6,0.8-1.5,1.4-2.6,1.9c-1.1,0.5-2.3,0.8-3.6,0.8c-1.8,0-3.4-0.4-4.8-1.2
			c-1.4-0.8-2.5-2-3.3-3.4c-0.8-1.5-1.2-3.1-1.2-4.9c0-1.9,0.4-3.7,1.3-5.1c0.9-1.5,2.1-2.6,3.5-3.4c1.5-0.8,3.1-1.2,4.8-1.2
			c1.2,0,2.3,0.2,3.4,0.7c1.1,0.5,1.9,1.1,2.4,1.8l0.3-2.2h2.1v17.2c0,3.3-0.7,5.8-2.1,7.5s-3.6,2.6-6.5,2.6
			C211,385.1,209.9,385,208.9,384.8z M215.7,373.7c1-0.5,1.9-1.2,2.4-2v-7.6c0-0.9-0.2-1.7-0.7-2.4c-0.5-0.7-1.1-1.3-2-1.7
			c-0.9-0.4-1.8-0.6-2.9-0.6c-1.3,0-2.5,0.3-3.5,0.9s-1.9,1.5-2.5,2.7c-0.6,1.2-0.9,2.5-0.9,4c0,1.5,0.3,2.8,0.9,3.9
			c0.6,1.1,1.4,2,2.5,2.6c1,0.6,2.2,0.9,3.5,0.9C213.5,374.5,214.6,374.2,215.7,373.7z"/>
	</g>
	<g class="st0">
		<path class="st1" d="M230.7,375.5c-1.4-0.9-2.4-2-3.2-3.5c-0.7-1.5-1.1-3.1-1.1-5c0-1.8,0.4-3.5,1.1-5c0.7-1.5,1.8-2.6,3.3-3.5
			c1.4-0.9,3.2-1.3,5.2-1.3c1.9,0,3.5,0.4,4.9,1.3c1.4,0.9,2.4,2,3.1,3.5c0.7,1.5,1.1,3.1,1.1,5c0,1.8-0.4,3.4-1.1,4.9
			c-0.7,1.5-1.8,2.7-3.2,3.5c-1.4,0.9-3.1,1.3-5.2,1.3C233.8,376.8,232.1,376.4,230.7,375.5z M240.6,372.7c1.2-1.4,1.8-3.3,1.8-5.6
			c0-2.4-0.6-4.2-1.8-5.6c-1.2-1.4-2.8-2.1-4.8-2.1c-2,0-3.6,0.7-4.8,2.1c-1.2,1.4-1.8,3.2-1.8,5.6c0,1.6,0.3,2.9,0.8,4.1
			s1.3,2.1,2.3,2.7c1,0.6,2.1,0.9,3.4,0.9C237.8,374.8,239.4,374.1,240.6,372.7z"/>
	</g>
	<g class="st0">
		<path class="st1" d="M262.1,384.2l3.9-8.6l-7.9-17.9h2.8l6.3,15h0.1l5.9-15h2.8l-11.6,27.3L262.1,384.2z"/>
	</g>
	<g class="st0">
		<path class="st1" d="M291,374.4c-1.7-1.6-2.5-4-2.5-7.3c0-1.9,0.4-3.5,1.1-5c0.7-1.5,1.8-2.6,3.1-3.5c1.4-0.8,3-1.3,4.9-1.3
			c2.5,0,4.4,0.7,5.7,2.2c1.2,1.4,1.9,3.3,1.9,5.7c0,1,0,1.9-0.1,2.6h-13.9c0.1,2.2,0.7,3.8,1.8,5.1c1.2,1.2,2.9,1.8,5.3,1.8
			c0.8,0,1.7-0.1,2.7-0.3c1-0.2,1.9-0.5,2.7-0.9l0.4,2c-2,0.9-4.1,1.3-6.2,1.3C295,376.8,292.7,376,291,374.4z M302.5,365.7
			c0-0.2,0-0.5,0-1c0-1.6-0.4-2.9-1.2-3.9s-2.1-1.5-3.9-1.5c-1.9,0-3.3,0.6-4.4,1.7c-1.1,1.2-1.7,2.7-1.8,4.6H302.5z"/>
		<path class="st1" d="M304.4,384.5l0.1-2c0.9,0.3,1.8,0.5,2.8,0.5c1.3,0,2.2-0.4,2.7-1.2c0.5-0.8,0.8-2.2,0.8-4.2v-19.8h2.6v19.7
			c0,2.6-0.5,4.5-1.4,5.8s-2.4,1.9-4.4,1.9C306.3,385.1,305.3,384.9,304.4,384.5z M310.5,353.9c-0.4-0.4-0.6-0.9-0.6-1.4
			s0.2-1.1,0.6-1.4c0.4-0.4,0.9-0.6,1.5-0.6s1.1,0.2,1.5,0.6c0.4,0.4,0.6,0.9,0.6,1.4s-0.2,1.1-0.6,1.4c-0.4,0.4-0.9,0.6-1.5,0.6
			S310.9,354.3,310.5,353.9z"/>
		<path class="st1" d="M321.4,374.4c-1.7-1.6-2.5-4-2.5-7.3c0-1.9,0.4-3.5,1.1-5c0.7-1.5,1.8-2.6,3.1-3.5c1.4-0.8,3-1.3,4.9-1.3
			c2.5,0,4.4,0.7,5.7,2.2s1.9,3.3,1.9,5.7c0,1,0,1.9-0.1,2.6h-13.9c0.1,2.2,0.7,3.8,1.8,5.1s2.9,1.8,5.3,1.8c0.8,0,1.7-0.1,2.7-0.3
			s1.9-0.5,2.7-0.9l0.4,2c-2,0.9-4.1,1.3-6.2,1.3C325.4,376.8,323.1,376,321.4,374.4z M332.9,365.7c0-0.2,0-0.5,0-1
			c0-1.6-0.4-2.9-1.2-3.9c-0.8-1-2.1-1.5-3.9-1.5c-1.9,0-3.3,0.6-4.4,1.7c-1.1,1.2-1.7,2.7-1.8,4.6H332.9z"/>
		<path class="st1" d="M340.9,357.7h2.3l0.2,1.7c0.9-0.6,1.9-1.1,3-1.5s2.2-0.6,3.3-0.6c1.1,0,2,0.2,2.9,0.6s1.6,1,2.1,1.7
			c1-0.7,2.1-1.2,3.3-1.6c1.2-0.4,2.4-0.6,3.6-0.6c2,0,3.6,0.6,4.6,1.7c1.1,1.1,1.6,2.8,1.6,5v12.4h-2.6V365c0-1.7-0.3-3-0.8-3.9
			c-0.6-1.1-1.8-1.7-3.6-1.7c-0.9,0-1.8,0.2-2.9,0.6s-2,0.9-2.7,1.4c0.2,0.8,0.3,1.8,0.3,3v12h-2.6V365c0-1,0-1.7-0.1-2.3
			c-0.1-0.6-0.3-1.1-0.5-1.6c-0.6-1.1-1.8-1.7-3.4-1.7c-1,0-2,0.2-3,0.6c-1,0.4-1.8,0.9-2.5,1.4v14.9h-2.6V357.7z"/>
		<path class="st1" d="M374.5,357.7h2.4l0.2,2.9c0.7-1,1.7-1.8,2.9-2.4c1.2-0.6,2.5-0.8,3.9-0.8c1.6,0,3,0.4,4.3,1.2
			c1.3,0.8,2.4,1.9,3.2,3.3c0.8,1.4,1.2,3.1,1.2,5.1s-0.4,3.7-1.2,5.2s-1.9,2.7-3.3,3.5c-1.4,0.8-3,1.2-4.7,1.2
			c-1.3,0-2.5-0.2-3.6-0.6s-2-1-2.7-1.7v9.7l-2.6,0.8V357.7z M388.1,372.5c1.1-1.5,1.7-3.3,1.7-5.5c0-1.6-0.3-2.9-0.8-4.1
			c-0.6-1.1-1.3-2-2.3-2.6c-1-0.6-2.1-0.9-3.3-0.9c-1.1,0-2.2,0.3-3.1,0.8c-1,0.5-1.7,1.2-2.3,2.1c-0.6,0.9-0.8,1.8-0.8,2.8v6.7
			c0.7,0.9,1.6,1.6,2.7,2.1c1.1,0.5,2.3,0.8,3.6,0.8C385.4,374.7,387,374,388.1,372.5z"/>
	</g>
	<g class="st0">
		<path class="st1" d="M400.8,350.8l2.6-0.8v26.4h-2.6V350.8z"/>
	</g>
	<g class="st0">
		<path class="st1" d="M413.1,375.5c-1.4-0.9-2.4-2-3.2-3.5c-0.7-1.5-1.1-3.1-1.1-5c0-1.8,0.4-3.5,1.1-5c0.7-1.5,1.8-2.6,3.3-3.5
			c1.4-0.9,3.2-1.3,5.2-1.3c1.9,0,3.5,0.4,4.9,1.3c1.4,0.9,2.4,2,3.1,3.5c0.7,1.5,1.1,3.1,1.1,5c0,1.8-0.4,3.4-1.1,4.9
			c-0.7,1.5-1.8,2.7-3.2,3.5c-1.4,0.9-3.1,1.3-5.2,1.3C416.2,376.8,414.5,376.4,413.1,375.5z M423,372.7c1.2-1.4,1.8-3.3,1.8-5.6
			c0-2.4-0.6-4.2-1.8-5.6c-1.2-1.4-2.8-2.1-4.8-2.1c-2,0-3.6,0.7-4.8,2.1c-1.2,1.4-1.8,3.2-1.8,5.6c0,1.6,0.3,2.9,0.8,4.1
			c0.6,1.2,1.3,2.1,2.3,2.7s2.1,0.9,3.4,0.9C420.2,374.8,421.8,374.1,423,372.7z"/>
	</g>
	<g class="st0">
		<path class="st1" d="M435.2,376.4c-1.1-0.3-2-0.6-2.8-1l0.3-2.2c0.9,0.5,1.8,0.8,2.8,1.1c1,0.3,2,0.4,3,0.4c1.4,0,2.4-0.3,3.2-0.8
			c0.8-0.6,1.1-1.3,1.1-2.3c0-0.7-0.1-1.2-0.4-1.6c-0.3-0.4-0.7-0.7-1.2-1c-0.5-0.3-1.4-0.6-2.6-1c-2.1-0.8-3.6-1.6-4.5-2.4
			c-0.9-0.9-1.3-1.9-1.3-3.3c0-1.5,0.6-2.7,1.8-3.5c1.2-0.9,2.8-1.3,4.8-1.3c1.6,0,3.2,0.3,4.8,0.8l-0.3,2.1c-1.6-0.6-3-0.8-4.5-0.8
			c-1.3,0-2.3,0.2-3.1,0.7c-0.7,0.5-1.1,1.1-1.1,2c0,0.8,0.3,1.4,0.9,2c0.6,0.6,1.7,1.1,3.4,1.7c1.9,0.6,3.3,1.4,4.2,2.2
			s1.3,1.9,1.3,3.3c0,1.8-0.6,3.1-1.9,4.1c-1.3,1-2.9,1.5-4.9,1.5C437.3,376.8,436.3,376.7,435.2,376.4z"/>
	</g>
	<g class="st0">
		<path class="st1" d="M142.8,416.6c-1.4-0.8-2.4-1.9-3.2-3.4c-0.8-1.5-1.1-3.1-1.1-5c0-1.9,0.4-3.7,1.3-5.2c0.9-1.5,2-2.7,3.5-3.5
			c1.5-0.8,3-1.2,4.7-1.2c1.3,0,2.5,0.2,3.5,0.7s1.8,1,2.4,1.7h0.1v-8.9l2.6-0.8v21.6c0,1.2,0,2.7,0.1,4.8h-2.2
			c-0.1-0.5-0.2-1.3-0.3-2.6H154c-0.7,0.9-1.6,1.6-2.7,2.1c-1.1,0.6-2.4,0.8-3.7,0.8C145.7,417.8,144.2,417.4,142.8,416.6z
			 M151.4,414.7c1.1-0.6,1.9-1.5,2.5-2.5v-6.2c0-1.6-0.5-2.9-1.6-4c-1.1-1.1-2.5-1.6-4.4-1.6c-1.3,0-2.5,0.3-3.5,1
			c-1,0.6-1.8,1.6-2.4,2.7s-0.8,2.5-0.8,4c0,1.6,0.3,2.9,0.9,4c0.6,1.1,1.4,2,2.4,2.6c1,0.6,2.1,0.9,3.4,0.9
			C149.1,415.7,150.3,415.4,151.4,414.7z"/>
	</g>
	<g class="st0">
		<path class="st1" d="M164.4,415.4c-1.7-1.6-2.5-4-2.5-7.3c0-1.9,0.4-3.5,1.1-5c0.7-1.5,1.8-2.6,3.1-3.5c1.4-0.8,3-1.3,4.9-1.3
			c2.5,0,4.4,0.7,5.7,2.2c1.2,1.4,1.9,3.3,1.9,5.7c0,1,0,1.9-0.1,2.6h-13.9c0.1,2.2,0.7,3.8,1.8,5.1c1.2,1.2,2.9,1.8,5.3,1.8
			c0.8,0,1.7-0.1,2.7-0.3c1-0.2,1.9-0.5,2.7-0.9l0.4,2c-2,0.9-4.1,1.3-6.2,1.3C168.4,417.8,166.1,417,164.4,415.4z M175.9,406.7
			c0-0.2,0-0.5,0-1c0-1.6-0.4-2.9-1.2-3.9c-0.8-1-2.1-1.5-3.9-1.5c-1.9,0-3.3,0.6-4.4,1.7c-1.1,1.2-1.7,2.7-1.8,4.6H175.9z"/>
		<path class="st1" d="M192.7,394.9c-0.4-0.4-0.6-0.9-0.6-1.4s0.2-1.1,0.6-1.4c0.4-0.4,0.9-0.6,1.5-0.6c0.6,0,1.1,0.2,1.5,0.6
			c0.4,0.4,0.6,0.9,0.6,1.4s-0.2,1.1-0.6,1.4c-0.4,0.4-0.9,0.6-1.5,0.6C193.6,395.5,193.1,395.3,192.7,394.9z M192.9,398.7h2.6v18.8
			h-2.6V398.7z"/>
	</g>
	<g class="st0">
		<path class="st1" d="M203.7,398.7h2.3l0.2,1.7c1-0.6,2.1-1.1,3.3-1.5c1.2-0.4,2.4-0.6,3.5-0.6c2.2,0,3.8,0.6,4.9,1.7
			c0.5,0.6,0.9,1.2,1.1,2s0.4,1.7,0.4,2.8v12.6h-2.6v-12.3c0-1.5-0.3-2.6-0.9-3.3c-0.4-0.5-0.8-0.8-1.3-1s-1.2-0.3-2.1-0.3
			c-1.1,0-2.1,0.2-3.2,0.6c-1.1,0.4-2.1,0.9-3,1.5v14.9h-2.6V398.7z"/>
		<path class="st1" d="M227.7,417.4c-1.1-0.3-2-0.6-2.8-1l0.3-2.2c0.9,0.5,1.8,0.8,2.8,1.1s2,0.4,3,0.4c1.4,0,2.4-0.3,3.2-0.8
			c0.8-0.6,1.1-1.3,1.1-2.3c0-0.7-0.1-1.2-0.4-1.6c-0.3-0.4-0.7-0.7-1.2-1c-0.5-0.3-1.4-0.6-2.6-1c-2.1-0.8-3.6-1.6-4.5-2.4
			c-0.9-0.9-1.3-1.9-1.3-3.3c0-1.5,0.6-2.7,1.8-3.5c1.2-0.9,2.8-1.3,4.8-1.3c1.6,0,3.2,0.3,4.8,0.8l-0.3,2.1c-1.6-0.6-3-0.8-4.5-0.8
			c-1.3,0-2.3,0.2-3.1,0.7c-0.7,0.5-1.1,1.1-1.1,2c0,0.8,0.3,1.4,0.9,2c0.6,0.6,1.7,1.1,3.4,1.7c1.9,0.6,3.3,1.4,4.2,2.2
			s1.3,1.9,1.3,3.3c0,1.8-0.6,3.1-1.9,4.1c-1.3,1-2.9,1.5-4.9,1.5C229.9,417.8,228.8,417.7,227.7,417.4z"/>
	</g>
	<g class="st0">
		<path class="st1" d="M244,398.7h2.4l0.2,2.9c0.7-1,1.7-1.8,2.9-2.4c1.2-0.6,2.5-0.8,3.9-0.8c1.6,0,3,0.4,4.3,1.2
			c1.3,0.8,2.4,1.9,3.2,3.3c0.8,1.4,1.2,3.1,1.2,5.1s-0.4,3.7-1.2,5.2s-1.9,2.7-3.3,3.5c-1.4,0.8-3,1.2-4.7,1.2
			c-1.3,0-2.5-0.2-3.6-0.6c-1.1-0.4-2-1-2.7-1.7v9.7l-2.6,0.8V398.7z M257.6,413.5c1.1-1.5,1.7-3.3,1.7-5.5c0-1.6-0.3-2.9-0.8-4.1
			c-0.6-1.1-1.3-2-2.3-2.6c-1-0.6-2.1-0.9-3.3-0.9c-1.1,0-2.2,0.3-3.1,0.8c-1,0.5-1.7,1.2-2.3,2.1s-0.8,1.8-0.8,2.8v6.7
			c0.7,0.9,1.6,1.6,2.7,2.1c1.1,0.5,2.3,0.8,3.6,0.8C254.9,415.7,256.5,415,257.6,413.5z"/>
		<path class="st1" d="M267.5,394.9c-0.4-0.4-0.6-0.9-0.6-1.4s0.2-1.1,0.6-1.4c0.4-0.4,0.9-0.6,1.5-0.6c0.6,0,1.1,0.2,1.5,0.6
			c0.4,0.4,0.6,0.9,0.6,1.4s-0.2,1.1-0.6,1.4c-0.4,0.4-0.9,0.6-1.5,0.6C268.4,395.5,267.9,395.3,267.5,394.9z M267.6,398.7h2.6v18.8
			h-2.6V398.7z"/>
	</g>
	<g class="st0">
		<path class="st1" d="M278,398.7h2.4l0.2,2.7c0.8-0.8,1.7-1.5,2.9-2c1.2-0.6,2.4-0.9,3.8-1l-0.1,2.5c-1.1,0-2.3,0.3-3.5,0.8
			c-1.2,0.5-2.2,1.1-3.1,1.8v14H278V398.7z"/>
	</g>
	<g class="st0">
		<path class="st1" d="M292,416.2c-1.3-1.1-1.9-2.6-1.9-4.5c0-1.5,0.5-2.6,1.6-3.5c1.1-0.8,2.6-1.2,4.6-1.2h3c0.9,0,2,0,3.2,0.1
			v-1.7c0-1.7-0.4-3-1.2-3.8c-0.8-0.8-2.1-1.2-3.8-1.2c-1.8,0-3.7,0.3-5.6,0.8l-0.3-2c0.9-0.3,1.9-0.5,3-0.7
			c1.1-0.2,2.2-0.3,3.4-0.3c2.3,0,4.1,0.6,5.3,1.7c1.2,1.1,1.9,2.7,1.9,4.9v7.8c0,1.2,0,2.7,0.1,4.8H303c-0.1-0.5-0.2-1.3-0.3-2.3
			h-0.1c-0.5,0.8-1.2,1.5-2.2,2c-1,0.5-2.2,0.7-3.6,0.7C294.9,417.8,293.2,417.3,292,416.2z M301.1,414.4c1-0.8,1.4-2,1.4-3.5v-1.9
			H296c-1,0-1.8,0.2-2.3,0.6c-0.6,0.4-0.8,1.1-0.8,2.1c0,1.2,0.4,2.2,1.3,2.9c0.8,0.7,1.9,1,3.2,1
			C298.9,415.7,300.1,415.3,301.1,414.4z"/>
	</g>
	<g class="st0">
		<path class="st1" d="M315.8,416.6c-1.5-0.8-2.6-1.9-3.4-3.4c-0.8-1.5-1.2-3.2-1.2-5.3c0-1.9,0.4-3.6,1.3-5.1
			c0.9-1.5,2-2.6,3.5-3.4c1.5-0.8,3.1-1.2,4.9-1.2c2.1,0,4,0.3,5.5,1l-0.4,2.1c-0.6-0.3-1.4-0.5-2.3-0.7c-0.9-0.2-1.8-0.3-2.6-0.3
			c-1.4,0-2.7,0.3-3.8,1c-1.1,0.6-1.9,1.5-2.5,2.7c-0.6,1.1-0.9,2.4-0.9,3.9c0,2.3,0.6,4.1,1.8,5.6c1.2,1.5,3.1,2.2,5.6,2.2
			c0.8,0,1.7-0.1,2.6-0.3c0.9-0.2,1.7-0.5,2.5-0.8l0.4,2c-1.9,0.9-3.8,1.3-5.8,1.3C318.9,417.8,317.2,417.4,315.8,416.6z"/>
		<path class="st1" d="M331.6,394.9c-0.4-0.4-0.6-0.9-0.6-1.4s0.2-1.1,0.6-1.4c0.4-0.4,0.9-0.6,1.5-0.6s1.1,0.2,1.5,0.6
			c0.4,0.4,0.6,0.9,0.6,1.4s-0.2,1.1-0.6,1.4c-0.4,0.4-0.9,0.6-1.5,0.6S332,395.3,331.6,394.9z M331.8,398.7h2.6v18.8h-2.6V398.7z"
			/>
	</g>
	<g class="st0">
		<path class="st1" d="M345.1,416.5c-1.4-0.9-2.4-2-3.2-3.5c-0.7-1.5-1.1-3.1-1.1-5c0-1.8,0.4-3.5,1.1-5c0.7-1.5,1.8-2.6,3.3-3.5
			c1.4-0.9,3.2-1.3,5.2-1.3c1.9,0,3.5,0.4,4.9,1.3c1.4,0.9,2.4,2,3.1,3.5c0.7,1.5,1.1,3.1,1.1,5c0,1.8-0.4,3.4-1.1,4.9
			c-0.7,1.5-1.8,2.7-3.2,3.5c-1.4,0.9-3.2,1.3-5.2,1.3C348.2,417.8,346.5,417.4,345.1,416.5z M355,413.7c1.2-1.4,1.8-3.3,1.8-5.6
			c0-2.4-0.6-4.2-1.8-5.6c-1.2-1.4-2.8-2.1-4.8-2.1c-2,0-3.6,0.7-4.8,2.1c-1.2,1.4-1.8,3.2-1.8,5.6c0,1.6,0.3,2.9,0.8,4.1
			s1.3,2.1,2.3,2.7s2.1,0.9,3.4,0.9C352.2,415.8,353.8,415.1,355,413.7z M346.8,394.6l7.6-4.4l1.4,2.3l-7.9,3.9L346.8,394.6z"/>
	</g>
	<g class="st0">
		<path class="st1" d="M365.5,398.7h2.3l0.2,1.7c1-0.6,2.1-1.1,3.3-1.5c1.2-0.4,2.4-0.6,3.5-0.6c2.2,0,3.8,0.6,4.9,1.7
			c0.5,0.6,0.9,1.2,1.1,2s0.4,1.7,0.4,2.8v12.6h-2.6v-12.3c0-1.5-0.3-2.6-0.9-3.3c-0.4-0.5-0.8-0.8-1.3-1c-0.5-0.2-1.2-0.3-2.1-0.3
			c-1.1,0-2.1,0.2-3.2,0.6c-1.1,0.4-2.1,0.9-3,1.5v14.9h-2.6V398.7z"/>
	</g>
	<g class="st0">
		<path class="st1" d="M387.8,417.2c-0.5-0.5-0.7-1-0.7-1.6c0-0.6,0.2-1.2,0.7-1.6c0.4-0.5,1-0.7,1.6-0.7c0.6,0,1.2,0.2,1.6,0.7
			c0.5,0.5,0.7,1,0.7,1.6s-0.2,1.2-0.7,1.6c-0.5,0.4-1,0.7-1.6,0.7C388.7,417.8,388.2,417.6,387.8,417.2z"/>
	</g>
</g>
<g>
	<g>
		<path class="st2" d="M110.3,454.5c-15.1,0-29.7-4-43.7-11.9l3.3-5.9c22,12.4,45.6,14.3,70.1,5.6l2.3,6.4
			C131.5,452.6,120.8,454.5,110.3,454.5z"/>
	</g>
	<g>
		<path class="st2" d="M88.1,398.6c-28.4,0-52.1-10.5-70.6-31.3l5.3-4.6c17.3,19.4,39.6,29.2,66.3,28.9l0,0l0.1,7
			C88.9,398.6,88.4,398.6,88.1,398.6z"/>
	</g>
	<g>
		<path class="st2" d="M56,334.6c-26.6-8.9-45.4-26.1-56-51.3l6.3-2.6c9.8,23.3,27.2,39.3,51.9,47.5L56,334.6z"/>
	</g>
	<g>
		<path class="st2" d="M45,262.9c-22.3-17-34.5-39.5-36.3-66.7l6.8-0.4c1.7,25.2,13,46,33.6,61.8L45,262.9z"/>
	</g>
	<g>
		<path class="st2" d="M58,191.5c-15.5-23.3-19.8-48.5-12.6-74.9l6.5,1.8c-6.6,24.4-2.7,47.7,11.7,69.3L58,191.5z"/>
	</g>
	<g>
		<path class="st2" d="M93.4,128.1c-7.1-27.1-3-52.3,12.4-74.9l5.6,3.8c-14.2,20.9-18,44.3-11.4,69.4L93.4,128.1z"/>
	</g>
	<g>
		<path class="st2" d="M154.3,80.2l-6.8-0.5c2.1-27.9,14.2-50.4,36-66.9l4.1,5.4C167.4,33.5,156.2,54.3,154.3,80.2z"/>
	</g>
	<g>
		<path class="st2" d="M220.6,54.2l-6.2-2.7c11-25.8,29.8-43.1,55.8-51.5l2.1,6.5C248.2,14.3,230.8,30.3,220.6,54.2z"/>
	</g>
	<g>
		<path class="st2" d="M291.6,51.1l-5-4.6c18.8-20.8,42.1-31.1,69.5-30.6l-0.1,6.8C330.6,22.3,309,31.9,291.6,51.1z"/>
	</g>
	<g>
		<path class="st2" d="M360.1,71.3l-3.3-5.9c24.5-13.6,50-15.7,75.7-6.4l-2.3,6.4C406.4,56.7,382.9,58.8,360.1,71.3z"/>
	</g>
	<g>
		<path class="st2" d="M486.4,129.7c-19.7-15.9-42.6-21.6-68.2-17.1l-1.2-6.7c27.6-4.9,52.4,1.4,73.7,18.5L486.4,129.7z"/>
	</g>
	<g>
		<path class="st2" d="M518.7,208.8c-13.5-21.4-33.3-34.3-59-38.3l1.1-6.7c27.7,4.4,49.1,18.3,63.7,41.4L518.7,208.8z"/>
	</g>
	<g>
		<path class="st2" d="M523.5,294.2c-5.8-24.6-20.4-43.2-43.3-55.4l3.2-6c24.8,13.1,40.5,33.2,46.8,59.8L523.5,294.2z"/>
	</g>
	<g>
		<path class="st2" d="M507.1,377.1l-6.8-0.7c2.5-25.2-5.2-47.5-23-66.5l5-4.6C501.5,325.8,509.8,349.9,507.1,377.1z"/>
	</g>
	<g>
		<path class="st2" d="M458,449.6l-6.2-2.8c10.5-23,10.5-46.6-0.2-70.3l6.2-2.8C469.3,399.2,469.3,424.7,458,449.6z"/>
	</g>
	<g>
		<path class="st2" d="M387.9,502.1l-4.9-4.7c17.4-18.3,25.1-40.7,22.7-66.6l6.8-0.6C415,458.2,406.8,482.3,387.9,502.1z"/>
	</g>
	<g>
		<path class="st2" d="M304.6,529.1l-3.1-6c22.4-11.7,36.9-30.4,43.1-55.6l6.6,1.6C344.5,496.3,328.8,516.5,304.6,529.1z"/>
	</g>
	<g>
		<path class="st2" d="M217.1,527.6l-1-6.7c25-3.7,44.8-16.7,58.8-38.6l5.7,3.7C265.4,509.5,244.1,523.5,217.1,527.6z"/>
	</g>
	<g>
		<path class="st2" d="M152.1,499.3c-5.7,0-11.5-0.5-17.4-1.6l1.2-6.7c24.9,4.6,47.8-1.3,68.1-17.4l4.2,5.3
			C191.2,492.5,172.4,499.3,152.1,499.3z"/>
	</g>
</g>
<g>
	<path class="st3" d="M227.6,137.4v54.5c0,6.4,3.4,12.3,8.8,15.7l9.4,5.7v-75.8L227.6,137.4L227.6,137.4z"/>
	<path class="st3" d="M284.2,137.4v75l12-7.8c5.2-3.3,8.3-9.1,8.3-15.3v-51.8L284.2,137.4L284.2,137.4z"/>
	<path class="st4" d="M245.9,137.4v75.8l7.8,4.7c6.8,4.1,15.4,4,22.1-0.3l8-5.2v-75H245.9z"/>
	<path class="st5" d="M265.5,53.6v20.8l12.7,12.7l-34.4,56.8l-14.4-32.4l-22.2,0.1l0,0c0,36.2,33.3,64.7,71.1,56.4
		c21.5-4.7,38.5-21.5,43.3-43c8.5-37.7-19.9-71.1-56.2-71.3"/>
	<path class="st6" d="M243.5,144l34.4-57l-12.7-12.7V53.6c-0.1,0-0.2,0-0.3,0c-32,0-57.9,25.9-57.9,57.9l22.2-0.1L243.5,144z"/>
	<path class="st7" d="M307.8,111.7c0,23.6-19.2,42.8-42.8,42.8c-23.6,0-42.8-19.2-42.8-42.8s19.2-42.8,42.8-42.8
		C288.7,68.8,307.8,88,307.8,111.7"/>
	<path class="st2" d="M244.4,82.9l1.1,2c0.1,0.1,0.2,0.3,0.3,0.3l2,1.1c0.6,0.3,0.6,1.2,0,1.5l-2,1.1c-0.1,0.1-0.3,0.2-0.3,0.3
		l-1.1,2c-0.3,0.6-1.2,0.6-1.5,0l-1.1-2c-0.1-0.1-0.2-0.3-0.3-0.3l-2-1.1c-0.6-0.3-0.6-1.2,0-1.5l2-1.1c0.1-0.1,0.3-0.2,0.3-0.3
		l1.1-2C243.3,82.4,244.1,82.4,244.4,82.9"/>
	<path class="st2" d="M298.5,119.4l1.1,2c0.1,0.1,0.2,0.3,0.3,0.3l2,1.1c0.6,0.3,0.6,1.2,0,1.5l-2,1.1c-0.1,0.1-0.3,0.2-0.3,0.3
		l-1.1,2c-0.3,0.6-1.2,0.6-1.5,0l-1.1-2c-0.1-0.1-0.2-0.3-0.3-0.3l-2-1.1c-0.6-0.3-0.6-1.2,0-1.5l2-1.1c0.1-0.1,0.3-0.2,0.3-0.3
		l1.1-2C297.3,118.8,298.2,118.8,298.5,119.4"/>
	<path class="st8" d="M292.2,109.9c3-2.9,1.3-8-2.8-8.6l-10.7-1.6c-1.7-0.2-3.2-1.3-4-2.9l-1.1-2.3l-25.9,42.9
		c1.5,1.3,3.7,1.7,5.7,0.7l9.6-5c1.6-0.8,3.4-0.8,4.9,0l9.6,5c3.7,1.9,8-1.2,7.3-5.3l-1.8-10.7c-0.3-1.7,0.3-3.5,1.5-4.7
		L292.2,109.9z"/>
	<path class="st6" d="M269.9,87.1c-1.9-3.7-7.2-3.7-9,0l-4.8,9.7c-0.8,1.6-2.3,2.7-4,2.9l-10.7,1.6c-4.1,0.6-5.8,5.7-2.8,8.6
		l7.8,7.6c1.2,1.2,1.8,3,1.5,4.7l-1.8,10.7c-0.3,1.9,0.4,3.6,1.7,4.6l25.9-42.9L269.9,87.1z"/>
</g>
</svg>
