<?xml version="1.0" encoding="utf-8"?>
<!-- Generator: Adobe Illustrator 23.0.6, SVG Export Plug-In . SVG Version: 6.00 Build 0)  -->
<svg version="1.1" id="Capa_1" xmlns="http://www.w3.org/2000/svg" xmlns:xlink="http://www.w3.org/1999/xlink" x="0px" y="0px"
	 viewBox="0 0 530.2 1135.1" style="enable-background:new 0 0 530.2 1135.1;" xml:space="preserve">
<style type="text/css">
	.st0{filter:url(#Adobe_OpacityMaskFilter);}
	.st1{fill:url(#SVGID_2_);}
	.st2{mask:url(#SVGID_1_);fill:url(#SVGID_3_);}
	.st3{filter:url(#Adobe_OpacityMaskFilter_1_);}
	.st4{fill:url(#SVGID_5_);}
	.st5{mask:url(#SVGID_4_);fill:url(#SVGID_6_);}
	.st6{filter:url(#Adobe_OpacityMaskFilter_2_);}
	.st7{fill:url(#SVGID_8_);}
	.st8{mask:url(#SVGID_7_);fill:url(#SVGID_9_);}
	.st9{filter:url(#Adobe_OpacityMaskFilter_3_);}
	.st10{fill:url(#SVGID_11_);}
	.st11{mask:url(#SVGID_10_);fill:url(#SVGID_12_);}
	.st12{filter:url(#Adobe_OpacityMaskFilter_4_);}
	.st13{fill:url(#SVGID_14_);}
	.st14{mask:url(#SVGID_13_);fill:url(#SVGID_15_);}
	.st15{filter:url(#Adobe_OpacityMaskFilter_5_);}
	.st16{fill:url(#SVGID_17_);}
	.st17{mask:url(#SVGID_16_);fill:url(#SVGID_18_);}
	.st18{filter:url(#Adobe_OpacityMaskFilter_6_);}
	.st19{fill:url(#SVGID_20_);}
	.st20{mask:url(#SVGID_19_);fill:url(#SVGID_21_);}
	.st21{filter:url(#Adobe_OpacityMaskFilter_7_);}
	.st22{fill:url(#SVGID_23_);}
	.st23{mask:url(#SVGID_22_);fill:url(#SVGID_24_);}
	.st24{filter:url(#Adobe_OpacityMaskFilter_8_);}
	.st25{fill:url(#SVGID_26_);}
	.st26{mask:url(#SVGID_25_);fill:url(#SVGID_27_);}
	.st27{filter:url(#Adobe_OpacityMaskFilter_9_);}
	.st28{fill:url(#SVGID_29_);}
	.st29{mask:url(#SVGID_28_);fill:url(#SVGID_30_);}
	.st30{filter:url(#Adobe_OpacityMaskFilter_10_);}
	.st31{fill:url(#SVGID_32_);}
	.st32{mask:url(#SVGID_31_);fill:url(#SVGID_33_);}
	.st33{filter:url(#Adobe_OpacityMaskFilter_11_);}
	.st34{fill:url(#SVGID_35_);}
	.st35{mask:url(#SVGID_34_);fill:url(#SVGID_36_);}
	.st36{filter:url(#Adobe_OpacityMaskFilter_12_);}
	.st37{fill:url(#SVGID_38_);}
	.st38{mask:url(#SVGID_37_);fill:url(#SVGID_39_);}
	.st39{filter:url(#Adobe_OpacityMaskFilter_13_);}
	.st40{fill:url(#SVGID_41_);}
	.st41{mask:url(#SVGID_40_);fill:url(#SVGID_42_);}
	.st42{filter:url(#Adobe_OpacityMaskFilter_14_);}
	.st43{fill:url(#SVGID_44_);}
	.st44{mask:url(#SVGID_43_);fill:url(#SVGID_45_);}
	.st45{filter:url(#Adobe_OpacityMaskFilter_15_);}
	.st46{fill:url(#SVGID_47_);}
	.st47{mask:url(#SVGID_46_);fill:url(#SVGID_48_);}
	.st48{filter:url(#Adobe_OpacityMaskFilter_16_);}
	.st49{fill:url(#SVGID_50_);}
	.st50{mask:url(#SVGID_49_);fill:url(#SVGID_51_);}
	.st51{filter:url(#Adobe_OpacityMaskFilter_17_);}
	.st52{fill:url(#SVGID_53_);}
	.st53{mask:url(#SVGID_52_);fill:url(#SVGID_54_);}
	.st54{filter:url(#Adobe_OpacityMaskFilter_18_);}
	.st55{fill:url(#SVGID_56_);}
	.st56{mask:url(#SVGID_55_);fill:url(#SVGID_57_);}
	.st57{filter:url(#Adobe_OpacityMaskFilter_19_);}
	.st58{fill:url(#SVGID_59_);}
	.st59{mask:url(#SVGID_58_);fill:url(#SVGID_60_);}
	.st60{filter:url(#Adobe_OpacityMaskFilter_20_);}
	.st61{fill:url(#SVGID_62_);}
	.st62{mask:url(#SVGID_61_);fill:url(#SVGID_63_);}
	.st63{filter:url(#Adobe_OpacityMaskFilter_21_);}
	.st64{fill:url(#SVGID_65_);}
	.st65{mask:url(#SVGID_64_);fill:url(#SVGID_66_);}
</style>
<g>
	<defs>
		<filter id="Adobe_OpacityMaskFilter" filterUnits="userSpaceOnUse" x="38.2" y="666.6" width="453.8" height="454">
			<feColorMatrix  type="matrix" values="1 0 0 0 0  0 1 0 0 0  0 0 1 0 0  0 0 0 1 0"/>
		</filter>
	</defs>
	<mask maskUnits="userSpaceOnUse" x="38.2" y="666.6" width="453.8" height="454" id="SVGID_1_">
		<g class="st0">
			
				<linearGradient id="SVGID_2_" gradientUnits="userSpaceOnUse" x1="-1022.1418" y1="830.9196" x2="-1021.2834" y2="830.9196" gradientTransform="matrix(0 529.6238 529.6238 0 -439588.0313 542017)">
				<stop  offset="0" style="stop-color:#000000"/>
				<stop  offset="1" style="stop-color:#FFFFFF"/>
			</linearGradient>
			<rect x="23.3" y="179.8" class="st1" width="927" height="2247.3"/>
		</g>
	</mask>
	
		<linearGradient id="SVGID_3_" gradientUnits="userSpaceOnUse" x1="-1022.1413" y1="830.501" x2="-1021.2829" y2="830.501" gradientTransform="matrix(-3.243010e-14 529.624 529.624 3.243010e-14 -439588.1875 542017.1875)">
		<stop  offset="0" style="stop-color:#F7BDC2"/>
		<stop  offset="1" style="stop-color:#F7BDC2"/>
	</linearGradient>
	<path class="st2" d="M491.1,893.6c-0.2-124.9-101.2-225.9-226-226.1c-124.8,0.2-225.8,101.2-226,226.1
		c0.2,124.9,101.2,225.9,226,226.1C389.9,1119.5,490.9,1018.5,491.1,893.6h0.9c0,125.4-101.6,227-226.9,227
		c-125.3,0-226.9-101.6-226.9-227c0-125.4,101.6-227,226.9-227c125.3,0,226.9,101.6,226.9,227H491.1L491.1,893.6z"/>
	<defs>
		<filter id="Adobe_OpacityMaskFilter_1_" filterUnits="userSpaceOnUse" x="51.7" y="680.1" width="426.7" height="427">
			<feColorMatrix  type="matrix" values="1 0 0 0 0  0 1 0 0 0  0 0 1 0 0  0 0 0 1 0"/>
		</filter>
	</defs>
	<mask maskUnits="userSpaceOnUse" x="51.7" y="680.1" width="426.7" height="427" id="SVGID_4_">
		<g class="st3">
			
				<linearGradient id="SVGID_5_" gradientUnits="userSpaceOnUse" x1="-1021.9205" y1="831.0667" x2="-1021.0622" y2="831.0667" gradientTransform="matrix(0 498.0966 498.0966 0 -413464.7188 509695)">
				<stop  offset="0" style="stop-color:#000000"/>
				<stop  offset="1" style="stop-color:#FFFFFF"/>
			</linearGradient>
			<rect x="23.3" y="179.8" class="st4" width="927" height="2247.3"/>
		</g>
	</mask>
	
		<linearGradient id="SVGID_6_" gradientUnits="userSpaceOnUse" x1="-1021.92" y1="830.6216" x2="-1021.0616" y2="830.6216" gradientTransform="matrix(-3.049960e-14 498.097 498.097 3.049960e-14 -413465.0313 509695.375)">
		<stop  offset="0" style="stop-color:#F7BDC2"/>
		<stop  offset="1" style="stop-color:#F7BDC2"/>
	</linearGradient>
	<path class="st5" d="M477.6,893.6c-0.2-117.4-95.1-212.4-212.5-212.6c-117.4,0.2-212.3,95.2-212.5,212.6
		c0.2,117.4,95.1,212.4,212.5,212.6C382.5,1106,477.4,1011,477.6,893.6h0.9c0,117.9-95.5,213.5-213.4,213.5
		c-117.8,0-213.4-95.6-213.4-213.5c0-117.9,95.5-213.5,213.4-213.5c117.8,0,213.4,95.6,213.4,213.5H477.6L477.6,893.6z"/>
	<defs>
		<filter id="Adobe_OpacityMaskFilter_2_" filterUnits="userSpaceOnUse" x="65.3" y="693.7" width="399.7" height="399.9">
			<feColorMatrix  type="matrix" values="1 0 0 0 0  0 1 0 0 0  0 0 1 0 0  0 0 0 1 0"/>
		</filter>
	</defs>
	<mask maskUnits="userSpaceOnUse" x="65.3" y="693.7" width="399.7" height="399.9" id="SVGID_7_">
		<g class="st6">
			
				<linearGradient id="SVGID_8_" gradientUnits="userSpaceOnUse" x1="-1021.6694" y1="831.2336" x2="-1020.811" y2="831.2336" gradientTransform="matrix(0 466.5694 466.5694 0 -387341.4063 477373.0625)">
				<stop  offset="0" style="stop-color:#000000"/>
				<stop  offset="1" style="stop-color:#FFFFFF"/>
			</linearGradient>
			<rect x="23.3" y="179.8" class="st7" width="927" height="2247.3"/>
		</g>
	</mask>
	
		<linearGradient id="SVGID_9_" gradientUnits="userSpaceOnUse" x1="-1021.6687" y1="830.7585" x2="-1020.8104" y2="830.7585" gradientTransform="matrix(-2.856910e-14 466.569 466.569 2.856910e-14 -387341.0625 477372.625)">
		<stop  offset="0" style="stop-color:#F7BDC2"/>
		<stop  offset="1" style="stop-color:#F7BDC2"/>
	</linearGradient>
	<path class="st8" d="M464.1,893.6c-0.2-110-89.1-198.9-199-199.1c-109.9,0.2-198.8,89.1-199,199.1c0.2,110,89.1,198.9,199,199.1h0
		l0,0l-0.1,0.4v-0.4l0.1,0l-0.1,0.4v-0.4C375,1092.5,463.9,1003.6,464.1,893.6h0.9c0,110.4-89.5,199.9-199.8,199.9l-0.1,0l0.1-0.4
		v0.4c-110.4,0-199.8-89.5-199.8-199.9c0-110.4,89.5-199.9,199.8-199.9c110.4,0,199.8,89.5,199.8,199.9H464.1L464.1,893.6z"/>
	<defs>
		<filter id="Adobe_OpacityMaskFilter_3_" filterUnits="userSpaceOnUse" x="78.8" y="707.2" width="372.6" height="372.8">
			<feColorMatrix  type="matrix" values="1 0 0 0 0  0 1 0 0 0  0 0 1 0 0  0 0 0 1 0"/>
		</filter>
	</defs>
	<mask maskUnits="userSpaceOnUse" x="78.8" y="707.2" width="372.6" height="372.8" id="SVGID_10_">
		<g class="st9">
			
				<linearGradient id="SVGID_11_" gradientUnits="userSpaceOnUse" x1="-1021.3818" y1="831.4248" x2="-1020.5234" y2="831.4248" gradientTransform="matrix(0 435.0422 435.0422 0 -361218.0938 445051.0938)">
				<stop  offset="0" style="stop-color:#000000"/>
				<stop  offset="1" style="stop-color:#FFFFFF"/>
			</linearGradient>
			<rect x="23.3" y="179.8" class="st10" width="927" height="2247.3"/>
		</g>
	</mask>
	
		<linearGradient id="SVGID_12_" gradientUnits="userSpaceOnUse" x1="-1021.3811" y1="830.9152" x2="-1020.5228" y2="830.9152" gradientTransform="matrix(-2.663870e-14 435.042 435.042 2.663870e-14 -361217.9063 445050.875)">
		<stop  offset="0" style="stop-color:#F7BDC2"/>
		<stop  offset="1" style="stop-color:#F7BDC2"/>
	</linearGradient>
	<path class="st11" d="M450.5,893.6c-0.2-102.5-83-185.4-185.4-185.6c-102.4,0.2-185.3,83.1-185.4,185.6
		c0.2,102.5,83,185.4,185.4,185.6C367.5,1079,450.4,996.1,450.5,893.6h0.9c0,103-83.4,186.4-186.3,186.4
		c-102.9,0-186.3-83.5-186.3-186.4c0-103,83.4-186.4,186.3-186.4c102.9,0,186.3,83.5,186.3,186.4H450.5L450.5,893.6z"/>
	<defs>
		<filter id="Adobe_OpacityMaskFilter_4_" filterUnits="userSpaceOnUse" x="92.3" y="720.7" width="345.6" height="345.8">
			<feColorMatrix  type="matrix" values="1 0 0 0 0  0 1 0 0 0  0 0 1 0 0  0 0 0 1 0"/>
		</filter>
	</defs>
	<mask maskUnits="userSpaceOnUse" x="92.3" y="720.7" width="345.6" height="345.8" id="SVGID_13_">
		<g class="st12">
			
				<linearGradient id="SVGID_14_" gradientUnits="userSpaceOnUse" x1="-1021.0493" y1="831.6459" x2="-1020.1909" y2="831.6459" gradientTransform="matrix(0 403.515 403.515 0 -335094.7813 412729.125)">
				<stop  offset="0" style="stop-color:#000000"/>
				<stop  offset="1" style="stop-color:#FFFFFF"/>
			</linearGradient>
			<rect x="23.3" y="179.8" class="st13" width="927" height="2247.3"/>
		</g>
	</mask>
	
		<linearGradient id="SVGID_15_" gradientUnits="userSpaceOnUse" x1="-1021.0485" y1="831.0964" x2="-1020.1902" y2="831.0964" gradientTransform="matrix(-2.470820e-14 403.515 403.515 2.470820e-14 -335094.8125 412729.1563)">
		<stop  offset="0" style="stop-color:#F7BDC2"/>
		<stop  offset="1" style="stop-color:#F7BDC2"/>
	</linearGradient>
	<path class="st14" d="M437,893.6c-0.2-95-77-171.9-171.9-172c-95,0.2-171.8,77-171.9,172c0.2,95,77,171.9,171.9,172
		C360.1,1065.5,436.9,988.6,437,893.6h0.9c0,95.5-77.4,172.9-172.8,172.9c-95.4,0-172.8-77.4-172.8-172.9
		c0-95.5,77.4-172.9,172.8-172.9c95.4,0,172.8,77.4,172.8,172.9H437L437,893.6z"/>
	<defs>
		<filter id="Adobe_OpacityMaskFilter_5_" filterUnits="userSpaceOnUse" x="105.8" y="734.3" width="318.5" height="318.7">
			<feColorMatrix  type="matrix" values="1 0 0 0 0  0 1 0 0 0  0 0 1 0 0  0 0 0 1 0"/>
		</filter>
	</defs>
	<mask maskUnits="userSpaceOnUse" x="105.8" y="734.3" width="318.5" height="318.7" id="SVGID_16_">
		<g class="st15">
			
				<linearGradient id="SVGID_17_" gradientUnits="userSpaceOnUse" x1="-1020.6603" y1="831.9044" x2="-1019.802" y2="831.9044" gradientTransform="matrix(0 371.9878 371.9878 0 -308971.4688 380407.1563)">
				<stop  offset="0" style="stop-color:#000000"/>
				<stop  offset="1" style="stop-color:#FFFFFF"/>
			</linearGradient>
			<rect x="23.3" y="179.8" class="st16" width="927" height="2247.3"/>
		</g>
	</mask>
	
		<linearGradient id="SVGID_18_" gradientUnits="userSpaceOnUse" x1="-1020.6595" y1="831.3084" x2="-1019.8012" y2="831.3084" gradientTransform="matrix(-2.277770e-14 371.988 371.988 2.277770e-14 -308971.6563 380407.375)">
		<stop  offset="0" style="stop-color:#F7BDC2"/>
		<stop  offset="1" style="stop-color:#F7BDC2"/>
	</linearGradient>
	<path class="st17" d="M423.5,893.6c-0.2-87.5-70.9-158.3-158.4-158.5c-87.5,0.2-158.2,71-158.4,158.5
		c0.2,87.5,70.9,158.3,158.4,158.5C352.6,1052,423.3,981.1,423.5,893.6h0.9c0,88-71.3,159.4-159.3,159.4
		c-88,0-159.3-71.3-159.3-159.4c0-88,71.3-159.4,159.3-159.4c88,0,159.3,71.3,159.3,159.4H423.5L423.5,893.6z"/>
	<defs>
		<filter id="Adobe_OpacityMaskFilter_6_" filterUnits="userSpaceOnUse" x="119.4" y="747.8" width="291.5" height="291.6">
			<feColorMatrix  type="matrix" values="1 0 0 0 0  0 1 0 0 0  0 0 1 0 0  0 0 0 1 0"/>
		</filter>
	</defs>
	<mask maskUnits="userSpaceOnUse" x="119.4" y="747.8" width="291.5" height="291.6" id="SVGID_19_">
		<g class="st18">
			
				<linearGradient id="SVGID_20_" gradientUnits="userSpaceOnUse" x1="-1020.1995" y1="832.2108" x2="-1019.3411" y2="832.2108" gradientTransform="matrix(0 340.4606 340.4606 0 -282848.1563 348085.1875)">
				<stop  offset="0" style="stop-color:#000000"/>
				<stop  offset="1" style="stop-color:#FFFFFF"/>
			</linearGradient>
			<rect x="23.3" y="179.8" class="st19" width="927" height="2247.3"/>
		</g>
	</mask>
	
		<linearGradient id="SVGID_21_" gradientUnits="userSpaceOnUse" x1="-1020.1995" y1="831.5596" x2="-1019.3411" y2="831.5596" gradientTransform="matrix(-2.084720e-14 340.461 340.461 2.084720e-14 -282848.5 348085.625)">
		<stop  offset="0" style="stop-color:#F7BDC2"/>
		<stop  offset="1" style="stop-color:#F7BDC2"/>
	</linearGradient>
	<path class="st20" d="M410,893.6c-0.1-80.1-64.9-144.8-144.9-145c-80,0.1-144.7,64.9-144.9,145c0.1,80.1,64.9,144.8,144.9,145
		C345.1,1038.4,409.8,973.7,410,893.6h0.9c0,80.5-65.2,145.8-145.7,145.8c-80.5,0-145.7-65.3-145.7-145.8
		c0-80.5,65.2-145.8,145.7-145.8c80.5,0,145.7,65.3,145.7,145.8H410L410,893.6z"/>
	<defs>
		<filter id="Adobe_OpacityMaskFilter_7_" filterUnits="userSpaceOnUse" x="132.9" y="761.3" width="264.4" height="264.6">
			<feColorMatrix  type="matrix" values="1 0 0 0 0  0 1 0 0 0  0 0 1 0 0  0 0 0 1 0"/>
		</filter>
	</defs>
	<mask maskUnits="userSpaceOnUse" x="132.9" y="761.3" width="264.4" height="264.6" id="SVGID_22_">
		<g class="st21">
			
				<linearGradient id="SVGID_23_" gradientUnits="userSpaceOnUse" x1="-1019.6445" y1="832.5797" x2="-1018.7861" y2="832.5797" gradientTransform="matrix(0 308.9334 308.9334 0 -256724.8594 315763.25)">
				<stop  offset="0" style="stop-color:#000000"/>
				<stop  offset="1" style="stop-color:#FFFFFF"/>
			</linearGradient>
			<rect x="23.3" y="179.8" class="st22" width="927" height="2247.3"/>
		</g>
	</mask>
	
		<linearGradient id="SVGID_24_" gradientUnits="userSpaceOnUse" x1="-1019.6445" y1="831.8621" x2="-1018.7861" y2="831.8621" gradientTransform="matrix(-1.891670e-14 308.933 308.933 1.891670e-14 -256724.5625 315762.875)">
		<stop  offset="0" style="stop-color:#F7BDC2"/>
		<stop  offset="1" style="stop-color:#F7BDC2"/>
	</linearGradient>
	<path class="st23" d="M396.5,893.6c-0.1-72.6-58.8-131.3-131.4-131.4c-72.5,0.1-131.2,58.8-131.4,131.4
		c0.1,72.6,58.8,131.3,131.4,131.4C337.6,1024.9,396.3,966.2,396.5,893.6h0.9c0,73.1-59.2,132.3-132.2,132.3
		c-73,0-132.2-59.2-132.2-132.3c0-73.1,59.2-132.3,132.2-132.3c73,0,132.2,59.2,132.2,132.3H396.5L396.5,893.6z"/>
	<defs>
		<filter id="Adobe_OpacityMaskFilter_8_" filterUnits="userSpaceOnUse" x="146.4" y="774.9" width="237.4" height="237.5">
			<feColorMatrix  type="matrix" values="1 0 0 0 0  0 1 0 0 0  0 0 1 0 0  0 0 0 1 0"/>
		</filter>
	</defs>
	<mask maskUnits="userSpaceOnUse" x="146.4" y="774.9" width="237.4" height="237.5" id="SVGID_25_">
		<g class="st24">
			
				<linearGradient id="SVGID_26_" gradientUnits="userSpaceOnUse" x1="-1018.9633" y1="833.0324" x2="-1018.105" y2="833.0324" gradientTransform="matrix(0 277.4062 277.4062 0 -230601.5313 283441.25)">
				<stop  offset="0" style="stop-color:#000000"/>
				<stop  offset="1" style="stop-color:#FFFFFF"/>
			</linearGradient>
			<rect x="23.3" y="179.8" class="st25" width="927" height="2247.3"/>
		</g>
	</mask>
	
		<linearGradient id="SVGID_27_" gradientUnits="userSpaceOnUse" x1="-1018.9633" y1="832.2333" x2="-1018.105" y2="832.2333" gradientTransform="matrix(-1.698620e-14 277.406 277.406 1.698620e-14 -230601.4063 283441.0938)">
		<stop  offset="0" style="stop-color:#F7BDC2"/>
		<stop  offset="1" style="stop-color:#F7BDC2"/>
	</linearGradient>
	<path class="st26" d="M382.9,893.6c-0.1-65.1-52.8-117.8-117.8-117.9c-65.1,0.1-117.7,52.8-117.8,117.9
		c0.1,65.1,52.8,117.8,117.8,117.9C330.2,1011.4,382.8,958.7,382.9,893.6h0.9c0,65.6-53.1,118.8-118.7,118.8
		c-65.6,0-118.7-53.2-118.7-118.8c0-65.6,53.1-118.8,118.7-118.8c65.6,0,118.7,53.2,118.7,118.8H382.9L382.9,893.6z"/>
	<defs>
		<filter id="Adobe_OpacityMaskFilter_9_" filterUnits="userSpaceOnUse" x="159.9" y="788.4" width="210.3" height="210.5">
			<feColorMatrix  type="matrix" values="1 0 0 0 0  0 1 0 0 0  0 0 1 0 0  0 0 0 1 0"/>
		</filter>
	</defs>
	<mask maskUnits="userSpaceOnUse" x="159.9" y="788.4" width="210.3" height="210.5" id="SVGID_28_">
		<g class="st27">
			
				<linearGradient id="SVGID_29_" gradientUnits="userSpaceOnUse" x1="-1018.1075" y1="833.6013" x2="-1017.2491" y2="833.6013" gradientTransform="matrix(0 245.8789 245.8789 0 -204478.2188 251119.2813)">
				<stop  offset="0" style="stop-color:#000000"/>
				<stop  offset="1" style="stop-color:#FFFFFF"/>
			</linearGradient>
			<rect x="23.3" y="179.8" class="st28" width="927" height="2247.3"/>
		</g>
	</mask>
	
		<linearGradient id="SVGID_30_" gradientUnits="userSpaceOnUse" x1="-1018.1075" y1="832.6997" x2="-1017.2491" y2="832.6997" gradientTransform="matrix(-1.505570e-14 245.879 245.879 1.505570e-14 -204478.2656 251119.3438)">
		<stop  offset="0" style="stop-color:#F7BDC2"/>
		<stop  offset="1" style="stop-color:#F7BDC2"/>
	</linearGradient>
	<path class="st29" d="M369.4,893.6c-0.1-57.6-46.7-104.3-104.3-104.4c-57.6,0.1-104.2,46.7-104.3,104.4
		c0.1,57.6,46.7,104.3,104.3,104.4C322.7,997.9,369.3,951.3,369.4,893.6h0.9c0,58.1-47.1,105.2-105.2,105.2
		c-58.1,0-105.2-47.1-105.2-105.2c0-58.1,47.1-105.2,105.2-105.2c58.1,0,105.2,47.1,105.2,105.2H369.4L369.4,893.6z"/>
	<defs>
		<filter id="Adobe_OpacityMaskFilter_10_" filterUnits="userSpaceOnUse" x="173.5" y="801.9" width="183.3" height="183.4">
			<feColorMatrix  type="matrix" values="1 0 0 0 0  0 1 0 0 0  0 0 1 0 0  0 0 0 1 0"/>
		</filter>
	</defs>
	<mask maskUnits="userSpaceOnUse" x="173.5" y="801.9" width="183.3" height="183.4" id="SVGID_31_">
		<g class="st30">
			
				<linearGradient id="SVGID_32_" gradientUnits="userSpaceOnUse" x1="-1016.9999" y1="834.3375" x2="-1016.1416" y2="834.3375" gradientTransform="matrix(0 214.3517 214.3517 0 -178354.9063 218797.3125)">
				<stop  offset="0" style="stop-color:#000000"/>
				<stop  offset="1" style="stop-color:#FFFFFF"/>
			</linearGradient>
			<rect x="23.3" y="179.8" class="st31" width="927" height="2247.3"/>
		</g>
	</mask>
	
		<linearGradient id="SVGID_33_" gradientUnits="userSpaceOnUse" x1="-1016.9999" y1="833.3033" x2="-1016.1416" y2="833.3033" gradientTransform="matrix(-1.312530e-14 214.352 214.352 1.312530e-14 -178355.1406 218797.5938)">
		<stop  offset="0" style="stop-color:#F7BDC2"/>
		<stop  offset="1" style="stop-color:#F7BDC2"/>
	</linearGradient>
	<path class="st32" d="M355.9,893.6c-0.1-50.2-40.6-90.7-90.8-90.8c-50.1,0.1-90.7,40.7-90.8,90.8c0.1,50.2,40.6,90.7,90.8,90.8
		C315.2,984.4,355.8,943.8,355.9,893.6h0.9c0,50.6-41,91.7-91.6,91.7c-50.6,0-91.6-41.1-91.6-91.7c0-50.6,41-91.7,91.6-91.7
		c50.6,0,91.6,41.1,91.6,91.7H355.9L355.9,893.6z"/>
</g>
<g>
	<defs>
		<filter id="Adobe_OpacityMaskFilter_11_" filterUnits="userSpaceOnUse" x="38.2" y="12.6" width="453.8" height="454">
			<feColorMatrix  type="matrix" values="1 0 0 0 0  0 1 0 0 0  0 0 1 0 0  0 0 0 1 0"/>
		</filter>
	</defs>
	<mask maskUnits="userSpaceOnUse" x="38.2" y="12.6" width="453.8" height="454" id="SVGID_34_">
		<g class="st33">
			
				<linearGradient id="SVGID_35_" gradientUnits="userSpaceOnUse" x1="-1023.3766" y1="830.9196" x2="-1022.5183" y2="830.9196" gradientTransform="matrix(0 -529.6238 -529.6238 0 440118.25 -541537.75)">
				<stop  offset="0" style="stop-color:#000000"/>
				<stop  offset="1" style="stop-color:#FFFFFF"/>
			</linearGradient>
			<rect x="-420.1" y="-1293.8" class="st34" width="927" height="2247.3"/>
		</g>
	</mask>
	
		<linearGradient id="SVGID_36_" gradientUnits="userSpaceOnUse" x1="-1023.3761" y1="830.501" x2="-1022.5178" y2="830.501" gradientTransform="matrix(3.243010e-14 -529.624 -529.624 -3.243010e-14 440118.375 -541537.9375)">
		<stop  offset="0" style="stop-color:#F7BDC2"/>
		<stop  offset="1" style="stop-color:#F7BDC2"/>
	</linearGradient>
	<path class="st35" d="M39.1,239.6c0.2,124.9,101.2,225.9,226,226.1c124.8-0.2,225.8-101.2,226-226.1
		c-0.2-124.9-101.2-225.9-226-226.1C140.3,13.7,39.3,114.7,39.1,239.6h-0.9c0-125.4,101.6-227,226.9-227
		c125.3,0,226.9,101.6,226.9,227c0,125.4-101.6,227-226.9,227c-125.3,0-226.9-101.6-226.9-227H39.1L39.1,239.6z"/>
	<defs>
		<filter id="Adobe_OpacityMaskFilter_12_" filterUnits="userSpaceOnUse" x="51.7" y="26.1" width="426.7" height="427">
			<feColorMatrix  type="matrix" values="1 0 0 0 0  0 1 0 0 0  0 0 1 0 0  0 0 0 1 0"/>
		</filter>
	</defs>
	<mask maskUnits="userSpaceOnUse" x="51.7" y="26.1" width="426.7" height="427" id="SVGID_37_">
		<g class="st36">
			
				<linearGradient id="SVGID_38_" gradientUnits="userSpaceOnUse" x1="-1023.2336" y1="831.0667" x2="-1022.3752" y2="831.0667" gradientTransform="matrix(0 -498.0966 -498.0966 0 413994.9063 -509215.7813)">
				<stop  offset="0" style="stop-color:#000000"/>
				<stop  offset="1" style="stop-color:#FFFFFF"/>
			</linearGradient>
			<rect x="-420.1" y="-1293.8" class="st37" width="927" height="2247.3"/>
		</g>
	</mask>
	
		<linearGradient id="SVGID_39_" gradientUnits="userSpaceOnUse" x1="-1023.233" y1="830.6216" x2="-1022.3746" y2="830.6216" gradientTransform="matrix(3.049960e-14 -498.097 -498.097 -3.049960e-14 413995.2188 -509216.1563)">
		<stop  offset="0" style="stop-color:#F7BDC2"/>
		<stop  offset="1" style="stop-color:#F7BDC2"/>
	</linearGradient>
	<path class="st38" d="M52.6,239.6C52.8,357,147.7,452,265.1,452.2C382.5,452,477.4,357,477.6,239.6
		C477.4,122.2,382.5,27.2,265.1,27C147.7,27.2,52.8,122.2,52.6,239.6h-0.9c0-117.9,95.5-213.5,213.4-213.5
		c117.8,0,213.4,95.6,213.4,213.5c0,117.9-95.5,213.5-213.4,213.5c-117.8,0-213.4-95.6-213.4-213.5H52.6L52.6,239.6z"/>
	<defs>
		<filter id="Adobe_OpacityMaskFilter_13_" filterUnits="userSpaceOnUse" x="65.3" y="39.7" width="399.7" height="399.9">
			<feColorMatrix  type="matrix" values="1 0 0 0 0  0 1 0 0 0  0 0 1 0 0  0 0 0 1 0"/>
		</filter>
	</defs>
	<mask maskUnits="userSpaceOnUse" x="65.3" y="39.7" width="399.7" height="399.9" id="SVGID_40_">
		<g class="st39">
			
				<linearGradient id="SVGID_41_" gradientUnits="userSpaceOnUse" x1="-1023.0711" y1="831.2336" x2="-1022.2128" y2="831.2336" gradientTransform="matrix(0 -466.5694 -466.5694 0 387871.625 -476893.8438)">
				<stop  offset="0" style="stop-color:#000000"/>
				<stop  offset="1" style="stop-color:#FFFFFF"/>
			</linearGradient>
			<rect x="-420.1" y="-1293.8" class="st40" width="927" height="2247.3"/>
		</g>
	</mask>
	
		<linearGradient id="SVGID_42_" gradientUnits="userSpaceOnUse" x1="-1023.0704" y1="830.7585" x2="-1022.2121" y2="830.7585" gradientTransform="matrix(2.856910e-14 -466.569 -466.569 -2.856910e-14 387871.25 -476893.4063)">
		<stop  offset="0" style="stop-color:#F7BDC2"/>
		<stop  offset="1" style="stop-color:#F7BDC2"/>
	</linearGradient>
	<path class="st41" d="M66.1,239.6c0.2,110,89.1,198.9,199,199.1c109.9-0.2,198.8-89.1,199-199.1c-0.2-110-89.1-198.9-199-199.1h0
		l0,0l0.1-0.4v0.4l-0.1,0l0.1-0.4v0.4C155.2,40.7,66.3,129.7,66.1,239.6h-0.9c0-110.4,89.5-199.9,199.8-199.9l0.1,0l-0.1,0.4v-0.4
		c110.4,0,199.8,89.5,199.8,199.9c0,110.4-89.5,199.9-199.8,199.9c-110.4,0-199.8-89.5-199.8-199.9H66.1L66.1,239.6z"/>
	<defs>
		<filter id="Adobe_OpacityMaskFilter_14_" filterUnits="userSpaceOnUse" x="78.8" y="53.2" width="372.6" height="372.8">
			<feColorMatrix  type="matrix" values="1 0 0 0 0  0 1 0 0 0  0 0 1 0 0  0 0 0 1 0"/>
		</filter>
	</defs>
	<mask maskUnits="userSpaceOnUse" x="78.8" y="53.2" width="372.6" height="372.8" id="SVGID_43_">
		<g class="st42">
			
				<linearGradient id="SVGID_44_" gradientUnits="userSpaceOnUse" x1="-1022.8851" y1="831.4248" x2="-1022.0267" y2="831.4248" gradientTransform="matrix(0 -435.0422 -435.0422 0 361748.2813 -444571.875)">
				<stop  offset="0" style="stop-color:#000000"/>
				<stop  offset="1" style="stop-color:#FFFFFF"/>
			</linearGradient>
			<rect x="-420.1" y="-1293.8" class="st43" width="927" height="2247.3"/>
		</g>
	</mask>
	
		<linearGradient id="SVGID_45_" gradientUnits="userSpaceOnUse" x1="-1022.8844" y1="830.9152" x2="-1022.0261" y2="830.9152" gradientTransform="matrix(2.663870e-14 -435.042 -435.042 -2.663870e-14 361748.125 -444571.6563)">
		<stop  offset="0" style="stop-color:#F7BDC2"/>
		<stop  offset="1" style="stop-color:#F7BDC2"/>
	</linearGradient>
	<path class="st44" d="M79.7,239.6c0.2,102.5,83,185.4,185.4,185.6c102.4-0.2,185.3-83.1,185.4-185.6
		c-0.2-102.5-83-185.4-185.4-185.6C162.7,54.2,79.8,137.1,79.7,239.6h-0.9c0-103,83.4-186.4,186.3-186.4
		c102.9,0,186.3,83.5,186.3,186.4c0,103-83.4,186.4-186.3,186.4c-102.9,0-186.3-83.5-186.3-186.4H79.7L79.7,239.6z"/>
	<defs>
		<filter id="Adobe_OpacityMaskFilter_15_" filterUnits="userSpaceOnUse" x="92.3" y="66.7" width="345.6" height="345.8">
			<feColorMatrix  type="matrix" values="1 0 0 0 0  0 1 0 0 0  0 0 1 0 0  0 0 0 1 0"/>
		</filter>
	</defs>
	<mask maskUnits="userSpaceOnUse" x="92.3" y="66.7" width="345.6" height="345.8" id="SVGID_46_">
		<g class="st45">
			
				<linearGradient id="SVGID_47_" gradientUnits="userSpaceOnUse" x1="-1022.67" y1="831.6459" x2="-1021.8116" y2="831.6459" gradientTransform="matrix(0 -403.515 -403.515 0 335624.9688 -412249.875)">
				<stop  offset="0" style="stop-color:#000000"/>
				<stop  offset="1" style="stop-color:#FFFFFF"/>
			</linearGradient>
			<rect x="-420.1" y="-1293.8" class="st46" width="927" height="2247.3"/>
		</g>
	</mask>
	
		<linearGradient id="SVGID_48_" gradientUnits="userSpaceOnUse" x1="-1022.6693" y1="831.0964" x2="-1021.8109" y2="831.0964" gradientTransform="matrix(2.470820e-14 -403.515 -403.515 -2.470820e-14 335625 -412249.9063)">
		<stop  offset="0" style="stop-color:#F7BDC2"/>
		<stop  offset="1" style="stop-color:#F7BDC2"/>
	</linearGradient>
	<path class="st47" d="M93.2,239.6c0.2,95,77,171.9,171.9,172c95-0.2,171.8-77,171.9-172c-0.2-95-77-171.9-171.9-172
		C170.1,67.8,93.3,144.6,93.2,239.6h-0.9c0-95.5,77.4-172.9,172.8-172.9c95.4,0,172.8,77.4,172.8,172.9
		c0,95.5-77.4,172.9-172.8,172.9c-95.4,0-172.8-77.4-172.8-172.9H93.2L93.2,239.6z"/>
	<defs>
		<filter id="Adobe_OpacityMaskFilter_16_" filterUnits="userSpaceOnUse" x="105.8" y="80.3" width="318.5" height="318.7">
			<feColorMatrix  type="matrix" values="1 0 0 0 0  0 1 0 0 0  0 0 1 0 0  0 0 0 1 0"/>
		</filter>
	</defs>
	<mask maskUnits="userSpaceOnUse" x="105.8" y="80.3" width="318.5" height="318.7" id="SVGID_49_">
		<g class="st48">
			
				<linearGradient id="SVGID_50_" gradientUnits="userSpaceOnUse" x1="-1022.4185" y1="831.9044" x2="-1021.5601" y2="831.9044" gradientTransform="matrix(0 -371.9878 -371.9878 0 309501.6875 -379927.9375)">
				<stop  offset="0" style="stop-color:#000000"/>
				<stop  offset="1" style="stop-color:#FFFFFF"/>
			</linearGradient>
			<rect x="-420.1" y="-1293.8" class="st49" width="927" height="2247.3"/>
		</g>
	</mask>
	
		<linearGradient id="SVGID_51_" gradientUnits="userSpaceOnUse" x1="-1022.4177" y1="831.3084" x2="-1021.5593" y2="831.3084" gradientTransform="matrix(2.277770e-14 -371.988 -371.988 -2.277770e-14 309501.8438 -379928.1563)">
		<stop  offset="0" style="stop-color:#F7BDC2"/>
		<stop  offset="1" style="stop-color:#F7BDC2"/>
	</linearGradient>
	<path class="st50" d="M106.7,239.6c0.2,87.5,70.9,158.3,158.4,158.5c87.5-0.2,158.2-71,158.4-158.5
		c-0.2-87.5-70.9-158.3-158.4-158.5C177.6,81.3,106.9,152.1,106.7,239.6h-0.9c0-88,71.3-159.4,159.3-159.4
		c88,0,159.3,71.3,159.3,159.4c0,88-71.3,159.4-159.3,159.4c-88,0-159.3-71.3-159.3-159.4H106.7L106.7,239.6z"/>
	<defs>
		<filter id="Adobe_OpacityMaskFilter_17_" filterUnits="userSpaceOnUse" x="119.4" y="93.8" width="291.5" height="291.6">
			<feColorMatrix  type="matrix" values="1 0 0 0 0  0 1 0 0 0  0 0 1 0 0  0 0 0 1 0"/>
		</filter>
	</defs>
	<mask maskUnits="userSpaceOnUse" x="119.4" y="93.8" width="291.5" height="291.6" id="SVGID_52_">
		<g class="st51">
			
				<linearGradient id="SVGID_53_" gradientUnits="userSpaceOnUse" x1="-1022.1204" y1="832.2108" x2="-1021.262" y2="832.2108" gradientTransform="matrix(0 -340.4606 -340.4606 0 283378.3438 -347605.9688)">
				<stop  offset="0" style="stop-color:#000000"/>
				<stop  offset="1" style="stop-color:#FFFFFF"/>
			</linearGradient>
			<rect x="-420.1" y="-1293.8" class="st52" width="927" height="2247.3"/>
		</g>
	</mask>
	
		<linearGradient id="SVGID_54_" gradientUnits="userSpaceOnUse" x1="-1022.1204" y1="831.5596" x2="-1021.262" y2="831.5596" gradientTransform="matrix(2.084720e-14 -340.461 -340.461 -2.084720e-14 283378.7188 -347606.4063)">
		<stop  offset="0" style="stop-color:#F7BDC2"/>
		<stop  offset="1" style="stop-color:#F7BDC2"/>
	</linearGradient>
	<path class="st53" d="M120.2,239.6c0.1,80.1,64.9,144.8,144.9,145c80-0.1,144.7-64.9,144.9-145c-0.1-80.1-64.9-144.8-144.9-145
		C185.1,94.8,120.4,159.6,120.2,239.6h-0.9c0-80.5,65.2-145.8,145.7-145.8c80.5,0,145.7,65.3,145.7,145.8
		c0,80.5-65.2,145.8-145.7,145.8c-80.5,0-145.7-65.3-145.7-145.8H120.2L120.2,239.6z"/>
	<defs>
		<filter id="Adobe_OpacityMaskFilter_18_" filterUnits="userSpaceOnUse" x="132.9" y="107.3" width="264.4" height="264.6">
			<feColorMatrix  type="matrix" values="1 0 0 0 0  0 1 0 0 0  0 0 1 0 0  0 0 0 1 0"/>
		</filter>
	</defs>
	<mask maskUnits="userSpaceOnUse" x="132.9" y="107.3" width="264.4" height="264.6" id="SVGID_55_">
		<g class="st54">
			
				<linearGradient id="SVGID_56_" gradientUnits="userSpaceOnUse" x1="-1021.7614" y1="832.5797" x2="-1020.9031" y2="832.5797" gradientTransform="matrix(0 -308.9334 -308.9334 0 257255.0625 -315284)">
				<stop  offset="0" style="stop-color:#000000"/>
				<stop  offset="1" style="stop-color:#FFFFFF"/>
			</linearGradient>
			<rect x="-420.1" y="-1293.8" class="st55" width="927" height="2247.3"/>
		</g>
	</mask>
	
		<linearGradient id="SVGID_57_" gradientUnits="userSpaceOnUse" x1="-1021.7614" y1="831.8621" x2="-1020.9031" y2="831.8621" gradientTransform="matrix(1.891670e-14 -308.933 -308.933 -1.891670e-14 257254.75 -315283.625)">
		<stop  offset="0" style="stop-color:#F7BDC2"/>
		<stop  offset="1" style="stop-color:#F7BDC2"/>
	</linearGradient>
	<path class="st56" d="M133.7,239.6c0.1,72.6,58.8,131.3,131.4,131.4c72.5-0.1,131.2-58.8,131.4-131.4
		c-0.1-72.6-58.8-131.3-131.4-131.4C192.6,108.3,133.9,167,133.7,239.6h-0.9c0-73.1,59.2-132.3,132.2-132.3
		c73,0,132.2,59.2,132.2,132.3c0,73.1-59.2,132.3-132.2,132.3c-73,0-132.2-59.2-132.2-132.3H133.7L133.7,239.6z"/>
	<defs>
		<filter id="Adobe_OpacityMaskFilter_19_" filterUnits="userSpaceOnUse" x="146.4" y="120.9" width="237.4" height="237.5">
			<feColorMatrix  type="matrix" values="1 0 0 0 0  0 1 0 0 0  0 0 1 0 0  0 0 0 1 0"/>
		</filter>
	</defs>
	<mask maskUnits="userSpaceOnUse" x="146.4" y="120.9" width="237.4" height="237.5" id="SVGID_58_">
		<g class="st57">
			
				<linearGradient id="SVGID_59_" gradientUnits="userSpaceOnUse" x1="-1021.3209" y1="833.0324" x2="-1020.4625" y2="833.0324" gradientTransform="matrix(0 -277.4062 -277.4062 0 231131.7344 -282962.0313)">
				<stop  offset="0" style="stop-color:#000000"/>
				<stop  offset="1" style="stop-color:#FFFFFF"/>
			</linearGradient>
			<rect x="-420.1" y="-1293.8" class="st58" width="927" height="2247.3"/>
		</g>
	</mask>
	
		<linearGradient id="SVGID_60_" gradientUnits="userSpaceOnUse" x1="-1021.3209" y1="832.2333" x2="-1020.4625" y2="832.2333" gradientTransform="matrix(1.698620e-14 -277.406 -277.406 -1.698620e-14 231131.6094 -282961.875)">
		<stop  offset="0" style="stop-color:#F7BDC2"/>
		<stop  offset="1" style="stop-color:#F7BDC2"/>
	</linearGradient>
	<path class="st59" d="M147.3,239.6c0.1,65.1,52.8,117.8,117.8,117.9c65.1-0.1,117.7-52.8,117.8-117.9
		c-0.1-65.1-52.8-117.8-117.8-117.9C200,121.8,147.4,174.5,147.3,239.6h-0.9c0-65.6,53.1-118.8,118.7-118.8
		c65.6,0,118.7,53.2,118.7,118.8c0,65.6-53.1,118.8-118.7,118.8c-65.6,0-118.7-53.2-118.7-118.8H147.3L147.3,239.6z"/>
	<defs>
		<filter id="Adobe_OpacityMaskFilter_20_" filterUnits="userSpaceOnUse" x="159.9" y="134.4" width="210.3" height="210.5">
			<feColorMatrix  type="matrix" values="1 0 0 0 0  0 1 0 0 0  0 0 1 0 0  0 0 0 1 0"/>
		</filter>
	</defs>
	<mask maskUnits="userSpaceOnUse" x="159.9" y="134.4" width="210.3" height="210.5" id="SVGID_61_">
		<g class="st60">
			
				<linearGradient id="SVGID_62_" gradientUnits="userSpaceOnUse" x1="-1020.7673" y1="833.6013" x2="-1019.909" y2="833.6013" gradientTransform="matrix(0 -245.8789 -245.8789 0 205008.4219 -250640.0469)">
				<stop  offset="0" style="stop-color:#000000"/>
				<stop  offset="1" style="stop-color:#FFFFFF"/>
			</linearGradient>
			<rect x="-420.1" y="-1293.8" class="st61" width="927" height="2247.3"/>
		</g>
	</mask>
	
		<linearGradient id="SVGID_63_" gradientUnits="userSpaceOnUse" x1="-1020.7673" y1="832.6997" x2="-1019.909" y2="832.6997" gradientTransform="matrix(1.505570e-14 -245.879 -245.879 -1.505570e-14 205008.4688 -250640.1094)">
		<stop  offset="0" style="stop-color:#F7BDC2"/>
		<stop  offset="1" style="stop-color:#F7BDC2"/>
	</linearGradient>
	<path class="st62" d="M160.8,239.6c0.1,57.6,46.7,104.3,104.3,104.4c57.6-0.1,104.2-46.7,104.3-104.4
		c-0.1-57.6-46.7-104.3-104.3-104.4C207.5,135.3,160.9,182,160.8,239.6h-0.9c0-58.1,47.1-105.2,105.2-105.2
		c58.1,0,105.2,47.1,105.2,105.2c0,58.1-47.1,105.2-105.2,105.2c-58.1,0-105.2-47.1-105.2-105.2H160.8L160.8,239.6z"/>
	<defs>
		<filter id="Adobe_OpacityMaskFilter_21_" filterUnits="userSpaceOnUse" x="173.5" y="147.9" width="183.3" height="183.4">
			<feColorMatrix  type="matrix" values="1 0 0 0 0  0 1 0 0 0  0 0 1 0 0  0 0 0 1 0"/>
		</filter>
	</defs>
	<mask maskUnits="userSpaceOnUse" x="173.5" y="147.9" width="183.3" height="183.4" id="SVGID_64_">
		<g class="st63">
			
				<linearGradient id="SVGID_65_" gradientUnits="userSpaceOnUse" x1="-1020.051" y1="834.3375" x2="-1019.1926" y2="834.3375" gradientTransform="matrix(0 -214.3517 -214.3517 0 178885.1094 -218318.0938)">
				<stop  offset="0" style="stop-color:#000000"/>
				<stop  offset="1" style="stop-color:#FFFFFF"/>
			</linearGradient>
			<rect x="-420.1" y="-1293.8" class="st64" width="927" height="2247.3"/>
		</g>
	</mask>
	
		<linearGradient id="SVGID_66_" gradientUnits="userSpaceOnUse" x1="-1020.051" y1="833.3033" x2="-1019.1927" y2="833.3033" gradientTransform="matrix(1.312530e-14 -214.352 -214.352 -1.312530e-14 178885.3281 -218318.375)">
		<stop  offset="0" style="stop-color:#F7BDC2"/>
		<stop  offset="1" style="stop-color:#F7BDC2"/>
	</linearGradient>
	<path class="st65" d="M174.3,239.6c0.1,50.2,40.6,90.7,90.8,90.8c50.1-0.1,90.7-40.7,90.8-90.8c-0.1-50.2-40.6-90.7-90.8-90.8
		C215,148.9,174.4,189.4,174.3,239.6h-0.9c0-50.6,41-91.7,91.6-91.7c50.6,0,91.6,41.1,91.6,91.7c0,50.6-41,91.7-91.6,91.7
		c-50.6,0-91.6-41.1-91.6-91.7H174.3L174.3,239.6z"/>
</g>
</svg>
