<?xml version="1.0" encoding="utf-8"?>
<!-- Generator: Adobe Illustrator 23.0.6, SVG Export Plug-In . SVG Version: 6.00 Build 0)  -->
<svg version="1.1" id="Capa_1" xmlns="http://www.w3.org/2000/svg" xmlns:xlink="http://www.w3.org/1999/xlink" x="0px" y="0px"
	 viewBox="0 0 3180.9 677.4" style="enable-background:new 0 0 3180.9 677.4;" xml:space="preserve">
<style type="text/css">
	.st0{fill:#FFFFFF;}
</style>
<g>
	<g>
		<rect x="-3.3" y="3.2" class="st0" width="13.6" height="671.7"/>
	</g>
	<g>
		
			<rect x="-3.2" y="3.3" transform="matrix(0.9329 -0.3602 0.3602 0.9329 -121.9198 24.038)" class="st0" width="13.6" height="671.7"/>
	</g>
	<g>
		
			<rect x="-3.2" y="3.3" transform="matrix(0.7071 -0.7071 0.7071 0.7071 -238.7657 101.8854)" class="st0" width="13.6" height="671.7"/>
	</g>
	<g>
		
			<rect x="-3.1" y="3.3" transform="matrix(0.3558 -0.9346 0.9346 0.3558 -314.5988 221.8902)" class="st0" width="13.6" height="671.7"/>
	</g>
	<g>
		<rect x="-332.2" y="332.2" class="st0" width="671.7" height="13.6"/>
	</g>
	<g>
		
			<rect x="-332.2" y="332.2" transform="matrix(0.9329 -0.3602 0.3602 0.9329 -121.8426 24.0603)" class="st0" width="671.7" height="13.6"/>
	</g>
	<g>
		
			<rect x="-332.2" y="332.2" transform="matrix(0.7071 -0.7071 0.7071 0.7071 -238.6184 101.8247)" class="st0" width="671.7" height="13.6"/>
	</g>
	<g>
		
			<rect x="-332.3" y="332.2" transform="matrix(0.3558 -0.9346 0.9346 0.3558 -314.4715 221.6869)" class="st0" width="671.7" height="13.6"/>
	</g>
</g>
<g>
	<g>
		<rect x="3165.7" y="0.9" class="st0" width="13.6" height="676.1"/>
	</g>
	<g>
		
			<rect x="3165.8" y="1" transform="matrix(0.9329 -0.3602 0.3602 0.9329 90.8256 1165.4844)" class="st0" width="13.6" height="676.1"/>
	</g>
	<g>
		
			<rect x="3165.6" y="0.9" transform="matrix(0.7071 -0.7071 0.7071 0.7071 689.4705 2342.5222)" class="st0" width="13.6" height="676.1"/>
	</g>
	<g>
		
			<rect x="3165.5" y="1.1" transform="matrix(0.3558 -0.9346 0.9346 0.3558 1726.5743 3183.1621)" class="st0" width="13.6" height="676.1"/>
	</g>
	<g>
		<rect x="2834.4" y="332.2" class="st0" width="676.1" height="13.6"/>
	</g>
	<g>
		
			<rect x="2834.5" y="332.1" transform="matrix(0.9329 -0.3602 0.3602 0.9329 90.8718 1165.4623)" class="st0" width="676.1" height="13.6"/>
	</g>
	<g>
		
			<rect x="2834.4" y="332.2" transform="matrix(0.7071 -0.7071 0.7071 0.7071 689.4678 2342.5288)" class="st0" width="676.1" height="13.6"/>
	</g>
	<g>
		
			<rect x="2834.2" y="332.4" transform="matrix(0.3558 -0.9346 0.9346 0.3558 1726.5684 3183.1182)" class="st0" width="676.1" height="13.6"/>
	</g>
</g>
</svg>
