<?xml version="1.0" encoding="utf-8"?>
<!-- Generator: Adobe Illustrator 23.0.6, SVG Export Plug-In . SVG Version: 6.00 Build 0)  -->
<svg version="1.1" id="Capa_1" xmlns="http://www.w3.org/2000/svg" xmlns:xlink="http://www.w3.org/1999/xlink" x="0px" y="0px"
	 viewBox="0 0 291.1 157.1" style="enable-background:new 0 0 291.1 157.1;" xml:space="preserve">
<style type="text/css">
	.st0{opacity:0.5;}
	.st1{clip-path:url(#SVGID_2_);fill:#FFC2C5;}
	.st2{filter:url(#Adobe_OpacityMaskFilter);}
	.st3{fill:url(#SVGID_4_);}
	.st4{mask:url(#SVGID_3_);fill:url(#SVGID_5_);}
	.st5{filter:url(#Adobe_OpacityMaskFilter_1_);}
	.st6{fill:url(#SVGID_7_);}
	.st7{mask:url(#SVGID_6_);fill:url(#SVGID_8_);}
	.st8{filter:url(#Adobe_OpacityMaskFilter_2_);}
	.st9{fill:url(#SVGID_10_);}
	.st10{mask:url(#SVGID_9_);fill:url(#SVGID_11_);}
	.st11{filter:url(#Adobe_OpacityMaskFilter_3_);}
	.st12{fill:url(#SVGID_13_);}
	.st13{mask:url(#SVGID_12_);fill:url(#SVGID_14_);}
	.st14{filter:url(#Adobe_OpacityMaskFilter_4_);}
	.st15{fill:url(#SVGID_16_);}
	.st16{mask:url(#SVGID_15_);fill:url(#SVGID_17_);}
	.st17{fill:#870037;}
	.st18{fill:#FFAAAF;}
</style>
<g class="st0">
	<g>
		<defs>
			<rect id="SVGID_1_" y="0" width="291.1" height="157.1"/>
		</defs>
		<clipPath id="SVGID_2_">
			<use xlink:href="#SVGID_1_"  style="overflow:visible;"/>
		</clipPath>
		<path class="st1" d="M278.5,157.1h-266c-7,0-12.6-5.6-12.6-12.6V12.6C0,5.6,5.6,0,12.6,0h266c7,0,12.6,5.6,12.6,12.6v131.9
			C291.1,151.5,285.5,157.1,278.5,157.1"/>
	</g>
</g>
<defs>
	<filter id="Adobe_OpacityMaskFilter" filterUnits="userSpaceOnUse" x="85" y="15" width="121.1" height="121.2">
		<feColorMatrix  type="matrix" values="1 0 0 0 0  0 1 0 0 0  0 0 1 0 0  0 0 0 1 0"/>
	</filter>
</defs>
<mask maskUnits="userSpaceOnUse" x="85" y="15" width="121.1" height="121.2" id="SVGID_3_">
	<g class="st2">
		
			<linearGradient id="SVGID_4_" gradientUnits="userSpaceOnUse" x1="-1262.3611" y1="339.2016" x2="-1261.3611" y2="339.2016" gradientTransform="matrix(0 -122.1559 -122.1559 0 41636.918 -154068.1563)">
			<stop  offset="0" style="stop-color:#000000"/>
			<stop  offset="1" style="stop-color:#FFFFFF"/>
		</linearGradient>
		<rect x="-338.6" y="-1086.6" class="st3" width="1080" height="2618.2"/>
	</g>
</mask>
<linearGradient id="SVGID_5_" gradientUnits="userSpaceOnUse" x1="-1262.3611" y1="339.659" x2="-1261.3611" y2="339.659" gradientTransform="matrix(7.479890e-15 -122.156 -122.156 -7.479890e-15 41636.957 -154068.2969)">
	<stop  offset="0" style="stop-color:#F7BDC2"/>
	<stop  offset="1" style="stop-color:#FFFFFF"/>
</linearGradient>
<path class="st4" d="M86,75.6c0.1,32.9,26.7,59.5,59.5,59.6c32.9-0.1,59.5-26.7,59.5-59.6c-0.1-32.9-26.7-59.5-59.5-59.6
	C112.7,16.1,86.1,42.7,86,75.6h-1C85,42.1,112.1,15,145.6,15c33.4,0,60.5,27.1,60.5,60.6c0,33.5-27.1,60.6-60.5,60.6
	c-33.4,0-60.5-27.1-60.5-60.6H86L86,75.6z"/>
<defs>
	<filter id="Adobe_OpacityMaskFilter_1_" filterUnits="userSpaceOnUse" x="92.2" y="22.2" width="106.7" height="106.8">
		<feColorMatrix  type="matrix" values="1 0 0 0 0  0 1 0 0 0  0 0 1 0 0  0 0 0 1 0"/>
	</filter>
</defs>
<mask maskUnits="userSpaceOnUse" x="92.2" y="22.2" width="106.7" height="106.8" id="SVGID_6_">
	<g class="st5">
		
			<linearGradient id="SVGID_7_" gradientUnits="userSpaceOnUse" x1="-1263.6519" y1="338.1446" x2="-1262.6519" y2="338.1446" gradientTransform="matrix(0 -107.8049 -107.8049 0 36655.0898 -136098.375)">
			<stop  offset="0" style="stop-color:#000000"/>
			<stop  offset="1" style="stop-color:#FFFFFF"/>
		</linearGradient>
		<rect x="-338.6" y="-1086.6" class="st6" width="1080" height="2618.2"/>
	</g>
</mask>
<linearGradient id="SVGID_8_" gradientUnits="userSpaceOnUse" x1="-1263.6517" y1="338.6629" x2="-1262.6517" y2="338.6629" gradientTransform="matrix(6.601150e-15 -107.805 -107.805 -6.601150e-15 36655.1211 -136098.4844)">
	<stop  offset="0" style="stop-color:#F7BDC2"/>
	<stop  offset="1" style="stop-color:#FFFFFF"/>
</linearGradient>
<path class="st7" d="M93.2,75.6c0.1,28.9,23.4,52.3,52.4,52.4c28.9-0.1,52.3-23.5,52.4-52.4c-0.1-28.9-23.4-52.3-52.4-52.4
	C116.6,23.3,93.2,46.7,93.2,75.6h-1c0-29.5,23.9-53.4,53.4-53.4c29.5,0,53.4,23.9,53.4,53.4c0,29.5-23.9,53.4-53.4,53.4
	c-29.5,0-53.4-23.9-53.4-53.4H93.2L93.2,75.6z"/>
<defs>
	<filter id="Adobe_OpacityMaskFilter_2_" filterUnits="userSpaceOnUse" x="99.4" y="29.4" width="92.4" height="92.5">
		<feColorMatrix  type="matrix" values="1 0 0 0 0  0 1 0 0 0  0 0 1 0 0  0 0 0 1 0"/>
	</filter>
</defs>
<mask maskUnits="userSpaceOnUse" x="99.4" y="29.4" width="92.4" height="92.5" id="SVGID_9_">
	<g class="st8">
		
			<linearGradient id="SVGID_10_" gradientUnits="userSpaceOnUse" x1="-1265.339" y1="336.7629" x2="-1264.339" y2="336.7629" gradientTransform="matrix(0 -93.4539 -93.4539 0 31673.2617 -118128.5781)">
			<stop  offset="0" style="stop-color:#000000"/>
			<stop  offset="1" style="stop-color:#FFFFFF"/>
		</linearGradient>
		<rect x="-338.6" y="-1086.6" class="st9" width="1080" height="2618.2"/>
	</g>
</mask>
<linearGradient id="SVGID_11_" gradientUnits="userSpaceOnUse" x1="-1265.339" y1="337.3608" x2="-1264.339" y2="337.3608" gradientTransform="matrix(5.722400e-15 -93.4539 -93.4539 -5.722400e-15 31673.25 -118128.5313)">
	<stop  offset="0" style="stop-color:#F7BDC2"/>
	<stop  offset="1" style="stop-color:#FFFFFF"/>
</linearGradient>
<path class="st10" d="M100.4,75.6c0,25,20.2,45.2,45.2,45.2c25,0,45.2-20.2,45.2-45.2c0-25-20.2-45.2-45.2-45.2
	C120.6,30.4,100.4,50.6,100.4,75.6h-1c0-25.5,20.7-46.2,46.2-46.2c25.5,0,46.2,20.7,46.2,46.2c0,25.5-20.7,46.2-46.2,46.2
	c-25.5,0-46.2-20.7-46.2-46.2H100.4L100.4,75.6z"/>
<defs>
	<filter id="Adobe_OpacityMaskFilter_3_" filterUnits="userSpaceOnUse" x="106.5" y="36.6" width="78.1" height="78.1">
		<feColorMatrix  type="matrix" values="1 0 0 0 0  0 1 0 0 0  0 0 1 0 0  0 0 0 1 0"/>
	</filter>
</defs>
<mask maskUnits="userSpaceOnUse" x="106.5" y="36.6" width="78.1" height="78.1" id="SVGID_12_">
	<g class="st11">
		
			<linearGradient id="SVGID_13_" gradientUnits="userSpaceOnUse" x1="-1267.6383" y1="334.8799" x2="-1266.6383" y2="334.8799" gradientTransform="matrix(0 -79.103 -79.103 0 26691.4375 -100158.7969)">
			<stop  offset="0" style="stop-color:#000000"/>
			<stop  offset="1" style="stop-color:#FFFFFF"/>
		</linearGradient>
		<rect x="-338.6" y="-1086.6" class="st12" width="1080" height="2618.2"/>
	</g>
</mask>
<linearGradient id="SVGID_14_" gradientUnits="userSpaceOnUse" x1="-1267.6383" y1="335.5862" x2="-1266.6383" y2="335.5862" gradientTransform="matrix(4.843660e-15 -79.103 -79.103 -4.843660e-15 26691.4453 -100158.8359)">
	<stop  offset="0" style="stop-color:#F7BDC2"/>
	<stop  offset="1" style="stop-color:#FFFFFF"/>
</linearGradient>
<path class="st13" d="M107.5,75.6c0,21,17,38,38,38.1c21,0,38-17,38-38.1c0-21-17-38-38-38.1C124.6,37.6,107.6,54.6,107.5,75.6h-1
	c0-21.6,17.5-39.1,39-39.1c21.6,0,39,17.5,39,39.1c0,21.6-17.5,39.1-39,39.1c-21.6,0-39-17.5-39-39.1H107.5L107.5,75.6z"/>
<defs>
	<filter id="Adobe_OpacityMaskFilter_4_" filterUnits="userSpaceOnUse" x="113.7" y="43.7" width="63.7" height="63.8">
		<feColorMatrix  type="matrix" values="1 0 0 0 0  0 1 0 0 0  0 0 1 0 0  0 0 0 1 0"/>
	</filter>
</defs>
<mask maskUnits="userSpaceOnUse" x="113.7" y="43.7" width="63.7" height="63.8" id="SVGID_15_">
	<g class="st14">
		
			<linearGradient id="SVGID_16_" gradientUnits="userSpaceOnUse" x1="-1270.9568" y1="332.1622" x2="-1269.9568" y2="332.1622" gradientTransform="matrix(0 -64.752 -64.752 0 21709.6094 -82189.0156)">
			<stop  offset="0" style="stop-color:#000000"/>
			<stop  offset="1" style="stop-color:#FFFFFF"/>
		</linearGradient>
		<rect x="-338.6" y="-1086.6" class="st15" width="1080" height="2618.2"/>
	</g>
</mask>
<linearGradient id="SVGID_17_" gradientUnits="userSpaceOnUse" x1="-1270.9568" y1="333.0251" x2="-1269.9568" y2="333.0251" gradientTransform="matrix(3.964920e-15 -64.752 -64.752 -3.964920e-15 21709.6094 -82189.0078)">
	<stop  offset="0" style="stop-color:#F7BDC2"/>
	<stop  offset="1" style="stop-color:#FFFFFF"/>
</linearGradient>
<path class="st16" d="M114.7,75.6c0,17.1,13.8,30.8,30.9,30.9c17,0,30.8-13.8,30.9-30.9c0-17.1-13.8-30.8-30.9-30.9
	C128.5,44.8,114.7,58.6,114.7,75.6h-1c0-17.6,14.3-31.9,31.9-31.9c17.6,0,31.9,14.3,31.9,31.9c0,17.6-14.3,31.9-31.9,31.9
	c-17.6,0-31.9-14.3-31.9-31.9H114.7L114.7,75.6z"/>
<g>
	<path class="st17" d="M21.9,117.4h13.3l-1,4.1h-7.6v3.2h6.8l-0.2,4h-6.6v2.9h8.6l-1,4.1H21.9V117.4z"/>
	<path class="st17" d="M37.3,117.4h4.1l5.9,11.1h0.2l5.8-11.1h4v18.3h-4.6v-8.2l-3.5,6h-3.7l-3.6-6.4v8.5h-4.6V117.4z"/>
	<path class="st17" d="M60.3,117.4h7.2c2.4,0,4.2,0.5,5.5,1.6c1.3,1.1,1.9,2.7,1.9,4.8c0,2.2-0.6,3.9-1.8,5
		c-1.2,1.1-2.9,1.6-5.2,1.6H65v5.2h-4.7V117.4z M67.5,126.4c0.8,0,1.5-0.2,1.9-0.7c0.4-0.5,0.6-1.1,0.6-1.8c0-0.8-0.2-1.4-0.7-1.8
		c-0.5-0.4-1.2-0.6-2-0.6H65v5H67.5z"/>
	<path class="st17" d="M81.3,134.8c-1.4-0.8-2.6-1.8-3.4-3.3s-1.3-3.1-1.3-5c0-1.9,0.4-3.6,1.2-5c0.8-1.4,2-2.5,3.4-3.2
		c1.4-0.7,3-1.1,4.8-1.1c1.8,0,3.4,0.4,4.8,1.1c1.4,0.8,2.6,1.8,3.4,3.3c0.8,1.4,1.2,3.1,1.2,5c0,1.9-0.4,3.6-1.2,5
		c-0.8,1.4-2,2.5-3.4,3.3c-1.4,0.7-3,1.1-4.8,1.1C84.3,135.9,82.7,135.6,81.3,134.8z M88.5,131.1c0.7-0.5,1.2-1.1,1.6-1.9
		s0.5-1.7,0.5-2.7s-0.2-1.9-0.6-2.7s-0.9-1.4-1.6-1.9c-0.7-0.5-1.5-0.7-2.4-0.7c-1.4,0-2.5,0.5-3.3,1.5c-0.8,1-1.2,2.3-1.2,3.8
		c0,1,0.2,1.9,0.5,2.7s0.9,1.4,1.6,1.9c0.7,0.5,1.5,0.7,2.4,0.7C87,131.8,87.8,131.6,88.5,131.1z"/>
	<path class="st17" d="M97.8,117.4h7.1c1.7,0,3.1,0.2,4.3,0.5s2.2,0.8,3,1.5c0.8,0.7,1.5,1.7,1.9,2.8c0.4,1.2,0.6,2.6,0.6,4.2
		c0,1.5-0.2,2.9-0.7,4.1c-0.5,1.2-1.1,2.2-2,3c-1.6,1.5-3.7,2.2-6.5,2.2h-7.8V117.4z M104.9,131.7c1.6,0,2.8-0.4,3.6-1.3
		c0.9-0.9,1.3-2.2,1.3-4c0-1-0.1-1.8-0.3-2.4c-0.2-0.7-0.5-1.2-0.9-1.6c-0.7-0.7-1.9-1-3.4-1h-2.8v10.3H104.9z"/>
	<path class="st17" d="M117.1,117.4h13.3l-1,4.1h-7.6v3.2h6.8l-0.2,4h-6.6v2.9h8.6l-1,4.1h-12.4V117.4z"/>
	<path class="st17" d="M148.8,131.6l-1.1,4.1h-1.9c-0.7,0-1.3-0.1-1.7-0.3s-0.8-0.6-1.3-1.2l-2.9-3.7c-0.2-0.3-0.4-0.5-0.6-0.6
		c-0.2-0.1-0.4-0.1-0.8-0.1h-1.3v5.8h-4.7v-18.3h7.9c2.3,0,4.1,0.5,5.2,1.4c1.2,1,1.7,2.5,1.7,4.7c0,1.2-0.3,2.3-0.8,3.3
		c-0.5,0.9-1.3,1.6-2.3,2.1l1.6,2c0.2,0.2,0.4,0.4,0.6,0.5c0.2,0.1,0.5,0.1,0.9,0.1H148.8z M142,125.3c0.5-0.4,0.7-0.9,0.7-1.7
		c0-0.8-0.2-1.4-0.7-1.7c-0.4-0.3-1.1-0.5-2-0.5h-2.8v4.5h2.8C140.9,125.9,141.5,125.7,142,125.3z"/>
	<path class="st17" d="M157.2,117.4h4.5l7.3,18.3h-5l-1.1-3.1H156l-1.1,3.1h-5.2L157.2,117.4z M161.3,128.5l-1.8-5.1h-0.3l-1.8,5.1
		H161.3z"/>
	<path class="st17" d="M170.7,117.4h4.1l5.9,11.1h0.2l5.8-11.1h4v18.3h-4.6v-8.2l-3.5,6h-3.7l-3.6-6.4v8.5h-4.6V117.4z"/>
	<path class="st17" d="M193.6,117.4h4.7v18.3h-4.7V117.4z"/>
	<path class="st17" d="M201.4,117.4h13.3l-1,4.1h-7.6v3.2h6.8l-0.2,4h-6.6v2.9h8.6l-1,4.1h-12.4V117.4z"/>
	<path class="st17" d="M216.8,117.4h3.2l8.5,9.9v-9.9h4.4v18.3h-3.1l-8.6-10.2v10.2h-4.4V117.4z"/>
	<path class="st17" d="M240.3,121.5H235v-4.1h15.8l-1,4.1h-4.7v14.2h-4.8V121.5z"/>
	<path class="st17" d="M255.8,134.8c-1.4-0.8-2.6-1.8-3.4-3.3s-1.3-3.1-1.3-5c0-1.9,0.4-3.6,1.2-5c0.8-1.4,2-2.5,3.4-3.2
		c1.4-0.7,3-1.1,4.8-1.1c1.8,0,3.4,0.4,4.8,1.1c1.4,0.8,2.6,1.8,3.4,3.3c0.8,1.4,1.2,3.1,1.2,5c0,1.9-0.4,3.6-1.2,5
		c-0.8,1.4-2,2.5-3.4,3.3c-1.4,0.7-3,1.1-4.8,1.1C258.8,135.9,257.2,135.6,255.8,134.8z M263,131.1c0.7-0.5,1.2-1.1,1.6-1.9
		s0.5-1.7,0.5-2.7s-0.2-1.9-0.6-2.7s-0.9-1.4-1.6-1.9c-0.7-0.5-1.5-0.7-2.4-0.7c-1.4,0-2.5,0.5-3.3,1.5c-0.8,1-1.2,2.3-1.2,3.8
		c0,1,0.2,1.9,0.5,2.7s0.9,1.4,1.6,1.9c0.7,0.5,1.5,0.7,2.4,0.7C261.5,131.8,262.3,131.6,263,131.1z"/>
</g>
<rect x="120.8" y="48.5" class="st18" width="10.1" height="24.6"/>
<rect x="131.3" y="44.9" class="st18" width="10.1" height="24.6"/>
<rect x="142.4" y="41.7" class="st18" width="10.1" height="24.6"/>
<path class="st18" d="M159.2,63.2h-1.9c-2.3,0-4.1-1.8-4.1-4.1V42.7c0-2.3,1.8-4.1,4.1-4.1h1.9c2.3,0,4.1,1.8,4.1,4.1v16.4
	C163.3,61.4,161.4,63.2,159.2,63.2"/>
<path class="st18" d="M168.7,73.9l-1.8,0.5c-2.2,0.6-4.5-0.6-5.1-2.8l-4.5-15.8c-0.6-2.2,0.6-4.5,2.8-5.1l1.8-0.5
	c2.2-0.6,4.5,0.6,5.1,2.8l4.5,15.8C172.2,71,170.9,73.3,168.7,73.9"/>
<path class="st17" d="M125.9,76.3C125.9,76.3,125.9,76.3,125.9,76.3l-0.4,0c-1.7,0-3.3-0.7-4.4-1.9c-1.2-1.2-1.8-2.8-1.8-4.5
	l0.2-17.7c0-3.5,2.9-6.3,6.4-6.2l0.3,0c1.7,0,3.3,0.7,4.4,1.9c1.2,1.2,1.8,2.8,1.8,4.5l-0.2,17.7C132.2,73.6,129.4,76.3,125.9,76.3
	 M125.9,73.9c2.1,0,3.9-1.7,3.9-3.8l0.2-17.7c0-1-0.4-2-1.1-2.7s-1.7-1.2-2.7-1.2l-0.3,0c-2.1,0-3.9,1.7-3.9,3.8L121.8,70
	c0,1,0.4,2,1.1,2.7c0.7,0.7,1.7,1.2,2.7,1.2L125.9,73.9z"/>
<path class="st17" d="M136.3,74.2C136.3,74.2,136.2,74.2,136.3,74.2l-0.2,0c-1.7,0-3.3-0.7-4.5-2c-1.2-1.2-1.9-2.9-1.8-4.6l0.3-18.9
	c0-3.5,3-6.4,6.5-6.4c1.8,0,3.4,0.7,4.6,2c1.2,1.2,1.9,2.9,1.8,4.6l-0.3,18.9C142.7,71.4,139.8,74.2,136.3,74.2 M136.5,44.9
	c-2.2,0-4,1.7-4,3.9l-0.3,18.9c0,1.1,0.4,2.1,1.1,2.8c0.7,0.8,1.7,1.2,2.8,1.2c0,0,0.1,0,0.1,0c2.2,0,4-1.7,4-3.9l0.3-18.9
	c0-1.1-0.4-2.1-1.1-2.8C138.6,45.4,137.6,44.9,136.5,44.9C136.6,44.9,136.6,44.9,136.5,44.9"/>
<path class="st17" d="M146.9,73.6c0,0-0.1,0-0.1,0c-1.8,0-3.4-0.6-4.7-1.7c-1.3-1.1-2-2.7-2-4.3l0.3-22.6c0-3.3,3.1-5.9,6.9-5.8
	c1.8,0,3.4,0.6,4.7,1.7c1.3,1.1,2,2.7,2,4.3l-0.3,22.6C153.6,71.1,150.6,73.6,146.9,73.6 M147.2,41.7c-2.3,0-4.2,1.5-4.3,3.4
	l-0.3,22.6c0,0.9,0.4,1.7,1.2,2.4c0.8,0.7,1.9,1.1,3.1,1.1c2.3,0,4.3-1.5,4.3-3.4l1.2,0l-1.2,0l0.3-22.6c0-0.9-0.4-1.7-1.2-2.4
	C149.5,42.2,148.4,41.8,147.2,41.7C147.2,41.7,147.2,41.7,147.2,41.7"/>
<path class="st17" d="M158.7,71.8c-0.1,0-0.2,0-0.4,0c-0.1,0-0.2,0-0.4,0c-1.9,0-3.7-0.8-5-2.1c-1.1-1.1-1.6-2.5-1.6-3.9l0.4-22.5
	c0.1-3.2,3.1-5.8,6.8-5.8c1.9,0,3.7,0.8,5,2.1c1.1,1.1,1.6,2.5,1.6,3.9L165,50c0,0.7-0.6,1.2-1.3,1.2c-0.7,0-1.2-0.6-1.2-1.3
	l0.1-6.6c0-1-0.5-1.7-0.9-2.2c-0.8-0.8-2-1.3-3.2-1.3c-2.3,0-4.2,1.5-4.3,3.4l-0.4,22.5c0,1,0.5,1.7,0.9,2.2c0.8,0.8,2,1.3,3.2,1.3
	c0.2,0,0.4,0,0.6,0c0.3,0,0.3,0,0.5-0.1c0.6-0.2,1.4,0.1,1.6,0.8c0.2,0.6-0.1,1.4-0.8,1.6C159.3,71.7,159,71.8,158.7,71.8"/>
<path class="st17" d="M159.7,97.8c-0.7,0-1.2-0.6-1.2-1.2c0-0.7,0.5-1.3,1.1-1.5l3.4-1c1-0.5,12.6-6.1,8.6-25.3l-4.6-14.8
	c-0.3-1.1-1.1-2-2.1-2.5c-0.9-0.5-1.9-0.5-2.9-0.2c-2.1,0.7-3.2,3.2-2.5,5.4c0,0.1,0,0.1,0,0.2l2.6,18.6c0,0.3-0.1,0.7-0.3,1
	c-0.2,0.3-0.5,0.4-0.9,0.4c-0.5,0-11.9,0.8-14.6,12.1c-0.2,0.7-0.8,1.1-1.5,0.9c-0.7-0.2-1.1-0.8-0.9-1.5
	c2.5-10.6,12-13.2,15.5-13.8L157,57.3c-1-3.5,0.8-7.2,4.1-8.4c1.6-0.6,3.3-0.4,4.8,0.3c1.6,0.8,2.8,2.2,3.3,4l4.6,14.9
	c0,0,0,0.1,0,0.1c4.6,21.7-9.9,28.1-10.1,28.1c0,0-0.1,0-0.1,0l-3.1,0.9C160.5,97.6,160.1,97.8,159.7,97.8"/>
<path class="st17" d="M170,29l-4.4,8.2L170,29z"/>
<path class="st17" d="M165.6,38.4c-0.2,0-0.4,0-0.6-0.1c-0.6-0.3-0.8-1.1-0.5-1.7l4.4-8.2c0.3-0.6,1.1-0.8,1.7-0.5
	c0.6,0.3,0.8,1.1,0.5,1.7l-4.4,8.2C166.5,38.1,166.1,38.4,165.6,38.4"/>
<path class="st17" d="M183.3,48l-8.9,2.9L183.3,48z"/>
<path class="st17" d="M174.5,52.1c-0.5,0-1-0.3-1.2-0.9c-0.2-0.7,0.1-1.3,0.8-1.6l8.9-2.9c0.7-0.2,1.4,0.1,1.6,0.8
	c0.2,0.7-0.1,1.3-0.8,1.6l-8.9,2.9C174.7,52.1,174.6,52.1,174.5,52.1"/>
<path class="st17" d="M107.8,48l8.9,2.9L107.8,48z"/>
<path class="st17" d="M116.7,52.1c-0.1,0-0.3,0-0.4-0.1l-8.9-2.9c-0.6-0.2-1-0.9-0.8-1.6c0.2-0.7,0.9-1,1.6-0.8l8.9,2.9
	c0.6,0.2,1,0.9,0.8,1.6C117.7,51.8,117.2,52.1,116.7,52.1"/>
<path class="st17" d="M122.7,30.6l4.8,7.9L122.7,30.6z"/>
<path class="st17" d="M127.6,39.7c-0.4,0-0.8-0.2-1.1-0.6l-4.8-7.9c-0.4-0.6-0.2-1.3,0.4-1.7c0.6-0.4,1.3-0.2,1.7,0.4l4.8,7.9
	c0.4,0.6,0.2,1.3-0.4,1.7C128,39.6,127.8,39.7,127.6,39.7"/>
<path class="st17" d="M145.6,23.9l0.2,9.2L145.6,23.9z"/>
<path class="st17" d="M145.8,34.4c-0.7,0-1.2-0.5-1.2-1.2l-0.2-9.2c0-0.7,0.5-1.3,1.2-1.3c0.7,0,1.3,0.5,1.3,1.2l0.2,9.2
	C147.1,33.8,146.5,34.4,145.8,34.4C145.8,34.4,145.8,34.4,145.8,34.4"/>
<path class="st17" d="M160.8,110.6l0.1-13.5l-2.2-1.3l-0.2,0.5c-0.1,0.1-0.1,0.3-0.1,0.5l-0.1,13.9H160.8z"/>
<path class="st17" d="M130.4,97.4v12c0,0.7,0.6,1.2,1.2,1.2s1.2-0.6,1.2-1.2V96.7c0-0.6-0.3-1.2-0.7-1.6c-1.2-1-7-6.4-6.5-16.1
	l0-2.8l0,0l-2-1.6l-0.4,0.8c-0.1,0.2-0.1,0.3-0.1,0.5l0,3c-0.6,9.7,4.8,15.7,6.8,17.6C130.2,96.7,130.4,97.1,130.4,97.4"/>
</svg>
