<?xml version="1.0" encoding="utf-8"?>
<!-- Generator: Adobe Illustrator 23.0.6, SVG Export Plug-In . SVG Version: 6.00 Build 0)  -->
<svg version="1.1" id="Capa_1" xmlns="http://www.w3.org/2000/svg" xmlns:xlink="http://www.w3.org/1999/xlink" x="0px" y="0px"
	 viewBox="0 0 156.3 157.1" style="enable-background:new 0 0 156.3 157.1;" xml:space="preserve">
<style type="text/css">
	.st0{opacity:0.5;}
	.st1{clip-path:url(#SVGID_1_);fill:#FFC2C5;}
	.st2{filter:url(#Adobe_OpacityMaskFilter);}
	.st3{fill:url(#SVGID_3_);}
	.st4{mask:url(#SVGID_2_);fill:url(#SVGID_4_);}
	.st5{filter:url(#Adobe_OpacityMaskFilter_1_);}
	.st6{fill:url(#SVGID_6_);}
	.st7{mask:url(#SVGID_5_);fill:url(#SVGID_7_);}
	.st8{filter:url(#Adobe_OpacityMaskFilter_2_);}
	.st9{fill:url(#SVGID_9_);}
	.st10{mask:url(#SVGID_8_);fill:url(#SVGID_10_);}
	.st11{filter:url(#Adobe_OpacityMaskFilter_3_);}
	.st12{fill:url(#SVGID_12_);}
	.st13{mask:url(#SVGID_11_);fill:url(#SVGID_13_);}
	.st14{filter:url(#Adobe_OpacityMaskFilter_4_);}
	.st15{fill:url(#SVGID_15_);}
	.st16{mask:url(#SVGID_14_);fill:url(#SVGID_16_);}
	.st17{fill:#FFAAAF;}
	.st18{fill:none;stroke:#870037;stroke-width:2.362;stroke-linecap:round;stroke-miterlimit:10;}
	.st19{fill:#870037;}
</style>
<g class="st0">
	<g>
		<defs>
			<rect id="SVGID_18_" width="156.3" height="157.1"/>
		</defs>
		<clipPath id="SVGID_1_">
			<use xlink:href="#SVGID_18_"  style="overflow:visible;"/>
		</clipPath>
		<path class="st1" d="M147,157.1H9.2c-5.1,0-9.2-4.1-9.2-9.2V9.2C0,4.1,4.1,0,9.2,0H147c5.1,0,9.2,4.1,9.2,9.2v138.7
			C156.3,153,152.1,157.1,147,157.1"/>
	</g>
</g>
<defs>
	<filter id="Adobe_OpacityMaskFilter" filterUnits="userSpaceOnUse" x="17.6" y="16" width="121.1" height="121.2">
		<feColorMatrix  type="matrix" values="1 0 0 0 0  0 1 0 0 0  0 0 1 0 0  0 0 0 1 0"/>
	</filter>
</defs>
<mask maskUnits="userSpaceOnUse" x="17.6" y="16" width="121.1" height="121.2" id="SVGID_2_">
	<g class="st2">
		
			<linearGradient id="SVGID_3_" gradientUnits="userSpaceOnUse" x1="-1328.4126" y1="340.9778" x2="-1327.4126" y2="340.9778" gradientTransform="matrix(0 -122.1559 -122.1559 0 41547.3672 -162135.7969)">
			<stop  offset="0" style="stop-color:#000000"/>
			<stop  offset="1" style="stop-color:#FFFFFF"/>
		</linearGradient>
		<rect x="-645.1" y="-1258.7" class="st3" width="1080" height="2618.2"/>
	</g>
</mask>
<linearGradient id="SVGID_4_" gradientUnits="userSpaceOnUse" x1="-1328.4126" y1="339.478" x2="-1327.4126" y2="339.478" gradientTransform="matrix(7.479890e-15 -122.156 -122.156 -7.479890e-15 41547.4023 -162135.9375)">
	<stop  offset="0" style="stop-color:#F7BDC2"/>
	<stop  offset="1" style="stop-color:#FFFFFF"/>
</linearGradient>
<path class="st4" d="M18.6,76.6c0.1,32.9,26.7,59.5,59.5,59.6c32.9-0.1,59.5-26.7,59.5-59.6C137.6,43.7,111,17,78.1,17
	C45.2,17,18.6,43.7,18.6,76.6h-1C17.6,43.1,44.7,16,78.1,16c33.4,0,60.5,27.1,60.5,60.6c0,33.5-27.1,60.6-60.5,60.6
	c-33.4,0-60.5-27.1-60.5-60.6H18.6L18.6,76.6z"/>
<defs>
	<filter id="Adobe_OpacityMaskFilter_1_" filterUnits="userSpaceOnUse" x="24.8" y="23.2" width="106.7" height="106.8">
		<feColorMatrix  type="matrix" values="1 0 0 0 0  0 1 0 0 0  0 0 1 0 0  0 0 0 1 0"/>
	</filter>
</defs>
<mask maskUnits="userSpaceOnUse" x="24.8" y="23.2" width="106.7" height="106.8" id="SVGID_5_">
	<g class="st5">
		
			<linearGradient id="SVGID_6_" gradientUnits="userSpaceOnUse" x1="-1329.5182" y1="340.4419" x2="-1328.5182" y2="340.4419" gradientTransform="matrix(0 -107.8049 -107.8049 0 36596.2227 -143198.1406)">
			<stop  offset="0" style="stop-color:#000000"/>
			<stop  offset="1" style="stop-color:#FFFFFF"/>
		</linearGradient>
		<rect x="-645.1" y="-1258.7" class="st6" width="1080" height="2618.2"/>
	</g>
</mask>
<linearGradient id="SVGID_7_" gradientUnits="userSpaceOnUse" x1="-1329.5182" y1="338.7424" x2="-1328.5182" y2="338.7424" gradientTransform="matrix(6.601150e-15 -107.805 -107.805 -6.601150e-15 36596.2539 -143198.25)">
	<stop  offset="0" style="stop-color:#F7BDC2"/>
	<stop  offset="1" style="stop-color:#FFFFFF"/>
</linearGradient>
<path class="st7" d="M25.8,76.6c0.1,28.9,23.4,52.3,52.4,52.4c28.9-0.1,52.3-23.5,52.4-52.4c-0.1-28.9-23.4-52.3-52.4-52.4
	C49.2,24.2,25.8,47.6,25.8,76.6h-1c0-29.5,23.9-53.4,53.4-53.4c29.5,0,53.4,23.9,53.4,53.4c0,29.5-23.9,53.4-53.4,53.4
	c-29.5,0-53.4-23.9-53.4-53.4H25.8L25.8,76.6z"/>
<defs>
	<filter id="Adobe_OpacityMaskFilter_2_" filterUnits="userSpaceOnUse" x="31.9" y="30.3" width="92.4" height="92.5">
		<feColorMatrix  type="matrix" values="1 0 0 0 0  0 1 0 0 0  0 0 1 0 0  0 0 0 1 0"/>
	</filter>
</defs>
<mask maskUnits="userSpaceOnUse" x="31.9" y="30.3" width="92.4" height="92.5" id="SVGID_8_">
	<g class="st8">
		
			<linearGradient id="SVGID_9_" gradientUnits="userSpaceOnUse" x1="-1330.9634" y1="339.7413" x2="-1329.9634" y2="339.7413" gradientTransform="matrix(0 -93.4539 -93.4539 0 31645.0801 -124260.4844)">
			<stop  offset="0" style="stop-color:#000000"/>
			<stop  offset="1" style="stop-color:#FFFFFF"/>
		</linearGradient>
		<rect x="-645.1" y="-1258.7" class="st9" width="1080" height="2618.2"/>
	</g>
</mask>
<linearGradient id="SVGID_10_" gradientUnits="userSpaceOnUse" x1="-1330.9634" y1="337.7809" x2="-1329.9634" y2="337.7809" gradientTransform="matrix(5.722400e-15 -93.4539 -93.4539 -5.722400e-15 31645.0664 -124260.4375)">
	<stop  offset="0" style="stop-color:#F7BDC2"/>
	<stop  offset="1" style="stop-color:#FFFFFF"/>
</linearGradient>
<path class="st10" d="M32.9,76.6c0,25,20.2,45.2,45.2,45.2c25,0,45.2-20.2,45.2-45.2c0-25-20.2-45.2-45.2-45.2
	C53.2,31.4,33,51.6,32.9,76.6h-1c0-25.5,20.7-46.2,46.2-46.2c25.5,0,46.2,20.7,46.2,46.2c0,25.5-20.7,46.2-46.2,46.2
	c-25.5,0-46.2-20.7-46.2-46.2H32.9L32.9,76.6z"/>
<defs>
	<filter id="Adobe_OpacityMaskFilter_3_" filterUnits="userSpaceOnUse" x="39.1" y="37.5" width="78.1" height="78.1">
		<feColorMatrix  type="matrix" values="1 0 0 0 0  0 1 0 0 0  0 0 1 0 0  0 0 0 1 0"/>
	</filter>
</defs>
<mask maskUnits="userSpaceOnUse" x="39.1" y="37.5" width="78.1" height="78.1" id="SVGID_11_">
	<g class="st11">
		
			<linearGradient id="SVGID_12_" gradientUnits="userSpaceOnUse" x1="-1332.9329" y1="338.7865" x2="-1331.9329" y2="338.7865" gradientTransform="matrix(0 -79.103 -79.103 0 26693.9395 -105322.8438)">
			<stop  offset="0" style="stop-color:#000000"/>
			<stop  offset="1" style="stop-color:#FFFFFF"/>
		</linearGradient>
		<rect x="-645.1" y="-1258.7" class="st12" width="1080" height="2618.2"/>
	</g>
</mask>
<linearGradient id="SVGID_13_" gradientUnits="userSpaceOnUse" x1="-1332.9329" y1="336.4705" x2="-1331.9329" y2="336.4705" gradientTransform="matrix(4.843660e-15 -79.103 -79.103 -4.843660e-15 26693.9473 -105322.8672)">
	<stop  offset="0" style="stop-color:#F7BDC2"/>
	<stop  offset="1" style="stop-color:#FFFFFF"/>
</linearGradient>
<path class="st13" d="M40.1,76.6c0,21,17,38,38,38.1c21,0,38-17,38-38.1c0-21-17-38-38-38.1C57.1,38.5,40.1,55.5,40.1,76.6h-1
	c0-21.6,17.5-39.1,39-39.1c21.6,0,39,17.5,39,39.1c0,21.6-17.5,39.1-39,39.1c-21.6,0-39-17.5-39-39.1H40.1L40.1,76.6z"/>
<defs>
	<filter id="Adobe_OpacityMaskFilter_4_" filterUnits="userSpaceOnUse" x="46.3" y="44.7" width="63.7" height="63.8">
		<feColorMatrix  type="matrix" values="1 0 0 0 0  0 1 0 0 0  0 0 1 0 0  0 0 0 1 0"/>
	</filter>
</defs>
<mask maskUnits="userSpaceOnUse" x="46.3" y="44.7" width="63.7" height="63.8" id="SVGID_14_">
	<g class="st14">
		
			<linearGradient id="SVGID_15_" gradientUnits="userSpaceOnUse" x1="-1335.7753" y1="337.4086" x2="-1334.7753" y2="337.4086" gradientTransform="matrix(0 -64.752 -64.752 0 21742.7969 -86385.1875)">
			<stop  offset="0" style="stop-color:#000000"/>
			<stop  offset="1" style="stop-color:#FFFFFF"/>
		</linearGradient>
		<rect x="-645.1" y="-1258.7" class="st15" width="1080" height="2618.2"/>
	</g>
</mask>
<linearGradient id="SVGID_16_" gradientUnits="userSpaceOnUse" x1="-1335.7753" y1="334.5792" x2="-1334.7753" y2="334.5792" gradientTransform="matrix(3.964920e-15 -64.752 -64.752 -3.964920e-15 21742.7969 -86385.1875)">
	<stop  offset="0" style="stop-color:#F7BDC2"/>
	<stop  offset="1" style="stop-color:#FFFFFF"/>
</linearGradient>
<path class="st16" d="M47.3,76.6c0,17.1,13.8,30.8,30.9,30.9c17,0,30.8-13.8,30.9-30.9c0-17.1-13.8-30.8-30.9-30.9
	C61.1,45.7,47.3,59.5,47.3,76.6h-1c0-17.6,14.3-31.9,31.9-31.9C95.7,44.7,110,59,110,76.6c0,17.6-14.3,31.9-31.9,31.9
	c-17.6,0-31.9-14.3-31.9-31.9H47.3L47.3,76.6z"/>
<path class="st17" d="M108.8,64.9c0,16.9-13.7,30.7-30.7,30.7c-16.9,0-30.7-13.7-30.7-30.7c0-16.9,13.7-30.7,30.7-30.7
	C95.1,34.3,108.8,48,108.8,64.9"/>
<path class="st18" d="M108.8,64.9c0,16.9-13.7,30.7-30.7,30.7c-16.9,0-30.7-13.7-30.7-30.7c0-16.9,13.7-30.7,30.7-30.7
	C95.1,34.3,108.8,48,108.8,64.9z"/>
<ellipse transform="matrix(0.5257 -0.8507 0.8507 0.5257 -18.1889 97.2577)" class="st18" cx="78.1" cy="64.9" rx="19.3" ry="19.3"/>
<path class="st18" d="M86.4,64.9c0,4.6-3.7,8.3-8.3,8.3s-8.3-3.7-8.3-8.3c0-4.6,3.7-8.3,8.3-8.3S86.4,60.3,86.4,64.9z"/>
<line class="st18" x1="78.1" y1="26" x2="78.1" y2="37.8"/>
<line class="st18" x1="78.1" y1="92" x2="78.1" y2="103.9"/>
<line class="st18" x1="39.1" y1="64.9" x2="51" y2="64.9"/>
<line class="st18" x1="105.2" y1="64.9" x2="117.1" y2="64.9"/>
<g>
	<path class="st19" d="M17.5,112.5h13.3l-1,4.1h-7.6v3.2h6.8l-0.2,4h-6.6v2.9h8.6l-1,4.1H17.5V112.5z"/>
	<path class="st19" d="M33,112.5h3.2l8.5,9.9v-9.9h4.4v18.3H46l-8.6-10.2v10.2H33V112.5z"/>
	<path class="st19" d="M52.1,112.5h13.3l-1,4.1h-7.5v3.8h6.6l-0.2,4h-6.5v6.3h-4.7V112.5z"/>
	<path class="st19" d="M70.6,129.9c-1.4-0.8-2.6-1.8-3.4-3.3c-0.8-1.4-1.3-3.1-1.3-5c0-1.9,0.4-3.6,1.2-5c0.8-1.4,2-2.5,3.4-3.2
		c1.4-0.7,3-1.1,4.8-1.1c1.8,0,3.4,0.4,4.8,1.1c1.4,0.8,2.6,1.8,3.4,3.3c0.8,1.4,1.2,3.1,1.2,5c0,1.9-0.4,3.6-1.2,5
		c-0.8,1.4-2,2.5-3.4,3.3c-1.4,0.7-3,1.1-4.8,1.1C73.6,131.1,72,130.7,70.6,129.9z M77.8,126.2c0.7-0.5,1.2-1.1,1.6-1.9
		c0.4-0.8,0.5-1.7,0.5-2.7s-0.2-1.9-0.6-2.7c-0.4-0.8-0.9-1.4-1.6-1.9c-0.7-0.5-1.5-0.7-2.4-0.7c-1.4,0-2.5,0.5-3.3,1.5
		s-1.2,2.3-1.2,3.8c0,1,0.2,1.9,0.5,2.7c0.4,0.8,0.9,1.4,1.6,1.9s1.5,0.7,2.4,0.7C76.3,127,77.1,126.7,77.8,126.2z"/>
	<path class="st19" d="M99.1,135.2c-0.6-0.2-1.1-0.7-1.7-1.3l-2.7-2.9c-1.6-0.2-3-0.6-4.2-1.4c-1.3-0.8-2.2-1.9-3-3.2
		s-1.1-2.9-1.1-4.7c0-1.9,0.4-3.6,1.2-5c0.8-1.4,2-2.5,3.4-3.2c1.4-0.7,3-1.1,4.8-1.1c1.8,0,3.4,0.4,4.8,1.1
		c1.4,0.7,2.6,1.8,3.4,3.3c0.8,1.4,1.2,3.1,1.2,5c0,2-0.5,3.7-1.4,5.2c-0.9,1.5-2.2,2.6-3.9,3.4l0.4,0.4c0.3,0.3,0.6,0.5,0.9,0.6
		c0.3,0.1,0.7,0.2,1.1,0.2h2.3l-1,4.1h-2.2C100.4,135.5,99.7,135.4,99.1,135.2z M98.3,126.2c0.7-0.5,1.2-1.1,1.6-1.9
		c0.4-0.8,0.5-1.7,0.5-2.7s-0.2-1.9-0.6-2.7c-0.4-0.8-0.9-1.4-1.6-1.9c-0.7-0.5-1.5-0.7-2.4-0.7c-1.4,0-2.5,0.5-3.3,1.5
		s-1.2,2.3-1.2,3.8c0,1,0.2,1.9,0.5,2.7c0.4,0.8,0.9,1.4,1.6,1.9s1.5,0.7,2.4,0.7C96.8,127,97.6,126.7,98.3,126.2z"/>
	<path class="st19" d="M109.5,129.2c-1.4-1.2-2.1-3.1-2.1-5.6v-11.1h4.7v10.7c0,1.2,0.3,2.1,0.9,2.8s1.4,1,2.6,1
		c1.1,0,1.9-0.3,2.4-1c0.5-0.6,0.8-1.6,0.8-2.8v-10.7h4.7v11.1c0,2.5-0.7,4.3-2.1,5.6c-1.4,1.2-3.4,1.9-6,1.9
		C112.9,131.1,110.9,130.5,109.5,129.2z"/>
	<path class="st19" d="M126.5,112.5h13.3l-1,4.1h-7.6v3.2h6.8l-0.2,4h-6.6v2.9h8.6l-1,4.1h-12.4V112.5z"/>
</g>
</svg>
