<?xml version="1.0" encoding="utf-8"?>
<!-- Generator: Adobe Illustrator 23.0.6, SVG Export Plug-In . SVG Version: 6.00 Build 0)  -->
<svg version="1.1" id="Capa_1" xmlns="http://www.w3.org/2000/svg" xmlns:xlink="http://www.w3.org/1999/xlink" x="0px" y="0px"
	 viewBox="0 0 172.2 157.1" style="enable-background:new 0 0 172.2 157.1;" xml:space="preserve">
<style type="text/css">
	.st0{opacity:0.5;}
	.st1{clip-path:url(#SVGID_1_);fill:#FFC2C5;}
	.st2{filter:url(#Adobe_OpacityMaskFilter);}
	.st3{fill:url(#SVGID_3_);}
	.st4{mask:url(#SVGID_2_);fill:url(#SVGID_4_);}
	.st5{filter:url(#Adobe_OpacityMaskFilter_1_);}
	.st6{fill:url(#SVGID_6_);}
	.st7{mask:url(#SVGID_5_);fill:url(#SVGID_7_);}
	.st8{filter:url(#Adobe_OpacityMaskFilter_2_);}
	.st9{fill:url(#SVGID_9_);}
	.st10{mask:url(#SVGID_8_);fill:url(#SVGID_10_);}
	.st11{filter:url(#Adobe_OpacityMaskFilter_3_);}
	.st12{fill:url(#SVGID_12_);}
	.st13{mask:url(#SVGID_11_);fill:url(#SVGID_13_);}
	.st14{filter:url(#Adobe_OpacityMaskFilter_4_);}
	.st15{fill:url(#SVGID_15_);}
	.st16{mask:url(#SVGID_14_);fill:url(#SVGID_16_);}
	.st17{fill:#FFAAAF;}
	.st18{fill:#870037;}
</style>
<g class="st0">
	<g>
		<defs>
			<rect id="SVGID_18_" width="172.2" height="157.1"/>
		</defs>
		<clipPath id="SVGID_1_">
			<use xlink:href="#SVGID_18_"  style="overflow:visible;"/>
		</clipPath>
		<path class="st1" d="M162.5,157.1H9.7c-5.3,0-9.7-4.3-9.7-9.7V9.7C0,4.3,4.3,0,9.7,0h152.8c5.3,0,9.7,4.3,9.7,9.7v137.7
			C172.2,152.8,167.8,157.1,162.5,157.1"/>
	</g>
</g>
<defs>
	<filter id="Adobe_OpacityMaskFilter" filterUnits="userSpaceOnUse" x="26.3" y="16" width="121.1" height="121.2">
		<feColorMatrix  type="matrix" values="1 0 0 0 0  0 1 0 0 0  0 0 1 0 0  0 0 0 1 0"/>
	</filter>
</defs>
<mask maskUnits="userSpaceOnUse" x="26.3" y="16" width="121.1" height="121.2" id="SVGID_2_">
	<g class="st2">
		
			<linearGradient id="SVGID_3_" gradientUnits="userSpaceOnUse" x1="-1320.4536" y1="343.9393" x2="-1319.4536" y2="343.9393" gradientTransform="matrix(0 -122.1559 -122.1559 0 41736.5977 -161163.5469)">
			<stop  offset="0" style="stop-color:#000000"/>
			<stop  offset="1" style="stop-color:#FFFFFF"/>
		</linearGradient>
		<rect x="-817.6" y="-1258.7" class="st3" width="1080" height="2618.2"/>
	</g>
</mask>
<linearGradient id="SVGID_4_" gradientUnits="userSpaceOnUse" x1="-1320.4536" y1="340.9555" x2="-1319.4536" y2="340.9555" gradientTransform="matrix(7.479890e-15 -122.156 -122.156 -7.479890e-15 41736.6367 -161163.6875)">
	<stop  offset="0" style="stop-color:#F7BDC2"/>
	<stop  offset="1" style="stop-color:#FFFFFF"/>
</linearGradient>
<path class="st4" d="M27.3,76.6c0.1,32.9,26.7,59.5,59.5,59.6c32.9-0.1,59.5-26.7,59.5-59.6C146.4,43.7,119.8,17,86.9,17
	C54,17,27.4,43.7,27.3,76.6h-1C26.3,43.1,53.4,16,86.9,16c33.4,0,60.5,27.1,60.5,60.6c0,33.5-27.1,60.6-60.5,60.6
	c-33.4,0-60.5-27.1-60.5-60.6H27.3L27.3,76.6z"/>
<defs>
	<filter id="Adobe_OpacityMaskFilter_1_" filterUnits="userSpaceOnUse" x="33.5" y="23.2" width="106.7" height="106.8">
		<feColorMatrix  type="matrix" values="1 0 0 0 0  0 1 0 0 0  0 0 1 0 0  0 0 0 1 0"/>
	</filter>
</defs>
<mask maskUnits="userSpaceOnUse" x="33.5" y="23.2" width="106.7" height="106.8" id="SVGID_5_">
	<g class="st5">
		
			<linearGradient id="SVGID_6_" gradientUnits="userSpaceOnUse" x1="-1321.5592" y1="343.7976" x2="-1320.5592" y2="343.7976" gradientTransform="matrix(0 -107.8049 -107.8049 0 36785.457 -142340.1094)">
			<stop  offset="0" style="stop-color:#000000"/>
			<stop  offset="1" style="stop-color:#FFFFFF"/>
		</linearGradient>
		<rect x="-817.6" y="-1258.7" class="st6" width="1080" height="2618.2"/>
	</g>
</mask>
<linearGradient id="SVGID_7_" gradientUnits="userSpaceOnUse" x1="-1321.5592" y1="340.4166" x2="-1320.5592" y2="340.4166" gradientTransform="matrix(6.601150e-15 -107.805 -107.805 -6.601150e-15 36785.4844 -142340.2188)">
	<stop  offset="0" style="stop-color:#F7BDC2"/>
	<stop  offset="1" style="stop-color:#FFFFFF"/>
</linearGradient>
<path class="st7" d="M34.5,76.6c0.1,28.9,23.4,52.3,52.4,52.4c28.9-0.1,52.3-23.5,52.4-52.4c-0.1-28.9-23.4-52.3-52.4-52.4
	C57.9,24.2,34.6,47.6,34.5,76.6h-1c0-29.5,23.9-53.4,53.4-53.4c29.5,0,53.4,23.9,53.4,53.4c0,29.5-23.9,53.4-53.4,53.4
	c-29.5,0-53.4-23.9-53.4-53.4H34.5L34.5,76.6z"/>
<defs>
	<filter id="Adobe_OpacityMaskFilter_2_" filterUnits="userSpaceOnUse" x="40.7" y="30.3" width="92.4" height="92.5">
		<feColorMatrix  type="matrix" values="1 0 0 0 0  0 1 0 0 0  0 0 1 0 0  0 0 0 1 0"/>
	</filter>
</defs>
<mask maskUnits="userSpaceOnUse" x="40.7" y="30.3" width="92.4" height="92.5" id="SVGID_8_">
	<g class="st8">
		
			<linearGradient id="SVGID_9_" gradientUnits="userSpaceOnUse" x1="-1323.0043" y1="343.6123" x2="-1322.0043" y2="343.6123" gradientTransform="matrix(0 -93.4539 -93.4539 0 31834.3125 -123516.6797)">
			<stop  offset="0" style="stop-color:#000000"/>
			<stop  offset="1" style="stop-color:#FFFFFF"/>
		</linearGradient>
		<rect x="-817.6" y="-1258.7" class="st9" width="1080" height="2618.2"/>
	</g>
</mask>
<linearGradient id="SVGID_10_" gradientUnits="userSpaceOnUse" x1="-1323.0043" y1="339.7122" x2="-1322.0043" y2="339.7122" gradientTransform="matrix(5.722400e-15 -93.4539 -93.4539 -5.722400e-15 31834.2988 -123516.6328)">
	<stop  offset="0" style="stop-color:#F7BDC2"/>
	<stop  offset="1" style="stop-color:#FFFFFF"/>
</linearGradient>
<path class="st10" d="M41.7,76.6c0,25,20.2,45.2,45.2,45.2c25,0,45.2-20.2,45.2-45.2c0-25-20.2-45.2-45.2-45.2
	C61.9,31.4,41.7,51.6,41.7,76.6h-1c0-25.5,20.7-46.2,46.2-46.2c25.5,0,46.2,20.7,46.2,46.2c0,25.5-20.7,46.2-46.2,46.2
	c-25.5,0-46.2-20.7-46.2-46.2H41.7L41.7,76.6z"/>
<defs>
	<filter id="Adobe_OpacityMaskFilter_3_" filterUnits="userSpaceOnUse" x="47.8" y="37.5" width="78.1" height="78.1">
		<feColorMatrix  type="matrix" values="1 0 0 0 0  0 1 0 0 0  0 0 1 0 0  0 0 0 1 0"/>
	</filter>
</defs>
<mask maskUnits="userSpaceOnUse" x="47.8" y="37.5" width="78.1" height="78.1" id="SVGID_11_">
	<g class="st11">
		
			<linearGradient id="SVGID_12_" gradientUnits="userSpaceOnUse" x1="-1324.9738" y1="343.3599" x2="-1323.9738" y2="343.3599" gradientTransform="matrix(0 -79.103 -79.103 0 26883.1719 -104693.2578)">
			<stop  offset="0" style="stop-color:#000000"/>
			<stop  offset="1" style="stop-color:#FFFFFF"/>
		</linearGradient>
		<rect x="-817.6" y="-1258.7" class="st12" width="1080" height="2618.2"/>
	</g>
</mask>
<linearGradient id="SVGID_13_" gradientUnits="userSpaceOnUse" x1="-1324.9738" y1="338.7521" x2="-1323.9738" y2="338.7521" gradientTransform="matrix(4.843660e-15 -79.103 -79.103 -4.843660e-15 26883.1797 -104693.2813)">
	<stop  offset="0" style="stop-color:#F7BDC2"/>
	<stop  offset="1" style="stop-color:#FFFFFF"/>
</linearGradient>
<path class="st13" d="M48.8,76.6c0,21,17,38,38,38.1c21,0,38-17,38-38.1c0-21-17-38-38-38.1C65.9,38.5,48.9,55.5,48.8,76.6h-1
	c0-21.6,17.5-39.1,39-39.1c21.6,0,39,17.5,39,39.1c0,21.6-17.5,39.1-39,39.1c-21.6,0-39-17.5-39-39.1H48.8L48.8,76.6z"/>
<defs>
	<filter id="Adobe_OpacityMaskFilter_4_" filterUnits="userSpaceOnUse" x="55" y="44.7" width="63.7" height="63.8">
		<feColorMatrix  type="matrix" values="1 0 0 0 0  0 1 0 0 0  0 0 1 0 0  0 0 0 1 0"/>
	</filter>
</defs>
<mask maskUnits="userSpaceOnUse" x="55" y="44.7" width="63.7" height="63.8" id="SVGID_14_">
	<g class="st14">
		
			<linearGradient id="SVGID_15_" gradientUnits="userSpaceOnUse" x1="-1327.8162" y1="342.9955" x2="-1326.8162" y2="342.9955" gradientTransform="matrix(0 -64.752 -64.752 0 21932.0293 -85869.8203)">
			<stop  offset="0" style="stop-color:#000000"/>
			<stop  offset="1" style="stop-color:#FFFFFF"/>
		</linearGradient>
		<rect x="-817.6" y="-1258.7" class="st15" width="1080" height="2618.2"/>
	</g>
</mask>
<linearGradient id="SVGID_16_" gradientUnits="userSpaceOnUse" x1="-1327.8162" y1="337.3665" x2="-1326.8162" y2="337.3665" gradientTransform="matrix(3.964920e-15 -64.752 -64.752 -3.964920e-15 21932.0293 -85869.8281)">
	<stop  offset="0" style="stop-color:#F7BDC2"/>
	<stop  offset="1" style="stop-color:#FFFFFF"/>
</linearGradient>
<path class="st16" d="M56,76.6c0,17.1,13.8,30.8,30.9,30.9c17,0,30.8-13.8,30.9-30.9c0-17.1-13.8-30.8-30.9-30.9
	C69.8,45.7,56,59.5,56,76.6h-1C55,59,69.3,44.7,86.9,44.7c17.6,0,31.9,14.3,31.9,31.9c0,17.6-14.3,31.9-31.9,31.9
	C69.3,108.4,55,94.2,55,76.6H56L56,76.6z"/>
<path class="st17" d="M87.2,104.1c-18.9,0-35.9-15.2-37.2-33.2c0-0.4,0.1-0.7,0.4-1c0.2-0.2,0.5-0.3,0.7-0.3c0.1,0,0.2,0,0.3,0
	c2,0.6,3.9,0.9,5.9,0.9h0c8.4,0,16.5-5.4,20.5-13.8c3.8-8,2.9-16.7-2.4-23.2c-0.2-0.3-0.3-0.7-0.2-1c0.1-0.4,0.4-0.6,0.7-0.8
	c3.2-1.1,6.4-1.6,9.5-1.6c10.2,0,19.4,5.8,24.8,15.5c4.8,8.7,5.6,18.7,2.4,27.5c3.7-4.2,6.4-9.3,7.7-14.8c0.1-0.5,0.6-0.9,1.1-0.9
	c0.5,0,1,0.4,1.1,0.9c4.3,17.8-5.3,36.3-22.4,43C96.2,103.2,91.8,104.1,87.2,104.1"/>
<path class="st18" d="M85.5,31.3c21.9,0,35.6,27.6,23.4,47c6.4-5,10.8-12,12.6-19.7c4.1,16.8-4.5,34.9-21.7,41.7
	c-4.1,1.7-8.4,2.6-12.6,2.6c-17.6,0-34.7-13.9-36-32.1c2.1,0.6,4.2,0.9,6.2,0.9c18.2,0,31.6-23.3,18.9-38.8
	C79.5,31.8,82.6,31.3,85.5,31.3 M85.5,29.1L85.5,29.1c-3.2,0-6.5,0.6-9.8,1.7c-0.7,0.2-1.3,0.8-1.5,1.5c-0.2,0.7,0,1.5,0.4,2.1
	c5,6.2,5.9,14.4,2.3,22c-3.8,8-11.4,13.2-19.4,13.2c-1.9,0-3.7-0.3-5.6-0.8c-0.2-0.1-0.4-0.1-0.6-0.1c-0.5,0-1,0.2-1.4,0.5
	c-0.6,0.5-0.9,1.2-0.8,1.9c0.7,9.3,5.2,17.9,12.7,24.4c7.2,6.2,16.5,9.8,25.6,9.8c4.7,0,9.2-0.9,13.5-2.7c8.7-3.5,15.8-9.9,20-18.2
	c4.1-8.1,5.2-17.4,3-26.2c-0.2-1-1.2-1.7-2.2-1.7h0c-1.1,0-2,0.7-2.2,1.7c-0.8,3.4-2.2,6.7-4,9.6c1.2-7.5-0.1-15.5-4-22.6
	C105.7,35.1,96.1,29.1,85.5,29.1"/>
<path class="st17" d="M61.1,58.7c-3.6,0-6.8-2.5-9.1-7.1c-4.1-12.7,6-20.1,10.3-22.6c-0.3,6,1.8,9.9,3.8,13.6
	c1.3,2.4,2.5,4.7,3.1,7.4c0.4,1.8-0.2,3.7-1.6,5.4C66,57.5,63.5,58.7,61.1,58.7L61.1,58.7z"/>
<path class="st18" d="M61.2,31.2c0.2,5.2,2.2,8.8,3.9,12.1c1.3,2.3,2.4,4.5,3,7.1c0.3,1.4-0.2,3-1.4,4.4c-1.4,1.8-3.6,2.8-5.7,2.8
	c-3.1,0-5.9-2.3-8-6.4C49.8,40.9,56.7,34.2,61.2,31.2 M63.7,27.1L63.7,27.1L63.7,27.1z M63.7,27.1c0,0-18.2,8.2-12.7,25
	c2.8,5.7,6.6,7.8,10.1,7.8c5.5,0,10.2-5.2,9.3-10C68.8,42,62.2,38.2,63.7,27.1"/>
<g>
	<path class="st18" d="M39.9,112.9H47c2.4,0,4.2,0.5,5.5,1.6c1.3,1.1,1.9,2.7,1.9,4.8c0,2.2-0.6,3.9-1.8,5c-1.2,1.1-2.9,1.6-5.2,1.6
		h-2.9v5.2h-4.7V112.9z M47.1,121.9c0.8,0,1.5-0.2,1.9-0.7c0.4-0.5,0.6-1.1,0.6-1.8c0-0.8-0.2-1.4-0.7-1.8c-0.5-0.4-1.2-0.6-2-0.6
		h-2.3v5H47.1z"/>
	<path class="st18" d="M60.9,112.9h4.5l7.3,18.3h-5l-1.1-3.1h-6.8l-1.1,3.1h-5.2L60.9,112.9z M65,124l-1.8-5.1H63l-1.8,5.1H65z"/>
	<path class="st18" d="M77,131.1c-1.1-0.2-2-0.4-2.8-0.7l0.2-4.3c0.8,0.4,1.8,0.7,2.8,0.9c1,0.2,2,0.4,2.9,0.4
		c1.6,0,2.5-0.5,2.5-1.5c0-0.3-0.1-0.6-0.3-0.8c-0.2-0.2-0.6-0.4-1.1-0.6c-0.5-0.2-1.3-0.5-2.5-0.9c-1.6-0.5-2.7-1.2-3.4-2.1
		c-0.7-0.9-1-2.1-1-3.6c0-1.7,0.6-3,1.9-3.9c1.3-0.9,3.1-1.4,5.4-1.4c0.9,0,1.8,0,2.7,0.1c0.9,0.1,1.6,0.2,2.2,0.4l-0.1,4.1
		c-1.7-0.4-3.2-0.6-4.5-0.6c-1.8,0-2.7,0.4-2.7,1.2c0,0.3,0.1,0.6,0.2,0.7s0.5,0.4,0.9,0.6c0.5,0.2,1.2,0.4,2.2,0.7
		c1.3,0.4,2.3,0.8,3.1,1.3c0.7,0.5,1.2,1,1.5,1.7c0.3,0.6,0.4,1.4,0.4,2.4c0,1.9-0.6,3.4-1.9,4.5c-1.2,1.1-2.9,1.7-5.1,1.7
		C79.2,131.4,78.1,131.3,77,131.1z"/>
	<path class="st18" d="M89.5,112.9h4.7v18.3h-4.7V112.9z"/>
	<path class="st18" d="M101.2,130.3c-1.4-0.8-2.6-1.8-3.4-3.3c-0.8-1.4-1.3-3.1-1.3-5c0-1.9,0.4-3.6,1.2-5c0.8-1.4,2-2.5,3.4-3.2
		c1.4-0.7,3-1.1,4.8-1.1c1.8,0,3.4,0.4,4.8,1.1c1.4,0.8,2.6,1.8,3.4,3.3c0.8,1.4,1.2,3.1,1.2,5c0,1.9-0.4,3.6-1.2,5
		c-0.8,1.4-2,2.5-3.4,3.3c-1.4,0.7-3,1.1-4.8,1.1C104.3,131.4,102.7,131,101.2,130.3z M108.4,126.6c0.7-0.5,1.2-1.1,1.6-1.9
		c0.4-0.8,0.5-1.7,0.5-2.7s-0.2-1.9-0.6-2.7c-0.4-0.8-0.9-1.4-1.6-1.9c-0.7-0.5-1.5-0.7-2.4-0.7c-1.4,0-2.5,0.5-3.3,1.5
		s-1.2,2.3-1.2,3.8c0,1,0.2,1.9,0.5,2.7c0.4,0.8,0.9,1.4,1.6,1.9s1.5,0.7,2.4,0.7C106.9,127.3,107.7,127.1,108.4,126.6z
		 M102.6,108.8l5.8-3.6l1.8,3.6l-6,2.7L102.6,108.8z"/>
	<path class="st18" d="M117.7,112.9h3.2l8.5,9.9v-9.9h4.4v18.3h-3.1l-8.6-10.2v10.2h-4.4V112.9z"/>
</g>
</svg>
