<?xml version="1.0" encoding="utf-8"?>
<!-- Generator: Adobe Illustrator 23.0.6, SVG Export Plug-In . SVG Version: 6.00 Build 0)  -->
<svg version="1.1" id="Capa_1" xmlns="http://www.w3.org/2000/svg" xmlns:xlink="http://www.w3.org/1999/xlink" x="0px" y="0px"
	 viewBox="0 0 168.9 157.1" style="enable-background:new 0 0 168.9 157.1;" xml:space="preserve">
<style type="text/css">
	.st0{opacity:0.3;}
	.st1{clip-path:url(#SVGID_2_);fill:#870037;}
	.st2{fill:url(#SVGID_3_);}
	.st3{fill:url(#SVGID_4_);}
	.st4{fill:url(#SVGID_5_);}
	.st5{fill:url(#SVGID_6_);}
	.st6{fill:url(#SVGID_7_);}
	.st7{enable-background:new    ;}
	.st8{fill:#870037;}
	.st9{fill:#DB889A;}
</style>
<g>
	<g class="st0">
		<g>
			<g>
				<defs>
					<rect id="SVGID_1_" width="168.9" height="157.1"/>
				</defs>
				<clipPath id="SVGID_2_">
					<use xlink:href="#SVGID_1_"  style="overflow:visible;"/>
				</clipPath>
				<path class="st1" d="M159.3,157.1H9.6c-5.3,0-9.6-4.3-9.6-9.6V9.6C0,4.3,4.3,0,9.6,0h149.8c5.3,0,9.6,4.3,9.6,9.6v137.9
					C168.9,152.8,164.6,157.1,159.3,157.1"/>
			</g>
		</g>
	</g>
	
		<linearGradient id="SVGID_3_" gradientUnits="userSpaceOnUse" x1="-2096.2175" y1="296.2198" x2="-2095.2175" y2="296.2198" gradientTransform="matrix(7.479890e-15 -122.156 122.156 7.479890e-15 -36100.625 -255929.2813)">
		<stop  offset="0" style="stop-color:#F7BDC2"/>
		<stop  offset="1" style="stop-color:#FFFFFF"/>
	</linearGradient>
	<path class="st2" d="M24.9,75.2c0.1,32.9,26.7,59.5,59.5,59.6c32.9-0.1,59.5-26.7,59.5-59.6c-0.1-32.9-26.7-59.5-59.5-59.6
		C51.6,15.7,25,42.3,24.9,75.2h-1c0-33.5,27.1-60.6,60.5-60.6s60.5,27.1,60.5,60.6s-27.1,60.6-60.5,60.6s-60.5-27.1-60.5-60.6
		L24.9,75.2L24.9,75.2z"/>
	
		<linearGradient id="SVGID_4_" gradientUnits="userSpaceOnUse" x1="-2098.198" y1="298.3268" x2="-2097.198" y2="298.3268" gradientTransform="matrix(6.601150e-15 -107.805 107.805 6.601150e-15 -32076.623 -226067.1563)">
		<stop  offset="0" style="stop-color:#F7BDC2"/>
		<stop  offset="1" style="stop-color:#FFFFFF"/>
	</linearGradient>
	<path class="st3" d="M32.1,75.2c0.1,28.9,23.4,52.3,52.4,52.4c28.9-0.1,52.3-23.5,52.4-52.4c-0.1-28.9-23.4-52.3-52.4-52.4
		C55.5,22.8,32.1,46.2,32.1,75.2h-1c0-29.5,23.9-53.4,53.4-53.4s53.4,23.9,53.4,53.4s-23.9,53.4-53.4,53.4s-53.4-23.9-53.4-53.4
		L32.1,75.2L32.1,75.2z"/>
	
		<linearGradient id="SVGID_5_" gradientUnits="userSpaceOnUse" x1="-2100.7869" y1="301.08" x2="-2099.7869" y2="301.08" gradientTransform="matrix(5.722400e-15 -93.4539 93.4539 5.722400e-15 -28052.5957 -196204.8281)">
		<stop  offset="0" style="stop-color:#F7BDC2"/>
		<stop  offset="1" style="stop-color:#FFFFFF"/>
	</linearGradient>
	<path class="st4" d="M39.3,75.2c0,25,20.2,45.2,45.2,45.2s45.2-20.2,45.2-45.2S109.5,30,84.5,30C59.5,30,39.3,50.2,39.3,75.2h-1
		C38.3,49.7,59,29,84.5,29s46.2,20.7,46.2,46.2s-20.7,46.2-46.2,46.2s-46.2-20.7-46.2-46.2H39.3L39.3,75.2z"/>
	
		<linearGradient id="SVGID_6_" gradientUnits="userSpaceOnUse" x1="-2104.3149" y1="304.8307" x2="-2103.3149" y2="304.8307" gradientTransform="matrix(4.843660e-15 -79.103 79.103 4.843660e-15 -24028.6191 -166342.875)">
		<stop  offset="0" style="stop-color:#F7BDC2"/>
		<stop  offset="1" style="stop-color:#FFFFFF"/>
	</linearGradient>
	<path class="st5" d="M46.4,75.2c0,21,17,38,38,38.1c21,0,38-17,38-38.1c0-21-17-38-38-38.1C63.5,37.2,46.5,54.2,46.4,75.2h-1
		c0-21.6,17.5-39.1,39-39.1c21.6,0,39,17.5,39,39.1s-17.5,39.1-39,39.1c-21.6,0-39-17.5-39-39.1H46.4L46.4,75.2z"/>
	
		<linearGradient id="SVGID_7_" gradientUnits="userSpaceOnUse" x1="-2109.407" y1="310.2471" x2="-2108.407" y2="310.2471" gradientTransform="matrix(3.964920e-15 -64.752 64.752 3.964920e-15 -20004.6211 -136480.75)">
		<stop  offset="0" style="stop-color:#F7BDC2"/>
		<stop  offset="1" style="stop-color:#FFFFFF"/>
	</linearGradient>
	<path class="st6" d="M53.6,75.2c0,17.1,13.8,30.8,30.9,30.9c17,0,30.8-13.8,30.9-30.9c0-17.1-13.8-30.8-30.9-30.9
		C67.4,44.3,53.6,58.1,53.6,75.2h-1c0-17.6,14.3-31.9,31.9-31.9s31.9,14.3,31.9,31.9s-14.3,31.9-31.9,31.9S52.6,92.8,52.6,75.2H53.6
		L53.6,75.2z"/>
</g>
<g>
	<g class="st7">
		<path class="st8" d="M39.4,117.7c-1.5-0.8-2.6-1.9-3.3-3.3s-1.1-3-1.1-4.7c0-1.9,0.4-3.5,1.2-5c0.8-1.4,2-2.6,3.5-3.3
			c1.5-0.8,3.2-1.2,5.2-1.2c1.9,0,3.4,0.2,4.6,0.5l-0.4,4.1c-0.4-0.1-1-0.2-1.8-0.3c-0.8-0.1-1.5-0.1-2.3-0.1c-1,0-1.9,0.2-2.7,0.6
			c-0.8,0.4-1.4,1-1.9,1.7c-0.5,0.8-0.7,1.7-0.7,2.9c0,1.7,0.5,3,1.4,3.9c0.9,0.9,2.3,1.4,4,1.4c1.4,0,2.8-0.1,4.1-0.4l0.3,4
			c-0.5,0.2-1.2,0.3-2,0.4c-0.8,0.1-1.7,0.1-2.6,0.1C42.8,118.9,40.9,118.5,39.4,117.7z"/>
	</g>
	<g class="st7">
		<path class="st8" d="M58.8,100.4h4.5l7.3,18.3h-5l-1.1-3.1h-6.8l-1.1,3.1h-5.2L58.8,100.4z M62.9,111.5l-1.8-5.1h-0.3l-1.8,5.1
			H62.9z"/>
	</g>
	<g class="st7">
		<path class="st8" d="M88.7,114.6l-1.1,4.1h-1.9c-0.7,0-1.3-0.1-1.7-0.3c-0.4-0.2-0.8-0.6-1.3-1.2l-2.9-3.7
			c-0.2-0.3-0.4-0.5-0.6-0.6c-0.2-0.1-0.4-0.1-0.8-0.1h-1.3v5.8h-4.7v-18.3h7.9c2.3,0,4.1,0.5,5.2,1.4c1.2,1,1.7,2.5,1.7,4.7
			c0,1.2-0.3,2.3-0.8,3.3c-0.5,0.9-1.3,1.6-2.3,2.1l1.6,2c0.2,0.2,0.4,0.4,0.6,0.5c0.2,0.1,0.5,0.1,0.9,0.1H88.7z M81.9,108.3
			c0.4-0.4,0.7-0.9,0.7-1.7c0-0.8-0.2-1.4-0.7-1.7s-1.1-0.5-2-0.5h-2.8v4.5H80C80.8,108.9,81.4,108.7,81.9,108.3z"/>
	</g>
	<g class="st7">
		<path class="st8" d="M90.5,100.4h4.7v18.3h-4.7V100.4z"/>
		<path class="st8" d="M98.2,100.4h3.2l8.5,9.9v-9.9h4.4v18.3h-3.1l-8.6-10.2v10.2h-4.4V100.4z"/>
		<path class="st8" d="M121.2,117.8c-1.5-0.8-2.6-1.9-3.3-3.3c-0.8-1.4-1.1-3-1.1-4.9c0-1.8,0.4-3.5,1.3-4.9s2.1-2.6,3.7-3.4
			c1.6-0.8,3.4-1.2,5.5-1.2c1.1,0,2.1,0.1,3.1,0.2c1,0.1,1.7,0.3,2.4,0.5l-0.4,4.1c-0.6-0.2-1.3-0.3-2.1-0.4
			c-0.8-0.1-1.7-0.2-2.7-0.2c-1.9,0-3.3,0.5-4.4,1.4c-1.1,0.9-1.6,2.2-1.6,3.9c0,1.7,0.5,3,1.4,3.9s2.2,1.4,3.9,1.4
			c0.8,0,1.4,0,1.8-0.1V110l4.7-1.2v8.8c-0.8,0.4-1.9,0.8-3.1,1c-1.2,0.2-2.5,0.4-3.8,0.4C124.5,118.9,122.7,118.6,121.2,117.8z"/>
	</g>
	<rect x="74" y="22.3" class="st9" width="7.2" height="27.6"/>
	<rect x="82.2" y="15.6" class="st9" width="7.2" height="34.2"/>
	<rect x="90.3" y="19.7" class="st9" width="7.2" height="34.2"/>
	<rect x="98.3" y="30" class="st9" width="7.2" height="34.2"/>
	<path class="st8" d="M102.6,60c-0.7-2.9-2.7-4.9-5.7-5.8c-2.8-0.8-5.6,0.4-7.6,2c-2-1.6-4.8-2.8-7.6-2C78.8,55,76.8,57.1,76,60
		c-0.8,3.2,0.3,5.8,3.9,9.4l8.2,7.3l0,0c0.3,0.3,0.7,0.4,1,0.4c0.4,0,0.7-0.1,1-0.4l8.2-7.2C102.5,65.6,103.4,63.3,102.6,60
		 M89.4,74.3l-7.6-6.7c-3.7-3.7-3.7-5.4-3.3-7.1c0.4-1.4,1.3-3.3,3.9-4c0.4-0.1,0.8-0.2,1.1-0.2c1.8,0,3.7,1.1,4.9,2.4
		c0.5,0.5,1.3,0.4,1.7-0.1c1.5-1.4,3.8-2.8,6-2.2c2.6,0.7,3.6,2.6,3.9,4c0.5,1.8,0.5,3.3-3.3,7.1L89.4,74.3z"/>
	<path class="st8" d="M75.6,85.1c0.4,0.5,0.8,1.3,1.1,2.3c0.4,1.5,0.4,1.4,0.4,5.6c0,0.7,0.6,1.3,1.3,1.3c0.7,0,1.3-0.6,1.3-1.3
		c0-2.5-0.1-4.9-0.6-6.3c-0.4-1.3-0.9-2.4-1.6-3.1c-0.8-1-1.6-1.7-2.3-2.5c-2.1-2.2-4-4.1-6.2-10c-1.3-3.6-4.6-18.2-5.4-22
		c-0.2-0.8,0-1.5,0.4-2s0.8-0.6,1.1-0.5c1,0.1,2.2,1.1,3.2,2.7c1.3,2.2,2.5,5.6,3.5,10.1c0.2,0.7,0.4,1.3,0.6,1.7s0.7,0.7,1.2,0.6
		c0.5-0.1,0.9-0.5,1-1c0.2-1.1,0.2-5.8,0-13.9c-0.1-7.7-0.3-16.4,0-20.8c0.1-1.9,1.3-3,2.4-3.1c1.2-0.1,2.2,0.9,2.7,2.7
		c0,0.1,0.1,0.2,0.1,0.3c0,9.3,0,21.3,0,21.5c0,0.7,0.5,1.2,1.2,1.2l0,0c0.7,0,1.2-0.6,1.2-1.2c0-0.2-0.1-19.3,0-28
		c0-2,1.7-3.1,3.4-3.1c1.4,0,2.9,1.1,2.9,2.6v13.9c0,8.2,0,11.4,0,12.7v0.8l0,0c0,0.1,0,0.1,0,0.1c0.1,0.6,0.6,1.1,1.3,1.1
		c0.7,0,1.2-0.6,1.2-1.2V23c0.2-1.9,1.9-2.3,3-2.3c1.2,0,2.5,0.7,2.5,2.3c0,9.1,0,27,0,27h2.4c0,0,0-9.1,0-17.6c0,0,0,0,0-0.1
		c0-1,1.2-1.7,2.4-1.7c0,0,0,0,0.1,0c1.5,0,3.2,1,3.3,3.7c0.1,1.5,0.1,3.1,0.2,4.6c0.7,17.1,1.5,34.7-3.9,44.8
		c-0.6,1.1-0.8,2.1-0.9,3.5c0,1,0.1,3.3,0.2,5.9c0,0.7,0.6,1.2,1.3,1.2c0.7,0,1.3-0.6,1.3-1.4c-0.2-3.7-0.4-4.5-0.4-5.6
		c0-1.2,0.3-1.9,0.6-2.5c5.7-10.7,4.9-28.7,4.2-46.1c-0.1-1.5-0.1-3.1-0.2-4.6c-0.2-4.3-3-6.1-5.8-6.1c-0.9,0-1.6,0.2-2.3,0.5
		c0-2.1,0-4,0-5.7c0-2.7-2-4.6-4.8-4.7c-1.1,0-2.1,0.2-3.1,0.7v-0.1c0-2.9-2.8-5-5.3-5h-0.1c-2.8,0-5.7,1.9-5.8,5.5
		c0,0.6,0,1.4,0,2.1c-1-0.7-2.1-1-3.1-0.9c-2.2,0.2-4.4,2.1-4.6,5.4c-0.3,4.5-0.1,13.2,0,21c0,1.8,0.1,3.7,0.1,5.5
		c-0.6-1.7-1.3-3.2-2-4.4c-1.4-2.3-3.3-3.7-5.1-3.8c-1.2-0.1-2.3,0.4-3.1,1.5c-0.9,1.1-1.2,2.6-0.9,4.1c0.6,2.7,4,18.4,5.5,22.4
		c2.4,6.4,4.5,8.6,6.7,10.8C74.1,83.5,74.9,84.2,75.6,85.1"/>
</g>
</svg>
