<?xml version="1.0" encoding="utf-8"?>
<!-- Generator: Adobe Illustrator 23.0.6, SVG Export Plug-In . SVG Version: 6.00 Build 0)  -->
<svg version="1.1" id="Capa_1" xmlns="http://www.w3.org/2000/svg" xmlns:xlink="http://www.w3.org/1999/xlink" x="0px" y="0px"
	 viewBox="0 0 205.8 157.1" style="enable-background:new 0 0 205.8 157.1;" xml:space="preserve">
<style type="text/css">
	.st0{opacity:0.3;}
	.st1{clip-path:url(#SVGID_2_);fill:#870037;}
	.st2{fill:url(#SVGID_3_);}
	.st3{fill:url(#SVGID_4_);}
	.st4{fill:url(#SVGID_5_);}
	.st5{fill:url(#SVGID_6_);}
	.st6{fill:url(#SVGID_7_);}
	.st7{enable-background:new    ;}
	.st8{fill:#870037;}
	.st9{fill:#DB889A;}
	.st10{fill:none;stroke:#870037;stroke-width:2.23;stroke-linecap:round;stroke-linejoin:round;stroke-miterlimit:10;}
</style>
<g class="st0">
	<g>
		<g>
			<defs>
				<rect id="SVGID_1_" width="205.8" height="157.1"/>
			</defs>
			<clipPath id="SVGID_2_">
				<use xlink:href="#SVGID_1_"  style="overflow:visible;"/>
			</clipPath>
			<path class="st1" d="M195.2,157.1H10.6c-5.8,0-10.6-4.7-10.6-10.6V10.6C0,4.7,4.7,0,10.6,0h184.7c5.8,0,10.6,4.7,10.6,10.6v135.9
				C205.8,152.4,201.1,157.1,195.2,157.1"/>
		</g>
	</g>
</g>
<linearGradient id="SVGID_3_" gradientUnits="userSpaceOnUse" x1="-2166.1584" y1="286.8091" x2="-2165.1584" y2="286.8091" gradientTransform="matrix(7.479890e-15 -122.156 122.156 7.479890e-15 -34932.5586 -264473.25)">
	<stop  offset="0" style="stop-color:#F7BDC2"/>
	<stop  offset="1" style="stop-color:#FFFFFF"/>
</linearGradient>
<path class="st2" d="M43.4,74.9c0.1,32.9,26.7,59.5,59.5,59.6c32.9-0.1,59.5-26.7,59.5-59.6c-0.1-32.9-26.7-59.5-59.5-59.6
	C70,15.4,43.4,42,43.4,74.9h-1c0-33.5,27.1-60.6,60.5-60.6s60.5,27.1,60.5,60.6s-27.1,60.6-60.5,60.6s-60.5-27.1-60.5-60.6H43.4
	L43.4,74.9z"/>
<linearGradient id="SVGID_4_" gradientUnits="userSpaceOnUse" x1="-2168.134" y1="288.3811" x2="-2167.134" y2="288.3811" gradientTransform="matrix(6.601150e-15 -107.805 107.805 6.601150e-15 -30986.0254 -233606.8906)">
	<stop  offset="0" style="stop-color:#F7BDC2"/>
	<stop  offset="1" style="stop-color:#FFFFFF"/>
</linearGradient>
<path class="st3" d="M50.5,74.9c0.1,28.9,23.4,52.3,52.4,52.4c28.9-0.1,52.3-23.5,52.4-52.4c-0.1-28.9-23.4-52.3-52.4-52.4
	C74,22.5,50.6,46,50.5,74.9h-1c0-29.5,23.9-53.4,53.4-53.4s53.4,23.9,53.4,53.4s-23.9,53.4-53.4,53.4s-53.4-23.9-53.4-53.4H50.5
	L50.5,74.9z"/>
<linearGradient id="SVGID_5_" gradientUnits="userSpaceOnUse" x1="-2170.7166" y1="290.4359" x2="-2169.7166" y2="290.4359" gradientTransform="matrix(5.722400e-15 -93.4539 93.4539 5.722400e-15 -27039.4688 -202740.2969)">
	<stop  offset="0" style="stop-color:#F7BDC2"/>
	<stop  offset="1" style="stop-color:#FFFFFF"/>
</linearGradient>
<path class="st4" d="M57.7,74.9c0,25,20.2,45.2,45.2,45.2s45.2-20.2,45.2-45.2s-20.2-45.2-45.2-45.2C78,29.7,57.8,49.9,57.7,74.9h-1
	c0-25.5,20.7-46.2,46.2-46.2s46.2,20.7,46.2,46.2s-20.7,46.2-46.2,46.2s-46.2-20.7-46.2-46.2L57.7,74.9L57.7,74.9z"/>
<linearGradient id="SVGID_6_" gradientUnits="userSpaceOnUse" x1="-2174.2358" y1="293.2362" x2="-2173.2358" y2="293.2362" gradientTransform="matrix(4.843660e-15 -79.103 79.103 4.843660e-15 -23092.9609 -171874.125)">
	<stop  offset="0" style="stop-color:#F7BDC2"/>
	<stop  offset="1" style="stop-color:#FFFFFF"/>
</linearGradient>
<path class="st5" d="M64.9,74.9c0,21,17,38,38,38.1c21,0,38-17,38-38.1c0-21-17-38-38-38.1C81.9,36.9,64.9,53.9,64.9,74.9h-1
	c0-21.6,17.5-39.1,39-39.1c21.6,0,39,17.5,39,39.1s-17.5,39.1-39,39.1c-21.6,0-39-17.5-39-39.1H64.9L64.9,74.9z"/>
<linearGradient id="SVGID_7_" gradientUnits="userSpaceOnUse" x1="-2179.3154" y1="297.2793" x2="-2178.3154" y2="297.2793" gradientTransform="matrix(3.964920e-15 -64.752 64.752 3.964920e-15 -19146.4316 -141007.75)">
	<stop  offset="0" style="stop-color:#F7BDC2"/>
	<stop  offset="1" style="stop-color:#FFFFFF"/>
</linearGradient>
<path class="st6" d="M72.1,74.9c0,17.1,13.8,30.8,30.9,30.9c17,0,30.8-13.8,30.9-30.9c0-17.1-13.8-30.8-30.9-30.9
	C85.9,44.1,72.1,57.8,72.1,74.9h-1C71.1,57.3,85.4,43,103,43s31.9,14.3,31.9,31.9s-14.3,31.9-31.9,31.9S71.1,92.5,71.1,74.9H72.1
	L72.1,74.9z"/>
<g class="st7">
	<path class="st8" d="M37.7,112.6h4.7v18.3h-4.7V112.6z"/>
	<path class="st8" d="M45.4,112.6h3.2l8.5,9.9v-9.9h4.4v18.3h-3.1l-8.6-10.2v10.2h-4.4V112.6z"/>
</g>
<g class="st7">
	<path class="st8" d="M68.4,129.9c-1.5-0.8-2.6-1.9-3.3-3.3s-1.1-3-1.1-4.7c0-1.9,0.4-3.5,1.2-5c0.8-1.4,2-2.6,3.5-3.3
		c1.5-0.8,3.2-1.2,5.2-1.2c1.9,0,3.4,0.2,4.6,0.5l-0.4,4.1c-0.4-0.1-1-0.2-1.8-0.3c-0.8-0.1-1.5-0.1-2.3-0.1c-1,0-1.9,0.2-2.7,0.6
		c-0.8,0.4-1.4,1-1.9,1.7c-0.5,0.8-0.7,1.7-0.7,2.9c0,1.7,0.5,3,1.4,3.9c0.9,0.9,2.3,1.4,4,1.4c1.4,0,2.8-0.1,4.1-0.4l0.3,4
		c-0.5,0.2-1.2,0.3-2,0.4c-0.8,0.1-1.7,0.1-2.6,0.1C71.7,131.1,69.9,130.7,68.4,129.9z"/>
</g>
<g class="st7">
	<path class="st8" d="M80.8,126.8v-14.2h4.7v12.5c0,0.7,0.1,1.1,0.4,1.3c0.3,0.2,0.7,0.3,1.4,0.3H93l-1,4.1h-7.5
		C82,130.8,80.8,129.5,80.8,126.8z"/>
</g>
<g class="st7">
	<path class="st8" d="M96.5,129.3c-1.4-1.2-2.1-3.1-2.1-5.6v-11.1h4.7v10.7c0,1.2,0.3,2.1,0.9,2.8s1.4,1,2.6,1c1.1,0,1.9-0.3,2.4-1
		s0.8-1.6,0.8-2.8v-10.7h4.7v11.1c0,2.5-0.7,4.3-2.1,5.6s-3.4,1.9-6,1.9C99.9,131.1,97.9,130.5,96.5,129.3z"/>
</g>
<g class="st7">
	<path class="st8" d="M115.7,130.8c-1.1-0.2-2-0.4-2.8-0.7l0.2-4.3c0.8,0.4,1.8,0.7,2.8,0.9c1,0.2,2,0.4,2.9,0.4
		c1.6,0,2.5-0.5,2.5-1.5c0-0.3-0.1-0.6-0.3-0.8c-0.2-0.2-0.6-0.4-1.1-0.6c-0.5-0.2-1.3-0.5-2.5-0.8c-1.6-0.5-2.7-1.2-3.4-2.1
		c-0.7-0.9-1-2.1-1-3.6c0-1.7,0.6-3,1.9-3.9c1.3-0.9,3.1-1.4,5.4-1.4c0.9,0,1.8,0,2.7,0.1s1.6,0.2,2.2,0.4l-0.1,4.1
		c-1.7-0.4-3.2-0.6-4.5-0.6c-1.8,0-2.7,0.4-2.7,1.2c0,0.3,0.1,0.6,0.2,0.7c0.2,0.2,0.5,0.4,0.9,0.6s1.2,0.4,2.2,0.7
		c1.3,0.4,2.3,0.8,3.1,1.3c0.7,0.5,1.2,1,1.5,1.7c0.3,0.6,0.4,1.4,0.4,2.4c0,1.9-0.6,3.4-1.9,4.5c-1.2,1.1-2.9,1.7-5.1,1.7
		C118,131.1,116.8,131,115.7,130.8z"/>
	<path class="st8" d="M128.2,112.6h4.7v18.3h-4.7V112.6z"/>
	<path class="st8" d="M134.6,112.6h5.4l4.4,11.3h0.3l3.9-11.3h5.5l-7.6,18.3h-4L134.6,112.6z"/>
	<path class="st8" d="M155.8,112.6h13.3l-1,4.1h-7.6v3.2h6.8l-0.2,4h-6.6v2.9h8.6l-1,4.1h-12.4V112.6z"/>
</g>
<path class="st9" d="M111.8,49c0-4.1-3.4-7.5-7.5-7.5c-1,0-2,0.2-2.8,0.6v-2.5c-3.2-3.6-9.1-10.1-18.2-10.1
	C69,29.6,60.2,43,60.2,55.5c0,3.8,0.8,7.4,2.3,10.9h14.9c-0.5-1-0.9-2.2-0.9-3.5c0-4.1,3.4-7.5,7.5-7.5s7.5,3.4,7.5,7.5
	c0,1.3-0.3,2.4-0.9,3.5h10.7V56c0.9,0.4,1.8,0.6,2.8,0.6C108.5,56.5,111.8,53.2,111.8,49"/>
<path class="st10" d="M111.8,49c0-4.1-3.4-7.5-7.5-7.5c-1,0-2,0.2-2.8,0.6v-2.5c-3.2-3.6-9.1-10.1-18.2-10.1
	C69,29.6,60.2,43,60.2,55.5c0,3.8,0.8,7.4,2.3,10.9h14.9c-0.5-1-0.9-2.2-0.9-3.5c0-4.1,3.4-7.5,7.5-7.5s7.5,3.4,7.5,7.5
	c0,1.3-0.3,2.4-0.9,3.5h10.7V56c0.9,0.4,1.8,0.6,2.8,0.6C108.5,56.5,111.8,53.2,111.8,49z"/>
<path class="st9" d="M91.7,62.9c0-4.1-3.4-7.5-7.5-7.5s-7.5,3.4-7.5,7.5c0,1.3,0.3,2.4,0.9,3.5H62.5c5.3,12.2,19.1,23.1,36.9,36.1
	c0.6,0.4,1.3,0.7,2,0.7V90.4c-1,0.5-2.2,0.9-3.5,0.9c-4.1,0-7.5-3.4-7.5-7.5s3.4-7.5,7.5-7.5c1.3,0,2.4,0.3,3.5,0.9V66.4H90.8
	C91.3,65.3,91.7,64.1,91.7,62.9"/>
<path class="st10" d="M91.7,62.9c0-4.1-3.4-7.5-7.5-7.5s-7.5,3.4-7.5,7.5c0,1.3,0.3,2.4,0.9,3.5H62.5c5.3,12.2,19.1,23.1,36.9,36.1
	c0.6,0.4,1.3,0.7,2,0.7V90.4c-1,0.5-2.2,0.9-3.5,0.9c-4.1,0-7.5-3.4-7.5-7.5s3.4-7.5,7.5-7.5c1.3,0,2.4,0.3,3.5,0.9V66.4H90.8
	C91.3,65.3,91.7,64.1,91.7,62.9z"/>
<path class="st9" d="M125.5,66.4c0.5,1,0.9,2.2,0.9,3.5c0,4.1-3.4,7.5-7.5,7.5s-7.5-3.4-7.5-7.5c0-1.3,0.3-2.4,0.9-3.5h-10.7v10.7
	c-1-0.5-2.2-0.9-3.5-0.9c-4.1,0-7.5,3.4-7.5,7.5s3.4,7.5,7.5,7.5c1.3,0,2.4-0.3,3.5-0.9v12.8l0,0c0.7,0,1.4-0.2,2-0.7
	c17.8-13.1,31.6-24,36.9-36.1L125.5,66.4L125.5,66.4z"/>
<path class="st10" d="M125.5,66.4c0.5,1,0.9,2.2,0.9,3.5c0,4.1-3.4,7.5-7.5,7.5s-7.5-3.4-7.5-7.5c0-1.3,0.3-2.4,0.9-3.5h-10.7v10.7
	c-1-0.5-2.2-0.9-3.5-0.9c-4.1,0-7.5,3.4-7.5,7.5s3.4,7.5,7.5,7.5c1.3,0,2.4-0.3,3.5-0.9v12.8l0,0c0.7,0,1.4-0.2,2-0.7
	c17.8-13.1,31.6-24,36.9-36.1L125.5,66.4L125.5,66.4z"/>
<path class="st9" d="M119.7,29.6c-9.1,0-15,6.5-18.2,10.1l0,0v2.5c0.9-0.4,1.8-0.6,2.8-0.6c4.1,0,7.5,3.4,7.5,7.5s-3.4,7.5-7.5,7.5
	c-1,0-2-0.2-2.8-0.6v10.4h10.7c-0.5,1-0.9,2.2-0.9,3.5c0,4.1,3.4,7.5,7.5,7.5s7.5-3.4,7.5-7.5c0-1.3-0.3-2.4-0.9-3.5h14.9
	c1.5-3.5,2.3-7.1,2.3-10.9C142.7,43,133.9,29.6,119.7,29.6"/>
<path class="st10" d="M119.7,29.6c-9.1,0-15,6.5-18.2,10.1l0,0v2.5c0.9-0.4,1.8-0.6,2.8-0.6c4.1,0,7.5,3.4,7.5,7.5s-3.4,7.5-7.5,7.5
	c-1,0-2-0.2-2.8-0.6v10.4h10.7c-0.5,1-0.9,2.2-0.9,3.5c0,4.1,3.4,7.5,7.5,7.5s7.5-3.4,7.5-7.5c0-1.3-0.3-2.4-0.9-3.5h14.9
	c1.5-3.5,2.3-7.1,2.3-10.9C142.7,43,133.9,29.6,119.7,29.6z"/>
</svg>
