<?xml version="1.0" encoding="utf-8"?>
<!-- Generator: Adobe Illustrator 23.0.6, SVG Export Plug-In . SVG Version: 6.00 Build 0)  -->
<svg version="1.1" id="Capa_1" xmlns="http://www.w3.org/2000/svg" xmlns:xlink="http://www.w3.org/1999/xlink" x="0px" y="0px"
	 viewBox="0 0 366.4 157.1" style="enable-background:new 0 0 366.4 157.1;" xml:space="preserve">
<style type="text/css">
	.st0{opacity:0.5;}
	.st1{clip-path:url(#SVGID_1_);fill:#FFC2C5;}
	.st2{filter:url(#Adobe_OpacityMaskFilter);}
	.st3{fill:url(#SVGID_3_);}
	.st4{mask:url(#SVGID_2_);fill:url(#SVGID_4_);}
	.st5{filter:url(#Adobe_OpacityMaskFilter_1_);}
	.st6{fill:url(#SVGID_6_);}
	.st7{mask:url(#SVGID_5_);fill:url(#SVGID_7_);}
	.st8{filter:url(#Adobe_OpacityMaskFilter_2_);}
	.st9{fill:url(#SVGID_9_);}
	.st10{mask:url(#SVGID_8_);fill:url(#SVGID_10_);}
	.st11{filter:url(#Adobe_OpacityMaskFilter_3_);}
	.st12{fill:url(#SVGID_12_);}
	.st13{mask:url(#SVGID_11_);fill:url(#SVGID_13_);}
	.st14{filter:url(#Adobe_OpacityMaskFilter_4_);}
	.st15{fill:url(#SVGID_15_);}
	.st16{mask:url(#SVGID_14_);fill:url(#SVGID_16_);}
	.st17{fill:#870037;}
	.st18{fill:#FFAAAF;}
	.st19{fill:none;stroke:#870037;stroke-width:2.396;stroke-linecap:round;stroke-linejoin:round;stroke-miterlimit:10;}
</style>
<g class="st0">
	<g>
		<defs>
			<rect id="SVGID_18_" width="366.4" height="157.1"/>
		</defs>
		<clipPath id="SVGID_1_">
			<use xlink:href="#SVGID_18_"  style="overflow:visible;"/>
		</clipPath>
		<path class="st1" d="M352.3,157.1H14.1C6.3,157.1,0,150.8,0,143V14.1C0,6.3,6.3,0,14.1,0h338.1c7.8,0,14.1,6.3,14.1,14.1V143
			C366.4,150.8,360.1,157.1,352.3,157.1"/>
	</g>
</g>
<defs>
	<filter id="Adobe_OpacityMaskFilter" filterUnits="userSpaceOnUse" x="122.6" y="14.6" width="121.1" height="121.2">
		<feColorMatrix  type="matrix" values="1 0 0 0 0  0 1 0 0 0  0 0 1 0 0  0 0 0 1 0"/>
	</filter>
</defs>
<mask maskUnits="userSpaceOnUse" x="122.6" y="14.6" width="121.1" height="121.2" id="SVGID_2_">
	<g class="st2">
		
			<linearGradient id="SVGID_3_" gradientUnits="userSpaceOnUse" x1="-1223.3596" y1="332.8861" x2="-1222.3596" y2="332.8861" gradientTransform="matrix(0 -122.1559 -122.1559 0 41158.0234 -149304.3281)">
			<stop  offset="0" style="stop-color:#000000"/>
			<stop  offset="1" style="stop-color:#FFFFFF"/>
		</linearGradient>
		<rect x="-46" y="-1256.9" class="st3" width="1080" height="2618.2"/>
	</g>
</mask>
<linearGradient id="SVGID_4_" gradientUnits="userSpaceOnUse" x1="-1223.3596" y1="335.4307" x2="-1222.3596" y2="335.4307" gradientTransform="matrix(7.479890e-15 -122.156 -122.156 -7.479890e-15 41158.0586 -149304.4531)">
	<stop  offset="0" style="stop-color:#F7BDC2"/>
	<stop  offset="1" style="stop-color:#FFFFFF"/>
</linearGradient>
<path class="st4" d="M123.6,75.2c0.1,32.9,26.7,59.5,59.5,59.6c32.9-0.1,59.5-26.7,59.5-59.6c-0.1-32.9-26.7-59.5-59.5-59.6
	C150.3,15.7,123.7,42.3,123.6,75.2h-1c0-33.5,27.1-60.6,60.5-60.6c33.4,0,60.5,27.1,60.5,60.6c0,33.5-27.1,60.6-60.5,60.6
	c-33.4,0-60.5-27.1-60.5-60.6H123.6L123.6,75.2z"/>
<defs>
	<filter id="Adobe_OpacityMaskFilter_1_" filterUnits="userSpaceOnUse" x="129.8" y="21.8" width="106.7" height="106.8">
		<feColorMatrix  type="matrix" values="1 0 0 0 0  0 1 0 0 0  0 0 1 0 0  0 0 0 1 0"/>
	</filter>
</defs>
<mask maskUnits="userSpaceOnUse" x="129.8" y="21.8" width="106.7" height="106.8" id="SVGID_5_">
	<g class="st5">
		
			<linearGradient id="SVGID_6_" gradientUnits="userSpaceOnUse" x1="-1224.4672" y1="331.2733" x2="-1223.4672" y2="331.2733" gradientTransform="matrix(0 -107.8049 -107.8049 0 36206.9219 -131874.5)">
			<stop  offset="0" style="stop-color:#000000"/>
			<stop  offset="1" style="stop-color:#FFFFFF"/>
		</linearGradient>
		<rect x="-46" y="-1256.9" class="st6" width="1080" height="2618.2"/>
	</g>
</mask>
<linearGradient id="SVGID_7_" gradientUnits="userSpaceOnUse" x1="-1224.4672" y1="334.1566" x2="-1223.4672" y2="334.1566" gradientTransform="matrix(6.601150e-15 -107.805 -107.805 -6.601150e-15 36206.9531 -131874.5938)">
	<stop  offset="0" style="stop-color:#F7BDC2"/>
	<stop  offset="1" style="stop-color:#FFFFFF"/>
</linearGradient>
<path class="st7" d="M130.8,75.2c0.1,28.9,23.4,52.3,52.4,52.4c28.9-0.1,52.3-23.5,52.4-52.4c-0.1-28.9-23.4-52.3-52.4-52.4
	C154.3,22.8,130.9,46.2,130.8,75.2h-1c0-29.5,23.9-53.4,53.4-53.4c29.5,0,53.4,23.9,53.4,53.4c0,29.5-23.9,53.4-53.4,53.4
	c-29.5,0-53.4-23.9-53.4-53.4H130.8L130.8,75.2z"/>
<defs>
	<filter id="Adobe_OpacityMaskFilter_2_" filterUnits="userSpaceOnUse" x="137" y="29" width="92.4" height="92.5">
		<feColorMatrix  type="matrix" values="1 0 0 0 0  0 1 0 0 0  0 0 1 0 0  0 0 0 1 0"/>
	</filter>
</defs>
<mask maskUnits="userSpaceOnUse" x="137" y="29" width="92.4" height="92.5" id="SVGID_8_">
	<g class="st8">
		
			<linearGradient id="SVGID_9_" gradientUnits="userSpaceOnUse" x1="-1225.9148" y1="329.1653" x2="-1224.9148" y2="329.1653" gradientTransform="matrix(0 -93.4539 -93.4539 0 31255.8223 -114444.6563)">
			<stop  offset="0" style="stop-color:#000000"/>
			<stop  offset="1" style="stop-color:#FFFFFF"/>
		</linearGradient>
		<rect x="-46" y="-1256.9" class="st9" width="1080" height="2618.2"/>
	</g>
</mask>
<linearGradient id="SVGID_10_" gradientUnits="userSpaceOnUse" x1="-1225.9148" y1="332.4914" x2="-1224.9148" y2="332.4914" gradientTransform="matrix(5.722400e-15 -93.4539 -93.4539 -5.722400e-15 31255.8105 -114444.6094)">
	<stop  offset="0" style="stop-color:#F7BDC2"/>
	<stop  offset="1" style="stop-color:#FFFFFF"/>
</linearGradient>
<path class="st10" d="M138,75.2c0,25,20.2,45.2,45.2,45.2c25,0,45.2-20.2,45.2-45.2c0-25-20.2-45.2-45.2-45.2
	C158.2,30,138,50.2,138,75.2h-1c0-25.5,20.7-46.2,46.2-46.2c25.5,0,46.2,20.7,46.2,46.2c0,25.5-20.7,46.2-46.2,46.2
	c-25.5,0-46.2-20.7-46.2-46.2H138L138,75.2z"/>
<defs>
	<filter id="Adobe_OpacityMaskFilter_3_" filterUnits="userSpaceOnUse" x="144.2" y="36.1" width="78.1" height="78.1">
		<feColorMatrix  type="matrix" values="1 0 0 0 0  0 1 0 0 0  0 0 1 0 0  0 0 0 1 0"/>
	</filter>
</defs>
<mask maskUnits="userSpaceOnUse" x="144.2" y="36.1" width="78.1" height="78.1" id="SVGID_11_">
	<g class="st11">
		
			<linearGradient id="SVGID_12_" gradientUnits="userSpaceOnUse" x1="-1227.8877" y1="326.2924" x2="-1226.8877" y2="326.2924" gradientTransform="matrix(0 -79.103 -79.103 0 26304.7266 -97014.8359)">
			<stop  offset="0" style="stop-color:#000000"/>
			<stop  offset="1" style="stop-color:#FFFFFF"/>
		</linearGradient>
		<rect x="-46" y="-1256.9" class="st12" width="1080" height="2618.2"/>
	</g>
</mask>
<linearGradient id="SVGID_13_" gradientUnits="userSpaceOnUse" x1="-1227.8877" y1="330.2219" x2="-1226.8877" y2="330.2219" gradientTransform="matrix(4.843660e-15 -79.103 -79.103 -4.843660e-15 26304.7344 -97014.8672)">
	<stop  offset="0" style="stop-color:#F7BDC2"/>
	<stop  offset="1" style="stop-color:#FFFFFF"/>
</linearGradient>
<path class="st13" d="M145.2,75.2c0,21,17,38,38,38.1c21,0,38-17,38-38.1c0-21-17-38-38-38.1C162.2,37.2,145.2,54.2,145.2,75.2h-1
	c0-21.6,17.5-39.1,39-39.1c21.6,0,39,17.5,39,39.1c0,21.6-17.5,39.1-39,39.1c-21.6,0-39-17.5-39-39.1H145.2L145.2,75.2z"/>
<defs>
	<filter id="Adobe_OpacityMaskFilter_4_" filterUnits="userSpaceOnUse" x="151.3" y="43.3" width="63.7" height="63.8">
		<feColorMatrix  type="matrix" values="1 0 0 0 0  0 1 0 0 0  0 0 1 0 0  0 0 0 1 0"/>
	</filter>
</defs>
<mask maskUnits="userSpaceOnUse" x="151.3" y="43.3" width="63.7" height="63.8" id="SVGID_14_">
	<g class="st14">
		
			<linearGradient id="SVGID_15_" gradientUnits="userSpaceOnUse" x1="-1230.7351" y1="322.146" x2="-1229.7351" y2="322.146" gradientTransform="matrix(0 -64.752 -64.752 0 21353.625 -79585)">
			<stop  offset="0" style="stop-color:#000000"/>
			<stop  offset="1" style="stop-color:#FFFFFF"/>
		</linearGradient>
		<rect x="-46" y="-1256.9" class="st15" width="1080" height="2618.2"/>
	</g>
</mask>
<linearGradient id="SVGID_16_" gradientUnits="userSpaceOnUse" x1="-1230.7351" y1="326.9464" x2="-1229.7351" y2="326.9464" gradientTransform="matrix(3.964920e-15 -64.752 -64.752 -3.964920e-15 21353.625 -79585)">
	<stop  offset="0" style="stop-color:#F7BDC2"/>
	<stop  offset="1" style="stop-color:#FFFFFF"/>
</linearGradient>
<path class="st16" d="M152.3,75.2c0,17.1,13.8,30.8,30.9,30.9c17,0,30.8-13.8,30.9-30.9c0-17.1-13.8-30.8-30.9-30.9
	C166.2,44.3,152.4,58.1,152.3,75.2h-1c0-17.6,14.3-31.9,31.9-31.9c17.6,0,31.9,14.3,31.9,31.9c0,17.6-14.3,31.9-31.9,31.9
	c-17.6,0-31.9-14.3-31.9-31.9H152.3L152.3,75.2z"/>
<g>
	<path class="st17" d="M17.2,116.3h13.3l-1,4.1h-7.5v3.8h6.6l-0.2,4h-6.5v6.3h-4.7V116.3z"/>
	<path class="st17" d="M35.6,133.7c-1.4-0.8-2.6-1.8-3.4-3.3c-0.8-1.4-1.3-3.1-1.3-5c0-1.9,0.4-3.6,1.2-5c0.8-1.4,2-2.5,3.4-3.2
		c1.4-0.7,3-1.1,4.8-1.1c1.8,0,3.4,0.4,4.8,1.1c1.4,0.8,2.6,1.8,3.4,3.3c0.8,1.4,1.2,3.1,1.2,5c0,1.9-0.4,3.6-1.2,5
		c-0.8,1.4-2,2.5-3.4,3.3c-1.4,0.7-3,1.1-4.8,1.1C38.6,134.9,37,134.5,35.6,133.7z M42.8,130c0.7-0.5,1.2-1.1,1.6-1.9
		c0.4-0.8,0.5-1.7,0.5-2.7s-0.2-1.9-0.6-2.7c-0.4-0.8-0.9-1.4-1.6-1.9c-0.7-0.5-1.5-0.7-2.4-0.7c-1.4,0-2.5,0.5-3.3,1.5
		s-1.2,2.3-1.2,3.8c0,1,0.2,1.9,0.5,2.7c0.4,0.8,0.9,1.4,1.6,1.9s1.5,0.7,2.4,0.7C41.3,130.8,42.1,130.5,42.8,130z"/>
	<path class="st17" d="M52.1,116.3h4.1l5.9,11.1h0.2l5.8-11.1h4v18.3h-4.6v-8.2l-3.5,6h-3.7l-3.6-6.4v8.5h-4.6V116.3z"/>
	<path class="st17" d="M75,116.3h13.3l-1,4.1h-7.6v3.2h6.8l-0.2,4h-6.6v2.9h8.6l-1,4.1H75V116.3z"/>
	<path class="st17" d="M90.5,116.3h3.2l8.5,9.9v-9.9h4.4v18.3h-3.1l-8.6-10.2v10.2h-4.4V116.3z"/>
	<path class="st17" d="M114,120.4h-5.3v-4.1h15.8l-1,4.1h-4.7v14.2H114V120.4z"/>
	<path class="st17" d="M129.8,116.3h4.5l7.3,18.3h-5l-1.1-3.1h-6.8l-1.1,3.1h-5.2L129.8,116.3z M133.9,127.5l-1.8-5.1h-0.3l-1.8,5.1
		H133.9z"/>
	<path class="st17" d="M149.8,130.5v-14.2h4.7v12.5c0,0.7,0.1,1.1,0.4,1.4c0.3,0.2,0.7,0.3,1.4,0.3h5.8l-1,4.1h-7.5
		C151.1,134.6,149.8,133.2,149.8,130.5z"/>
	<path class="st17" d="M170.7,116.3h4.5l7.3,18.3h-5l-1.1-3.1h-6.8l-1.1,3.1h-5.2L170.7,116.3z M174.8,127.5l-1.8-5.1h-0.3l-1.8,5.1
		H174.8z"/>
	<path class="st17" d="M194.5,133.6c-1.5-0.8-2.6-1.9-3.3-3.3s-1.1-3-1.1-4.7c0-1.9,0.4-3.5,1.2-5c0.8-1.4,2-2.6,3.5-3.3
		c1.5-0.8,3.2-1.2,5.2-1.2c1.9,0,3.4,0.2,4.6,0.5l-0.4,4.1c-0.4-0.1-1-0.2-1.8-0.3c-0.8-0.1-1.5-0.1-2.3-0.1c-1,0-1.9,0.2-2.7,0.6
		c-0.8,0.4-1.4,1-1.9,1.7c-0.5,0.8-0.7,1.7-0.7,2.9c0,1.7,0.5,3,1.4,3.9c0.9,0.9,2.3,1.4,4,1.4c1.4,0,2.8-0.1,4.1-0.4l0.3,4
		c-0.5,0.2-1.2,0.3-2,0.4c-0.8,0.1-1.7,0.1-2.6,0.1C197.9,134.9,196,134.5,194.5,133.6z"/>
	<path class="st17" d="M209.2,133c-1.4-1.2-2.1-3.1-2.1-5.6v-11.1h4.7v10.7c0,1.2,0.3,2.1,0.9,2.8s1.4,1,2.6,1c1.1,0,1.9-0.3,2.4-1
		c0.5-0.6,0.8-1.6,0.8-2.8v-10.7h4.7v11.1c0,2.5-0.7,4.3-2.1,5.6c-1.4,1.2-3.4,1.9-6,1.9C212.6,134.9,210.6,134.2,209.2,133z"/>
	<path class="st17" d="M242.5,130.5l-1.1,4.1h-1.9c-0.7,0-1.3-0.1-1.7-0.3c-0.4-0.2-0.8-0.6-1.3-1.2l-2.9-3.7
		c-0.2-0.3-0.4-0.5-0.6-0.6c-0.2-0.1-0.4-0.1-0.8-0.1h-1.3v5.8h-4.7v-18.3h7.9c2.3,0,4.1,0.5,5.2,1.4c1.2,1,1.7,2.5,1.7,4.7
		c0,1.2-0.3,2.3-0.8,3.3c-0.5,0.9-1.3,1.6-2.3,2.1l1.6,2c0.2,0.2,0.4,0.4,0.6,0.5c0.2,0.1,0.5,0.1,0.9,0.1H242.5z M235.6,124.3
		c0.4-0.4,0.7-0.9,0.7-1.7c0-0.8-0.2-1.4-0.7-1.7c-0.4-0.3-1.1-0.5-2-0.5h-2.8v4.5h2.8C234.6,124.8,235.2,124.6,235.6,124.3z"/>
	<path class="st17" d="M244.3,116.3h4.7v18.3h-4.7V116.3z"/>
	<path class="st17" d="M256,133.7c-1.4-0.8-2.6-1.8-3.4-3.3c-0.8-1.4-1.3-3.1-1.3-5c0-1.9,0.4-3.6,1.2-5c0.8-1.4,2-2.5,3.4-3.2
		c1.4-0.7,3-1.1,4.8-1.1c1.8,0,3.4,0.4,4.8,1.1c1.4,0.8,2.6,1.8,3.4,3.3c0.8,1.4,1.2,3.1,1.2,5c0,1.9-0.4,3.6-1.2,5
		c-0.8,1.4-2,2.5-3.4,3.3c-1.4,0.7-3,1.1-4.8,1.1C259,134.9,257.4,134.5,256,133.7z M263.2,130c0.7-0.5,1.2-1.1,1.6-1.9
		c0.4-0.8,0.5-1.7,0.5-2.7s-0.2-1.9-0.6-2.7c-0.4-0.8-0.9-1.4-1.6-1.9c-0.7-0.5-1.5-0.7-2.4-0.7c-1.4,0-2.5,0.5-3.3,1.5
		s-1.2,2.3-1.2,3.8c0,1,0.2,1.9,0.5,2.7c0.4,0.8,0.9,1.4,1.6,1.9s1.5,0.7,2.4,0.7C261.7,130.8,262.5,130.5,263.2,130z"/>
	<path class="st17" d="M274.8,134.6c-1.1-0.2-2-0.4-2.8-0.7l0.2-4.3c0.8,0.4,1.8,0.7,2.8,0.9c1,0.2,2,0.4,2.9,0.4
		c1.6,0,2.5-0.5,2.5-1.5c0-0.3-0.1-0.6-0.3-0.8c-0.2-0.2-0.6-0.4-1.1-0.6c-0.5-0.2-1.3-0.5-2.5-0.9c-1.6-0.5-2.7-1.2-3.4-2.1
		c-0.7-0.9-1-2.1-1-3.6c0-1.7,0.6-3,1.9-3.9c1.3-0.9,3.1-1.4,5.4-1.4c0.9,0,1.8,0,2.7,0.1c0.9,0.1,1.6,0.2,2.2,0.4l-0.1,4.1
		c-1.7-0.4-3.2-0.6-4.5-0.6c-1.8,0-2.7,0.4-2.7,1.2c0,0.3,0.1,0.6,0.2,0.7s0.5,0.4,0.9,0.6c0.5,0.2,1.2,0.4,2.2,0.7
		c1.3,0.4,2.3,0.8,3.1,1.3c0.7,0.5,1.2,1,1.5,1.7c0.3,0.6,0.4,1.4,0.4,2.4c0,1.9-0.6,3.4-1.9,4.5c-1.2,1.1-2.9,1.7-5.1,1.7
		C277.1,134.9,275.9,134.8,274.8,134.6z"/>
	<path class="st17" d="M287.3,116.3h4.7v18.3h-4.7V116.3z"/>
	<path class="st17" d="M295.1,116.3h7.1c1.7,0,3.1,0.2,4.3,0.5s2.2,0.8,3,1.5c0.8,0.7,1.5,1.7,1.9,2.8c0.4,1.2,0.6,2.6,0.6,4.2
		c0,1.5-0.2,2.9-0.7,4.1c-0.5,1.2-1.1,2.2-2,3c-1.6,1.5-3.7,2.2-6.5,2.2h-7.8V116.3z M302.2,130.6c1.6,0,2.8-0.4,3.6-1.3
		c0.9-0.9,1.4-2.2,1.4-4c0-1-0.1-1.8-0.3-2.4c-0.2-0.7-0.5-1.2-0.9-1.6c-0.7-0.7-1.9-1-3.4-1h-2.8v10.3H302.2z"/>
	<path class="st17" d="M319.4,116.3h4.5l7.3,18.3h-5l-1.1-3.1h-6.8l-1.1,3.1h-5.2L319.4,116.3z M323.6,127.5l-1.8-5.1h-0.3l-1.8,5.1
		H323.6z"/>
	<path class="st17" d="M333,116.3h7.1c1.7,0,3.1,0.2,4.3,0.5s2.2,0.8,3,1.5c0.8,0.7,1.5,1.7,1.9,2.8c0.4,1.2,0.6,2.6,0.6,4.2
		c0,1.5-0.2,2.9-0.7,4.1c-0.5,1.2-1.1,2.2-2,3c-1.6,1.5-3.7,2.2-6.5,2.2H333V116.3z M340.1,130.6c1.6,0,2.8-0.4,3.6-1.3
		c0.9-0.9,1.4-2.2,1.4-4c0-1-0.1-1.8-0.3-2.4c-0.2-0.7-0.5-1.2-0.9-1.6c-0.7-0.7-1.9-1-3.4-1h-2.8v10.3H340.1z"/>
</g>
<path class="st18" d="M202.4,91.5c4.2,3.1,8.4,8.2,10.1,17"/>
<path class="st19" d="M202.4,91.5c4.2,3.1,8.4,8.2,10.1,17"/>
<path class="st18" d="M213.1,89c4.5,4.6,8.5,9.9,10,19.7"/>
<path class="st19" d="M213.1,89c4.5,4.6,8.5,9.9,10,19.7"/>
<path class="st18" d="M232.6,109c-1.5-13.7-6.4-23-13.5-28.7"/>
<path class="st19" d="M232.6,109c-1.5-13.7-6.4-23-13.5-28.7"/>
<path class="st18" d="M195.1,55.1c-0.5,0-1-0.3-1.1-0.8l-2.1-6.4l-6.4-2.1c-0.5-0.2-0.8-0.6-0.8-1.1c0-0.5,0.3-1,0.8-1.1l6.4-2.1
	l2.1-6.4c0.2-0.5,0.6-0.8,1.1-0.8c0.5,0,1,0.3,1.1,0.8l2.1,6.4l6.4,2.1c0.5,0.2,0.8,0.6,0.8,1.1c0,0.5-0.3,1-0.8,1.1l-6.4,2.1
	l-2.1,6.4C196,54.8,195.6,55.1,195.1,55.1"/>
<path class="st17" d="M195.1,35.4l2.3,6.9l6.9,2.3l-6.9,2.3l-2.3,6.9l-2.3-6.9l-6.9-2.3l6.9-2.3L195.1,35.4z M195.1,33
	c-1,0-1.9,0.7-2.3,1.6l-2,5.8l-5.8,2c-1,0.3-1.6,1.2-1.6,2.3c0,1,0.7,1.9,1.6,2.3l5.8,2l2,5.8c0.3,1,1.2,1.6,2.3,1.6
	c1,0,1.9-0.7,2.3-1.6l2-5.8l5.8-2c1-0.3,1.6-1.2,1.6-2.3c0-1-0.7-1.9-1.6-2.3l-5.8-2l-2-5.8C197,33.7,196.1,33,195.1,33"/>
<path class="st18" d="M138.4,86.2c-8.6-10,0.9-25.7,13.7-23.7c1.9-20.8,39-20.4,39-1.7c28.8-18.6,41.1,34.1,9.5,30.7
	c-1.7,8-20.7,15.2-31.4,6.2"/>
<path class="st19" d="M138.4,86.2c-8.6-10,0.9-25.7,13.7-23.7c1.9-20.8,39-20.4,39-1.7c28.8-18.6,41.1,34.1,9.5,30.7
	c-1.7,8-20.7,15.2-31.4,6.2"/>
<path class="st18" d="M157.5,76c-11.9,5.8-21,17.4-23.7,32.9"/>
<path class="st19" d="M157.5,76c-11.9,5.8-21,17.4-23.7,32.9"/>
<path class="st18" d="M160.6,84.8c-8,4.3-14.3,13.4-16.7,24.1"/>
<path class="st19" d="M160.6,84.8c-8,4.3-14.3,13.4-16.7,24.1"/>
<path class="st18" d="M155.3,109c2.3-8.2,7.4-15.4,14-18.1"/>
<path class="st19" d="M155.3,109c2.3-8.2,7.4-15.4,14-18.1"/>
<path class="st18" d="M172.6,92c-0.1,0-0.2,0-0.3,0c-7.9-2.5-14.3-9.6-14.3-15.9c0-8.7,6.4-15,15.2-15c5.5,0,10.7,2.5,13.8,6.6"/>
<path class="st19" d="M172.6,92c-0.1,0-0.2,0-0.3,0c-7.9-2.5-14.3-9.6-14.3-15.9c0-8.7,6.4-15,15.2-15c5.5,0,10.7,2.5,13.8,6.6"/>
<path class="st18" d="M223.8,65.6c-0.5,0-1-0.3-1.1-0.8l-1.7-5.1l-5.1-1.7c-0.5-0.2-0.8-0.6-0.8-1.1c0-0.5,0.3-1,0.8-1.1l5.1-1.7
	l1.7-5.1c0.2-0.5,0.6-0.8,1.1-0.8c0.5,0,1,0.3,1.1,0.8l1.7,5.1l5.1,1.7c0.5,0.2,0.8,0.6,0.8,1.1c0,0.5-0.3,1-0.8,1.1l-5.1,1.7
	l-1.7,5.1C224.8,65.3,224.3,65.6,223.8,65.6"/>
<path class="st17" d="M223.8,49.2l1.9,5.7l5.7,1.9l-5.7,1.9l-1.9,5.7l-1.9-5.7l-5.7-1.9l5.7-1.9L223.8,49.2z M223.8,46.8
	c-1,0-1.9,0.7-2.3,1.6L220,53l-4.6,1.5c-1,0.3-1.6,1.2-1.6,2.3c0,1,0.7,1.9,1.6,2.3l4.6,1.5l1.5,4.6c0.3,1,1.2,1.6,2.3,1.6
	c1,0,1.9-0.7,2.3-1.6l1.5-4.6l4.6-1.5c1-0.3,1.6-1.2,1.6-2.3c0-1-0.7-1.9-1.6-2.3l-4.6-1.5l-1.5-4.6
	C225.8,47.5,224.8,46.8,223.8,46.8"/>
<path class="st18" d="M198.4,84.8c-0.5,0-1-0.3-1.1-0.8l-1.7-5.1l-5.1-1.7c-0.5-0.2-0.8-0.6-0.8-1.1c0-0.5,0.3-1,0.8-1.1l5.1-1.7
	l1.7-5.1c0.2-0.5,0.6-0.8,1.1-0.8s1,0.3,1.1,0.8l1.7,5.1l5.1,1.7c0.5,0.2,0.8,0.6,0.8,1.1c0,0.5-0.3,1-0.8,1.1l-5.1,1.7l-1.7,5.1
	C199.3,84.5,198.9,84.8,198.4,84.8"/>
<path class="st17" d="M198.4,68.4l1.9,5.7L206,76l-5.7,1.9l-1.9,5.7l-1.9-5.7l-5.7-1.9l5.7-1.9L198.4,68.4z M198.4,66
	c-1,0-1.9,0.7-2.3,1.6l-1.5,4.6l-4.6,1.5c-1,0.3-1.6,1.2-1.6,2.3c0,1,0.7,1.9,1.6,2.3l4.6,1.5l1.5,4.6c0.3,1,1.2,1.6,2.3,1.6
	s1.9-0.7,2.3-1.6l1.5-4.6l4.6-1.5c1-0.3,1.6-1.2,1.6-2.3c0-1-0.7-1.9-1.6-2.3l-4.6-1.5l-1.5-4.6C200.3,66.7,199.4,66,198.4,66"/>
</svg>
