<?xml version="1.0" encoding="utf-8"?>
<!-- Generator: Adobe Illustrator 23.0.6, SVG Export Plug-In . SVG Version: 6.00 Build 0)  -->
<svg version="1.1" id="Capa_1" xmlns="http://www.w3.org/2000/svg" xmlns:xlink="http://www.w3.org/1999/xlink" x="0px" y="0px"
	 viewBox="0 0 200.2 157.1" style="enable-background:new 0 0 200.2 157.1;" xml:space="preserve">
<style type="text/css">
	.st0{opacity:0.5;}
	.st1{clip-path:url(#SVGID_1_);fill:#FFC2C5;}
	.st2{filter:url(#Adobe_OpacityMaskFilter);}
	.st3{fill:url(#SVGID_3_);}
	.st4{mask:url(#SVGID_2_);fill:url(#SVGID_4_);}
	.st5{filter:url(#Adobe_OpacityMaskFilter_1_);}
	.st6{fill:url(#SVGID_6_);}
	.st7{mask:url(#SVGID_5_);fill:url(#SVGID_7_);}
	.st8{filter:url(#Adobe_OpacityMaskFilter_2_);}
	.st9{fill:url(#SVGID_9_);}
	.st10{mask:url(#SVGID_8_);fill:url(#SVGID_10_);}
	.st11{filter:url(#Adobe_OpacityMaskFilter_3_);}
	.st12{fill:url(#SVGID_12_);}
	.st13{mask:url(#SVGID_11_);fill:url(#SVGID_13_);}
	.st14{filter:url(#Adobe_OpacityMaskFilter_4_);}
	.st15{fill:url(#SVGID_15_);}
	.st16{mask:url(#SVGID_14_);fill:url(#SVGID_16_);}
	.st17{fill:#FFAAAF;}
	.st18{fill:none;stroke:#870037;stroke-width:2.432;stroke-miterlimit:10;}
	.st19{fill:#870037;}
</style>
<g class="st0">
	<g>
		<defs>
			<rect id="SVGID_18_" width="200.2" height="157.1"/>
		</defs>
		<clipPath id="SVGID_1_">
			<use xlink:href="#SVGID_18_"  style="overflow:visible;"/>
		</clipPath>
		<path class="st1" d="M189.7,157.1H10.4c-5.8,0-10.4-4.7-10.4-10.4V10.4C0,4.7,4.7,0,10.4,0h179.3c5.8,0,10.4,4.7,10.4,10.4v136.2
			C200.2,152.4,195.5,157.1,189.7,157.1"/>
	</g>
</g>
<defs>
	<filter id="Adobe_OpacityMaskFilter" filterUnits="userSpaceOnUse" x="39.4" y="16" width="121.1" height="121.2">
		<feColorMatrix  type="matrix" values="1 0 0 0 0  0 1 0 0 0  0 0 1 0 0  0 0 0 1 0"/>
	</filter>
</defs>
<mask maskUnits="userSpaceOnUse" x="39.4" y="16" width="121.1" height="121.2" id="SVGID_2_">
	<g class="st2">
		
			<linearGradient id="SVGID_3_" gradientUnits="userSpaceOnUse" x1="-1306.4531" y1="337.7922" x2="-1305.4531" y2="337.7922" gradientTransform="matrix(0 -122.1559 -122.1559 0 41374.6719 -159453.3125)">
			<stop  offset="0" style="stop-color:#000000"/>
			<stop  offset="1" style="stop-color:#FFFFFF"/>
		</linearGradient>
		<rect x="-428.6" y="-1258.7" class="st3" width="1080" height="2618.2"/>
	</g>
</mask>
<linearGradient id="SVGID_4_" gradientUnits="userSpaceOnUse" x1="-1306.4531" y1="337.8859" x2="-1305.4531" y2="337.8859" gradientTransform="matrix(7.479890e-15 -122.156 -122.156 -7.479890e-15 41374.7109 -159453.4531)">
	<stop  offset="0" style="stop-color:#F7BDC2"/>
	<stop  offset="1" style="stop-color:#FFFFFF"/>
</linearGradient>
<path class="st4" d="M40.4,76.6c0.1,32.9,26.7,59.5,59.5,59.6c32.9-0.1,59.5-26.7,59.5-59.6C159.4,43.7,132.8,17,99.9,17
	C67,17,40.4,43.7,40.4,76.6h-1C39.4,43.1,66.5,16,99.9,16c33.4,0,60.5,27.1,60.5,60.6c0,33.5-27.1,60.6-60.5,60.6
	c-33.4,0-60.5-27.1-60.5-60.6H40.4L40.4,76.6z"/>
<defs>
	<filter id="Adobe_OpacityMaskFilter_1_" filterUnits="userSpaceOnUse" x="46.5" y="23.2" width="106.7" height="106.8">
		<feColorMatrix  type="matrix" values="1 0 0 0 0  0 1 0 0 0  0 0 1 0 0  0 0 0 1 0"/>
	</filter>
</defs>
<mask maskUnits="userSpaceOnUse" x="46.5" y="23.2" width="106.7" height="106.8" id="SVGID_5_">
	<g class="st5">
		
			<linearGradient id="SVGID_6_" gradientUnits="userSpaceOnUse" x1="-1307.5587" y1="336.8322" x2="-1306.5587" y2="336.8322" gradientTransform="matrix(0 -107.8049 -107.8049 0 36423.5313 -140830.7969)">
			<stop  offset="0" style="stop-color:#000000"/>
			<stop  offset="1" style="stop-color:#FFFFFF"/>
		</linearGradient>
		<rect x="-428.6" y="-1258.7" class="st6" width="1080" height="2618.2"/>
	</g>
</mask>
<linearGradient id="SVGID_7_" gradientUnits="userSpaceOnUse" x1="-1307.5587" y1="336.9383" x2="-1306.5587" y2="336.9383" gradientTransform="matrix(6.601150e-15 -107.805 -107.805 -6.601150e-15 36423.5586 -140830.9063)">
	<stop  offset="0" style="stop-color:#F7BDC2"/>
	<stop  offset="1" style="stop-color:#FFFFFF"/>
</linearGradient>
<path class="st7" d="M47.5,76.6c0.1,28.9,23.4,52.3,52.4,52.4c28.9-0.1,52.3-23.5,52.4-52.4c-0.1-28.9-23.4-52.3-52.4-52.4
	C71,24.2,47.6,47.6,47.5,76.6h-1c0-29.5,23.9-53.4,53.4-53.4c29.5,0,53.4,23.9,53.4,53.4c0,29.5-23.9,53.4-53.4,53.4
	c-29.5,0-53.4-23.9-53.4-53.4H47.5L47.5,76.6z"/>
<defs>
	<filter id="Adobe_OpacityMaskFilter_2_" filterUnits="userSpaceOnUse" x="53.7" y="30.3" width="92.4" height="92.5">
		<feColorMatrix  type="matrix" values="1 0 0 0 0  0 1 0 0 0  0 0 1 0 0  0 0 0 1 0"/>
	</filter>
</defs>
<mask maskUnits="userSpaceOnUse" x="53.7" y="30.3" width="92.4" height="92.5" id="SVGID_8_">
	<g class="st8">
		
			<linearGradient id="SVGID_9_" gradientUnits="userSpaceOnUse" x1="-1309.0038" y1="335.5773" x2="-1308.0038" y2="335.5773" gradientTransform="matrix(0 -93.4539 -93.4539 0 31472.3867 -122208.2813)">
			<stop  offset="0" style="stop-color:#000000"/>
			<stop  offset="1" style="stop-color:#FFFFFF"/>
		</linearGradient>
		<rect x="-428.6" y="-1258.7" class="st9" width="1080" height="2618.2"/>
	</g>
</mask>
<linearGradient id="SVGID_10_" gradientUnits="userSpaceOnUse" x1="-1309.0038" y1="335.6997" x2="-1308.0038" y2="335.6997" gradientTransform="matrix(5.722400e-15 -93.4539 -93.4539 -5.722400e-15 31472.373 -122208.2344)">
	<stop  offset="0" style="stop-color:#F7BDC2"/>
	<stop  offset="1" style="stop-color:#FFFFFF"/>
</linearGradient>
<path class="st10" d="M54.7,76.6c0,25,20.2,45.2,45.2,45.2c25,0,45.2-20.2,45.2-45.2c0-25-20.2-45.2-45.2-45.2
	C75,31.4,54.8,51.6,54.7,76.6h-1c0-25.5,20.7-46.2,46.2-46.2c25.5,0,46.2,20.7,46.2,46.2c0,25.5-20.7,46.2-46.2,46.2
	c-25.5,0-46.2-20.7-46.2-46.2H54.7L54.7,76.6z"/>
<defs>
	<filter id="Adobe_OpacityMaskFilter_3_" filterUnits="userSpaceOnUse" x="60.9" y="37.5" width="78.1" height="78.1">
		<feColorMatrix  type="matrix" values="1 0 0 0 0  0 1 0 0 0  0 0 1 0 0  0 0 0 1 0"/>
	</filter>
</defs>
<mask maskUnits="userSpaceOnUse" x="60.9" y="37.5" width="78.1" height="78.1" id="SVGID_11_">
	<g class="st11">
		
			<linearGradient id="SVGID_12_" gradientUnits="userSpaceOnUse" x1="-1310.9733" y1="333.8671" x2="-1309.9733" y2="333.8671" gradientTransform="matrix(0 -79.103 -79.103 0 26521.2461 -103585.7813)">
			<stop  offset="0" style="stop-color:#000000"/>
			<stop  offset="1" style="stop-color:#FFFFFF"/>
		</linearGradient>
		<rect x="-428.6" y="-1258.7" class="st12" width="1080" height="2618.2"/>
	</g>
</mask>
<linearGradient id="SVGID_13_" gradientUnits="userSpaceOnUse" x1="-1310.9733" y1="334.0118" x2="-1309.9733" y2="334.0118" gradientTransform="matrix(4.843660e-15 -79.103 -79.103 -4.843660e-15 26521.2539 -103585.8047)">
	<stop  offset="0" style="stop-color:#F7BDC2"/>
	<stop  offset="1" style="stop-color:#FFFFFF"/>
</linearGradient>
<path class="st13" d="M61.9,76.6c0,21,17,38,38,38.1c21,0,38-17,38-38.1c0-21-17-38-38-38.1C78.9,38.5,61.9,55.5,61.9,76.6h-1
	c0-21.6,17.5-39.1,39-39.1c21.6,0,39,17.5,39,39.1c0,21.6-17.5,39.1-39,39.1c-21.6,0-39-17.5-39-39.1H61.9L61.9,76.6z"/>
<defs>
	<filter id="Adobe_OpacityMaskFilter_4_" filterUnits="userSpaceOnUse" x="68.1" y="44.7" width="63.7" height="63.8">
		<feColorMatrix  type="matrix" values="1 0 0 0 0  0 1 0 0 0  0 0 1 0 0  0 0 0 1 0"/>
	</filter>
</defs>
<mask maskUnits="userSpaceOnUse" x="68.1" y="44.7" width="63.7" height="63.8" id="SVGID_14_">
	<g class="st14">
		
			<linearGradient id="SVGID_15_" gradientUnits="userSpaceOnUse" x1="-1313.8158" y1="331.3989" x2="-1312.8158" y2="331.3989" gradientTransform="matrix(0 -64.752 -64.752 0 21570.1035 -84963.2656)">
			<stop  offset="0" style="stop-color:#000000"/>
			<stop  offset="1" style="stop-color:#FFFFFF"/>
		</linearGradient>
		<rect x="-428.6" y="-1258.7" class="st15" width="1080" height="2618.2"/>
	</g>
</mask>
<linearGradient id="SVGID_16_" gradientUnits="userSpaceOnUse" x1="-1313.8158" y1="331.5756" x2="-1312.8158" y2="331.5756" gradientTransform="matrix(3.964920e-15 -64.752 -64.752 -3.964920e-15 21570.1035 -84963.2656)">
	<stop  offset="0" style="stop-color:#F7BDC2"/>
	<stop  offset="1" style="stop-color:#FFFFFF"/>
</linearGradient>
<path class="st16" d="M69.1,76.6c0,17.1,13.8,30.8,30.9,30.9c17,0,30.8-13.8,30.9-30.9c0-17.1-13.8-30.8-30.9-30.9
	C82.9,45.7,69.1,59.5,69.1,76.6h-1c0-17.6,14.3-31.9,31.9-31.9c17.6,0,31.9,14.3,31.9,31.9c0,17.6-14.3,31.9-31.9,31.9
	c-17.6,0-31.9-14.3-31.9-31.9H69.1L69.1,76.6z"/>
<path class="st17" d="M124.8,49.7c0-13.9-11.4-25.2-25.4-24.8c-13.5,0.3-24.4,11.6-24.2,25.2c0.1,5.7,2.1,10.9,5.3,15
	c3.8,4.8,6.2,10.6,7,16.7c0.1,0.8,0.2,1.4,0.4,1.8c2.2,4.4,6.8,7.5,12.1,7.5c6.1,0,11.3-4.1,12.9-9.7c0-0.1,0-0.1,0-0.2
	c0.9-5.9,3.1-11.5,6.7-16.2C122.8,60.7,124.8,55.4,124.8,49.7"/>
<path class="st18" d="M124.8,49.7c0-13.9-11.4-25.2-25.4-24.8c-13.5,0.3-24.4,11.6-24.2,25.2c0.1,5.7,2.1,10.9,5.3,15
	c3.8,4.8,6.2,10.6,7,16.7c0.1,0.8,0.2,1.4,0.4,1.8c2.2,4.4,6.8,7.5,12.1,7.5c6.1,0,11.3-4.1,12.9-9.7c0-0.1,0-0.1,0-0.2
	c0.9-5.9,3.1-11.5,6.7-16.2C122.8,60.7,124.8,55.4,124.8,49.7z"/>
<path class="st18" d="M96.8,90.7c0,0-3.9-40.2-5.4-43.2c-1.5-3-5.2-0.7-3.8,1.9c1.4,2.6,3.6,3.6,7.1,1.4c3.5-2.2,6.6-4.3,6.6-7.5
	c0-1.6-0.8-2.3-1.6-2.3"/>
<path class="st18" d="M102.2,90.9c0,0,4.4-40.4,5.9-43.4c1.5-3,5.2-0.7,3.8,1.9c-1.4,2.6-3.6,3.6-7.1,1.4c-3.5-2.2-6.6-4.3-6.6-7.5
	c0-1.6,0.8-2.3,1.6-2.3"/>
<path class="st18" d="M112.9,81.1c0,0.1,0,0.2,0,0.2c-1.6,5.6-6.8,9.7-12.9,9.7c-5.3,0-9.9-3.1-12.1-7.5c0-0.1-0.1-0.2-0.1-0.3v7.4
	c0,7,5.7,12.7,12.7,12.7s12.7-5.7,12.7-12.7V79.8C113,80.3,113,80.7,112.9,81.1z"/>
<g>
	<path class="st19" d="M19,112.5h4.7v18.3H19V112.5z"/>
	<path class="st19" d="M26.7,112.5h3.2l8.5,9.9v-9.9h4.4v18.3h-3.1l-8.6-10.2v10.2h-4.4V112.5z"/>
	<path class="st19" d="M45.9,112.5h3.2l8.5,9.9v-9.9H62v18.3h-3.1l-8.6-10.2v10.2h-4.4V112.5z"/>
	<path class="st19" d="M69.1,129.9c-1.4-0.8-2.6-1.8-3.4-3.3c-0.8-1.4-1.3-3.1-1.3-5c0-1.9,0.4-3.6,1.2-5c0.8-1.4,2-2.5,3.4-3.2
		c1.4-0.7,3-1.1,4.8-1.1c1.8,0,3.4,0.4,4.8,1.1c1.4,0.8,2.6,1.8,3.4,3.3c0.8,1.4,1.2,3.1,1.2,5c0,1.9-0.4,3.6-1.2,5
		c-0.8,1.4-2,2.5-3.4,3.3c-1.4,0.7-3,1.1-4.8,1.1C72.1,131.1,70.5,130.7,69.1,129.9z M76.3,126.2c0.7-0.5,1.2-1.1,1.6-1.9
		c0.4-0.8,0.5-1.7,0.5-2.7s-0.2-1.9-0.6-2.7c-0.4-0.8-0.9-1.4-1.6-1.9c-0.7-0.5-1.5-0.7-2.4-0.7c-1.4,0-2.5,0.5-3.3,1.5
		s-1.2,2.3-1.2,3.8c0,1,0.2,1.9,0.5,2.7c0.4,0.8,0.9,1.4,1.6,1.9s1.5,0.7,2.4,0.7C74.7,127,75.6,126.7,76.3,126.2z"/>
	<path class="st19" d="M83.3,112.5h5.4l4.4,11.3h0.3l3.9-11.3h5.5l-7.6,18.3h-4L83.3,112.5z"/>
	<path class="st19" d="M107.7,112.5h4.5l7.3,18.3h-5l-1.1-3.1h-6.8l-1.1,3.1h-5.2L107.7,112.5z M111.8,123.7l-1.8-5.1h-0.3l-1.8,5.1
		H111.8z"/>
	<path class="st19" d="M123.7,129.8c-1.5-0.8-2.6-1.9-3.3-3.3s-1.1-3-1.1-4.7c0-1.9,0.4-3.5,1.2-5c0.8-1.4,2-2.6,3.5-3.3
		c1.5-0.8,3.2-1.2,5.2-1.2c1.9,0,3.4,0.2,4.6,0.5l-0.4,4.1c-0.4-0.1-1-0.2-1.8-0.3c-0.8-0.1-1.5-0.1-2.3-0.1c-1,0-1.9,0.2-2.7,0.6
		c-0.8,0.4-1.4,1-1.9,1.7c-0.5,0.8-0.7,1.7-0.7,2.9c0,1.7,0.5,3,1.4,3.9c0.9,0.9,2.3,1.4,4,1.4c1.4,0,2.8-0.1,4.1-0.4l0.3,4
		c-0.5,0.2-1.2,0.3-2,0.4c-0.8,0.1-1.7,0.1-2.6,0.1C127.1,131.1,125.3,130.7,123.7,129.8z"/>
	<path class="st19" d="M136.5,112.5h4.7v18.3h-4.7V112.5z"/>
	<path class="st19" d="M148.3,129.9c-1.4-0.8-2.6-1.8-3.4-3.3c-0.8-1.4-1.3-3.1-1.3-5c0-1.9,0.4-3.6,1.2-5c0.8-1.4,2-2.5,3.4-3.2
		c1.4-0.7,3-1.1,4.8-1.1c1.8,0,3.4,0.4,4.8,1.1c1.4,0.8,2.6,1.8,3.4,3.3c0.8,1.4,1.2,3.1,1.2,5c0,1.9-0.4,3.6-1.2,5
		c-0.8,1.4-2,2.5-3.4,3.3c-1.4,0.7-3,1.1-4.8,1.1C151.3,131.1,149.7,130.7,148.3,129.9z M155.4,126.2c0.7-0.5,1.2-1.1,1.6-1.9
		c0.4-0.8,0.5-1.7,0.5-2.7s-0.2-1.9-0.6-2.7c-0.4-0.8-0.9-1.4-1.6-1.9c-0.7-0.5-1.5-0.7-2.4-0.7c-1.4,0-2.5,0.5-3.3,1.5
		s-1.2,2.3-1.2,3.8c0,1,0.2,1.9,0.5,2.7c0.4,0.8,0.9,1.4,1.6,1.9s1.5,0.7,2.4,0.7C153.9,127,154.8,126.7,155.4,126.2z M149.6,108.5
		l5.8-3.6l1.8,3.6l-6,2.7L149.6,108.5z"/>
	<path class="st19" d="M164.7,112.5h3.2l8.5,9.9v-9.9h4.4v18.3h-3.1l-8.6-10.2v10.2h-4.4V112.5z"/>
</g>
</svg>
