<?xml version="1.0" encoding="utf-8"?>
<!-- Generator: Adobe Illustrator 23.0.6, SVG Export Plug-In . SVG Version: 6.00 Build 0)  -->
<svg version="1.1" id="Capa_1" xmlns="http://www.w3.org/2000/svg" xmlns:xlink="http://www.w3.org/1999/xlink" x="0px" y="0px"
	 viewBox="0 0 347.2 157.1" style="enable-background:new 0 0 347.2 157.1;" xml:space="preserve">
<style type="text/css">
	.st0{opacity:0.5;}
	.st1{clip-path:url(#SVGID_1_);fill:#FFC2C5;}
	.st2{filter:url(#Adobe_OpacityMaskFilter);}
	.st3{fill:url(#SVGID_3_);}
	.st4{mask:url(#SVGID_2_);fill:url(#SVGID_4_);}
	.st5{filter:url(#Adobe_OpacityMaskFilter_1_);}
	.st6{fill:url(#SVGID_6_);}
	.st7{mask:url(#SVGID_5_);fill:url(#SVGID_7_);}
	.st8{filter:url(#Adobe_OpacityMaskFilter_2_);}
	.st9{fill:url(#SVGID_9_);}
	.st10{mask:url(#SVGID_8_);fill:url(#SVGID_10_);}
	.st11{filter:url(#Adobe_OpacityMaskFilter_3_);}
	.st12{fill:url(#SVGID_12_);}
	.st13{mask:url(#SVGID_11_);fill:url(#SVGID_13_);}
	.st14{filter:url(#Adobe_OpacityMaskFilter_4_);}
	.st15{fill:url(#SVGID_15_);}
	.st16{mask:url(#SVGID_14_);fill:url(#SVGID_16_);}
	.st17{fill:#870037;}
	.st18{fill:#FFAAAF;}
	.st19{fill:none;stroke:#870037;stroke-width:2.293;stroke-linecap:round;stroke-linejoin:round;stroke-miterlimit:10;}
</style>
<g class="st0">
	<g>
		<defs>
			<rect id="SVGID_18_" width="347.2" height="157.1"/>
		</defs>
		<clipPath id="SVGID_1_">
			<use xlink:href="#SVGID_18_"  style="overflow:visible;"/>
		</clipPath>
		<path class="st1" d="M333.4,157.1H13.7C6.2,157.1,0,151,0,143.4V13.7C0,6.2,6.2,0,13.7,0h319.7c7.6,0,13.8,6.2,13.8,13.8v129.6
			C347.2,151,341,157.1,333.4,157.1"/>
	</g>
</g>
<defs>
	<filter id="Adobe_OpacityMaskFilter" filterUnits="userSpaceOnUse" x="113" y="14.3" width="121.1" height="121.2">
		<feColorMatrix  type="matrix" values="1 0 0 0 0  0 1 0 0 0  0 0 1 0 0  0 0 0 1 0"/>
	</filter>
</defs>
<mask maskUnits="userSpaceOnUse" x="113" y="14.3" width="121.1" height="121.2" id="SVGID_2_">
	<g class="st2">
		
			<linearGradient id="SVGID_3_" gradientUnits="userSpaceOnUse" x1="-1234.3484" y1="342.4964" x2="-1233.3484" y2="342.4964" gradientTransform="matrix(0 -122.1559 -122.1559 0 41735.3359 -150646.9531)">
			<stop  offset="0" style="stop-color:#000000"/>
			<stop  offset="1" style="stop-color:#FFFFFF"/>
		</linearGradient>
		<rect x="-642.6" y="-1088.4" class="st3" width="1080" height="2618.2"/>
	</g>
</mask>
<linearGradient id="SVGID_4_" gradientUnits="userSpaceOnUse" x1="-1234.3484" y1="340.2354" x2="-1233.3484" y2="340.2354" gradientTransform="matrix(7.479890e-15 -122.156 -122.156 -7.479890e-15 41735.375 -150647.0781)">
	<stop  offset="0" style="stop-color:#F7BDC2"/>
	<stop  offset="1" style="stop-color:#FFFFFF"/>
</linearGradient>
<path class="st4" d="M114,74.9c0.1,32.9,26.7,59.5,59.5,59.6c32.9-0.1,59.5-26.7,59.5-59.6c-0.1-32.9-26.7-59.5-59.5-59.6
	C140.7,15.4,114.1,42,114,74.9h-1c0-33.5,27.1-60.6,60.5-60.6c33.4,0,60.5,27.1,60.5,60.6c0,33.5-27.1,60.6-60.5,60.6
	c-33.4,0-60.5-27.1-60.5-60.6H114L114,74.9z"/>
<defs>
	<filter id="Adobe_OpacityMaskFilter_1_" filterUnits="userSpaceOnUse" x="120.2" y="21.5" width="106.7" height="106.8">
		<feColorMatrix  type="matrix" values="1 0 0 0 0  0 1 0 0 0  0 0 1 0 0  0 0 0 1 0"/>
	</filter>
</defs>
<mask maskUnits="userSpaceOnUse" x="120.2" y="21.5" width="106.7" height="106.8" id="SVGID_5_">
	<g class="st5">
		
			<linearGradient id="SVGID_6_" gradientUnits="userSpaceOnUse" x1="-1235.6395" y1="342.1631" x2="-1234.6395" y2="342.1631" gradientTransform="matrix(0 -107.8049 -107.8049 0 36784.25 -133079.2188)">
			<stop  offset="0" style="stop-color:#000000"/>
			<stop  offset="1" style="stop-color:#FFFFFF"/>
		</linearGradient>
		<rect x="-642.6" y="-1088.4" class="st6" width="1080" height="2618.2"/>
	</g>
</mask>
<linearGradient id="SVGID_7_" gradientUnits="userSpaceOnUse" x1="-1235.6395" y1="339.6011" x2="-1234.6395" y2="339.6011" gradientTransform="matrix(6.601150e-15 -107.805 -107.805 -6.601150e-15 36784.2773 -133079.3125)">
	<stop  offset="0" style="stop-color:#F7BDC2"/>
	<stop  offset="1" style="stop-color:#FFFFFF"/>
</linearGradient>
<path class="st7" d="M121.2,74.9c0.1,28.9,23.4,52.3,52.4,52.4c28.9-0.1,52.3-23.5,52.4-52.4c-0.1-28.9-23.4-52.3-52.4-52.4
	C144.7,22.6,121.3,46,121.2,74.9h-1c0-29.5,23.9-53.4,53.4-53.4c29.5,0,53.4,23.9,53.4,53.4c0,29.5-23.9,53.4-53.4,53.4
	c-29.5,0-53.4-23.9-53.4-53.4H121.2L121.2,74.9z"/>
<defs>
	<filter id="Adobe_OpacityMaskFilter_2_" filterUnits="userSpaceOnUse" x="127.4" y="28.7" width="92.4" height="92.5">
		<feColorMatrix  type="matrix" values="1 0 0 0 0  0 1 0 0 0  0 0 1 0 0  0 0 0 1 0"/>
	</filter>
</defs>
<mask maskUnits="userSpaceOnUse" x="127.4" y="28.7" width="92.4" height="92.5" id="SVGID_8_">
	<g class="st8">
		
			<linearGradient id="SVGID_9_" gradientUnits="userSpaceOnUse" x1="-1237.3273" y1="341.7274" x2="-1236.3273" y2="341.7274" gradientTransform="matrix(0 -93.4539 -93.4539 0 31833.1621 -115511.4766)">
			<stop  offset="0" style="stop-color:#000000"/>
			<stop  offset="1" style="stop-color:#FFFFFF"/>
		</linearGradient>
		<rect x="-642.6" y="-1088.4" class="st9" width="1080" height="2618.2"/>
	</g>
</mask>
<linearGradient id="SVGID_10_" gradientUnits="userSpaceOnUse" x1="-1237.3273" y1="338.772" x2="-1236.3273" y2="338.772" gradientTransform="matrix(5.722400e-15 -93.4539 -93.4539 -5.722400e-15 31833.1484 -115511.4297)">
	<stop  offset="0" style="stop-color:#F7BDC2"/>
	<stop  offset="1" style="stop-color:#FFFFFF"/>
</linearGradient>
<path class="st10" d="M128.4,74.9c0,25,20.2,45.2,45.2,45.2c25,0,45.2-20.2,45.2-45.2c0-25-20.2-45.2-45.2-45.2
	C148.6,29.7,128.4,49.9,128.4,74.9h-1c0-25.5,20.7-46.2,46.2-46.2c25.5,0,46.2,20.7,46.2,46.2c0,25.5-20.7,46.2-46.2,46.2
	c-25.5,0-46.2-20.7-46.2-46.2H128.4L128.4,74.9z"/>
<defs>
	<filter id="Adobe_OpacityMaskFilter_3_" filterUnits="userSpaceOnUse" x="134.6" y="35.8" width="78.1" height="78.1">
		<feColorMatrix  type="matrix" values="1 0 0 0 0  0 1 0 0 0  0 0 1 0 0  0 0 0 1 0"/>
	</filter>
</defs>
<mask maskUnits="userSpaceOnUse" x="134.6" y="35.8" width="78.1" height="78.1" id="SVGID_11_">
	<g class="st11">
		
			<linearGradient id="SVGID_12_" gradientUnits="userSpaceOnUse" x1="-1239.6273" y1="341.1337" x2="-1238.6273" y2="341.1337" gradientTransform="matrix(0 -79.103 -79.103 0 26882.0781 -97943.7578)">
			<stop  offset="0" style="stop-color:#000000"/>
			<stop  offset="1" style="stop-color:#FFFFFF"/>
		</linearGradient>
		<rect x="-642.6" y="-1088.4" class="st12" width="1080" height="2618.2"/>
	</g>
</mask>
<linearGradient id="SVGID_13_" gradientUnits="userSpaceOnUse" x1="-1239.6273" y1="337.6421" x2="-1238.6273" y2="337.6421" gradientTransform="matrix(4.843660e-15 -79.103 -79.103 -4.843660e-15 26882.0859 -97943.7813)">
	<stop  offset="0" style="stop-color:#F7BDC2"/>
	<stop  offset="1" style="stop-color:#FFFFFF"/>
</linearGradient>
<path class="st13" d="M135.6,74.9c0,21,17,38,38,38.1c21,0,38-17,38-38.1c0-21-17-38-38-38.1C152.6,36.9,135.6,53.9,135.6,74.9h-1
	c0-21.6,17.5-39.1,39-39.1c21.6,0,39,17.5,39,39.1c0,21.6-17.5,39.1-39,39.1c-21.6,0-39-17.5-39-39.1H135.6L135.6,74.9z"/>
<defs>
	<filter id="Adobe_OpacityMaskFilter_4_" filterUnits="userSpaceOnUse" x="141.7" y="43" width="63.7" height="63.8">
		<feColorMatrix  type="matrix" values="1 0 0 0 0  0 1 0 0 0  0 0 1 0 0  0 0 0 1 0"/>
	</filter>
</defs>
<mask maskUnits="userSpaceOnUse" x="141.7" y="43" width="63.7" height="63.8" id="SVGID_14_">
	<g class="st14">
		
			<linearGradient id="SVGID_15_" gradientUnits="userSpaceOnUse" x1="-1242.9469" y1="340.2768" x2="-1241.9469" y2="340.2768" gradientTransform="matrix(0 -64.752 -64.752 0 21930.9902 -80376.0234)">
			<stop  offset="0" style="stop-color:#000000"/>
			<stop  offset="1" style="stop-color:#FFFFFF"/>
		</linearGradient>
		<rect x="-642.6" y="-1088.4" class="st15" width="1080" height="2618.2"/>
	</g>
</mask>
<linearGradient id="SVGID_16_" gradientUnits="userSpaceOnUse" x1="-1242.9469" y1="336.0114" x2="-1241.9469" y2="336.0114" gradientTransform="matrix(3.964920e-15 -64.752 -64.752 -3.964920e-15 21930.9922 -80376.0156)">
	<stop  offset="0" style="stop-color:#F7BDC2"/>
	<stop  offset="1" style="stop-color:#FFFFFF"/>
</linearGradient>
<path class="st16" d="M142.7,74.9c0,17.1,13.8,30.8,30.9,30.9c17,0,30.8-13.8,30.9-30.9c0-17.1-13.8-30.8-30.9-30.9
	C156.5,44.1,142.8,57.8,142.7,74.9h-1c0-17.6,14.3-31.9,31.9-31.9c17.6,0,31.9,14.3,31.9,31.9c0,17.6-14.3,31.9-31.9,31.9
	c-17.6,0-31.9-14.3-31.9-31.9H142.7L142.7,74.9z"/>
<g>
	<path class="st17" d="M23.1,112.3h7.2c2.4,0,4.2,0.5,5.5,1.6c1.3,1.1,1.9,2.7,1.9,4.8c0,2.2-0.6,3.9-1.8,5
		c-1.2,1.1-2.9,1.6-5.2,1.6h-2.9v5.2h-4.7V112.3z M30.3,121.3c0.8,0,1.5-0.2,1.9-0.7c0.4-0.5,0.6-1.1,0.6-1.8c0-0.8-0.2-1.4-0.7-1.8
		c-0.5-0.4-1.2-0.6-2-0.6h-2.3v5H30.3z"/>
	<path class="st17" d="M56.4,126.4l-1.1,4.1h-1.9c-0.7,0-1.3-0.1-1.7-0.3c-0.4-0.2-0.8-0.6-1.3-1.2l-2.9-3.7
		c-0.2-0.3-0.4-0.5-0.6-0.6c-0.2-0.1-0.4-0.1-0.8-0.1h-1.3v5.8h-4.7v-18.3h7.9c2.3,0,4.1,0.5,5.2,1.4c1.2,1,1.7,2.5,1.7,4.7
		c0,1.2-0.3,2.3-0.8,3.3c-0.5,0.9-1.3,1.6-2.3,2.1l1.6,2c0.2,0.2,0.4,0.4,0.6,0.5c0.2,0.1,0.5,0.1,0.9,0.1H56.4z M49.6,120.2
		c0.4-0.4,0.7-0.9,0.7-1.7c0-0.8-0.2-1.4-0.7-1.7c-0.4-0.3-1.1-0.5-2-0.5h-2.8v4.5h2.8C48.5,120.7,49.2,120.5,49.6,120.2z"/>
	<path class="st17" d="M61.8,129.6c-1.4-0.8-2.6-1.8-3.4-3.3c-0.8-1.4-1.3-3.1-1.3-5c0-1.9,0.4-3.6,1.2-5c0.8-1.4,2-2.5,3.4-3.2
		c1.4-0.7,3-1.1,4.8-1.1c1.8,0,3.4,0.4,4.8,1.1c1.4,0.8,2.6,1.8,3.4,3.3c0.8,1.4,1.2,3.1,1.2,5c0,1.9-0.4,3.6-1.2,5
		c-0.8,1.4-2,2.5-3.4,3.3c-1.4,0.7-3,1.1-4.8,1.1C64.8,130.8,63.3,130.4,61.8,129.6z M69,126c0.7-0.5,1.2-1.1,1.6-1.9
		c0.4-0.8,0.5-1.7,0.5-2.7s-0.2-1.9-0.6-2.7c-0.4-0.8-0.9-1.4-1.6-1.9c-0.7-0.5-1.5-0.7-2.4-0.7c-1.4,0-2.5,0.5-3.3,1.5
		s-1.2,2.3-1.2,3.8c0,1,0.2,1.9,0.5,2.7c0.4,0.8,0.9,1.4,1.6,1.9s1.5,0.7,2.4,0.7C67.5,126.7,68.3,126.4,69,126z"/>
	<path class="st17" d="M78.3,112.3h4.1l5.9,11.1h0.2l5.8-11.1h4v18.3h-4.6v-8.2l-3.5,6h-3.7l-3.6-6.4v8.5h-4.6V112.3z"/>
	<path class="st17" d="M105.3,129.6c-1.4-0.8-2.6-1.8-3.4-3.3c-0.8-1.4-1.3-3.1-1.3-5c0-1.9,0.4-3.6,1.2-5c0.8-1.4,2-2.5,3.4-3.2
		c1.4-0.7,3-1.1,4.8-1.1c1.8,0,3.4,0.4,4.8,1.1c1.4,0.8,2.6,1.8,3.4,3.3c0.8,1.4,1.2,3.1,1.2,5c0,1.9-0.4,3.6-1.2,5
		c-0.8,1.4-2,2.5-3.4,3.3c-1.4,0.7-3,1.1-4.8,1.1C108.3,130.8,106.7,130.4,105.3,129.6z M112.5,126c0.7-0.5,1.2-1.1,1.6-1.9
		c0.4-0.8,0.5-1.7,0.5-2.7s-0.2-1.9-0.6-2.7c-0.4-0.8-0.9-1.4-1.6-1.9c-0.7-0.5-1.5-0.7-2.4-0.7c-1.4,0-2.5,0.5-3.3,1.5
		s-1.2,2.3-1.2,3.8c0,1,0.2,1.9,0.5,2.7c0.4,0.8,0.9,1.4,1.6,1.9s1.5,0.7,2.4,0.7C111,126.7,111.8,126.4,112.5,126z"/>
	<path class="st17" d="M125.6,116.3h-5.3v-4.1h15.8l-1,4.1h-4.7v14.2h-4.8V116.3z"/>
	<path class="st17" d="M141.1,129.6c-1.4-0.8-2.6-1.8-3.4-3.3c-0.8-1.4-1.3-3.1-1.3-5c0-1.9,0.4-3.6,1.2-5c0.8-1.4,2-2.5,3.4-3.2
		c1.4-0.7,3-1.1,4.8-1.1c1.8,0,3.4,0.4,4.8,1.1c1.4,0.8,2.6,1.8,3.4,3.3c0.8,1.4,1.2,3.1,1.2,5c0,1.9-0.4,3.6-1.2,5
		c-0.8,1.4-2,2.5-3.4,3.3c-1.4,0.7-3,1.1-4.8,1.1C144.1,130.8,142.5,130.4,141.1,129.6z M148.3,126c0.7-0.5,1.2-1.1,1.6-1.9
		c0.4-0.8,0.5-1.7,0.5-2.7s-0.2-1.9-0.6-2.7c-0.4-0.8-0.9-1.4-1.6-1.9c-0.7-0.5-1.5-0.7-2.4-0.7c-1.4,0-2.5,0.5-3.3,1.5
		s-1.2,2.3-1.2,3.8c0,1,0.2,1.9,0.5,2.7c0.4,0.8,0.9,1.4,1.6,1.9s1.5,0.7,2.4,0.7C146.8,126.7,147.6,126.4,148.3,126z"/>
	<path class="st17" d="M173.9,126.4l-1.1,4.1h-1.9c-0.7,0-1.3-0.1-1.7-0.3c-0.4-0.2-0.8-0.6-1.3-1.2l-2.9-3.7
		c-0.2-0.3-0.4-0.5-0.6-0.6c-0.2-0.1-0.4-0.1-0.8-0.1h-1.3v5.8h-4.7v-18.3h7.9c2.3,0,4.1,0.5,5.2,1.4c1.2,1,1.7,2.5,1.7,4.7
		c0,1.2-0.3,2.3-0.8,3.3c-0.5,0.9-1.3,1.6-2.3,2.1l1.6,2c0.2,0.2,0.4,0.4,0.6,0.5c0.2,0.1,0.5,0.1,0.9,0.1H173.9z M167,120.2
		c0.4-0.4,0.7-0.9,0.7-1.7c0-0.8-0.2-1.4-0.7-1.7c-0.4-0.3-1.1-0.5-2-0.5h-2.8v4.5h2.8C165.9,120.7,166.6,120.5,167,120.2z"/>
	<path class="st17" d="M181.6,112.3h7.1c1.7,0,3.1,0.2,4.3,0.5s2.2,0.8,3,1.5c0.8,0.7,1.5,1.7,1.9,2.8c0.4,1.2,0.6,2.6,0.6,4.2
		c0,1.5-0.2,2.9-0.7,4.1c-0.5,1.2-1.1,2.2-2,3c-1.6,1.5-3.7,2.2-6.5,2.2h-7.8V112.3z M188.7,126.5c1.6,0,2.8-0.4,3.6-1.3
		c0.9-0.9,1.4-2.2,1.4-4c0-1-0.1-1.8-0.3-2.4c-0.2-0.7-0.5-1.2-0.9-1.6c-0.7-0.7-1.9-1-3.4-1h-2.8v10.3H188.7z"/>
	<path class="st17" d="M200.9,112.3h13.3l-1,4.1h-7.6v3.2h6.8l-0.2,4h-6.6v2.9h8.6l-1,4.1h-12.4V112.3z"/>
	<path class="st17" d="M226,129.5c-1.5-0.8-2.6-1.9-3.3-3.3s-1.1-3-1.1-4.7c0-1.9,0.4-3.5,1.2-5c0.8-1.4,2-2.6,3.5-3.3
		c1.5-0.8,3.2-1.2,5.2-1.2c1.9,0,3.4,0.2,4.6,0.5l-0.4,4.1c-0.4-0.1-1-0.2-1.8-0.3c-0.8-0.1-1.5-0.1-2.3-0.1c-1,0-1.9,0.2-2.7,0.6
		c-0.8,0.4-1.4,1-1.9,1.7c-0.5,0.8-0.7,1.7-0.7,2.9c0,1.7,0.5,3,1.4,3.9c0.9,0.9,2.3,1.4,4,1.4c1.4,0,2.8-0.1,4.1-0.4l0.3,4
		c-0.5,0.2-1.2,0.3-2,0.4c-0.8,0.1-1.7,0.1-2.6,0.1C229.4,130.8,227.5,130.4,226,129.5z"/>
	<path class="st17" d="M245.4,112.3h4.5l7.3,18.3h-5l-1.1-3.1h-6.8l-1.1,3.1h-5.2L245.4,112.3z M249.5,123.4l-1.8-5.1h-0.3l-1.8,5.1
		H249.5z"/>
	<path class="st17" d="M259,112.3h4.1l5.9,11.1h0.2l5.8-11.1h4v18.3h-4.6v-8.2l-3.5,6h-3.7l-3.6-6.4v8.5H259V112.3z"/>
	<path class="st17" d="M281.9,112.3h7.3c2.2,0,3.9,0.4,4.9,1.1s1.6,2,1.6,3.7c0,0.8-0.2,1.6-0.7,2.2c-0.4,0.6-1.1,1.1-1.9,1.4v0.1
		c1.1,0.2,2,0.7,2.6,1.6c0.7,0.8,1,1.8,1,2.8c0,1.9-0.6,3.3-1.8,4.2c-1.2,0.8-3,1.3-5.3,1.3h-7.8V112.3z M289.1,119.4
		c0.6,0,1.1-0.1,1.5-0.4c0.3-0.3,0.5-0.7,0.5-1.2c0-0.6-0.2-1-0.5-1.2c-0.3-0.2-0.8-0.3-1.4-0.3h-2.5v3.2H289.1z M289.6,126.5
		c0.9,0,1.5-0.1,1.9-0.4c0.4-0.3,0.6-0.7,0.6-1.3c0-0.6-0.2-1-0.6-1.3c-0.4-0.3-1.1-0.4-2.1-0.4h-2.6v3.5H289.6z"/>
	<path class="st17" d="M298.9,112.3h4.7v18.3h-4.7V112.3z"/>
	<path class="st17" d="M310.6,129.6c-1.4-0.8-2.6-1.8-3.4-3.3c-0.8-1.4-1.3-3.1-1.3-5c0-1.9,0.4-3.6,1.2-5c0.8-1.4,2-2.5,3.4-3.2
		c1.4-0.7,3-1.1,4.8-1.1c1.8,0,3.4,0.4,4.8,1.1c1.4,0.8,2.6,1.8,3.4,3.3c0.8,1.4,1.2,3.1,1.2,5c0,1.9-0.4,3.6-1.2,5
		c-0.8,1.4-2,2.5-3.4,3.3c-1.4,0.7-3,1.1-4.8,1.1C313.6,130.8,312.1,130.4,310.6,129.6z M317.8,126c0.7-0.5,1.2-1.1,1.6-1.9
		c0.4-0.8,0.5-1.7,0.5-2.7s-0.2-1.9-0.6-2.7c-0.4-0.8-0.9-1.4-1.6-1.9c-0.7-0.5-1.5-0.7-2.4-0.7c-1.4,0-2.5,0.5-3.3,1.5
		s-1.2,2.3-1.2,3.8c0,1,0.2,1.9,0.5,2.7c0.4,0.8,0.9,1.4,1.6,1.9s1.5,0.7,2.4,0.7C316.3,126.7,317.1,126.4,317.8,126z"/>
</g>
<path class="st18" d="M191.5,74.5c-3.4,7.1-10.7,12-19.1,12c0,0,0,0,0,0v-5.8l-10.3,11.9l10.3,11.9v-5.5c0,0,0,0,0,0
	c13.5,0,25.2-8,30.6-19.5L191.5,74.5z"/>
<path class="st19" d="M191.5,74.5c-3.4,7.1-10.7,12-19.1,12c0,0,0,0,0,0v-5.8l-10.3,11.9l10.3,11.9v-5.5c0,0,0,0,0,0
	c13.5,0,25.2-8,30.6-19.5L191.5,74.5z"/>
<path class="st18" d="M172.4,44.2v5.2l10.3-11.9l-10.3-11.9v6c-13.9,0-25.8,8.4-31,20.4l11.5,5.2C156.1,49.6,163.6,44.2,172.4,44.2"
	/>
<path class="st19" d="M172.4,44.2v5.2l10.3-11.9l-10.3-11.9v6c-13.9,0-25.8,8.4-31,20.4l11.5,5.2C156.1,49.6,163.6,44.2,172.4,44.2z
	"/>
<path class="st18" d="M151.2,65.4C151.2,65.4,151.2,65.3,151.2,65.4l5.5-0.1l-12-10.2l-11.8,10.4l5.7-0.1c0,13.7,8.3,25.6,20.1,30.8
	l5.2-11.5C156.4,81.5,151.2,74,151.2,65.4"/>
<path class="st19" d="M151.2,65.4C151.2,65.4,151.2,65.3,151.2,65.4l5.5-0.1l-12-10.2l-11.8,10.4l5.7-0.1c0,13.7,8.3,25.6,20.1,30.8
	l5.2-11.5C156.4,81.5,151.2,74,151.2,65.4z"/>
<path class="st18" d="M214.3,69.5L209,54.6l-2,5.1c-7.8-3.1-12.7-10.5-13.2-18.4L181.2,42c0.7,12.7,8.6,24.4,21.2,29.4l-2.1,5.3
	L214.3,69.5z"/>
<path class="st19" d="M214.3,69.5L209,54.6l-2,5.1c-7.8-3.1-12.7-10.5-13.2-18.4L181.2,42c0.7,12.7,8.6,24.4,21.2,29.4l-2.1,5.3
	L214.3,69.5z"/>
</svg>
