<?xml version="1.0" encoding="utf-8"?>
<!-- Generator: Adobe Illustrator 23.0.6, SVG Export Plug-In . SVG Version: 6.00 Build 0)  -->
<svg version="1.1" id="Capa_1" xmlns="http://www.w3.org/2000/svg" xmlns:xlink="http://www.w3.org/1999/xlink" x="0px" y="0px"
	 viewBox="0 0 347.9 157.1" style="enable-background:new 0 0 347.9 157.1;" xml:space="preserve">
<style type="text/css">
	.st0{opacity:0.3;}
	.st1{clip-path:url(#SVGID_2_);fill:#870037;}
	.st2{fill:url(#SVGID_3_);}
	.st3{fill:url(#SVGID_4_);}
	.st4{fill:url(#SVGID_5_);}
	.st5{fill:url(#SVGID_6_);}
	.st6{fill:url(#SVGID_7_);}
	.st7{enable-background:new    ;}
	.st8{fill:#870037;}
	.st9{fill:none;stroke:#870037;stroke-width:2.357;stroke-linecap:round;stroke-linejoin:round;stroke-miterlimit:10;}
	.st10{fill:#DB889A;}
</style>
<g>
	<g class="st0">
		<g>
			<g>
				<defs>
					<rect id="SVGID_1_" width="347.9" height="157.1"/>
				</defs>
				<clipPath id="SVGID_2_">
					<use xlink:href="#SVGID_1_"  style="overflow:visible;"/>
				</clipPath>
				<path class="st1" d="M334.1,157.1H13.8c-7.6,0-13.8-6.2-13.8-13.8V13.8C0,6.2,6.2,0,13.8,0h320.4c7.6,0,13.8,6.2,13.8,13.8
					v129.6C347.9,150.9,341.7,157.1,334.1,157.1"/>
			</g>
		</g>
	</g>
	
		<linearGradient id="SVGID_3_" gradientUnits="userSpaceOnUse" x1="-2024.1401" y1="288.6539" x2="-2023.1401" y2="288.6539" gradientTransform="matrix(7.479890e-15 -122.156 122.156 7.479890e-15 -35086.9102 -247123.2344)">
		<stop  offset="0" style="stop-color:#F7BDC2"/>
		<stop  offset="1" style="stop-color:#FFFFFF"/>
	</linearGradient>
	<path class="st2" d="M114.4,76.6c0.1,32.9,26.7,59.5,59.5,59.6c32.9-0.1,59.5-26.7,59.5-59.6S206.8,17,173.9,17
		C141.1,17,114.5,43.7,114.4,76.6h-1c0-33.5,27.1-60.6,60.5-60.6s60.5,27.1,60.5,60.6s-27.1,60.6-60.5,60.6s-60.5-27.1-60.5-60.6
		H114.4L114.4,76.6z"/>
	
		<linearGradient id="SVGID_4_" gradientUnits="userSpaceOnUse" x1="-2026.1169" y1="290.4728" x2="-2025.1169" y2="290.4728" gradientTransform="matrix(6.601150e-15 -107.805 107.805 6.601150e-15 -31140.416 -218295.0781)">
		<stop  offset="0" style="stop-color:#F7BDC2"/>
		<stop  offset="1" style="stop-color:#FFFFFF"/>
	</linearGradient>
	<path class="st3" d="M121.6,76.6c0.1,28.9,23.4,52.3,52.4,52.4c28.9-0.1,52.3-23.5,52.4-52.4C226.3,47.7,203,24.3,174,24.2
		C145,24.2,121.6,47.6,121.6,76.6h-1c0-29.5,23.9-53.4,53.4-53.4s53.4,23.9,53.4,53.4S203.5,130,174,130s-53.4-23.9-53.4-53.4H121.6
		L121.6,76.6z"/>
	
		<linearGradient id="SVGID_5_" gradientUnits="userSpaceOnUse" x1="-2028.7009" y1="292.8481" x2="-2027.7009" y2="292.8481" gradientTransform="matrix(5.722400e-15 -93.4539 93.4539 5.722400e-15 -27193.8965 -189466.7344)">
		<stop  offset="0" style="stop-color:#F7BDC2"/>
		<stop  offset="1" style="stop-color:#FFFFFF"/>
	</linearGradient>
	<path class="st4" d="M128.7,76.6c0,25,20.2,45.2,45.2,45.2s45.2-20.2,45.2-45.2s-20.2-45.2-45.2-45.2
		C149,31.4,128.8,51.6,128.7,76.6h-1c0-25.5,20.7-46.2,46.2-46.2s46.2,20.7,46.2,46.2s-20.7,46.2-46.2,46.2s-46.2-20.7-46.2-46.2
		L128.7,76.6L128.7,76.6z"/>
	
		<linearGradient id="SVGID_6_" gradientUnits="userSpaceOnUse" x1="-2032.2222" y1="296.0865" x2="-2031.2222" y2="296.0865" gradientTransform="matrix(4.843660e-15 -79.103 79.103 4.843660e-15 -23247.4277 -160638.7656)">
		<stop  offset="0" style="stop-color:#F7BDC2"/>
		<stop  offset="1" style="stop-color:#FFFFFF"/>
	</linearGradient>
	<path class="st5" d="M135.9,76.6c0,21,17,38,38,38.1c21,0,38-17,38-38.1c0-21-17-38-38-38.1C152.9,38.5,136,55.5,135.9,76.6h-1
		c0-21.6,17.5-39.1,39-39.1c21.6,0,39,17.5,39,39.1s-17.5,39.1-39,39.1c-21.6,0-39-17.5-39-39.1H135.9L135.9,76.6z"/>
	
		<linearGradient id="SVGID_7_" gradientUnits="userSpaceOnUse" x1="-2037.3046" y1="300.7619" x2="-2036.3046" y2="300.7619" gradientTransform="matrix(3.964920e-15 -64.752 64.752 3.964920e-15 -19300.9355 -131810.6094)">
		<stop  offset="0" style="stop-color:#F7BDC2"/>
		<stop  offset="1" style="stop-color:#FFFFFF"/>
	</linearGradient>
	<path class="st6" d="M143.1,76.6c0,17.1,13.8,30.8,30.9,30.9c17,0,30.8-13.8,30.9-30.9c0-17.1-13.8-30.8-30.9-30.9
		C156.9,45.7,143.1,59.5,143.1,76.6h-1c0-17.6,14.3-31.9,31.9-31.9s31.9,14.3,31.9,31.9s-14.3,31.9-31.9,31.9s-31.9-14.3-31.9-31.9
		H143.1L143.1,76.6z"/>
	<g class="st7">
		<path class="st8" d="M56.8,129.6c-1.5-0.8-2.6-1.9-3.3-3.3s-1.1-3-1.1-4.7c0-1.9,0.4-3.5,1.2-5c0.8-1.4,2-2.6,3.5-3.3
			c1.5-0.8,3.2-1.2,5.2-1.2c1.9,0,3.4,0.2,4.6,0.5l-0.4,4.1c-0.4-0.1-1-0.2-1.8-0.3c-0.8-0.1-1.5-0.1-2.3-0.1c-1,0-1.9,0.2-2.7,0.6
			c-0.8,0.4-1.4,1-1.9,1.7c-0.5,0.8-0.7,1.7-0.7,2.9c0,1.7,0.5,3,1.4,3.9c0.9,0.9,2.3,1.4,4,1.4c1.4,0,2.8-0.1,4.1-0.4l0.3,4
			c-0.5,0.2-1.2,0.3-2,0.4c-0.8,0.1-1.7,0.1-2.6,0.1C60.2,130.8,58.3,130.4,56.8,129.6z"/>
	</g>
	<g class="st7">
		<path class="st8" d="M69.3,126.5v-14.2H74v12.5c0,0.7,0.1,1.1,0.4,1.3c0.3,0.2,0.7,0.3,1.4,0.3h5.8l-1,4.1H73
			C70.6,130.6,69.3,129.2,69.3,126.5z"/>
	</g>
	<g class="st7">
		<path class="st8" d="M90.2,112.3h4.5l7.3,18.3h-5l-1.1-3.1H89l-1.1,3.1h-5.2L90.2,112.3z M94.3,123.4l-1.8-5.1h-0.3l-1.8,5.1H94.3
			z"/>
	</g>
	<g class="st7">
		<path class="st8" d="M120.1,126.5l-1.1,4.1H117c-0.7,0-1.3-0.1-1.7-0.3c-0.4-0.2-0.8-0.6-1.3-1.2l-2.9-3.7
			c-0.2-0.3-0.4-0.5-0.6-0.6c-0.2-0.1-0.4-0.1-0.8-0.1h-1.3v5.8h-4.7v-18.3h7.9c2.3,0,4.1,0.5,5.2,1.4c1.2,1,1.7,2.5,1.7,4.7
			c0,1.2-0.3,2.3-0.8,3.3s-1.3,1.6-2.3,2.1l1.6,2c0.2,0.2,0.4,0.4,0.6,0.5s0.5,0.1,0.9,0.1H120.1z M113.2,120.2
			c0.4-0.4,0.7-0.9,0.7-1.7c0-0.8-0.2-1.4-0.7-1.7s-1.1-0.5-2-0.5h-2.8v4.5h2.8C112.2,120.8,112.8,120.6,113.2,120.2z"/>
	</g>
	<g class="st7">
		<path class="st8" d="M125.4,129.7c-1.4-0.8-2.6-1.8-3.4-3.3c-0.8-1.4-1.3-3.1-1.3-5c0-1.9,0.4-3.6,1.2-5c0.8-1.4,2-2.5,3.4-3.2
			c1.4-0.7,3-1.1,4.8-1.1c1.8,0,3.4,0.4,4.8,1.1c1.4,0.8,2.6,1.8,3.4,3.3c0.8,1.4,1.2,3.1,1.2,5c0,1.9-0.4,3.6-1.2,5
			c-0.8,1.4-2,2.5-3.4,3.3c-1.4,0.7-3,1.1-4.8,1.1C128.4,130.8,126.8,130.5,125.4,129.7z M132.6,126c0.7-0.5,1.2-1.1,1.6-1.9
			c0.4-0.8,0.5-1.7,0.5-2.7c0-1-0.2-1.9-0.6-2.7c-0.4-0.8-0.9-1.4-1.6-1.9c-0.7-0.5-1.5-0.7-2.4-0.7c-1.4,0-2.5,0.5-3.3,1.5
			c-0.8,1-1.2,2.3-1.2,3.8c0,1,0.2,1.9,0.5,2.7c0.4,0.8,0.9,1.4,1.6,1.9s1.5,0.7,2.4,0.7C131.1,126.7,131.9,126.5,132.6,126z"/>
	</g>
	<g class="st7">
		<path class="st8" d="M153.5,124.3l-6.8-12h5.5l3.8,7.1h0.1l3.8-7.1h5.3l-6.8,12v6.2h-4.7V124.3z"/>
	</g>
	<g class="st7">
		<path class="st8" d="M171.7,112.3h5.4l4.4,11.3h0.3l3.9-11.3h5.5l-7.6,18.3h-4L171.7,112.3z"/>
	</g>
	<g class="st7">
		<path class="st8" d="M196.1,112.3h4.5l7.3,18.3h-5l-1.1-3.1h-6.8l-1.1,3.1h-5.2L196.1,112.3z M200.2,123.4l-1.8-5.1h-0.3l-1.8,5.1
			H200.2z"/>
	</g>
	<g class="st7">
		<path class="st8" d="M209.2,126.5v-14.2h4.7v12.5c0,0.7,0.1,1.1,0.4,1.3c0.3,0.2,0.7,0.3,1.4,0.3h5.8l-1,4.1h-7.5
			C210.5,130.6,209.2,129.2,209.2,126.5z"/>
		<path class="st8" d="M223.5,112.3h4.7v18.3h-4.7V112.3z"/>
	</g>
	<g class="st7">
		<path class="st8" d="M231.3,112.3h13.3l-1,4.1H236v3.2h6.8l-0.2,4H236v2.9h8.6l-1,4.1h-12.4V112.3z"/>
		<path class="st8" d="M246.7,112.3h3.2l8.5,9.9v-9.9h4.4v18.3h-3.1l-8.6-10.2v10.2h-4.4V112.3z"/>
	</g>
	<g class="st7">
		<path class="st8" d="M270.2,116.4h-5.3v-4.1h15.8l-1,4.1H275v14.2h-4.8V116.4z"/>
		<path class="st8" d="M282.5,112.3h13.3l-1,4.1h-7.6v3.2h6.8l-0.2,4h-6.6v2.9h8.6l-1,4.1h-12.4V112.3z"/>
	</g>
	<path class="st9" d="M192.7,97.6c4-1.4,8-3.3,12.1-5.7c-6.6-1.7-10.6-6.7-13.1-12.4"/>
	<path class="st9" d="M159.9,76.4c-2.3,6.9-6.5,13.5-14.3,15.5c3.9,2.6,7.8,4.6,11.9,6.1"/>
	<path class="st10" d="M159.9,102.9c-0.3,0-0.6-0.1-0.9-0.4c-0.2-0.2-0.3-0.6-0.3-0.9l2.6-35c-1.6,1.6-3.3,3.2-5.5,4.6
		c-5.4,3.5-13.9,4.2-20.1,4.2c-3.4,0-5.9-0.2-6.6-0.3c-2.8-0.3-4.8-2.7-4.5-5.5c0.2-2.6,2.4-4.6,5-4.6c0.2,0,0.3,0,0.5,0
		c0.7,0.1,2.7,0.2,5.6,0.2c4,0,11.3-0.3,14.8-2.6c1.8-1.1,3.3-2.7,4.9-4.4c2.7-2.8,6-6.3,11.4-8.1c-2.5-2.4-3.9-5.7-3.9-9.2
		c0-7,5.7-12.7,12.7-12.7s12.7,5.7,12.7,12.7c0,3.5-1.4,6.8-3.9,9.2c5.4,1.9,8.7,5.3,11.4,8.1c1.6,1.7,3.2,3.3,5,4.4
		c2.5,1.6,8,2.6,14.9,2.6c2.9,0,4.9-0.2,5.4-0.2c0.2,0,0.3,0,0.5,0c2.6,0,4.8,2,5,4.6c0.3,2.8-1.8,5.2-4.6,5.5
		c-0.7,0.1-3.2,0.3-6.6,0.3c-6.2,0-14.7-0.7-20.1-4.2c-2.2-1.4-3.9-3-5.5-4.6l2.6,35c0,0.3-0.1,0.6-0.3,0.9
		c-0.2,0.2-0.5,0.4-0.9,0.4H159.9z"/>
	<path class="st8" d="M175.5,29.4c6.4,0,11.5,5.2,11.5,11.5c0,4.1-2.1,7.6-5.3,9.7c6.4,1.5,10,5.3,13.1,8.4c1.7,1.7,3.3,3.4,5.2,4.6
		c3.5,2.2,10.3,2.7,15.5,2.7c2.3,0,4.3-0.1,5.5-0.2c0.1,0,0.3,0,0.4,0c2,0,3.6,1.5,3.8,3.5c0.2,2.1-1.4,4-3.5,4.2
		c-0.7,0.1-3.2,0.3-6.5,0.3c-5.9,0-14.3-0.7-19.5-4c-2.7-1.7-4.7-3.8-6.6-5.7c-0.3-0.3-0.7-0.7-1-1l2.8,38.3h-15.6h-15.6l2.8-38.3
		c-0.3,0.3-0.7,0.7-1,1c-1.9,2-3.9,4-6.6,5.7c-5.2,3.3-13.6,4-19.5,4c-3.3,0-5.8-0.2-6.5-0.3c-2.1-0.2-3.7-2.1-3.5-4.2
		c0.2-2,1.9-3.5,3.8-3.5c0.1,0,0.2,0,0.4,0c1.3,0.1,3.3,0.2,5.7,0.2c5.2,0,11.9-0.5,15.4-2.8c1.9-1.2,3.5-2.9,5.2-4.6
		c3-3.2,6.7-6.9,13.1-8.4c-3.2-2.1-5.3-5.6-5.3-9.7C164,34.6,169.1,29.4,175.5,29.4 M175.5,27.1c-7.7,0-13.9,6.2-13.9,13.9
		c0,3.2,1.1,6.3,3.1,8.7c-4.7,2-7.7,5.2-10.2,7.8c-1.6,1.6-3.1,3.2-4.7,4.2c-2.4,1.5-7.5,2.4-14.1,2.4c-1.9,0-4-0.1-5.5-0.2
		c-0.2,0-0.4,0-0.6,0c-3.2,0-5.9,2.4-6.2,5.6c-0.3,3.4,2.2,6.5,5.6,6.8c0.7,0.1,3.3,0.3,6.7,0.3c6.4,0,15.1-0.8,20.7-4.4
		c1.3-0.8,2.4-1.7,3.5-2.6l-2.4,32c0,0.7,0.2,1.3,0.6,1.8c0.4,0.5,1.1,0.8,1.7,0.8h15.6H191c0.7,0,1.3-0.3,1.7-0.8s0.7-1.1,0.6-1.8
		l-2.4-32c1,0.9,2.2,1.8,3.5,2.6c5.6,3.6,14.4,4.4,20.7,4.4c3.4,0,6-0.2,6.7-0.3c3.4-0.3,5.9-3.4,5.6-6.8c-0.3-3.2-3-5.6-6.2-5.6
		c-0.2,0-0.4,0-0.6,0c-0.5,0-2.5,0.2-5.3,0.2c-6.7,0-11.9-0.9-14.3-2.4c-1.7-1.1-3.2-2.6-4.7-4.2c-2.5-2.6-5.6-5.8-10.2-7.8
		c2-2.4,3.1-5.5,3.1-8.7C189.4,33.3,183.2,27.1,175.5,27.1"/>
</g>
</svg>
