<?xml version="1.0" encoding="utf-8"?>
<!-- Generator: Adobe Illustrator 23.0.6, SVG Export Plug-In . SVG Version: 6.00 Build 0)  -->
<svg version="1.1" id="Capa_1" xmlns="http://www.w3.org/2000/svg" xmlns:xlink="http://www.w3.org/1999/xlink" x="0px" y="0px"
	 viewBox="0 0 156.3 157.1" style="enable-background:new 0 0 156.3 157.1;" xml:space="preserve">
<style type="text/css">
	.st0{fill:none;stroke:#870037;stroke-width:2.362;stroke-linecap:round;stroke-miterlimit:10;}
	.st1{fill:#870037;}
</style>
<path class="st0" d="M108.8,64.9c0,16.9-13.7,30.7-30.7,30.7c-16.9,0-30.7-13.7-30.7-30.7c0-16.9,13.7-30.7,30.7-30.7
	C95.1,34.3,108.8,48,108.8,64.9z"/>
<ellipse class="st0" cx="78.1" cy="64.9" rx="19.3" ry="19.3"/>
<path class="st0" d="M86.4,64.9c0,4.6-3.7,8.3-8.3,8.3s-8.3-3.7-8.3-8.3c0-4.6,3.7-8.3,8.3-8.3S86.4,60.3,86.4,64.9z"/>
<line class="st0" x1="78.1" y1="26" x2="78.1" y2="37.8"/>
<line class="st0" x1="78.1" y1="92" x2="78.1" y2="103.9"/>
<line class="st0" x1="39.1" y1="64.9" x2="51" y2="64.9"/>
<line class="st0" x1="105.2" y1="64.9" x2="117.1" y2="64.9"/>
<g>
	<path class="st1" d="M17.5,112.5h13.3l-1,4.1h-7.6v3.2H29l-0.2,4h-6.6v2.9h8.6l-1,4.1H17.5V112.5z"/>
	<path class="st1" d="M33,112.5h3.2l8.5,9.9v-9.9h4.4v18.3H46l-8.6-10.2v10.2H33V112.5z"/>
	<path class="st1" d="M52.1,112.5h13.3l-1,4.1h-7.5v3.8h6.6l-0.2,4h-6.5v6.3h-4.7V112.5z"/>
	<path class="st1" d="M70.6,129.9c-1.4-0.8-2.6-1.8-3.4-3.3c-0.8-1.4-1.3-3.1-1.3-5s0.4-3.6,1.2-5c0.8-1.4,2-2.5,3.4-3.2
		s3-1.1,4.8-1.1s3.4,0.4,4.8,1.1c1.4,0.8,2.6,1.8,3.4,3.3c0.8,1.4,1.2,3.1,1.2,5s-0.4,3.6-1.2,5c-0.8,1.4-2,2.5-3.4,3.3
		c-1.4,0.7-3,1.1-4.8,1.1C73.6,131.1,72,130.7,70.6,129.9z M77.8,126.2c0.7-0.5,1.2-1.1,1.6-1.9s0.5-1.7,0.5-2.7s-0.2-1.9-0.6-2.7
		c-0.4-0.8-0.9-1.4-1.6-1.9s-1.5-0.7-2.4-0.7c-1.4,0-2.5,0.5-3.3,1.5s-1.2,2.3-1.2,3.8c0,1,0.2,1.9,0.5,2.7c0.4,0.8,0.9,1.4,1.6,1.9
		s1.5,0.7,2.4,0.7C76.3,127,77.1,126.7,77.8,126.2z"/>
	<path class="st1" d="M99.1,135.2c-0.6-0.2-1.1-0.7-1.7-1.3l-2.7-2.9c-1.6-0.2-3-0.6-4.2-1.4c-1.3-0.8-2.2-1.9-3-3.2
		s-1.1-2.9-1.1-4.7c0-1.9,0.4-3.6,1.2-5c0.8-1.4,2-2.5,3.4-3.2s3-1.1,4.8-1.1s3.4,0.4,4.8,1.1s2.6,1.8,3.4,3.3
		c0.8,1.4,1.2,3.1,1.2,5c0,2-0.5,3.7-1.4,5.2s-2.2,2.6-3.9,3.4l0.4,0.4c0.3,0.3,0.6,0.5,0.9,0.6s0.7,0.2,1.1,0.2h2.3l-1,4.1h-2.2
		C100.4,135.5,99.7,135.4,99.1,135.2z M98.3,126.2c0.7-0.5,1.2-1.1,1.6-1.9s0.5-1.7,0.5-2.7s-0.2-1.9-0.6-2.7
		c-0.4-0.8-0.9-1.4-1.6-1.9s-1.5-0.7-2.4-0.7c-1.4,0-2.5,0.5-3.3,1.5s-1.2,2.3-1.2,3.8c0,1,0.2,1.9,0.5,2.7c0.4,0.8,0.9,1.4,1.6,1.9
		s1.5,0.7,2.4,0.7C96.8,127,97.6,126.7,98.3,126.2z"/>
	<path class="st1" d="M109.5,129.2c-1.4-1.2-2.1-3.1-2.1-5.6v-11.1h4.7v10.7c0,1.2,0.3,2.1,0.9,2.8s1.4,1,2.6,1c1.1,0,1.9-0.3,2.4-1
		c0.5-0.6,0.8-1.6,0.8-2.8v-10.7h4.7v11.1c0,2.5-0.7,4.3-2.1,5.6c-1.4,1.2-3.4,1.9-6,1.9C112.9,131.1,110.9,130.5,109.5,129.2z"/>
	<path class="st1" d="M126.5,112.5h13.3l-1,4.1h-7.6v3.2h6.8l-0.2,4h-6.6v2.9h8.6l-1,4.1h-12.4L126.5,112.5L126.5,112.5z"/>
</g>
</svg>
