<?xml version="1.0" encoding="utf-8"?>
<!-- Generator: Adobe Illustrator 23.0.6, SVG Export Plug-In . SVG Version: 6.00 Build 0)  -->
<svg version="1.1" id="Capa_1" xmlns="http://www.w3.org/2000/svg" xmlns:xlink="http://www.w3.org/1999/xlink" x="0px" y="0px"
	 viewBox="0 0 172.2 157.1" style="enable-background:new 0 0 172.2 157.1;" xml:space="preserve">
<style type="text/css">
	.st0{fill:#870037;}
</style>
<path class="st0" d="M85.5,31.3c21.9,0,35.6,27.6,23.4,47c6.4-5,10.8-12,12.6-19.7c4.1,16.8-4.5,34.9-21.7,41.7
	c-4.1,1.7-8.4,2.6-12.6,2.6c-17.6,0-34.7-13.9-36-32.1c2.1,0.6,4.2,0.9,6.2,0.9c18.2,0,31.6-23.3,18.9-38.8
	C79.5,31.8,82.6,31.3,85.5,31.3 M85.5,29.1L85.5,29.1c-3.2,0-6.5,0.6-9.8,1.7c-0.7,0.2-1.3,0.8-1.5,1.5c-0.2,0.7,0,1.5,0.4,2.1
	c5,6.2,5.9,14.4,2.3,22c-3.8,8-11.4,13.2-19.4,13.2c-1.9,0-3.7-0.3-5.6-0.8c-0.2-0.1-0.4-0.1-0.6-0.1c-0.5,0-1,0.2-1.4,0.5
	c-0.6,0.5-0.9,1.2-0.8,1.9c0.7,9.3,5.2,17.9,12.7,24.4c7.2,6.2,16.5,9.8,25.6,9.8c4.7,0,9.2-0.9,13.5-2.7c8.7-3.5,15.8-9.9,20-18.2
	c4.1-8.1,5.2-17.4,3-26.2c-0.2-1-1.2-1.7-2.2-1.7h0c-1.1,0-2,0.7-2.2,1.7c-0.8,3.4-2.2,6.7-4,9.6c1.2-7.5-0.1-15.5-4-22.6
	C105.7,35.1,96.1,29.1,85.5,29.1"/>
<path class="st0" d="M61.2,31.2c0.2,5.2,2.2,8.8,3.9,12.1c1.3,2.3,2.4,4.5,3,7.1c0.3,1.4-0.2,3-1.4,4.4c-1.4,1.8-3.6,2.8-5.7,2.8
	c-3.1,0-5.9-2.3-8-6.4C49.8,40.9,56.7,34.2,61.2,31.2 M63.7,27.1L63.7,27.1L63.7,27.1z M63.7,27.1c0,0-18.2,8.2-12.7,25
	c2.8,5.7,6.6,7.8,10.1,7.8c5.5,0,10.2-5.2,9.3-10C68.8,42,62.2,38.2,63.7,27.1"/>
<g>
	<path class="st0" d="M39.9,112.9H47c2.4,0,4.2,0.5,5.5,1.6c1.3,1.1,1.9,2.7,1.9,4.8c0,2.2-0.6,3.9-1.8,5c-1.2,1.1-2.9,1.6-5.2,1.6
		h-2.9v5.2h-4.7V112.9z M47.1,121.9c0.8,0,1.5-0.2,1.9-0.7c0.4-0.5,0.6-1.1,0.6-1.8c0-0.8-0.2-1.4-0.7-1.8c-0.5-0.4-1.2-0.6-2-0.6
		h-2.3v5H47.1z"/>
	<path class="st0" d="M60.9,112.9h4.5l7.3,18.3h-5l-1.1-3.1h-6.8l-1.1,3.1h-5.2L60.9,112.9z M65,124l-1.8-5.1H63l-1.8,5.1H65z"/>
	<path class="st0" d="M77,131.1c-1.1-0.2-2-0.4-2.8-0.7l0.2-4.3c0.8,0.4,1.8,0.7,2.8,0.9c1,0.2,2,0.4,2.9,0.4c1.6,0,2.5-0.5,2.5-1.5
		c0-0.3-0.1-0.6-0.3-0.8c-0.2-0.2-0.6-0.4-1.1-0.6c-0.5-0.2-1.3-0.5-2.5-0.9c-1.6-0.5-2.7-1.2-3.4-2.1c-0.7-0.9-1-2.1-1-3.6
		c0-1.7,0.6-3,1.9-3.9c1.3-0.9,3.1-1.4,5.4-1.4c0.9,0,1.8,0,2.7,0.1c0.9,0.1,1.6,0.2,2.2,0.4l-0.1,4.1c-1.7-0.4-3.2-0.6-4.5-0.6
		c-1.8,0-2.7,0.4-2.7,1.2c0,0.3,0.1,0.6,0.2,0.7s0.5,0.4,0.9,0.6c0.5,0.2,1.2,0.4,2.2,0.7c1.3,0.4,2.3,0.8,3.1,1.3
		c0.7,0.5,1.2,1,1.5,1.7c0.3,0.6,0.4,1.4,0.4,2.4c0,1.9-0.6,3.4-1.9,4.5c-1.2,1.1-2.9,1.7-5.1,1.7C79.2,131.4,78.1,131.3,77,131.1z"
		/>
	<path class="st0" d="M89.5,112.9h4.7v18.3h-4.7V112.9z"/>
	<path class="st0" d="M101.2,130.3c-1.4-0.8-2.6-1.8-3.4-3.3c-0.8-1.4-1.3-3.1-1.3-5c0-1.9,0.4-3.6,1.2-5c0.8-1.4,2-2.5,3.4-3.2
		c1.4-0.7,3-1.1,4.8-1.1c1.8,0,3.4,0.4,4.8,1.1c1.4,0.8,2.6,1.8,3.4,3.3c0.8,1.4,1.2,3.1,1.2,5c0,1.9-0.4,3.6-1.2,5
		c-0.8,1.4-2,2.5-3.4,3.3c-1.4,0.7-3,1.1-4.8,1.1C104.3,131.4,102.7,131,101.2,130.3z M108.4,126.6c0.7-0.5,1.2-1.1,1.6-1.9
		c0.4-0.8,0.5-1.7,0.5-2.7s-0.2-1.9-0.6-2.7c-0.4-0.8-0.9-1.4-1.6-1.9c-0.7-0.5-1.5-0.7-2.4-0.7c-1.4,0-2.5,0.5-3.3,1.5
		s-1.2,2.3-1.2,3.8c0,1,0.2,1.9,0.5,2.7c0.4,0.8,0.9,1.4,1.6,1.9s1.5,0.7,2.4,0.7C106.9,127.3,107.7,127.1,108.4,126.6z
		 M102.6,108.8l5.8-3.6l1.8,3.6l-6,2.7L102.6,108.8z"/>
	<path class="st0" d="M117.7,112.9h3.2l8.5,9.9v-9.9h4.4v18.3h-3.1l-8.6-10.2v10.2h-4.4V112.9z"/>
</g>
</svg>
