<?xml version="1.0" encoding="utf-8"?>
<!-- Generator: Adobe Illustrator 23.0.6, SVG Export Plug-In . SVG Version: 6.00 Build 0)  -->
<svg version="1.1" id="Capa_1" xmlns="http://www.w3.org/2000/svg" xmlns:xlink="http://www.w3.org/1999/xlink" x="0px" y="0px"
	 viewBox="0 0 291.1 157.1" style="enable-background:new 0 0 291.1 157.1;" xml:space="preserve">
<style type="text/css">
	.st0{fill:#870037;}
</style>
<g>
	<path class="st0" d="M21.9,117.4h13.3l-1,4.1h-7.6v3.2h6.8l-0.2,4h-6.6v2.9h8.6l-1,4.1H21.9V117.4z"/>
	<path class="st0" d="M37.3,117.4h4.1l5.9,11.1h0.2l5.8-11.1h4v18.3h-4.6v-8.2l-3.5,6h-3.7l-3.6-6.4v8.5h-4.6
		C37.3,135.6,37.3,117.4,37.3,117.4z"/>
	<path class="st0" d="M60.3,117.4h7.2c2.4,0,4.2,0.5,5.5,1.6s1.9,2.7,1.9,4.8c0,2.2-0.6,3.9-1.8,5c-1.2,1.1-2.9,1.6-5.2,1.6H65v5.2
		h-4.7V117.4z M67.5,126.4c0.8,0,1.5-0.2,1.9-0.7s0.6-1.1,0.6-1.8c0-0.8-0.2-1.4-0.7-1.8s-1.2-0.6-2-0.6H65v5L67.5,126.4L67.5,126.4
		z"/>
	<path class="st0" d="M81.3,134.8c-1.4-0.8-2.6-1.8-3.4-3.3s-1.3-3.1-1.3-5c0-1.9,0.4-3.6,1.2-5c0.8-1.4,2-2.5,3.4-3.2
		s3-1.1,4.8-1.1s3.4,0.4,4.8,1.1c1.4,0.8,2.6,1.8,3.4,3.3c0.8,1.4,1.2,3.1,1.2,5c0,1.9-0.4,3.6-1.2,5c-0.8,1.4-2,2.5-3.4,3.3
		c-1.4,0.7-3,1.1-4.8,1.1C84.3,135.9,82.7,135.6,81.3,134.8z M88.5,131.1c0.7-0.5,1.2-1.1,1.6-1.9s0.5-1.7,0.5-2.7s-0.2-1.9-0.6-2.7
		s-0.9-1.4-1.6-1.9s-1.5-0.7-2.4-0.7c-1.4,0-2.5,0.5-3.3,1.5s-1.2,2.3-1.2,3.8c0,1,0.2,1.9,0.5,2.7s0.9,1.4,1.6,1.9s1.5,0.7,2.4,0.7
		C87,131.8,87.8,131.6,88.5,131.1z"/>
	<path class="st0" d="M97.8,117.4h7.1c1.7,0,3.1,0.2,4.3,0.5s2.2,0.8,3,1.5s1.5,1.7,1.9,2.8c0.4,1.2,0.6,2.6,0.6,4.2
		c0,1.5-0.2,2.9-0.7,4.1s-1.1,2.2-2,3c-1.6,1.5-3.7,2.2-6.5,2.2h-7.8L97.8,117.4L97.8,117.4z M104.9,131.7c1.6,0,2.8-0.4,3.6-1.3
		c0.9-0.9,1.3-2.2,1.3-4c0-1-0.1-1.8-0.3-2.4c-0.2-0.7-0.5-1.2-0.9-1.6c-0.7-0.7-1.9-1-3.4-1h-2.8v10.3H104.9z"/>
	<path class="st0" d="M117.1,117.4h13.3l-1,4.1h-7.6v3.2h6.8l-0.2,4h-6.6v2.9h8.6l-1,4.1H117v-18.3H117.1z"/>
	<path class="st0" d="M148.8,131.6l-1.1,4.1h-1.9c-0.7,0-1.3-0.1-1.7-0.3s-0.8-0.6-1.3-1.2l-2.9-3.7c-0.2-0.3-0.4-0.5-0.6-0.6
		c-0.2-0.1-0.4-0.1-0.8-0.1h-1.3v5.8h-4.7v-18.3h7.9c2.3,0,4.1,0.5,5.2,1.4c1.2,1,1.7,2.5,1.7,4.7c0,1.2-0.3,2.3-0.8,3.3
		c-0.5,0.9-1.3,1.6-2.3,2.1l1.6,2c0.2,0.2,0.4,0.4,0.6,0.5c0.2,0.1,0.5,0.1,0.9,0.1h1.5V131.6z M142,125.3c0.5-0.4,0.7-0.9,0.7-1.7
		c0-0.8-0.2-1.4-0.7-1.7c-0.4-0.3-1.1-0.5-2-0.5h-2.8v4.5h2.8C140.9,125.9,141.5,125.7,142,125.3z"/>
	<path class="st0" d="M157.2,117.4h4.5l7.3,18.3h-5l-1.1-3.1H156l-1.1,3.1h-5.2L157.2,117.4z M161.3,128.5l-1.8-5.1h-0.3l-1.8,5.1
		H161.3z"/>
	<path class="st0" d="M170.7,117.4h4.1l5.9,11.1h0.2l5.8-11.1h4v18.3h-4.6v-8.2l-3.5,6h-3.7l-3.6-6.4v8.5h-4.6L170.7,117.4
		L170.7,117.4z"/>
	<path class="st0" d="M193.6,117.4h4.7v18.3h-4.7V117.4z"/>
	<path class="st0" d="M201.4,117.4h13.3l-1,4.1h-7.6v3.2h6.8l-0.2,4h-6.6v2.9h8.6l-1,4.1h-12.4L201.4,117.4L201.4,117.4z"/>
	<path class="st0" d="M216.8,117.4h3.2l8.5,9.9v-9.9h4.4v18.3h-3.1l-8.6-10.2v10.2h-4.4L216.8,117.4L216.8,117.4z"/>
	<path class="st0" d="M240.3,121.5H235v-4.1h15.8l-1,4.1h-4.7v14.2h-4.8V121.5z"/>
	<path class="st0" d="M255.8,134.8c-1.4-0.8-2.6-1.8-3.4-3.3s-1.3-3.1-1.3-5c0-1.9,0.4-3.6,1.2-5s2-2.5,3.4-3.2
		c1.4-0.7,3-1.1,4.8-1.1s3.4,0.4,4.8,1.1c1.4,0.8,2.6,1.8,3.4,3.3c0.8,1.4,1.2,3.1,1.2,5c0,1.9-0.4,3.6-1.2,5
		c-0.8,1.4-2,2.5-3.4,3.3c-1.4,0.7-3,1.1-4.8,1.1C258.8,135.9,257.2,135.6,255.8,134.8z M263,131.1c0.7-0.5,1.2-1.1,1.6-1.9
		s0.5-1.7,0.5-2.7s-0.2-1.9-0.6-2.7s-0.9-1.4-1.6-1.9s-1.5-0.7-2.4-0.7c-1.4,0-2.5,0.5-3.3,1.5s-1.2,2.3-1.2,3.8
		c0,1,0.2,1.9,0.5,2.7s0.9,1.4,1.6,1.9s1.5,0.7,2.4,0.7C261.5,131.8,262.3,131.6,263,131.1z"/>
</g>
<path class="st0" d="M125.9,76.3L125.9,76.3h-0.4c-1.7,0-3.3-0.7-4.4-1.9c-1.2-1.2-1.8-2.8-1.8-4.5l0.2-17.7c0-3.5,2.9-6.3,6.4-6.2
	h0.3c1.7,0,3.3,0.7,4.4,1.9c1.2,1.2,1.8,2.8,1.8,4.5l-0.2,17.7C132.2,73.6,129.4,76.3,125.9,76.3 M125.9,73.9c2.1,0,3.9-1.7,3.9-3.8
	l0.2-17.7c0-1-0.4-2-1.1-2.7s-1.7-1.2-2.7-1.2h-0.3c-2.1,0-3.9,1.7-3.9,3.8L121.8,70c0,1,0.4,2,1.1,2.7s1.7,1.2,2.7,1.2L125.9,73.9z
	"/>
<path class="st0" d="M136.3,74.2C136.3,74.2,136.2,74.2,136.3,74.2h-0.2c-1.7,0-3.3-0.7-4.5-2c-1.2-1.2-1.9-2.9-1.8-4.6l0.3-18.9
	c0-3.5,3-6.4,6.5-6.4c1.8,0,3.4,0.7,4.6,2c1.2,1.2,1.9,2.9,1.8,4.6l-0.3,18.9C142.7,71.4,139.8,74.2,136.3,74.2 M136.5,44.9
	c-2.2,0-4,1.7-4,3.9l-0.3,18.9c0,1.1,0.4,2.1,1.1,2.8c0.7,0.8,1.7,1.2,2.8,1.2h0.1c2.2,0,4-1.7,4-3.9l0.3-18.9
	c0-1.1-0.4-2.1-1.1-2.8C138.6,45.4,137.6,44.9,136.5,44.9C136.6,44.9,136.6,44.9,136.5,44.9"/>
<path class="st0" d="M146.9,73.6h-0.1c-1.8,0-3.4-0.6-4.7-1.7s-2-2.7-2-4.3l0.3-22.6c0-3.3,3.1-5.9,6.9-5.8c1.8,0,3.4,0.6,4.7,1.7
	c1.3,1.1,2,2.7,2,4.3l-0.3,22.6C153.6,71.1,150.6,73.6,146.9,73.6 M147.2,41.7c-2.3,0-4.2,1.5-4.3,3.4l-0.3,22.6
	c0,0.9,0.4,1.7,1.2,2.4c0.8,0.7,1.9,1.1,3.1,1.1c2.3,0,4.3-1.5,4.3-3.4h1.2h-1.2l0.3-22.6c0-0.9-0.4-1.7-1.2-2.4
	C149.5,42.2,148.4,41.8,147.2,41.7L147.2,41.7"/>
<path class="st0" d="M158.7,71.8c-0.1,0-0.2,0-0.4,0c-0.1,0-0.2,0-0.4,0c-1.9,0-3.7-0.8-5-2.1c-1.1-1.1-1.6-2.5-1.6-3.9l0.4-22.5
	c0.1-3.2,3.1-5.8,6.8-5.8c1.9,0,3.7,0.8,5,2.1c1.1,1.1,1.6,2.5,1.6,3.9L165,50c0,0.7-0.6,1.2-1.3,1.2s-1.2-0.6-1.2-1.3l0.1-6.6
	c0-1-0.5-1.7-0.9-2.2c-0.8-0.8-2-1.3-3.2-1.3c-2.3,0-4.2,1.5-4.3,3.4l-0.4,22.5c0,1,0.5,1.7,0.9,2.2c0.8,0.8,2,1.3,3.2,1.3
	c0.2,0,0.4,0,0.6,0c0.3,0,0.3,0,0.5-0.1c0.6-0.2,1.4,0.1,1.6,0.8c0.2,0.6-0.1,1.4-0.8,1.6C159.3,71.7,159,71.8,158.7,71.8"/>
<path class="st0" d="M159.7,97.8c-0.7,0-1.2-0.6-1.2-1.2c0-0.7,0.5-1.3,1.1-1.5l3.4-1c1-0.5,12.6-6.1,8.6-25.3L167,54
	c-0.3-1.1-1.1-2-2.1-2.5C164,51,163,51,162,51.3c-2.1,0.7-3.2,3.2-2.5,5.4c0,0.1,0,0.1,0,0.2l2.6,18.6c0,0.3-0.1,0.7-0.3,1
	s-0.5,0.4-0.9,0.4c-0.5,0-11.9,0.8-14.6,12.1c-0.2,0.7-0.8,1.1-1.5,0.9s-1.1-0.8-0.9-1.5c2.5-10.6,12-13.2,15.5-13.8L157,57.3
	c-1-3.5,0.8-7.2,4.1-8.4c1.6-0.6,3.3-0.4,4.8,0.3c1.6,0.8,2.8,2.2,3.3,4l4.6,14.9v0.1c4.6,21.7-9.9,28.1-10.1,28.1h-0.1l-3.1,0.9
	C160.5,97.6,160.1,97.8,159.7,97.8"/>
<path class="st0" d="M170,29l-4.4,8.2L170,29z"/>
<path class="st0" d="M165.6,38.4c-0.2,0-0.4,0-0.6-0.1c-0.6-0.3-0.8-1.1-0.5-1.7l4.4-8.2c0.3-0.6,1.1-0.8,1.7-0.5
	c0.6,0.3,0.8,1.1,0.5,1.7l-4.4,8.2C166.5,38.1,166.1,38.4,165.6,38.4"/>
<path class="st0" d="M183.3,48l-8.9,2.9L183.3,48z"/>
<path class="st0" d="M174.5,52.1c-0.5,0-1-0.3-1.2-0.9c-0.2-0.7,0.1-1.3,0.8-1.6l8.9-2.9c0.7-0.2,1.4,0.1,1.6,0.8
	c0.2,0.7-0.1,1.3-0.8,1.6l-8.9,2.9C174.7,52.1,174.6,52.1,174.5,52.1"/>
<path class="st0" d="M107.8,48l8.9,2.9L107.8,48z"/>
<path class="st0" d="M116.7,52.1c-0.1,0-0.3,0-0.4-0.1l-8.9-2.9c-0.6-0.2-1-0.9-0.8-1.6c0.2-0.7,0.9-1,1.6-0.8l8.9,2.9
	c0.6,0.2,1,0.9,0.8,1.6C117.7,51.8,117.2,52.1,116.7,52.1"/>
<path class="st0" d="M122.7,30.6l4.8,7.9L122.7,30.6z"/>
<path class="st0" d="M127.6,39.7c-0.4,0-0.8-0.2-1.1-0.6l-4.8-7.9c-0.4-0.6-0.2-1.3,0.4-1.7c0.6-0.4,1.3-0.2,1.7,0.4l4.8,7.9
	c0.4,0.6,0.2,1.3-0.4,1.7C128,39.6,127.8,39.7,127.6,39.7"/>
<path class="st0" d="M145.6,23.9l0.2,9.2L145.6,23.9z"/>
<path class="st0" d="M145.8,34.4c-0.7,0-1.2-0.5-1.2-1.2l-0.2-9.2c0-0.7,0.5-1.3,1.2-1.3s1.3,0.5,1.3,1.2l0.2,9.2
	C147.1,33.8,146.5,34.4,145.8,34.4L145.8,34.4"/>
<path class="st0" d="M160.8,110.6l0.1-13.5l-2.2-1.3l-0.2,0.5c-0.1,0.1-0.1,0.3-0.1,0.5l-0.1,13.9L160.8,110.6L160.8,110.6z"/>
<path class="st0" d="M130.4,97.4v12c0,0.7,0.6,1.2,1.2,1.2s1.2-0.6,1.2-1.2V96.7c0-0.6-0.3-1.2-0.7-1.6c-1.2-1-7-6.4-6.5-16.1v-2.8
	l0,0l-2-1.6l-0.4,0.8c-0.1,0.2-0.1,0.3-0.1,0.5v3c-0.6,9.7,4.8,15.7,6.8,17.6C130.2,96.7,130.4,97.1,130.4,97.4"/>
</svg>
