<?xml version="1.0" encoding="utf-8"?>
<!-- Generator: Adobe Illustrator 23.0.6, SVG Export Plug-In . SVG Version: 6.00 Build 0)  -->
<svg version="1.1" id="Capa_1" xmlns="http://www.w3.org/2000/svg" xmlns:xlink="http://www.w3.org/1999/xlink" x="0px" y="0px"
	 viewBox="0 0 347.2 157.1" style="enable-background:new 0 0 347.2 157.1;" xml:space="preserve">
<style type="text/css">
	.st0{fill:#870037;}
	.st1{fill:none;stroke:#870037;stroke-width:2.293;stroke-linecap:round;stroke-linejoin:round;stroke-miterlimit:10;}
</style>
<g>
	<path class="st0" d="M23.1,112.3h7.2c2.4,0,4.2,0.5,5.5,1.6s1.9,2.7,1.9,4.8c0,2.2-0.6,3.9-1.8,5s-2.9,1.6-5.2,1.6h-2.9v5.2h-4.7
		C23.1,130.5,23.1,112.3,23.1,112.3z M30.3,121.3c0.8,0,1.5-0.2,1.9-0.7s0.6-1.1,0.6-1.8c0-0.8-0.2-1.4-0.7-1.8s-1.2-0.6-2-0.6h-2.3
		v5L30.3,121.3L30.3,121.3z"/>
	<path class="st0" d="M56.4,126.4l-1.1,4.1h-1.9c-0.7,0-1.3-0.1-1.7-0.3s-0.8-0.6-1.3-1.2l-2.9-3.7c-0.2-0.3-0.4-0.5-0.6-0.6
		c-0.2-0.1-0.4-0.1-0.8-0.1h-1.3v5.8h-4.7v-18.3H48c2.3,0,4.1,0.5,5.2,1.4c1.2,1,1.7,2.5,1.7,4.7c0,1.2-0.3,2.3-0.8,3.3
		c-0.5,0.9-1.3,1.6-2.3,2.1l1.6,2c0.2,0.2,0.4,0.4,0.6,0.5c0.2,0.1,0.5,0.1,0.9,0.1h1.5V126.4z M49.6,120.2c0.4-0.4,0.7-0.9,0.7-1.7
		c0-0.8-0.2-1.4-0.7-1.7c-0.4-0.3-1.1-0.5-2-0.5h-2.8v4.5h2.8C48.5,120.7,49.2,120.5,49.6,120.2z"/>
	<path class="st0" d="M61.8,129.6c-1.4-0.8-2.6-1.8-3.4-3.3c-0.8-1.4-1.3-3.1-1.3-5s0.4-3.6,1.2-5s2-2.5,3.4-3.2s3-1.1,4.8-1.1
		s3.4,0.4,4.8,1.1c1.4,0.8,2.6,1.8,3.4,3.3c0.8,1.4,1.2,3.1,1.2,5s-0.4,3.6-1.2,5c-0.8,1.4-2,2.5-3.4,3.3c-1.4,0.7-3,1.1-4.8,1.1
		C64.8,130.8,63.3,130.4,61.8,129.6z M69,126c0.7-0.5,1.2-1.1,1.6-1.9s0.5-1.7,0.5-2.7s-0.2-1.9-0.6-2.7c-0.4-0.8-0.9-1.4-1.6-1.9
		s-1.5-0.7-2.4-0.7c-1.4,0-2.5,0.5-3.3,1.5s-1.2,2.3-1.2,3.8c0,1,0.2,1.9,0.5,2.7c0.4,0.8,0.9,1.4,1.6,1.9s1.5,0.7,2.4,0.7
		C67.5,126.7,68.3,126.4,69,126z"/>
	<path class="st0" d="M78.3,112.3h4.1l5.9,11.1h0.2l5.8-11.1h4v18.3h-4.6v-8.2l-3.5,6h-3.7l-3.6-6.4v8.5h-4.6
		C78.3,130.5,78.3,112.3,78.3,112.3z"/>
	<path class="st0" d="M105.3,129.6c-1.4-0.8-2.6-1.8-3.4-3.3c-0.8-1.4-1.3-3.1-1.3-5s0.4-3.6,1.2-5c0.8-1.4,2-2.5,3.4-3.2
		s3-1.1,4.8-1.1s3.4,0.4,4.8,1.1c1.4,0.8,2.6,1.8,3.4,3.3c0.8,1.4,1.2,3.1,1.2,5s-0.4,3.6-1.2,5c-0.8,1.4-2,2.5-3.4,3.3
		c-1.4,0.7-3,1.1-4.8,1.1C108.3,130.8,106.7,130.4,105.3,129.6z M112.5,126c0.7-0.5,1.2-1.1,1.6-1.9s0.5-1.7,0.5-2.7
		s-0.2-1.9-0.6-2.7c-0.4-0.8-0.9-1.4-1.6-1.9s-1.5-0.7-2.4-0.7c-1.4,0-2.5,0.5-3.3,1.5s-1.2,2.3-1.2,3.8c0,1,0.2,1.9,0.5,2.7
		c0.4,0.8,0.9,1.4,1.6,1.9s1.5,0.7,2.4,0.7C111,126.7,111.8,126.4,112.5,126z"/>
	<path class="st0" d="M125.6,116.3h-5.3v-4.1h15.8l-1,4.1h-4.7v14.2h-4.8C125.6,130.5,125.6,116.3,125.6,116.3z"/>
	<path class="st0" d="M141.1,129.6c-1.4-0.8-2.6-1.8-3.4-3.3c-0.8-1.4-1.3-3.1-1.3-5s0.4-3.6,1.2-5s2-2.5,3.4-3.2s3-1.1,4.8-1.1
		s3.4,0.4,4.8,1.1c1.4,0.8,2.6,1.8,3.4,3.3c0.8,1.4,1.2,3.1,1.2,5s-0.4,3.6-1.2,5s-2,2.5-3.4,3.3c-1.4,0.7-3,1.1-4.8,1.1
		C144.1,130.8,142.5,130.4,141.1,129.6z M148.3,126c0.7-0.5,1.2-1.1,1.6-1.9c0.4-0.8,0.5-1.7,0.5-2.7s-0.2-1.9-0.6-2.7
		c-0.4-0.8-0.9-1.4-1.6-1.9c-0.7-0.5-1.5-0.7-2.4-0.7c-1.4,0-2.5,0.5-3.3,1.5s-1.2,2.3-1.2,3.8c0,1,0.2,1.9,0.5,2.7
		c0.4,0.8,0.9,1.4,1.6,1.9s1.5,0.7,2.4,0.7C146.8,126.7,147.6,126.4,148.3,126z"/>
	<path class="st0" d="M173.9,126.4l-1.1,4.1h-1.9c-0.7,0-1.3-0.1-1.7-0.3s-0.8-0.6-1.3-1.2l-2.9-3.7c-0.2-0.3-0.4-0.5-0.6-0.6
		c-0.2-0.1-0.4-0.1-0.8-0.1h-1.3v5.8h-4.7v-18.3h7.9c2.3,0,4.1,0.5,5.2,1.4c1.2,1,1.7,2.5,1.7,4.7c0,1.2-0.3,2.3-0.8,3.3
		c-0.5,0.9-1.3,1.6-2.3,2.1l1.6,2c0.2,0.2,0.4,0.4,0.6,0.5c0.2,0.1,0.5,0.1,0.9,0.1h1.5V126.4z M167,120.2c0.4-0.4,0.7-0.9,0.7-1.7
		c0-0.8-0.2-1.4-0.7-1.7c-0.4-0.3-1.1-0.5-2-0.5h-2.8v4.5h2.8C165.9,120.7,166.6,120.5,167,120.2z"/>
	<path class="st0" d="M181.6,112.3h7.1c1.7,0,3.1,0.2,4.3,0.5s2.2,0.8,3,1.5s1.5,1.7,1.9,2.8c0.4,1.2,0.6,2.6,0.6,4.2
		c0,1.5-0.2,2.9-0.7,4.1s-1.1,2.2-2,3c-1.6,1.5-3.7,2.2-6.5,2.2h-7.8L181.6,112.3L181.6,112.3z M188.7,126.5c1.6,0,2.8-0.4,3.6-1.3
		c0.9-0.9,1.4-2.2,1.4-4c0-1-0.1-1.8-0.3-2.4c-0.2-0.7-0.5-1.2-0.9-1.6c-0.7-0.7-1.9-1-3.4-1h-2.8v10.3H188.7z"/>
	<path class="st0" d="M200.9,112.3h13.3l-1,4.1h-7.6v3.2h6.8l-0.2,4h-6.6v2.9h8.6l-1,4.1h-12.4L200.9,112.3L200.9,112.3z"/>
	<path class="st0" d="M226,129.5c-1.5-0.8-2.6-1.9-3.3-3.3s-1.1-3-1.1-4.7c0-1.9,0.4-3.5,1.2-5c0.8-1.4,2-2.6,3.5-3.3
		c1.5-0.8,3.2-1.2,5.2-1.2c1.9,0,3.4,0.2,4.6,0.5l-0.4,4.1c-0.4-0.1-1-0.2-1.8-0.3c-0.8-0.1-1.5-0.1-2.3-0.1c-1,0-1.9,0.2-2.7,0.6
		s-1.4,1-1.9,1.7c-0.5,0.8-0.7,1.7-0.7,2.9c0,1.7,0.5,3,1.4,3.9s2.3,1.4,4,1.4c1.4,0,2.8-0.1,4.1-0.4l0.3,4c-0.5,0.2-1.2,0.3-2,0.4
		c-0.8,0.1-1.7,0.1-2.6,0.1C229.4,130.8,227.5,130.4,226,129.5z"/>
	<path class="st0" d="M245.4,112.3h4.5l7.3,18.3h-5l-1.1-3.1h-6.8l-1.1,3.1H238L245.4,112.3z M249.5,123.4l-1.8-5.1h-0.3l-1.8,5.1
		H249.5z"/>
	<path class="st0" d="M259,112.3h4.1l5.9,11.1h0.2l5.8-11.1h4v18.3h-4.6v-8.2l-3.5,6h-3.7l-3.6-6.4v8.5H259V112.3z"/>
	<path class="st0" d="M281.9,112.3h7.3c2.2,0,3.9,0.4,4.9,1.1s1.6,2,1.6,3.7c0,0.8-0.2,1.6-0.7,2.2c-0.4,0.6-1.1,1.1-1.9,1.4v0.1
		c1.1,0.2,2,0.7,2.6,1.6c0.7,0.8,1,1.8,1,2.8c0,1.9-0.6,3.3-1.8,4.2c-1.2,0.8-3,1.3-5.3,1.3h-7.8L281.9,112.3L281.9,112.3z
		 M289.1,119.4c0.6,0,1.1-0.1,1.5-0.4c0.3-0.3,0.5-0.7,0.5-1.2c0-0.6-0.2-1-0.5-1.2s-0.8-0.3-1.4-0.3h-2.5v3.2L289.1,119.4
		L289.1,119.4z M289.6,126.5c0.9,0,1.5-0.1,1.9-0.4s0.6-0.7,0.6-1.3c0-0.6-0.2-1-0.6-1.3s-1.1-0.4-2.1-0.4h-2.6v3.5L289.6,126.5
		L289.6,126.5z"/>
	<path class="st0" d="M298.9,112.3h4.7v18.3h-4.7V112.3z"/>
	<path class="st0" d="M310.6,129.6c-1.4-0.8-2.6-1.8-3.4-3.3c-0.8-1.4-1.3-3.1-1.3-5s0.4-3.6,1.2-5c0.8-1.4,2-2.5,3.4-3.2
		s3-1.1,4.8-1.1s3.4,0.4,4.8,1.1c1.4,0.8,2.6,1.8,3.4,3.3c0.8,1.4,1.2,3.1,1.2,5s-0.4,3.6-1.2,5c-0.8,1.4-2,2.5-3.4,3.3
		c-1.4,0.7-3,1.1-4.8,1.1C313.6,130.8,312.1,130.4,310.6,129.6z M317.8,126c0.7-0.5,1.2-1.1,1.6-1.9s0.5-1.7,0.5-2.7
		s-0.2-1.9-0.6-2.7c-0.4-0.8-0.9-1.4-1.6-1.9s-1.5-0.7-2.4-0.7c-1.4,0-2.5,0.5-3.3,1.5s-1.2,2.3-1.2,3.8c0,1,0.2,1.9,0.5,2.7
		c0.4,0.8,0.9,1.4,1.6,1.9s1.5,0.7,2.4,0.7C316.3,126.7,317.1,126.4,317.8,126z"/>
</g>
<path class="st1" d="M191.5,74.5c-3.4,7.1-10.7,12-19.1,12l0,0v-5.8l-10.3,11.9l10.3,11.9V99l0,0c13.5,0,25.2-8,30.6-19.5
	L191.5,74.5z"/>
<path class="st1" d="M172.4,44.2v5.2l10.3-11.9l-10.3-11.9v6c-13.9,0-25.8,8.4-31,20.4l11.5,5.2C156.1,49.6,163.6,44.2,172.4,44.2z"
	/>
<path class="st1" d="M151.2,65.4C151.2,65.4,151.2,65.3,151.2,65.4l5.5-0.1l-12-10.2l-11.8,10.4l5.7-0.1c0,13.7,8.3,25.6,20.1,30.8
	l5.2-11.5C156.4,81.5,151.2,74,151.2,65.4z"/>
<path class="st1" d="M214.3,69.5L209,54.6l-2,5.1c-7.8-3.1-12.7-10.5-13.2-18.4L181.2,42c0.7,12.7,8.6,24.4,21.2,29.4l-2.1,5.3
	L214.3,69.5z"/>
</svg>
