<?xml version="1.0" encoding="utf-8"?>
<!-- Generator: Adobe Illustrator 23.0.6, SVG Export Plug-In . SVG Version: 6.00 Build 0)  -->
<svg version="1.1" id="Capa_1" xmlns="http://www.w3.org/2000/svg" xmlns:xlink="http://www.w3.org/1999/xlink" x="0px" y="0px"
	 viewBox="0 0 347.9 157.1" style="enable-background:new 0 0 347.9 157.1;" xml:space="preserve">
<style type="text/css">
	.st0{enable-background:new    ;}
	.st1{fill:#870037;}
	.st2{fill:none;stroke:#870037;stroke-width:2.357;stroke-linecap:round;stroke-linejoin:round;stroke-miterlimit:10;}
</style>
<g class="st0">
	<path class="st1" d="M56.8,129.6c-1.5-0.8-2.6-1.9-3.3-3.3s-1.1-3-1.1-4.7c0-1.9,0.4-3.5,1.2-5c0.8-1.4,2-2.6,3.5-3.3
		c1.5-0.8,3.2-1.2,5.2-1.2c1.9,0,3.4,0.2,4.6,0.5l-0.4,4.1c-0.4-0.1-1-0.2-1.8-0.3c-0.8-0.1-1.5-0.1-2.3-0.1c-1,0-1.9,0.2-2.7,0.6
		c-0.8,0.4-1.4,1-1.9,1.7c-0.5,0.8-0.7,1.7-0.7,2.9c0,1.7,0.5,3,1.4,3.9c0.9,0.9,2.3,1.4,4,1.4c1.4,0,2.8-0.1,4.1-0.4l0.3,4
		c-0.5,0.2-1.2,0.3-2,0.4c-0.8,0.1-1.7,0.1-2.6,0.1C60.2,130.8,58.3,130.4,56.8,129.6z"/>
</g>
<g class="st0">
	<path class="st1" d="M69.3,126.5v-14.2H74v12.5c0,0.7,0.1,1.1,0.4,1.3c0.3,0.2,0.7,0.3,1.4,0.3h5.8l-1,4.1H73
		C70.6,130.6,69.3,129.2,69.3,126.5z"/>
</g>
<g class="st0">
	<path class="st1" d="M90.2,112.3h4.5l7.3,18.3h-5l-1.1-3.1H89l-1.1,3.1h-5.2L90.2,112.3z M94.3,123.4l-1.8-5.1h-0.3l-1.8,5.1H94.3z
		"/>
</g>
<g class="st0">
	<path class="st1" d="M120.1,126.5l-1.1,4.1H117c-0.7,0-1.3-0.1-1.7-0.3c-0.4-0.2-0.8-0.6-1.3-1.2l-2.9-3.7
		c-0.2-0.3-0.4-0.5-0.6-0.6c-0.2-0.1-0.4-0.1-0.8-0.1h-1.3v5.8h-4.7v-18.3h7.9c2.3,0,4.1,0.5,5.2,1.4c1.2,1,1.7,2.5,1.7,4.7
		c0,1.2-0.3,2.3-0.8,3.3s-1.3,1.6-2.3,2.1l1.6,2c0.2,0.2,0.4,0.4,0.6,0.5s0.5,0.1,0.9,0.1H120.1z M113.2,120.2
		c0.4-0.4,0.7-0.9,0.7-1.7c0-0.8-0.2-1.4-0.7-1.7s-1.1-0.5-2-0.5h-2.8v4.5h2.8C112.2,120.8,112.8,120.6,113.2,120.2z"/>
</g>
<g class="st0">
	<path class="st1" d="M125.4,129.7c-1.4-0.8-2.6-1.8-3.4-3.3c-0.8-1.4-1.3-3.1-1.3-5c0-1.9,0.4-3.6,1.2-5c0.8-1.4,2-2.5,3.4-3.2
		c1.4-0.7,3-1.1,4.8-1.1c1.8,0,3.4,0.4,4.8,1.1c1.4,0.8,2.6,1.8,3.4,3.3c0.8,1.4,1.2,3.1,1.2,5c0,1.9-0.4,3.6-1.2,5
		c-0.8,1.4-2,2.5-3.4,3.3c-1.4,0.7-3,1.1-4.8,1.1C128.4,130.8,126.8,130.5,125.4,129.7z M132.6,126c0.7-0.5,1.2-1.1,1.6-1.9
		c0.4-0.8,0.5-1.7,0.5-2.7c0-1-0.2-1.9-0.6-2.7c-0.4-0.8-0.9-1.4-1.6-1.9c-0.7-0.5-1.5-0.7-2.4-0.7c-1.4,0-2.5,0.5-3.3,1.5
		c-0.8,1-1.2,2.3-1.2,3.8c0,1,0.2,1.9,0.5,2.7c0.4,0.8,0.9,1.4,1.6,1.9s1.5,0.7,2.4,0.7C131.1,126.7,131.9,126.5,132.6,126z"/>
</g>
<g class="st0">
	<path class="st1" d="M153.5,124.3l-6.8-12h5.5l3.8,7.1h0.1l3.8-7.1h5.3l-6.8,12v6.2h-4.7V124.3z"/>
</g>
<g class="st0">
	<path class="st1" d="M171.7,112.3h5.4l4.4,11.3h0.3l3.9-11.3h5.5l-7.6,18.3h-4L171.7,112.3z"/>
</g>
<g class="st0">
	<path class="st1" d="M196.1,112.3h4.5l7.3,18.3h-5l-1.1-3.1h-6.8l-1.1,3.1h-5.2L196.1,112.3z M200.2,123.4l-1.8-5.1h-0.3l-1.8,5.1
		H200.2z"/>
</g>
<g class="st0">
	<path class="st1" d="M209.2,126.5v-14.2h4.7v12.5c0,0.7,0.1,1.1,0.4,1.3c0.3,0.2,0.7,0.3,1.4,0.3h5.8l-1,4.1h-7.5
		C210.5,130.6,209.2,129.2,209.2,126.5z"/>
	<path class="st1" d="M223.5,112.3h4.7v18.3h-4.7V112.3z"/>
</g>
<g class="st0">
	<path class="st1" d="M231.3,112.3h13.3l-1,4.1H236v3.2h6.8l-0.2,4H236v2.9h8.6l-1,4.1h-12.4V112.3z"/>
	<path class="st1" d="M246.7,112.3h3.2l8.5,9.9v-9.9h4.4v18.3h-3.1l-8.6-10.2v10.2h-4.4V112.3z"/>
</g>
<g class="st0">
	<path class="st1" d="M270.2,116.4h-5.3v-4.1h15.8l-1,4.1H275v14.2h-4.8V116.4z"/>
	<path class="st1" d="M282.5,112.3h13.3l-1,4.1h-7.6v3.2h6.8l-0.2,4h-6.6v2.9h8.6l-1,4.1h-12.4V112.3z"/>
</g>
<path class="st2" d="M192.7,97.6c4-1.4,8-3.3,12.1-5.7c-6.6-1.7-10.6-6.7-13.1-12.4"/>
<path class="st2" d="M159.9,76.4c-2.3,6.9-6.5,13.5-14.3,15.5c3.9,2.6,7.8,4.6,11.9,6.1"/>
<path class="st1" d="M175.5,29.4c6.4,0,11.5,5.2,11.5,11.5c0,4.1-2.1,7.6-5.3,9.7c6.4,1.5,10,5.3,13.1,8.4c1.7,1.7,3.3,3.4,5.2,4.6
	c3.5,2.2,10.3,2.7,15.5,2.7c2.3,0,4.3-0.1,5.5-0.2c0.1,0,0.3,0,0.4,0c2,0,3.6,1.5,3.8,3.5c0.2,2.1-1.4,4-3.5,4.2
	c-0.7,0.1-3.2,0.3-6.5,0.3c-5.9,0-14.3-0.7-19.5-4c-2.7-1.7-4.7-3.8-6.6-5.7c-0.3-0.3-0.7-0.7-1-1l2.8,38.3h-15.6h-15.6l2.8-38.3
	c-0.3,0.3-0.7,0.7-1,1c-1.9,2-3.9,4-6.6,5.7c-5.2,3.3-13.6,4-19.5,4c-3.3,0-5.8-0.2-6.5-0.3c-2.1-0.2-3.7-2.1-3.5-4.2
	c0.2-2,1.9-3.5,3.8-3.5c0.1,0,0.2,0,0.4,0c1.3,0.1,3.3,0.2,5.7,0.2c5.2,0,11.9-0.5,15.4-2.8c1.9-1.2,3.5-2.9,5.2-4.6
	c3-3.2,6.7-6.9,13.1-8.4c-3.2-2.1-5.3-5.6-5.3-9.7C164,34.6,169.1,29.4,175.5,29.4 M175.5,27.1c-7.7,0-13.9,6.2-13.9,13.9
	c0,3.2,1.1,6.3,3.1,8.7c-4.7,2-7.7,5.2-10.2,7.8c-1.6,1.6-3.1,3.2-4.7,4.2c-2.4,1.5-7.5,2.4-14.1,2.4c-1.9,0-4-0.1-5.5-0.2
	c-0.2,0-0.4,0-0.6,0c-3.2,0-5.9,2.4-6.2,5.6c-0.3,3.4,2.2,6.5,5.6,6.8c0.7,0.1,3.3,0.3,6.7,0.3c6.4,0,15.1-0.8,20.7-4.4
	c1.3-0.8,2.4-1.7,3.5-2.6l-2.4,32c0,0.7,0.2,1.3,0.6,1.8c0.4,0.5,1.1,0.8,1.7,0.8h15.6H191c0.7,0,1.3-0.3,1.7-0.8s0.7-1.1,0.6-1.8
	l-2.4-32c1,0.9,2.2,1.8,3.5,2.6c5.6,3.6,14.4,4.4,20.7,4.4c3.4,0,6-0.2,6.7-0.3c3.4-0.3,5.9-3.4,5.6-6.8c-0.3-3.2-3-5.6-6.2-5.6
	c-0.2,0-0.4,0-0.6,0c-0.5,0-2.5,0.2-5.3,0.2c-6.7,0-11.9-0.9-14.3-2.4c-1.7-1.1-3.2-2.6-4.7-4.2c-2.5-2.6-5.6-5.8-10.2-7.8
	c2-2.4,3.1-5.5,3.1-8.7C189.4,33.3,183.2,27.1,175.5,27.1"/>
</svg>
