<?xml version="1.0" encoding="utf-8"?>
<!-- Generator: Adobe Illustrator 23.0.6, SVG Export Plug-In . SVG Version: 6.00 Build 0)  -->
<svg version="1.1" id="Capa_1" xmlns="http://www.w3.org/2000/svg" xmlns:xlink="http://www.w3.org/1999/xlink" x="0px" y="0px"
	 viewBox="0 0 530.2 529.1" style="enable-background:new 0 0 530.2 529.1;" xml:space="preserve">
<style type="text/css">
	.st0{fill:#870037;}
	.st1{font-family:'ColgateReady-Light';}
	.st2{font-size:36px;}
	.st3{letter-spacing:1;}
	.st4{fill:#FFFFFF;}
	.st5{fill:#BE1E2D;}
	.st6{fill:#FF2C46;}
	.st7{fill:#FEC61E;}
	.st8{fill:#FEE37C;}
	.st9{fill:#FE8B00;}
	.st10{fill:#FEBE01;}
</style>
<g>
	<text transform="matrix(1 0 0 1 82.1322 253.4368)"><tspan x="0" y="0" class="st0 st1 st2 st3">S</tspan><tspan x="21.3" y="0" class="st0 st1 st2 st3">o</tspan><tspan x="44.7" y="0" class="st0 st1 st2 st3">mo</tspan><tspan x="102.2" y="0" class="st0 st1 st2 st3">s</tspan><tspan x="119.8" y="0" class="st0 st1 st2 st3"> imp</tspan><tspan x="197.1" y="0" class="st0 st1 st2 st3">u</tspan><tspan x="219.6" y="0" class="st0 st1 st2 st3">l</tspan><tspan x="229.6" y="0" class="st0 st1 st2 st3">s</tspan><tspan x="247.2" y="0" class="st0 st1 st2 st3">a</tspan><tspan x="268.4" y="0" class="st0 st1 st2">d</tspan><tspan x="291.8" y="0" class="st0 st1 st2 st3">o</tspan><tspan x="315.2" y="0" class="st0 st1 st2">r</tspan><tspan x="328.6" y="0" class="st0 st1 st2 st3">e</tspan><tspan x="349.8" y="0" class="st0 st1 st2">s</tspan></text>
	<text transform="matrix(1 0 0 1 74.2123 294.4407)"><tspan x="0" y="0" class="st0 st1 st2">d</tspan><tspan x="23.4" y="0" class="st0 st1 st2 st3">e c</tspan><tspan x="73.8" y="0" class="st0 st1 st2 st3">a</tspan><tspan x="95" y="0" class="st0 st1 st2 st3">mbi</tspan><tspan x="162.7" y="0" class="st0 st1 st2 st3">os</tspan><tspan x="203.7" y="0" class="st0 st1 st2 st3"> po</tspan><tspan x="260.5" y="0" class="st0 st1 st2 st3">s</tspan><tspan x="278" y="0" class="st0 st1 st2 st3">i</tspan><tspan x="288" y="0" class="st0 st1 st2 st3">t</tspan><tspan x="302.3" y="0" class="st0 st1 st2 st3">i</tspan><tspan x="312.3" y="0" class="st0 st1 st2">v</tspan><tspan x="332.4" y="0" class="st0 st1 st2 st3">os</tspan><tspan x="373.4" y="0" class="st0 st1 st2">,</tspan></text>
	<text transform="matrix(1 0 0 1 92.932 335.4446)"><tspan x="0" y="0" class="st0 st1 st2">r</tspan><tspan x="13.3" y="0" class="st0 st1 st2 st3">e</tspan><tspan x="34.6" y="0" class="st0 st1 st2 st3">c</tspan><tspan x="54" y="0" class="st0 st1 st2 st3">on</tspan><tspan x="100.1" y="0" class="st0 st1 st2 st3">o</tspan><tspan x="123.6" y="0" class="st0 st1 st2 st3">c</tspan><tspan x="142.9" y="0" class="st0 st1 st2 st3">e</tspan><tspan x="164.2" y="0" class="st0 st1 st2">d</tspan><tspan x="187.6" y="0" class="st0 st1 st2 st3">o</tspan><tspan x="211" y="0" class="st0 st1 st2">r</tspan><tspan x="224.3" y="0" class="st0 st1 st2 st3">e</tspan><tspan x="245.6" y="0" class="st0 st1 st2 st3">s</tspan><tspan x="263.2" y="0" class="st0 st1 st2 st3"> </tspan><tspan x="272.5" y="0" class="st0 st1 st2">d</tspan><tspan x="296" y="0" class="st0 st1 st2 st3">el </tspan><tspan x="336.5" y="0" class="st0 st1 st2"> </tspan></text>
	<text transform="matrix(1 0 0 1 83.3925 376.4485)"><tspan x="0" y="0" class="st0 st1 st2 st3">li</tspan><tspan x="19.9" y="0" class="st0 st1 st2">d</tspan><tspan x="43.4" y="0" class="st0 st1 st2 st3">e</tspan><tspan x="64.7" y="0" class="st0 st1 st2">r</tspan><tspan x="77.8" y="0" class="st0 st1 st2">a</tspan><tspan x="98.6" y="0" class="st0 st1 st2">z</tspan><tspan x="117.7" y="0" class="st0 st1 st2 st3">g</tspan><tspan x="141.4" y="0" class="st0 st1 st2 st3">o</tspan><tspan x="164.8" y="0" class="st0 st1 st2 st3"> </tspan><tspan x="174.1" y="0" class="st0 st1 st2 st3">y</tspan><tspan x="194.5" y="0" class="st0 st1 st2 st3"> ejemp</tspan><tspan x="314.4" y="0" class="st0 st1 st2">l</tspan><tspan x="323.8" y="0" class="st0 st1 st2 st3">o</tspan><tspan x="347.2" y="0" class="st0 st1 st2">s</tspan></text>
	<text transform="matrix(1 0 0 1 136.7802 417.4529)"><tspan x="0" y="0" class="st0 st1 st2">d</tspan><tspan x="23.4" y="0" class="st0 st1 st2 st3">e i</tspan><tspan x="64" y="0" class="st0 st1 st2 st3">ns</tspan><tspan x="104.3" y="0" class="st0 st1 st2 st3">pi</tspan><tspan x="138.3" y="0" class="st0 st1 st2">r</tspan><tspan x="151.4" y="0" class="st0 st1 st2 st3">a</tspan><tspan x="172.7" y="0" class="st0 st1 st2 st3">ci</tspan><tspan x="202.4" y="0" class="st0 st1 st2 st3">รณ</tspan><tspan x="225.8" y="0" class="st0 st1 st2 st3">n</tspan><tspan x="248.5" y="0" class="st0 st1 st2">.</tspan></text>
</g>
<g>
	<g>
		<path class="st4" d="M110.3,454.5c-15.1,0-29.7-4-43.7-11.9l3.3-5.9c22,12.4,45.6,14.3,70.1,5.6l2.3,6.4
			C131.5,452.6,120.8,454.5,110.3,454.5z"/>
	</g>
	<g>
		<path class="st4" d="M88.1,398.6c-28.4,0-52.1-10.5-70.6-31.3l5.3-4.6c17.3,19.4,39.6,29.2,66.3,28.9c0,0,0,0,0,0l0.1,7
			C88.9,398.6,88.4,398.6,88.1,398.6z"/>
	</g>
	<g>
		<path class="st4" d="M56,334.6c-26.6-8.9-45.4-26.1-56-51.3l6.3-2.6c9.8,23.3,27.2,39.3,51.9,47.5L56,334.6z"/>
	</g>
	<g>
		<path class="st4" d="M45,262.9c-22.3-17-34.5-39.5-36.3-66.7l6.8-0.4c1.7,25.2,13,46,33.6,61.8L45,262.9z"/>
	</g>
	<g>
		<path class="st4" d="M58,191.5c-15.5-23.3-19.8-48.5-12.6-74.9l6.5,1.8c-6.6,24.4-2.7,47.7,11.7,69.3L58,191.5z"/>
	</g>
	<g>
		<path class="st4" d="M93.4,128.1c-7.1-27.1-3-52.3,12.4-74.9l5.6,3.8c-14.2,20.9-18,44.3-11.4,69.4L93.4,128.1z"/>
	</g>
	<g>
		<path class="st4" d="M154.3,80.2l-6.8-0.5c2.1-27.9,14.2-50.4,36-66.9l4.1,5.4C167.4,33.5,156.2,54.3,154.3,80.2z"/>
	</g>
	<g>
		<path class="st4" d="M220.6,54.2l-6.2-2.7c11-25.8,29.8-43.1,55.8-51.5l2.1,6.5C248.2,14.3,230.8,30.3,220.6,54.2z"/>
	</g>
	<g>
		<path class="st4" d="M291.6,51.1l-5-4.6c18.8-20.8,42.1-31.1,69.5-30.6l-0.1,6.8C330.6,22.3,309,31.9,291.6,51.1z"/>
	</g>
	<g>
		<path class="st4" d="M360.1,71.3l-3.3-5.9c24.5-13.6,50-15.7,75.7-6.4l-2.3,6.4C406.4,56.7,382.9,58.8,360.1,71.3z"/>
	</g>
	<g>
		<path class="st4" d="M486.4,129.7c-19.7-15.9-42.6-21.6-68.2-17.1l-1.2-6.7c27.6-4.9,52.4,1.4,73.7,18.5L486.4,129.7z"/>
	</g>
	<g>
		<path class="st4" d="M518.7,208.8c-13.5-21.4-33.3-34.3-59-38.3l1.1-6.7c27.7,4.4,49.1,18.3,63.7,41.4L518.7,208.8z"/>
	</g>
	<g>
		<path class="st4" d="M523.5,294.2c-5.8-24.6-20.4-43.2-43.3-55.4l3.2-6c24.8,13.1,40.5,33.2,46.8,59.8L523.5,294.2z"/>
	</g>
	<g>
		<path class="st4" d="M507.1,377.1l-6.8-0.7c2.5-25.2-5.2-47.5-23-66.5l5-4.6C501.5,325.8,509.8,349.9,507.1,377.1z"/>
	</g>
	<g>
		<path class="st4" d="M458,449.6l-6.2-2.8c10.5-23,10.5-46.6-0.2-70.3l6.2-2.8C469.3,399.2,469.3,424.7,458,449.6z"/>
	</g>
	<g>
		<path class="st4" d="M387.9,502.1l-4.9-4.7c17.4-18.3,25.1-40.7,22.7-66.6l6.8-0.6C415,458.2,406.8,482.3,387.9,502.1z"/>
	</g>
	<g>
		<path class="st4" d="M304.6,529.1l-3.1-6c22.4-11.7,36.9-30.4,43.1-55.6l6.6,1.6C344.5,496.3,328.8,516.5,304.6,529.1z"/>
	</g>
	<g>
		<path class="st4" d="M217.1,527.6l-1-6.7c25-3.7,44.8-16.7,58.8-38.6l5.7,3.7C265.4,509.5,244.1,523.5,217.1,527.6z"/>
	</g>
	<g>
		<path class="st4" d="M152.1,499.3c-5.7,0-11.5-0.5-17.4-1.6l1.2-6.7c24.9,4.6,47.8-1.3,68.1-17.4l4.2,5.3
			C191.2,492.5,172.4,499.3,152.1,499.3z"/>
	</g>
</g>
<g>
	<path class="st5" d="M227.6,137.4v54.5c0,6.4,3.4,12.3,8.8,15.7l9.4,5.7v-75.8H227.6z"/>
	<path class="st5" d="M284.2,137.4v75l12-7.8c5.2-3.3,8.3-9.1,8.3-15.3v-51.8H284.2z"/>
	<path class="st6" d="M245.9,137.4v75.8l7.8,4.7c6.8,4.1,15.4,4,22.1-0.3l8-5.2v-75H245.9z"/>
	<path class="st7" d="M265.5,53.6v20.8l12.7,12.7l-34.4,56.8l-14.4-32.4l-22.2,0.1v0c0,36.2,33.3,64.7,71.1,56.4
		c21.5-4.7,38.5-21.5,43.3-43c8.5-37.7-19.9-71.1-56.2-71.3"/>
	<path class="st8" d="M243.5,144L277.9,87l-12.7-12.7V53.6c-0.1,0-0.2,0-0.3,0c-32,0-57.9,25.9-57.9,57.9l22.2-0.1L243.5,144z"/>
	<path class="st9" d="M307.8,111.7c0,23.6-19.2,42.8-42.8,42.8c-23.6,0-42.8-19.2-42.8-42.8c0-23.6,19.2-42.8,42.8-42.8
		C288.7,68.8,307.8,88,307.8,111.7"/>
	<path class="st4" d="M244.4,82.9l1.1,2c0.1,0.1,0.2,0.3,0.3,0.3l2,1.1c0.6,0.3,0.6,1.2,0,1.5l-2,1.1c-0.1,0.1-0.3,0.2-0.3,0.3
		l-1.1,2c-0.3,0.6-1.2,0.6-1.5,0l-1.1-2c-0.1-0.1-0.2-0.3-0.3-0.3l-2-1.1c-0.6-0.3-0.6-1.2,0-1.5l2-1.1c0.1-0.1,0.3-0.2,0.3-0.3
		l1.1-2C243.3,82.4,244.1,82.4,244.4,82.9"/>
	<path class="st4" d="M298.5,119.4l1.1,2c0.1,0.1,0.2,0.3,0.3,0.3l2,1.1c0.6,0.3,0.6,1.2,0,1.5l-2,1.1c-0.1,0.1-0.3,0.2-0.3,0.3
		l-1.1,2c-0.3,0.6-1.2,0.6-1.5,0l-1.1-2c-0.1-0.1-0.2-0.3-0.3-0.3l-2-1.1c-0.6-0.3-0.6-1.2,0-1.5l2-1.1c0.1-0.1,0.3-0.2,0.3-0.3
		l1.1-2C297.3,118.8,298.2,118.8,298.5,119.4"/>
	<path class="st10" d="M292.2,109.9c3-2.9,1.3-8-2.8-8.6l-10.7-1.6c-1.7-0.2-3.2-1.3-4-2.9l-1.1-2.3l-25.9,42.9
		c1.5,1.3,3.7,1.7,5.7,0.7l9.6-5c1.6-0.8,3.4-0.8,4.9,0l9.6,5c3.7,1.9,8-1.2,7.3-5.3l-1.8-10.7c-0.3-1.7,0.3-3.5,1.5-4.7
		L292.2,109.9z"/>
	<path class="st8" d="M269.9,87.1c-1.9-3.7-7.2-3.7-9,0l-4.8,9.7c-0.8,1.6-2.3,2.7-4,2.9l-10.7,1.6c-4.1,0.6-5.8,5.7-2.8,8.6
		l7.8,7.6c1.2,1.2,1.8,3,1.5,4.7l-1.8,10.7c-0.3,1.9,0.4,3.6,1.7,4.6l25.9-42.9L269.9,87.1z"/>
</g>
</svg>
