<?xml version="1.0" encoding="utf-8"?>
<!-- Generator: Adobe Illustrator 23.0.6, SVG Export Plug-In . SVG Version: 6.00 Build 0)  -->
<svg version="1.1" id="Capa_1" xmlns="http://www.w3.org/2000/svg" xmlns:xlink="http://www.w3.org/1999/xlink" x="0px" y="0px"
	 viewBox="0 0 1080.1 230" style="enable-background:new 0 0 1080.1 230;" xml:space="preserve">
<style type="text/css">
	.st0{fill:#E50000;}
	.st1{fill:#FFF7EC;}
	.st2{fill:#FFFFFF;}
</style>
<rect x="0.1" class="st0" width="1080" height="230"/>
<g>
	<path class="st1" d="M178.7,54.5l-0.4,0.9h-0.6c-0.5,0-0.8-0.1-1.1-0.2c-0.3-0.1-0.6-0.5-0.9-0.9l-4-5.5c-0.1-0.2-0.3-0.3-0.4-0.4
		c-0.1,0-0.3-0.1-0.7-0.1h-2.9v7.1h-1V38.5h5.4c1.8,0,3.1,0.4,4.1,1.2c1,0.8,1.5,2,1.5,3.6c0,1.5-0.4,2.7-1.3,3.6
		c-0.9,0.8-2.1,1.3-3.7,1.4l4,5.6c0.2,0.3,0.4,0.5,0.6,0.6s0.4,0.2,0.6,0.2H178.7z M171.9,47.4c1.6,0,2.7-0.3,3.5-1
		c0.8-0.7,1.2-1.7,1.2-3c0-1.4-0.4-2.4-1.2-3c-0.8-0.6-1.9-0.9-3.4-0.9h-4.2v8H171.9z"/>
	<path class="st1" d="M182,54c-1.1-1.1-1.7-2.8-1.7-5.1c0-1.3,0.2-2.5,0.7-3.5c0.5-1,1.2-1.8,2.1-2.4s2-0.9,3.3-0.9
		c1.7,0,3,0.5,3.8,1.4c0.9,0.9,1.3,2.2,1.3,3.7c0,0.6,0,1.2-0.1,1.8h-10.1c0.1,1.9,0.5,3.3,1.3,4.3c0.8,1,2.2,1.5,4.1,1.5
		c0.5,0,1.2-0.1,1.9-0.3c0.7-0.2,1.3-0.4,1.9-0.7l0.3,0.8c-0.6,0.3-1.3,0.6-2,0.8s-1.5,0.3-2.3,0.3C184.6,55.6,183.1,55.1,182,54z
		 M190.4,48.2c0-0.3,0.1-0.6,0.1-0.9c0-1.3-0.3-2.3-1-3.1c-0.6-0.8-1.7-1.2-3.2-1.2s-2.7,0.5-3.5,1.5c-0.9,1-1.4,2.3-1.5,3.8H190.4z
		"/>
	<path class="st1" d="M196.9,54.8c-1-0.5-1.8-1.3-2.3-2.3c-0.6-1-0.8-2.2-0.8-3.6c0-1.4,0.3-2.6,0.9-3.6c0.6-1,1.4-1.8,2.4-2.4
		c1-0.5,2.1-0.8,3.4-0.8c0.7,0,1.4,0.1,2.1,0.2c0.7,0.1,1.2,0.3,1.7,0.6l-0.2,0.9c-1-0.6-2.2-0.9-3.6-0.9c-1.1,0-2.1,0.3-3,0.8
		s-1.5,1.2-1.9,2.1c-0.4,0.9-0.7,1.9-0.7,3.1c0,1,0.2,1.9,0.5,2.8c0.3,0.9,0.9,1.6,1.8,2.2c0.8,0.6,1.9,0.9,3.2,0.9
		c0.6,0,1.3-0.1,2-0.3c0.7-0.2,1.4-0.4,1.9-0.7l0.2,0.9c-0.6,0.3-1.3,0.6-2,0.7c-0.7,0.2-1.4,0.3-2.2,0.3
		C199.1,55.6,197.9,55.4,196.9,54.8z"/>
	<path class="st1" d="M209,54.7c-0.9-0.6-1.6-1.4-2.1-2.5c-0.5-1-0.7-2.1-0.7-3.4c0-1.2,0.2-2.4,0.7-3.4c0.5-1,1.2-1.8,2.2-2.5
		c1-0.6,2.2-0.9,3.6-0.9c1.3,0,2.4,0.3,3.3,0.9c0.9,0.6,1.6,1.4,2.1,2.5c0.5,1,0.7,2.2,0.7,3.4c0,1.2-0.2,2.3-0.7,3.3
		c-0.5,1-1.2,1.9-2.2,2.5c-1,0.6-2.2,1-3.6,1C211,55.6,209.9,55.3,209,54.7z M215.2,54c0.8-0.5,1.4-1.2,1.8-2.1
		c0.4-0.9,0.6-1.9,0.6-3.1c0-1.2-0.2-2.2-0.6-3.1c-0.4-0.9-1-1.6-1.8-2.1c-0.8-0.5-1.7-0.7-2.8-0.7c-1.1,0-2,0.2-2.8,0.7
		c-0.8,0.5-1.4,1.2-1.9,2.1c-0.4,0.9-0.7,1.9-0.7,3.1c0,1.2,0.2,2.2,0.7,3.1c0.4,0.9,1.1,1.6,1.9,2.1c0.8,0.5,1.7,0.7,2.7,0.7
		C213.5,54.8,214.4,54.5,215.2,54z"/>
	<path class="st1" d="M222.1,42.3h0.9l0.1,1.3c1.5-1,3.2-1.6,5.1-1.6c1.5,0,2.6,0.4,3.4,1.1c0.4,0.4,0.6,0.8,0.8,1.3
		s0.3,1.1,0.3,1.9v9h-1v-8.9c0-0.6-0.1-1.1-0.2-1.5c-0.1-0.4-0.3-0.8-0.6-1.1c-0.6-0.6-1.6-1-3-1c-0.9,0-1.7,0.1-2.5,0.4
		c-0.8,0.3-1.5,0.7-2.3,1.2v10.8h-1V42.3z"/>
	<path class="st1" d="M238.8,54.7c-0.9-0.6-1.6-1.4-2.1-2.5c-0.5-1-0.7-2.1-0.7-3.4c0-1.2,0.2-2.4,0.7-3.4c0.5-1,1.2-1.8,2.2-2.5
		c1-0.6,2.2-0.9,3.6-0.9c1.3,0,2.4,0.3,3.3,0.9c0.9,0.6,1.6,1.4,2.1,2.5c0.5,1,0.7,2.2,0.7,3.4c0,1.2-0.2,2.3-0.7,3.3
		c-0.5,1-1.2,1.9-2.2,2.5c-1,0.6-2.2,1-3.6,1C240.8,55.6,239.7,55.3,238.8,54.7z M245,54c0.8-0.5,1.4-1.2,1.8-2.1
		c0.4-0.9,0.6-1.9,0.6-3.1c0-1.2-0.2-2.2-0.6-3.1c-0.4-0.9-1-1.6-1.8-2.1c-0.8-0.5-1.7-0.7-2.8-0.7c-1.1,0-2,0.2-2.8,0.7
		c-0.8,0.5-1.4,1.2-1.9,2.1c-0.4,0.9-0.7,1.9-0.7,3.1c0,1.2,0.2,2.2,0.7,3.1c0.4,0.9,1.1,1.6,1.9,2.1c0.8,0.5,1.7,0.7,2.7,0.7
		C243.3,54.8,244.2,54.5,245,54z"/>
	<path class="st1" d="M254.2,54.8c-1-0.5-1.8-1.3-2.3-2.3c-0.6-1-0.8-2.2-0.8-3.6c0-1.4,0.3-2.6,0.9-3.6c0.6-1,1.4-1.8,2.4-2.4
		c1-0.5,2.1-0.8,3.4-0.8c0.7,0,1.4,0.1,2.1,0.2c0.7,0.1,1.2,0.3,1.7,0.6l-0.2,0.9c-1-0.6-2.2-0.9-3.6-0.9c-1.1,0-2.1,0.3-3,0.8
		s-1.5,1.2-1.9,2.1c-0.4,0.9-0.7,1.9-0.7,3.1c0,1,0.2,1.9,0.5,2.8c0.3,0.9,0.9,1.6,1.8,2.2c0.8,0.6,1.9,0.9,3.2,0.9
		c0.6,0,1.3-0.1,2-0.3c0.7-0.2,1.4-0.4,1.9-0.7l0.2,0.9c-0.6,0.3-1.3,0.6-2,0.7c-0.7,0.2-1.4,0.3-2.2,0.3
		C256.3,55.6,255.1,55.4,254.2,54.8z"/>
	<path class="st1" d="M265.1,54c-1.1-1.1-1.7-2.8-1.7-5.1c0-1.3,0.2-2.5,0.7-3.5c0.5-1,1.2-1.8,2.1-2.4s2-0.9,3.3-0.9
		c1.7,0,3,0.5,3.8,1.4c0.9,0.9,1.3,2.2,1.3,3.7c0,0.6,0,1.2-0.1,1.8h-10.1c0.1,1.9,0.5,3.3,1.3,4.3c0.8,1,2.2,1.5,4.1,1.5
		c0.5,0,1.2-0.1,1.9-0.3c0.7-0.2,1.3-0.4,1.9-0.7l0.3,0.8c-0.6,0.3-1.3,0.6-2,0.8s-1.5,0.3-2.3,0.3C267.7,55.6,266.2,55.1,265.1,54z
		 M273.5,48.2c0-0.3,0.1-0.6,0.1-0.9c0-1.3-0.3-2.3-1-3.1c-0.6-0.8-1.7-1.2-3.2-1.2s-2.7,0.5-3.5,1.5c-0.9,1-1.4,2.3-1.5,3.8H273.5z
		"/>
	<path class="st1" d="M283.9,54.6c-0.8-0.7-1.3-1.7-1.3-3c0-1,0.3-1.7,1-2.2c0.7-0.5,1.6-0.8,2.8-0.8h2.6c0.6,0,1.5,0,2.4,0.1V47
		c0-1.4-0.3-2.5-1-3.1c-0.6-0.7-1.6-1-2.9-1c-0.8,0-1.4,0.1-2,0.2c-0.6,0.1-1.2,0.3-1.8,0.5l-0.1-0.8c1.3-0.4,2.6-0.6,4.1-0.6
		c1.5,0,2.7,0.4,3.5,1.1c0.8,0.8,1.2,1.9,1.2,3.4v5.1c0,1.6,0,2.9,0,3.6h-0.8c-0.1-0.6-0.2-1.2-0.2-1.8h0c-0.4,0.6-0.9,1.1-1.6,1.5
		s-1.6,0.6-2.7,0.6C285.9,55.6,284.8,55.3,283.9,54.6z M290.4,53.8c0.8-0.7,1.1-1.6,1.1-2.9v-1.6h-5.3c-1.7,0-2.5,0.7-2.5,2.2
		c0,1,0.3,1.8,1,2.4c0.7,0.6,1.5,0.9,2.6,0.9C288.6,54.8,289.6,54.5,290.4,53.8z"/>
	<path class="st1" d="M303.1,54.6c-0.8-0.7-1.3-1.7-1.3-3c0-1,0.3-1.7,1-2.2c0.7-0.5,1.6-0.8,2.8-0.8h2.6c0.6,0,1.5,0,2.4,0.1V47
		c0-1.4-0.3-2.5-1-3.1c-0.6-0.7-1.6-1-2.9-1c-0.8,0-1.4,0.1-2,0.2c-0.6,0.1-1.2,0.3-1.8,0.5l-0.1-0.8c1.3-0.4,2.6-0.6,4.1-0.6
		c1.5,0,2.7,0.4,3.5,1.1c0.8,0.8,1.2,1.9,1.2,3.4v5.1c0,1.6,0,2.9,0,3.6h-0.8c-0.1-0.6-0.2-1.2-0.2-1.8h0c-0.4,0.6-0.9,1.1-1.6,1.5
		s-1.6,0.6-2.7,0.6C305,55.6,303.9,55.3,303.1,54.6z M309.5,53.8c0.8-0.7,1.1-1.6,1.1-2.9v-1.6h-5.3c-1.7,0-2.5,0.7-2.5,2.2
		c0,1,0.3,1.8,1,2.4c0.7,0.6,1.5,0.9,2.6,0.9C307.7,54.8,308.8,54.5,309.5,53.8z"/>
	<path class="st1" d="M316.1,37.4l1-0.3v18.3h-1V37.4z"/>
	<path class="st1" d="M324.3,61.2c-0.7-0.1-1.3-0.3-1.6-0.5l0.1-0.8c0.6,0.2,1.2,0.4,1.8,0.5c0.7,0.1,1.3,0.2,1.9,0.2
		c1.6,0,2.8-0.5,3.6-1.5c0.8-1,1.2-2.5,1.2-4.4v-1.2c-0.4,0.6-1.1,1.1-1.9,1.5c-0.8,0.4-1.7,0.6-2.7,0.6c-1.3,0-2.4-0.3-3.4-0.9
		c-1-0.6-1.7-1.4-2.3-2.4s-0.8-2.1-0.8-3.4c0-1.4,0.3-2.6,0.9-3.6c0.6-1,1.4-1.8,2.4-2.3c1-0.5,2.1-0.8,3.2-0.8s2.1,0.2,2.9,0.7
		c0.8,0.4,1.3,0.9,1.6,1.5l0.1-1.9h0.9v12.1c0,2.2-0.5,3.9-1.4,5.1c-0.9,1.2-2.3,1.8-4.3,1.8C325.8,61.4,325,61.3,324.3,61.2z
		 M329.3,54c0.8-0.4,1.4-1,1.9-1.7v-5.5c0-0.7-0.2-1.4-0.6-2s-0.9-1-1.6-1.4c-0.7-0.3-1.5-0.5-2.3-0.5c-1,0-1.9,0.2-2.7,0.7
		c-0.8,0.5-1.5,1.1-2,2.1c-0.5,0.9-0.8,2-0.8,3.2c0,1.1,0.2,2.1,0.7,3c0.5,0.9,1.1,1.5,1.9,2c0.8,0.5,1.7,0.7,2.7,0.7
		C327.7,54.7,328.5,54.4,329.3,54z"/>
	<path class="st1" d="M337.9,54.4c-1-0.8-1.5-2.1-1.5-3.8v-8.3h1v8.3c0,1.3,0.4,2.3,1.2,3c0.8,0.7,1.9,1.1,3.3,1.1
		c1.3,0,2.3-0.4,3-1.1c0.7-0.7,1-1.7,1-3v-8.3h1v8.3c0,1.5-0.5,2.7-1.4,3.6c-0.9,0.9-2.2,1.4-3.8,1.4
		C340.2,55.6,338.9,55.2,337.9,54.4z"/>
	<path class="st1" d="M351,39.6c-0.2-0.2-0.3-0.4-0.3-0.7s0.1-0.5,0.3-0.7c0.2-0.2,0.4-0.3,0.7-0.3c0.3,0,0.5,0.1,0.7,0.3
		c0.2,0.2,0.3,0.4,0.3,0.7s-0.1,0.5-0.3,0.7c-0.2,0.2-0.5,0.3-0.7,0.3C351.4,39.9,351.2,39.8,351,39.6z M351.2,42.3h1v13h-1V42.3z"
		/>
	<path class="st1" d="M357.4,54c-1.1-1.1-1.7-2.8-1.7-5.1c0-1.3,0.2-2.5,0.7-3.5c0.5-1,1.2-1.8,2.1-2.4s2-0.9,3.3-0.9
		c1.7,0,3,0.5,3.8,1.4c0.9,0.9,1.3,2.2,1.3,3.7c0,0.6,0,1.2-0.1,1.8h-10.1c0.1,1.9,0.5,3.3,1.3,4.3c0.8,1,2.2,1.5,4.1,1.5
		c0.5,0,1.2-0.1,1.9-0.3c0.7-0.2,1.3-0.4,1.9-0.7l0.3,0.8c-0.6,0.3-1.3,0.6-2,0.8s-1.5,0.3-2.3,0.3C360,55.6,358.5,55.1,357.4,54z
		 M365.8,48.2c0-0.3,0.1-0.6,0.1-0.9c0-1.3-0.3-2.3-1-3.1c-0.6-0.8-1.7-1.2-3.2-1.2s-2.7,0.5-3.5,1.5c-0.9,1-1.4,2.3-1.5,3.8H365.8z
		"/>
	<path class="st1" d="M370.1,42.3h0.9l0.1,1.3c1.5-1,3.2-1.6,5.1-1.6c1.5,0,2.6,0.4,3.4,1.1c0.4,0.4,0.6,0.8,0.8,1.3
		s0.3,1.1,0.3,1.9v9h-1v-8.9c0-0.6-0.1-1.1-0.2-1.5c-0.1-0.4-0.3-0.8-0.6-1.1c-0.6-0.6-1.6-1-3-1c-0.9,0-1.7,0.1-2.5,0.4
		c-0.8,0.3-1.5,0.7-2.3,1.2v10.8h-1V42.3z"/>
	<path class="st1" d="M400.5,53.3c-0.6,0.8-1.3,1.4-2.1,1.8s-1.8,0.6-2.9,0.6c-1.2,0-2.2-0.3-3.2-0.8c-0.9-0.5-1.7-1.3-2.2-2.3
		s-0.8-2.2-0.8-3.5c0-1.5,0.3-2.8,0.9-3.8c0.6-1,1.4-1.8,2.4-2.3c1-0.5,2-0.8,3-0.8c1.2,0,2.3,0.3,3.1,0.8c0.8,0.5,1.4,1.1,1.8,1.9
		l0.1-2.4h0.9v18.5l-1,0.3V53.3z M398.5,54c0.8-0.5,1.5-1.2,2-2.1v-4.6c0-0.7-0.2-1.4-0.6-2c-0.4-0.7-0.9-1.2-1.7-1.7
		c-0.7-0.4-1.5-0.6-2.5-0.6c-1,0-1.9,0.2-2.7,0.7c-0.8,0.5-1.5,1.2-2,2.1s-0.7,1.9-0.7,3.1c0,1.3,0.2,2.3,0.7,3.2s1.1,1.6,1.9,2
		c0.8,0.5,1.7,0.7,2.7,0.7C396.7,54.8,397.7,54.5,398.5,54z"/>
	<path class="st1" d="M407.2,54.4c-1-0.8-1.5-2.1-1.5-3.8v-8.3h1v8.3c0,1.3,0.4,2.3,1.2,3c0.8,0.7,1.9,1.1,3.3,1.1
		c1.3,0,2.3-0.4,3-1.1c0.7-0.7,1-1.7,1-3v-8.3h1v8.3c0,1.5-0.5,2.7-1.4,3.6c-0.9,0.9-2.2,1.4-3.8,1.4
		C409.5,55.6,408.2,55.2,407.2,54.4z"/>
	<path class="st1" d="M421.2,54c-1.1-1.1-1.7-2.8-1.7-5.1c0-1.3,0.2-2.5,0.7-3.5c0.5-1,1.2-1.8,2.1-2.4s2-0.9,3.3-0.9
		c1.7,0,3,0.5,3.8,1.4c0.9,0.9,1.3,2.2,1.3,3.7c0,0.6,0,1.2-0.1,1.8h-10.1c0.1,1.9,0.5,3.3,1.3,4.3c0.8,1,2.2,1.5,4.1,1.5
		c0.5,0,1.2-0.1,1.9-0.3c0.7-0.2,1.3-0.4,1.9-0.7l0.3,0.8c-0.6,0.3-1.3,0.6-2,0.8s-1.5,0.3-2.3,0.3C423.9,55.6,422.4,55.1,421.2,54z
		 M429.6,48.2c0-0.3,0.1-0.6,0.1-0.9c0-1.3-0.3-2.3-1-3.1c-0.6-0.8-1.7-1.2-3.2-1.2s-2.7,0.5-3.5,1.5c-0.9,1-1.4,2.3-1.5,3.8H429.6z
		"/>
	<path class="st1" d="M441.6,54.8c-1-0.5-1.8-1.3-2.3-2.3c-0.6-1-0.8-2.2-0.8-3.6c0-1.4,0.3-2.6,0.9-3.6c0.6-1,1.4-1.8,2.4-2.4
		c1-0.5,2.1-0.8,3.4-0.8c0.7,0,1.4,0.1,2.1,0.2c0.7,0.1,1.2,0.3,1.7,0.6l-0.2,0.9c-1-0.6-2.2-0.9-3.6-0.9c-1.1,0-2.1,0.3-3,0.8
		s-1.5,1.2-1.9,2.1c-0.4,0.9-0.7,1.9-0.7,3.1c0,1,0.2,1.9,0.5,2.8c0.3,0.9,0.9,1.6,1.8,2.2c0.8,0.6,1.9,0.9,3.2,0.9
		c0.6,0,1.3-0.1,2-0.3c0.7-0.2,1.4-0.4,1.9-0.7l0.2,0.9c-0.6,0.3-1.3,0.6-2,0.7c-0.7,0.2-1.4,0.3-2.2,0.3
		C443.7,55.6,442.6,55.4,441.6,54.8z"/>
	<path class="st1" d="M453.6,54.7c-0.9-0.6-1.6-1.4-2.1-2.5c-0.5-1-0.7-2.1-0.7-3.4c0-1.2,0.2-2.4,0.7-3.4c0.5-1,1.2-1.8,2.2-2.5
		c1-0.6,2.2-0.9,3.6-0.9c1.3,0,2.4,0.3,3.3,0.9c0.9,0.6,1.6,1.4,2.1,2.5c0.5,1,0.7,2.2,0.7,3.4c0,1.2-0.2,2.3-0.7,3.3
		c-0.5,1-1.2,1.9-2.2,2.5c-1,0.6-2.2,1-3.6,1C455.7,55.6,454.6,55.3,453.6,54.7z M459.9,54c0.8-0.5,1.4-1.2,1.8-2.1
		c0.4-0.9,0.6-1.9,0.6-3.1c0-1.2-0.2-2.2-0.6-3.1c-0.4-0.9-1-1.6-1.8-2.1c-0.8-0.5-1.7-0.7-2.8-0.7c-1.1,0-2,0.2-2.8,0.7
		c-0.8,0.5-1.4,1.2-1.9,2.1c-0.4,0.9-0.7,1.9-0.7,3.1c0,1.2,0.2,2.2,0.7,3.1c0.4,0.9,1.1,1.6,1.9,2.1c0.8,0.5,1.7,0.7,2.7,0.7
		C458.2,54.8,459.1,54.5,459.9,54z"/>
	<path class="st1" d="M466.8,42.3h0.9l0.1,1.3c1.5-1,3.2-1.6,5.1-1.6c1.5,0,2.6,0.4,3.4,1.1c0.4,0.4,0.6,0.8,0.8,1.3
		s0.3,1.1,0.3,1.9v9h-1v-8.9c0-0.6-0.1-1.1-0.2-1.5c-0.1-0.4-0.3-0.8-0.6-1.1c-0.6-0.6-1.6-1-3-1c-0.9,0-1.7,0.1-2.5,0.4
		c-0.8,0.3-1.5,0.7-2.3,1.2v10.8h-1V42.3z"/>
	<path class="st1" d="M488,55.3c-0.7-0.2-1.3-0.5-1.8-0.8l0.1-0.9c0.6,0.4,1.2,0.6,1.9,0.8c0.7,0.2,1.4,0.3,2.1,0.3
		c2.2,0,3.3-0.9,3.3-2.8c0-0.5-0.1-1-0.3-1.3s-0.5-0.6-0.9-0.8c-0.4-0.2-1-0.5-1.7-0.8c-1-0.4-1.8-0.8-2.4-1.1
		c-0.6-0.4-1-0.7-1.2-1.1c-0.3-0.4-0.4-0.9-0.4-1.5c0-1,0.4-1.8,1.1-2.4c0.7-0.6,1.8-0.9,3.1-0.9c0.6,0,1.2,0.1,1.7,0.2
		c0.6,0.1,1,0.3,1.4,0.4l-0.2,0.8c-1-0.4-2-0.6-3-0.6c-1,0-1.8,0.2-2.4,0.6c-0.5,0.4-0.8,1-0.8,1.8c0,0.6,0.2,1.1,0.6,1.5
		c0.4,0.4,1.2,0.8,2.4,1.3c0.9,0.4,1.6,0.7,2.2,1c0.5,0.3,0.9,0.7,1.3,1.1c0.3,0.5,0.5,1.1,0.5,1.8c0,1.1-0.4,2-1.2,2.7
		s-1.9,1-3.2,1C489.5,55.6,488.7,55.5,488,55.3z"/>
	<path class="st1" d="M499.4,54.4c-1-0.8-1.5-2.1-1.5-3.8v-8.3h1v8.3c0,1.3,0.4,2.3,1.2,3c0.8,0.7,1.9,1.1,3.3,1.1
		c1.3,0,2.3-0.4,3-1.1c0.7-0.7,1-1.7,1-3v-8.3h1v8.3c0,1.5-0.5,2.7-1.4,3.6c-0.9,0.9-2.2,1.4-3.8,1.4
		C501.7,55.6,500.4,55.2,499.4,54.4z"/>
	<path class="st1" d="M518.9,54c-1.1-1.1-1.7-2.8-1.7-5.1c0-1.3,0.2-2.5,0.7-3.5c0.5-1,1.2-1.8,2.1-2.4s2-0.9,3.3-0.9
		c1.7,0,3,0.5,3.8,1.4c0.9,0.9,1.3,2.2,1.3,3.7c0,0.6,0,1.2-0.1,1.8h-10.1c0.1,1.9,0.5,3.3,1.3,4.3c0.8,1,2.2,1.5,4.1,1.5
		c0.5,0,1.2-0.1,1.9-0.3c0.7-0.2,1.3-0.4,1.9-0.7l0.3,0.8c-0.6,0.3-1.3,0.6-2,0.8s-1.5,0.3-2.3,0.3C521.6,55.6,520.1,55.1,518.9,54z
		 M527.3,48.2c0-0.3,0.1-0.6,0.1-0.9c0-1.3-0.3-2.3-1-3.1c-0.6-0.8-1.7-1.2-3.2-1.2s-2.7,0.5-3.5,1.5c-0.9,1-1.4,2.3-1.5,3.8H527.3z
		"/>
	<path class="st1" d="M532.7,55.3c-0.7-0.2-1.3-0.5-1.8-0.8l0.1-0.9c0.6,0.4,1.2,0.6,1.9,0.8c0.7,0.2,1.4,0.3,2.1,0.3
		c2.2,0,3.3-0.9,3.3-2.8c0-0.5-0.1-1-0.3-1.3s-0.5-0.6-0.9-0.8c-0.4-0.2-1-0.5-1.7-0.8c-1-0.4-1.8-0.8-2.4-1.1
		c-0.6-0.4-1-0.7-1.2-1.1c-0.3-0.4-0.4-0.9-0.4-1.5c0-1,0.4-1.8,1.1-2.4c0.7-0.6,1.8-0.9,3.1-0.9c0.6,0,1.2,0.1,1.7,0.2
		c0.6,0.1,1,0.3,1.4,0.4l-0.2,0.8c-1-0.4-2-0.6-3-0.6c-1,0-1.8,0.2-2.4,0.6c-0.5,0.4-0.8,1-0.8,1.8c0,0.6,0.2,1.1,0.6,1.5
		c0.4,0.4,1.2,0.8,2.4,1.3c0.9,0.4,1.6,0.7,2.2,1c0.5,0.3,0.9,0.7,1.3,1.1c0.3,0.5,0.5,1.1,0.5,1.8c0,1.1-0.4,2-1.2,2.7
		s-1.9,1-3.2,1C534.2,55.6,533.4,55.5,532.7,55.3z"/>
	<path class="st1" d="M542.7,41.2c0-1.4,0.4-2.5,1.1-3.2c0.8-0.7,1.8-1.1,3.1-1.1c1.2,0,2.3,0.2,3.2,0.5l-0.2,0.8
		c-1-0.3-1.9-0.5-2.8-0.5c-2.3,0-3.4,1.1-3.4,3.4v1.3h5.5l-0.4,0.8h-5.1v12.2h-1V41.2z"/>
	<path class="st1" d="M552.7,54.4c-1-0.8-1.5-2.1-1.5-3.8v-8.3h1v8.3c0,1.3,0.4,2.3,1.2,3c0.8,0.7,1.9,1.1,3.3,1.1
		c1.3,0,2.3-0.4,3-1.1c0.7-0.7,1-1.7,1-3v-8.3h1v8.3c0,1.5-0.5,2.7-1.4,3.6c-0.9,0.9-2.2,1.4-3.8,1.4
		C555,55.6,553.7,55.2,552.7,54.4z"/>
	<path class="st1" d="M566.8,54c-1.1-1.1-1.7-2.8-1.7-5.1c0-1.3,0.2-2.5,0.7-3.5c0.5-1,1.2-1.8,2.1-2.4s2-0.9,3.3-0.9
		c1.7,0,3,0.5,3.8,1.4c0.9,0.9,1.3,2.2,1.3,3.7c0,0.6,0,1.2-0.1,1.8h-10.1c0.1,1.9,0.5,3.3,1.3,4.3c0.8,1,2.2,1.5,4.1,1.5
		c0.5,0,1.2-0.1,1.9-0.3c0.7-0.2,1.3-0.4,1.9-0.7l0.3,0.8c-0.6,0.3-1.3,0.6-2,0.8s-1.5,0.3-2.3,0.3C569.4,55.6,567.9,55.1,566.8,54z
		 M575.2,48.2c0-0.3,0.1-0.6,0.1-0.9c0-1.3-0.3-2.3-1-3.1c-0.6-0.8-1.7-1.2-3.2-1.2s-2.7,0.5-3.5,1.5c-0.9,1-1.4,2.3-1.5,3.8H575.2z
		"/>
	<path class="st1" d="M579.5,42.3h0.9l0.1,1.9c0.5-0.6,1.2-1,2.1-1.4c0.8-0.4,1.7-0.6,2.7-0.7l-0.1,1c-0.8,0-1.6,0.2-2.5,0.6
		s-1.6,0.9-2.2,1.4v10.2h-1V42.3z"/>
	<path class="st1" d="M586.7,54.9l9.4-11.8h-8.5l-0.4-0.8h10.5v0.4l-9.4,11.8h9.4l-0.4,0.8h-10.5V54.9z"/>
	<path class="st1" d="M602.1,54.7c-0.9-0.6-1.6-1.4-2.1-2.5c-0.5-1-0.7-2.1-0.7-3.4c0-1.2,0.2-2.4,0.7-3.4c0.5-1,1.2-1.8,2.2-2.5
		c1-0.6,2.2-0.9,3.6-0.9c1.3,0,2.4,0.3,3.3,0.9c0.9,0.6,1.6,1.4,2.1,2.5c0.5,1,0.7,2.2,0.7,3.4c0,1.2-0.2,2.3-0.7,3.3
		c-0.5,1-1.2,1.9-2.2,2.5c-1,0.6-2.2,1-3.6,1C604.2,55.6,603.1,55.3,602.1,54.7z M608.4,54c0.8-0.5,1.4-1.2,1.8-2.1
		c0.4-0.9,0.6-1.9,0.6-3.1c0-1.2-0.2-2.2-0.6-3.1c-0.4-0.9-1-1.6-1.8-2.1c-0.8-0.5-1.7-0.7-2.8-0.7c-1.1,0-2,0.2-2.8,0.7
		c-0.8,0.5-1.4,1.2-1.9,2.1c-0.4,0.9-0.7,1.9-0.7,3.1c0,1.2,0.2,2.2,0.7,3.1c0.4,0.9,1.1,1.6,1.9,2.1c0.8,0.5,1.7,0.7,2.7,0.7
		C606.7,54.8,607.6,54.5,608.4,54z"/>
	<path class="st1" d="M621.6,54c-1.1-1.1-1.7-2.8-1.7-5.1c0-1.3,0.2-2.5,0.7-3.5c0.5-1,1.2-1.8,2.1-2.4s2-0.9,3.3-0.9
		c1.7,0,3,0.5,3.8,1.4c0.9,0.9,1.3,2.2,1.3,3.7c0,0.6,0,1.2-0.1,1.8h-10.1c0.1,1.9,0.5,3.3,1.3,4.3c0.8,1,2.2,1.5,4.1,1.5
		c0.5,0,1.2-0.1,1.9-0.3c0.7-0.2,1.3-0.4,1.9-0.7l0.3,0.8c-0.6,0.3-1.3,0.6-2,0.8s-1.5,0.3-2.3,0.3C624.2,55.6,622.7,55.1,621.6,54z
		 M630,48.2c0-0.3,0.1-0.6,0.1-0.9c0-1.3-0.3-2.3-1-3.1c-0.6-0.8-1.7-1.2-3.2-1.2s-2.7,0.5-3.5,1.5c-0.9,1-1.4,2.3-1.5,3.8H630z"/>
	<path class="st1" d="M635.3,55.3c-0.7-0.2-1.3-0.5-1.8-0.8l0.1-0.9c0.6,0.4,1.2,0.6,1.9,0.8c0.7,0.2,1.4,0.3,2.1,0.3
		c2.2,0,3.3-0.9,3.3-2.8c0-0.5-0.1-1-0.3-1.3s-0.5-0.6-0.9-0.8c-0.4-0.2-1-0.5-1.7-0.8c-1-0.4-1.8-0.8-2.4-1.1
		c-0.6-0.4-1-0.7-1.2-1.1c-0.3-0.4-0.4-0.9-0.4-1.5c0-1,0.4-1.8,1.1-2.4c0.7-0.6,1.8-0.9,3.1-0.9c0.6,0,1.2,0.1,1.7,0.2
		c0.6,0.1,1,0.3,1.4,0.4l-0.2,0.8c-1-0.4-2-0.6-3-0.6c-1,0-1.8,0.2-2.4,0.6c-0.5,0.4-0.8,1-0.8,1.8c0,0.6,0.2,1.1,0.6,1.5
		c0.4,0.4,1.2,0.8,2.4,1.3c0.9,0.4,1.6,0.7,2.2,1c0.5,0.3,0.9,0.7,1.3,1.1c0.3,0.5,0.5,1.1,0.5,1.8c0,1.1-0.4,2-1.2,2.7
		s-1.9,1-3.2,1C636.8,55.6,636.1,55.5,635.3,55.3z"/>
	<path class="st1" d="M646,54.7c-0.6-0.5-0.8-1.3-0.8-2.4V39.3l1-0.3v3.4h4.8l-0.4,0.8h-4.4v8.8c0,1,0.2,1.7,0.5,2.1
		c0.4,0.4,1,0.6,2,0.6c0.6,0,1.4-0.1,2.2-0.3l0.1,0.8c-0.3,0.1-0.6,0.2-1.1,0.2c-0.5,0.1-0.9,0.1-1.4,0.1
		C647.4,55.5,646.5,55.2,646,54.7z"/>
	<path class="st1" d="M654,54.6c-0.8-0.7-1.3-1.7-1.3-3c0-1,0.3-1.7,1-2.2c0.7-0.5,1.6-0.8,2.8-0.8h2.6c0.6,0,1.5,0,2.4,0.1V47
		c0-1.4-0.3-2.5-1-3.1c-0.6-0.7-1.6-1-2.9-1c-0.8,0-1.4,0.1-2,0.2c-0.6,0.1-1.2,0.3-1.8,0.5l-0.1-0.8c1.3-0.4,2.6-0.6,4.1-0.6
		c1.5,0,2.7,0.4,3.5,1.1c0.8,0.8,1.2,1.9,1.2,3.4v5.1c0,1.6,0,2.9,0,3.6h-0.8c-0.1-0.6-0.2-1.2-0.2-1.8h0c-0.4,0.6-0.9,1.1-1.6,1.5
		s-1.6,0.6-2.7,0.6C655.9,55.6,654.8,55.3,654,54.6z M660.5,53.8c0.8-0.7,1.1-1.6,1.1-2.9v-1.6h-5.3c-1.7,0-2.5,0.7-2.5,2.2
		c0,1,0.3,1.8,1,2.4c0.7,0.6,1.5,0.9,2.6,0.9C658.7,54.8,659.7,54.5,660.5,53.8z M655.7,39.9l5.2-3l0.6,0.9l-5.4,2.8L655.7,39.9z"/>
	<path class="st1" d="M672.4,37.4l1-0.3v6.6c1.5-1,3.2-1.6,5.1-1.6c1.5,0,2.6,0.4,3.4,1.1c0.4,0.4,0.6,0.8,0.8,1.3s0.3,1.1,0.3,1.9
		v9h-1v-8.9c0-0.6-0.1-1.1-0.2-1.5c-0.1-0.4-0.3-0.8-0.6-1c-0.6-0.6-1.6-1-3-1c-0.9,0-1.7,0.1-2.5,0.4c-0.8,0.3-1.5,0.7-2.3,1.2
		v10.8h-1V37.4z"/>
	<path class="st1" d="M687.8,54.6c-0.8-0.7-1.3-1.7-1.3-3c0-1,0.3-1.7,1-2.2c0.7-0.5,1.6-0.8,2.8-0.8h2.6c0.6,0,1.5,0,2.4,0.1V47
		c0-1.4-0.3-2.5-1-3.1c-0.6-0.7-1.6-1-2.9-1c-0.8,0-1.4,0.1-2,0.2c-0.6,0.1-1.2,0.3-1.8,0.5l-0.1-0.8c1.3-0.4,2.6-0.6,4.1-0.6
		c1.5,0,2.7,0.4,3.5,1.1c0.8,0.8,1.2,1.9,1.2,3.4v5.1c0,1.6,0,2.9,0,3.6h-0.8c-0.1-0.6-0.2-1.2-0.2-1.8h0c-0.4,0.6-0.9,1.1-1.6,1.5
		s-1.6,0.6-2.7,0.6C689.7,55.6,688.6,55.3,687.8,54.6z M694.3,53.8c0.8-0.7,1.1-1.6,1.1-2.9v-1.6h-5.3c-1.7,0-2.5,0.7-2.5,2.2
		c0,1,0.3,1.8,1,2.4c0.7,0.6,1.5,0.9,2.6,0.9C692.5,54.8,693.5,54.5,694.3,53.8z"/>
	<path class="st1" d="M703,54.8c-1-0.5-1.8-1.3-2.3-2.3c-0.6-1-0.8-2.2-0.8-3.6c0-1.4,0.3-2.6,0.9-3.6c0.6-1,1.4-1.8,2.4-2.4
		c1-0.5,2.1-0.8,3.4-0.8c0.7,0,1.4,0.1,2.1,0.2c0.7,0.1,1.2,0.3,1.7,0.6l-0.2,0.9c-1-0.6-2.2-0.9-3.6-0.9c-1.1,0-2.1,0.3-3,0.8
		s-1.5,1.2-1.9,2.1c-0.4,0.9-0.7,1.9-0.7,3.1c0,1,0.2,1.9,0.5,2.8c0.3,0.9,0.9,1.6,1.8,2.2c0.8,0.6,1.9,0.9,3.2,0.9
		c0.6,0,1.3-0.1,2-0.3c0.7-0.2,1.4-0.4,1.9-0.7l0.2,0.9c-0.6,0.3-1.3,0.6-2,0.7c-0.7,0.2-1.4,0.3-2.2,0.3
		C705.2,55.6,704,55.4,703,54.8z"/>
	<path class="st1" d="M713.2,39.6c-0.2-0.2-0.3-0.4-0.3-0.7s0.1-0.5,0.3-0.7c0.2-0.2,0.4-0.3,0.7-0.3c0.3,0,0.5,0.1,0.7,0.3
		c0.2,0.2,0.3,0.4,0.3,0.7s-0.1,0.5-0.3,0.7c-0.2,0.2-0.5,0.3-0.7,0.3C713.7,39.9,713.4,39.8,713.2,39.6z M713.4,42.3h1v13h-1V42.3z
		"/>
	<path class="st1" d="M719.6,54c-1.1-1.1-1.7-2.8-1.7-5.1c0-1.3,0.2-2.5,0.7-3.5c0.5-1,1.2-1.8,2.1-2.4s2-0.9,3.3-0.9
		c1.7,0,3,0.5,3.8,1.4c0.9,0.9,1.3,2.2,1.3,3.7c0,0.6,0,1.2-0.1,1.8h-10.1c0.1,1.9,0.5,3.3,1.3,4.3c0.8,1,2.2,1.5,4.1,1.5
		c0.5,0,1.2-0.1,1.9-0.3c0.7-0.2,1.3-0.4,1.9-0.7l0.3,0.8c-0.6,0.3-1.3,0.6-2,0.8s-1.5,0.3-2.3,0.3C722.3,55.6,720.8,55.1,719.6,54z
		 M728,48.2c0-0.3,0.1-0.6,0.1-0.9c0-1.3-0.3-2.3-1-3.1c-0.6-0.8-1.7-1.2-3.2-1.2s-2.7,0.5-3.5,1.5c-0.9,1-1.4,2.3-1.5,3.8H728z"/>
	<path class="st1" d="M732.3,42.3h0.9l0.1,1.3c1.5-1,3.2-1.6,5.1-1.6c1.5,0,2.6,0.4,3.4,1.1c0.3,0.4,0.6,0.8,0.8,1.3
		c0.2,0.5,0.3,1.1,0.3,1.9v9h-1v-8.9c0-0.6-0.1-1.1-0.2-1.5s-0.3-0.8-0.5-1.1c-0.6-0.6-1.6-1-3-1c-0.9,0-1.7,0.1-2.5,0.4
		c-0.8,0.3-1.5,0.7-2.3,1.2v10.8h-1V42.3z"/>
	<path class="st1" d="M749,54.8c-0.9-0.6-1.6-1.4-2.1-2.4s-0.8-2.2-0.8-3.4c0-1.4,0.3-2.5,0.9-3.6c0.6-1,1.3-1.8,2.3-2.4
		s2-0.9,3.2-0.9c1.2,0,2.2,0.2,3,0.7c0.8,0.5,1.4,1,1.7,1.7h0v-7.1l1-0.3v14.7c0,1.6,0,2.9,0,3.6h-0.8c-0.1-0.6-0.2-1.3-0.2-2.1h0
		c-1.2,1.6-2.9,2.4-5,2.4C751,55.6,749.9,55.3,749,54.8z M755.3,54c0.8-0.5,1.5-1.2,2-2.1v-4.6c0-0.8-0.2-1.6-0.6-2.3
		c-0.4-0.7-0.9-1.2-1.7-1.6s-1.5-0.6-2.5-0.6c-1,0-2,0.3-2.8,0.8s-1.4,1.2-1.9,2.1c-0.5,0.9-0.7,2-0.7,3.1c0,1.2,0.2,2.3,0.7,3.1
		c0.5,0.9,1.1,1.5,1.9,2c0.8,0.4,1.6,0.7,2.6,0.7C753.4,54.8,754.4,54.5,755.3,54z"/>
	<path class="st1" d="M764.1,54.7c-0.9-0.6-1.6-1.4-2.1-2.5c-0.5-1-0.7-2.1-0.7-3.4c0-1.2,0.2-2.4,0.7-3.4c0.5-1,1.2-1.8,2.2-2.5
		c1-0.6,2.2-0.9,3.6-0.9c1.3,0,2.4,0.3,3.3,0.9c0.9,0.6,1.6,1.4,2.1,2.5c0.5,1,0.7,2.2,0.7,3.4c0,1.2-0.2,2.3-0.7,3.3
		S772,54,771,54.7c-1,0.6-2.2,1-3.6,1C766.2,55.6,765.1,55.3,764.1,54.7z M770.4,54c0.8-0.5,1.4-1.2,1.8-2.1
		c0.4-0.9,0.6-1.9,0.6-3.1c0-1.2-0.2-2.2-0.6-3.1c-0.4-0.9-1-1.6-1.8-2.1c-0.8-0.5-1.7-0.7-2.8-0.7c-1.1,0-2,0.2-2.8,0.7
		c-0.8,0.5-1.4,1.2-1.9,2.1c-0.4,0.9-0.7,1.9-0.7,3.1c0,1.2,0.2,2.2,0.7,3.1c0.4,0.9,1.1,1.6,1.9,2.1c0.8,0.5,1.7,0.7,2.7,0.7
		C768.7,54.8,769.6,54.5,770.4,54z"/>
	<path class="st1" d="M782.8,37.4l1-0.3v18.3h-1V37.4z"/>
	<path class="st1" d="M788.9,54.6c-0.8-0.7-1.3-1.7-1.3-3c0-1,0.3-1.7,1-2.2c0.7-0.5,1.6-0.8,2.8-0.8h2.6c0.7,0,1.5,0,2.4,0.1V47
		c0-1.4-0.3-2.5-1-3.1c-0.6-0.7-1.6-1-2.9-1c-0.8,0-1.4,0.1-2,0.2c-0.6,0.1-1.2,0.3-1.8,0.5l-0.2-0.8c1.3-0.4,2.6-0.6,4.1-0.6
		c1.5,0,2.7,0.4,3.5,1.1c0.8,0.8,1.2,1.9,1.2,3.4v5.1c0,1.6,0,2.9,0,3.6h-0.8c-0.1-0.6-0.2-1.2-0.2-1.8h0c-0.4,0.6-0.9,1.1-1.6,1.5
		c-0.7,0.4-1.6,0.6-2.7,0.6C790.8,55.6,789.7,55.3,788.9,54.6z M795.3,53.8c0.8-0.7,1.1-1.6,1.1-2.9v-1.6h-5.3
		c-1.7,0-2.5,0.7-2.5,2.2c0,1,0.3,1.8,1,2.4c0.7,0.6,1.5,0.9,2.6,0.9C793.6,54.8,794.6,54.5,795.3,53.8z"/>
	<path class="st1" d="M809.3,54.8c-0.9-0.6-1.6-1.4-2.1-2.4s-0.8-2.2-0.8-3.4c0-1.4,0.3-2.5,0.9-3.6c0.6-1,1.3-1.8,2.3-2.4
		s2-0.9,3.2-0.9c1.2,0,2.2,0.2,3,0.7c0.8,0.5,1.4,1,1.7,1.7h0v-7.1l1-0.3v14.7c0,1.6,0,2.9,0,3.6h-0.8c-0.1-0.6-0.2-1.3-0.2-2.1h0
		c-1.2,1.6-2.9,2.4-5,2.4C811.3,55.6,810.2,55.3,809.3,54.8z M815.6,54c0.8-0.5,1.5-1.2,2-2.1v-4.6c0-0.8-0.2-1.6-0.6-2.3
		s-0.9-1.2-1.7-1.6c-0.7-0.4-1.6-0.6-2.5-0.6c-1,0-2,0.3-2.8,0.8c-0.8,0.5-1.4,1.2-1.9,2.1c-0.5,0.9-0.7,2-0.7,3.1
		c0,1.2,0.2,2.3,0.7,3.1c0.5,0.9,1.1,1.5,1.9,2c0.8,0.4,1.6,0.7,2.6,0.7C813.7,54.8,814.7,54.5,815.6,54z"/>
	<path class="st1" d="M822.7,39.6c-0.2-0.2-0.3-0.4-0.3-0.7s0.1-0.5,0.3-0.7c0.2-0.2,0.4-0.3,0.7-0.3c0.3,0,0.5,0.1,0.7,0.3
		c0.2,0.2,0.3,0.4,0.3,0.7s-0.1,0.5-0.3,0.7c-0.2,0.2-0.5,0.3-0.7,0.3C823.1,39.9,822.9,39.8,822.7,39.6z M822.9,42.3h1v13h-1V42.3z
		"/>
	<path class="st1" d="M828.3,41.2c0-1.4,0.4-2.5,1.1-3.2c0.8-0.7,1.8-1.1,3.1-1.1c1.2,0,2.3,0.2,3.2,0.5l-0.2,0.8
		c-1-0.3-1.9-0.5-2.8-0.5c-2.3,0-3.4,1.1-3.4,3.4v1.3h5.5l-0.4,0.8h-5.1v12.2h-1V41.2z"/>
	<path class="st1" d="M837.2,54c-1.1-1.1-1.7-2.8-1.7-5.1c0-1.3,0.2-2.5,0.7-3.5c0.5-1,1.2-1.8,2.1-2.4s2-0.9,3.3-0.9
		c1.7,0,3,0.5,3.8,1.4c0.9,0.9,1.3,2.2,1.3,3.7c0,0.6,0,1.2-0.1,1.8h-10.1c0.1,1.9,0.5,3.3,1.3,4.3s2.2,1.5,4.1,1.5
		c0.5,0,1.2-0.1,1.9-0.3c0.7-0.2,1.3-0.4,1.9-0.7l0.3,0.8c-0.6,0.3-1.3,0.6-2,0.8s-1.5,0.3-2.3,0.3C839.9,55.6,838.4,55.1,837.2,54z
		 M845.6,48.2c0-0.3,0.1-0.6,0.1-0.9c0-1.3-0.3-2.3-1-3.1c-0.6-0.8-1.7-1.2-3.2-1.2s-2.7,0.5-3.5,1.5s-1.3,2.3-1.5,3.8H845.6z"/>
	<path class="st1" d="M849.9,42.3h0.9l0.1,1.9c0.5-0.6,1.2-1,2.1-1.4s1.7-0.6,2.7-0.7l-0.1,1c-0.8,0-1.6,0.2-2.5,0.6
		s-1.6,0.9-2.2,1.4v10.2h-1V42.3z"/>
	<path class="st1" d="M858.6,54c-1.2-1.1-1.7-2.8-1.7-5.1c0-1.3,0.2-2.5,0.7-3.5c0.5-1,1.2-1.8,2.1-2.4s2-0.9,3.3-0.9
		c1.7,0,3,0.5,3.8,1.4c0.9,0.9,1.3,2.2,1.3,3.7c0,0.6,0,1.2-0.1,1.8h-10.1c0,1.9,0.5,3.3,1.3,4.3c0.8,1,2.2,1.5,4.1,1.5
		c0.5,0,1.2-0.1,1.9-0.3c0.7-0.2,1.3-0.4,1.9-0.7l0.3,0.8c-0.6,0.3-1.3,0.6-2,0.8s-1.5,0.3-2.3,0.3C861.2,55.6,859.7,55.1,858.6,54z
		 M867,48.2c0-0.3,0.1-0.6,0.1-0.9c0-1.3-0.3-2.3-1-3.1c-0.6-0.8-1.7-1.2-3.2-1.2s-2.7,0.5-3.5,1.5c-0.9,1-1.4,2.3-1.5,3.8H867z"/>
	<path class="st1" d="M871.3,42.3h0.9l0.1,1.3c1.5-1,3.2-1.6,5.1-1.6c1.5,0,2.6,0.4,3.4,1.1c0.3,0.4,0.6,0.8,0.8,1.3
		c0.2,0.5,0.3,1.1,0.3,1.9v9h-1v-8.9c0-0.6-0.1-1.1-0.2-1.5s-0.3-0.8-0.5-1.1c-0.6-0.6-1.6-1-3-1c-0.9,0-1.7,0.1-2.5,0.4
		c-0.8,0.3-1.5,0.7-2.3,1.2v10.8h-1V42.3z"/>
	<path class="st1" d="M888.2,54.8c-1-0.5-1.8-1.3-2.3-2.3s-0.8-2.2-0.8-3.6c0-1.4,0.3-2.6,0.9-3.6c0.6-1,1.4-1.8,2.4-2.4
		c1-0.5,2.1-0.8,3.4-0.8c0.7,0,1.4,0.1,2.1,0.2c0.7,0.1,1.2,0.3,1.7,0.6l-0.2,0.9c-1-0.6-2.2-0.9-3.6-0.9c-1.2,0-2.1,0.3-3,0.8
		s-1.5,1.2-1.9,2.1c-0.4,0.9-0.7,1.9-0.7,3.1c0,1,0.2,1.9,0.5,2.8s0.9,1.6,1.8,2.2c0.8,0.6,1.9,0.9,3.2,0.9c0.6,0,1.3-0.1,2-0.3
		c0.7-0.2,1.4-0.4,1.9-0.7l0.2,0.9c-0.6,0.3-1.3,0.6-2,0.7c-0.7,0.2-1.4,0.3-2.2,0.3C890.3,55.6,889.2,55.4,888.2,54.8z"/>
	<path class="st1" d="M898.4,39.6c-0.2-0.2-0.3-0.4-0.3-0.7s0.1-0.5,0.3-0.7c0.2-0.2,0.4-0.3,0.7-0.3c0.3,0,0.5,0.1,0.7,0.3
		c0.2,0.2,0.3,0.4,0.3,0.7s-0.1,0.5-0.3,0.7c-0.2,0.2-0.5,0.3-0.7,0.3C898.8,39.9,898.6,39.8,898.4,39.6z M898.6,42.3h1v13h-1V42.3z
		"/>
	<path class="st1" d="M904.7,54.6c-0.8-0.7-1.3-1.7-1.3-3c0-1,0.3-1.7,1-2.2c0.7-0.5,1.6-0.8,2.8-0.8h2.6c0.7,0,1.5,0,2.4,0.1V47
		c0-1.4-0.3-2.5-1-3.1c-0.6-0.7-1.6-1-2.9-1c-0.8,0-1.4,0.1-2,0.2c-0.6,0.1-1.2,0.3-1.8,0.5l-0.2-0.8c1.3-0.4,2.6-0.6,4.1-0.6
		c1.5,0,2.7,0.4,3.5,1.1c0.8,0.8,1.2,1.9,1.2,3.4v5.1c0,1.6,0,2.9,0,3.6h-0.8c-0.1-0.6-0.2-1.2-0.2-1.8h0c-0.4,0.6-0.9,1.1-1.6,1.5
		c-0.7,0.4-1.6,0.6-2.7,0.6C906.6,55.6,905.5,55.3,904.7,54.6z M911.1,53.8c0.8-0.7,1.1-1.6,1.1-2.9v-1.6H907
		c-1.7,0-2.5,0.7-2.5,2.2c0,1,0.3,1.8,1,2.4c0.7,0.6,1.5,0.9,2.6,0.9C909.3,54.8,910.4,54.5,911.1,53.8z"/>
</g>
<path class="st1" d="M391.8,90.9l2.8-6.4l-5.5-12.2h1.1l4.9,11.2h0.1l4.7-11.2h1.1l-8.1,18.9L391.8,90.9z M414.4,85.6
	c-1.9,0-3.4-0.6-4.5-1.7s-1.7-2.8-1.7-5.1c0-1.3,0.2-2.5,0.7-3.5c0.5-1,1.2-1.8,2.1-2.4c0.9-0.6,2-0.9,3.3-0.9c1.7,0,3,0.5,3.8,1.4
	c0.9,0.9,1.3,2.2,1.3,3.7c0,0.6,0,1.2-0.1,1.8h-10.1c0.1,1.9,0.5,3.3,1.3,4.3c0.8,1,2.2,1.5,4.1,1.5c0.5,0,1.2-0.1,1.9-0.3
	c0.7-0.2,1.3-0.4,1.9-0.7l0.3,0.8c-0.6,0.3-1.3,0.6-2,0.8S415.1,85.6,414.4,85.6L414.4,85.6z M418.3,78.2c0-0.3,0.1-0.6,0.1-0.9
	c0-1.3-0.3-2.3-1-3.1c-0.6-0.8-1.7-1.2-3.2-1.2s-2.7,0.5-3.5,1.5c-0.9,1-1.4,2.3-1.5,3.8H418.3z M425.9,85.6c-0.8,0-1.5-0.1-2.2-0.3
	c-0.7-0.2-1.3-0.4-1.8-0.8l0.1-0.8c0.6,0.3,1.2,0.6,1.9,0.8c0.7,0.2,1.4,0.3,2.1,0.3c2.2,0,3.3-0.9,3.3-2.8c0-0.5-0.1-1-0.3-1.3
	c-0.2-0.3-0.5-0.6-0.9-0.8c-0.4-0.2-1-0.5-1.7-0.8c-1-0.4-1.8-0.8-2.4-1.1c-0.6-0.4-1-0.7-1.2-1.2c-0.3-0.4-0.4-0.9-0.4-1.5
	c0-1,0.4-1.8,1.1-2.4c0.7-0.6,1.8-0.9,3.1-0.9c0.6,0,1.2,0.1,1.7,0.2c0.6,0.1,1,0.3,1.4,0.4l-0.2,0.9c-1-0.4-2-0.6-3-0.6
	c-1,0-1.8,0.2-2.4,0.6c-0.5,0.4-0.8,1-0.8,1.8c0,0.6,0.2,1.1,0.6,1.5c0.4,0.4,1.2,0.9,2.4,1.3c0.9,0.3,1.6,0.7,2.2,0.9
	c0.5,0.3,0.9,0.7,1.3,1.1c0.3,0.5,0.5,1.1,0.5,1.8c0,1.2-0.4,2-1.2,2.7C428.2,85.3,427.2,85.6,425.9,85.6L425.9,85.6z M444.4,85.6
	c-1.6,0-2.9-0.4-3.9-1.2c-1-0.8-1.5-2.1-1.5-3.8v-8.3h1v8.4c0,1.3,0.4,2.3,1.2,3c0.8,0.7,1.9,1.1,3.3,1.1c1.3,0,2.3-0.4,3-1.1
	c0.7-0.7,1-1.7,1-3v-8.4h1v8.3c0,1.5-0.5,2.7-1.4,3.7C447.3,85.2,446,85.6,444.4,85.6L444.4,85.6z M453.7,72.3h0.9l0.1,1.4
	c1.5-1.1,3.2-1.6,5.1-1.6c1.5,0,2.6,0.4,3.4,1.2c0.4,0.3,0.6,0.8,0.8,1.3c0.2,0.5,0.3,1.1,0.3,1.9v9h-1v-8.9c0-0.6-0.1-1.1-0.2-1.5
	c-0.1-0.4-0.3-0.8-0.6-1c-0.6-0.7-1.6-1-3-1c-0.9,0-1.7,0.1-2.5,0.4c-0.8,0.3-1.5,0.7-2.3,1.2v10.8h-1V72.3z M473.9,72.3h0.9
	l0.1,1.4c0.6-0.5,1.2-0.9,2-1.2c0.8-0.3,1.6-0.4,2.4-0.4c0.8,0,1.6,0.2,2.2,0.5c0.6,0.3,1.1,0.7,1.4,1.2c0.6-0.5,1.3-0.9,2.2-1.2
	c0.9-0.3,1.8-0.4,2.6-0.4c0.7,0,1.3,0.1,1.9,0.3c0.6,0.2,1.1,0.5,1.4,0.9c0.4,0.4,0.6,0.8,0.8,1.4c0.2,0.5,0.3,1.2,0.3,1.8v8.8h-1
	v-8.6c0-1.2-0.2-2-0.7-2.6c-0.6-0.8-1.6-1.2-2.8-1.2c-0.8,0-1.5,0.1-2.4,0.4c-0.8,0.3-1.5,0.7-2,1.2c0.2,0.5,0.3,1.3,0.3,2.5v8.4h-1
	v-8c0-0.8,0-1.5-0.1-1.9c0-0.4-0.2-0.8-0.4-1.1c-0.3-0.4-0.6-0.8-1.1-1c-0.5-0.2-1.1-0.4-1.7-0.4c-0.8,0-1.6,0.2-2.4,0.5
	c-0.8,0.3-1.4,0.7-1.9,1.1v10.8h-1V72.3z M501.5,85.6c-1.3,0-2.4-0.3-3.3-0.9c-0.9-0.6-1.6-1.4-2.1-2.5c-0.5-1-0.7-2.1-0.7-3.4
	c0-1.2,0.2-2.4,0.7-3.4c0.5-1,1.2-1.8,2.2-2.5c1-0.6,2.2-0.9,3.6-0.9c1.3,0,2.4,0.3,3.3,0.9c0.9,0.6,1.6,1.4,2.1,2.5
	c0.5,1,0.7,2.2,0.7,3.4c0,1.2-0.2,2.3-0.7,3.3c-0.5,1-1.2,1.9-2.2,2.5C504.1,85.3,502.9,85.6,501.5,85.6L501.5,85.6z M501.7,84.8
	c1.1,0,2-0.2,2.8-0.7c0.8-0.5,1.4-1.2,1.8-2.1c0.4-0.9,0.6-1.9,0.6-3.1c0-1.2-0.2-2.2-0.6-3.1c-0.4-0.9-1-1.6-1.8-2.1
	c-0.8-0.5-1.7-0.7-2.8-0.7c-1.1,0-2,0.2-2.8,0.7c-0.8,0.5-1.4,1.2-1.9,2.1c-0.4,0.9-0.7,1.9-0.7,3.1c0,1.2,0.2,2.2,0.7,3.1
	c0.4,0.9,1.1,1.6,1.9,2.1C499.7,84.5,500.6,84.8,501.7,84.8L501.7,84.8z M516.6,85.6c-1.2,0-2.3-0.3-3.2-0.9
	c-0.9-0.6-1.6-1.4-2.1-2.4c-0.5-1-0.8-2.2-0.8-3.4c0-1.3,0.3-2.5,0.9-3.6c0.6-1,1.3-1.8,2.3-2.4c1-0.6,2-0.8,3.2-0.8
	c1.2,0,2.2,0.2,3,0.7c0.8,0.4,1.4,1,1.7,1.7h0v-7.1l1-0.3v14.7c0,1.7,0,2.9,0.1,3.6h-0.8c-0.1-0.6-0.2-1.3-0.2-2.1h-0.1
	C520.4,84.8,518.7,85.6,516.6,85.6L516.6,85.6z M516.7,84.8c1.1,0,2.1-0.3,3-0.8c0.8-0.5,1.5-1.2,1.9-2.1v-4.6
	c0-0.8-0.2-1.6-0.6-2.3c-0.4-0.7-0.9-1.2-1.7-1.6c-0.7-0.4-1.5-0.6-2.5-0.6c-1,0-1.9,0.3-2.8,0.8c-0.8,0.5-1.4,1.2-1.9,2.2
	c-0.4,0.9-0.7,2-0.7,3.1c0,1.2,0.2,2.3,0.7,3.1c0.5,0.9,1.1,1.5,1.9,2C514.9,84.6,515.7,84.8,516.7,84.8L516.7,84.8z M531.9,85.6
	c-1.8,0-3.3-0.6-4.5-1.7c-1.1-1.1-1.7-2.8-1.7-5.1c0-1.3,0.2-2.5,0.7-3.5c0.5-1,1.2-1.8,2.1-2.4c0.9-0.6,2-0.9,3.3-0.9
	c1.7,0,3,0.5,3.8,1.4c0.9,0.9,1.3,2.2,1.3,3.7c0,0.6,0,1.2-0.1,1.8h-10.1c0,1.9,0.5,3.3,1.3,4.3c0.8,1,2.2,1.5,4.1,1.5
	c0.5,0,1.2-0.1,1.9-0.3c0.7-0.2,1.3-0.4,1.9-0.7l0.3,0.8c-0.6,0.3-1.3,0.6-2,0.8S532.6,85.6,531.9,85.6L531.9,85.6z M535.8,78.2
	c0-0.3,0.1-0.6,0.1-0.9c0-1.3-0.3-2.3-1-3.1c-0.6-0.8-1.7-1.2-3.2-1.2s-2.7,0.5-3.6,1.5c-0.9,1-1.3,2.3-1.4,3.8H535.8z M540.1,67.4
	l1-0.3v18.3h-1V67.4z M550.4,85.6c-1.3,0-2.4-0.3-3.3-0.9c-0.9-0.6-1.6-1.4-2.1-2.5c-0.5-1-0.7-2.1-0.7-3.4c0-1.2,0.2-2.4,0.7-3.4
	c0.5-1,1.2-1.8,2.2-2.5c1-0.6,2.2-0.9,3.6-0.9c1.3,0,2.4,0.3,3.3,0.9c0.9,0.6,1.6,1.4,2.1,2.5c0.5,1,0.7,2.2,0.7,3.4
	c0,1.2-0.2,2.3-0.7,3.3c-0.5,1-1.2,1.9-2.2,2.5C553,85.3,551.8,85.6,550.4,85.6L550.4,85.6z M550.5,84.8c1.1,0,2-0.2,2.8-0.7
	c0.8-0.5,1.4-1.2,1.8-2.1c0.4-0.9,0.6-1.9,0.6-3.1c0-1.2-0.2-2.2-0.6-3.1c-0.4-0.9-1-1.6-1.8-2.1c-0.8-0.5-1.7-0.7-2.8-0.7
	s-2,0.2-2.8,0.7c-0.8,0.5-1.4,1.2-1.8,2.1c-0.4,0.9-0.7,1.9-0.7,3.1c0,1.2,0.2,2.2,0.7,3.1c0.4,0.9,1.1,1.6,1.8,2.1
	C548.6,84.5,549.5,84.8,550.5,84.8L550.5,84.8z M576,83.3c-0.6,0.8-1.3,1.3-2.1,1.8c-0.8,0.4-1.8,0.6-2.9,0.6
	c-1.2,0-2.2-0.3-3.2-0.8c-0.9-0.5-1.7-1.3-2.2-2.3c-0.5-1-0.8-2.2-0.8-3.5c0-1.5,0.3-2.8,0.9-3.8c0.6-1,1.4-1.8,2.4-2.3
	c1-0.5,2-0.8,3-0.8c1.2,0,2.3,0.3,3.1,0.8c0.8,0.5,1.4,1.1,1.8,1.9l0.1-2.4h0.9v18.5l-1,0.3V83.3z M571.1,84.8c1.1,0,2-0.3,2.9-0.8
	c0.8-0.5,1.5-1.2,2-2.1v-4.6c0-0.7-0.2-1.4-0.6-2c-0.4-0.7-0.9-1.2-1.7-1.7c-0.7-0.4-1.5-0.7-2.5-0.7c-1,0-1.9,0.2-2.7,0.7
	c-0.8,0.5-1.5,1.2-1.9,2.1c-0.5,0.9-0.7,1.9-0.7,3.1c0,1.3,0.2,2.3,0.7,3.2c0.5,0.9,1.1,1.6,1.9,2C569.2,84.5,570.1,84.8,571.1,84.8
	L571.1,84.8z M586.6,85.6c-1.6,0-2.9-0.4-3.9-1.2c-1-0.8-1.5-2.1-1.5-3.8v-8.3h1v8.4c0,1.3,0.4,2.3,1.2,3c0.8,0.7,1.9,1.1,3.3,1.1
	c1.3,0,2.3-0.4,3-1.1c0.7-0.7,1-1.7,1-3v-8.4h1v8.3c0,1.5-0.5,2.7-1.4,3.7C589.4,85.2,588.2,85.6,586.6,85.6L586.6,85.6z
	 M601.2,85.6c-1.8,0-3.3-0.6-4.5-1.7c-1.1-1.1-1.7-2.8-1.7-5.1c0-1.3,0.2-2.5,0.7-3.5c0.5-1,1.2-1.8,2.1-2.4c0.9-0.6,2-0.9,3.3-0.9
	c1.7,0,3,0.5,3.8,1.4c0.9,0.9,1.3,2.2,1.3,3.7c0,0.6,0,1.2-0.1,1.8H596c0,1.9,0.5,3.3,1.3,4.3c0.8,1,2.2,1.5,4.1,1.5
	c0.5,0,1.2-0.1,1.9-0.3c0.7-0.2,1.3-0.4,1.9-0.7l0.3,0.8c-0.6,0.3-1.3,0.6-2,0.8S601.9,85.6,601.2,85.6L601.2,85.6z M605.1,78.2
	c0-0.3,0.1-0.6,0.1-0.9c0-1.3-0.3-2.3-1-3.1c-0.6-0.8-1.7-1.2-3.2-1.2s-2.7,0.5-3.6,1.5c-0.9,1-1.3,2.3-1.4,3.8H605.1z M615.4,69.9
	c-0.3,0-0.5-0.1-0.7-0.3c-0.2-0.2-0.3-0.4-0.3-0.7c0-0.3,0.1-0.5,0.3-0.7c0.2-0.2,0.4-0.3,0.7-0.3c0.3,0,0.5,0.1,0.7,0.3
	c0.2,0.2,0.3,0.4,0.3,0.7c0,0.3-0.1,0.5-0.3,0.7C616,69.8,615.7,69.9,615.4,69.9L615.4,69.9z M614.9,72.3h1v13.1h-1V72.3z
	 M620.3,72.3h0.9l0.1,1.4c1.5-1.1,3.2-1.6,5.1-1.6c1.5,0,2.6,0.4,3.4,1.2c0.3,0.3,0.6,0.8,0.8,1.3c0.2,0.5,0.3,1.1,0.3,1.9v9h-1
	v-8.9c0-0.6-0.1-1.1-0.2-1.5c-0.1-0.4-0.3-0.8-0.5-1c-0.6-0.7-1.6-1-3-1c-0.9,0-1.7,0.1-2.5,0.4c-0.8,0.3-1.5,0.7-2.3,1.2v10.8h-1
	V72.3z M635,71.2c0-1.4,0.4-2.5,1.1-3.2c0.8-0.7,1.8-1.1,3.1-1.1c1.2,0,2.3,0.2,3.2,0.5l-0.2,0.8c-1-0.3-1.9-0.5-2.8-0.5
	c-2.3,0-3.4,1.1-3.4,3.4v1.3h5.5l-0.4,0.8H636v12.2h-1V71.2z M644.1,67.4l1-0.3v18.3h-1V67.4z M654.8,85.6c-1.6,0-2.9-0.4-3.9-1.2
	c-1-0.8-1.5-2.1-1.5-3.8v-8.3h1v8.4c0,1.3,0.4,2.3,1.2,3c0.8,0.7,1.9,1.1,3.3,1.1c1.3,0,2.3-0.4,3-1.1c0.7-0.7,1-1.7,1-3v-8.4h1v8.3
	c0,1.5-0.5,2.7-1.4,3.7C657.7,85.2,656.4,85.6,654.8,85.6L654.8,85.6z M665.1,90.9l2.8-6.4l-5.5-12.2h1.1l4.9,11.2h0l4.7-11.2h1.1
	L666,91.2L665.1,90.9z M681.4,85.6c-1.8,0-3.3-0.6-4.5-1.7c-1.1-1.1-1.7-2.8-1.7-5.1c0-1.3,0.2-2.5,0.7-3.5c0.5-1,1.2-1.8,2.1-2.4
	c0.9-0.6,2-0.9,3.3-0.9c1.7,0,3,0.5,3.8,1.4c0.9,0.9,1.3,2.2,1.3,3.7c0,0.6,0,1.2-0.1,1.8h-10.1c0,1.9,0.5,3.3,1.3,4.3
	c0.8,1,2.2,1.5,4.1,1.5c0.5,0,1.2-0.1,1.9-0.3c0.7-0.2,1.3-0.4,1.9-0.7l0.3,0.8c-0.6,0.3-1.3,0.6-2,0.8S682.2,85.6,681.4,85.6
	L681.4,85.6z M685.3,78.2c0-0.3,0.1-0.6,0.1-0.9c0-1.3-0.3-2.3-1-3.1c-0.6-0.8-1.7-1.2-3.2-1.2s-2.7,0.5-3.6,1.5
	c-0.9,1-1.3,2.3-1.4,3.8H685.3z M689.9,85.6c-0.3,0-0.6-0.1-0.8-0.4c-0.2-0.2-0.3-0.5-0.3-0.8c0-0.3,0.1-0.6,0.4-0.8
	c0.2-0.2,0.5-0.3,0.8-0.3c0.3,0,0.6,0.1,0.9,0.3c0.2,0.2,0.4,0.5,0.4,0.8c0,0.3-0.1,0.6-0.4,0.8C690.5,85.4,690.2,85.6,689.9,85.6
	L689.9,85.6z"/>
<g>
	<path class="st1" d="M167.5,128.5h10.2l-0.4,0.9h-8.8v7.5h7.5l-0.1,0.9h-7.4v6.8h9.2l-0.4,0.9h-9.8V128.5z"/>
	<path class="st1" d="M181.5,145.3c-0.7-0.2-1.3-0.5-1.8-0.8l0.1-0.9c0.6,0.4,1.2,0.6,1.9,0.8c0.7,0.2,1.4,0.3,2.1,0.3
		c2.2,0,3.3-0.9,3.3-2.8c0-0.5-0.1-1-0.3-1.3c-0.2-0.3-0.5-0.6-0.9-0.8c-0.4-0.2-1-0.5-1.7-0.8c-1-0.4-1.8-0.8-2.4-1.1
		c-0.6-0.4-1-0.7-1.2-1.2c-0.3-0.4-0.4-0.9-0.4-1.5c0-1,0.4-1.8,1.1-2.4c0.7-0.6,1.8-0.9,3.1-0.9c0.6,0,1.2,0.1,1.7,0.2
		c0.6,0.1,1,0.3,1.4,0.4l-0.2,0.8c-1-0.4-2-0.6-3-0.6c-1,0-1.8,0.2-2.4,0.6s-0.8,1-0.8,1.8c0,0.6,0.2,1.1,0.6,1.5
		c0.4,0.4,1.2,0.8,2.4,1.3c0.9,0.3,1.6,0.7,2.2,1c0.5,0.3,0.9,0.7,1.3,1.1c0.3,0.5,0.5,1.1,0.5,1.8c0,1.2-0.4,2-1.2,2.7
		s-1.9,1-3.2,1C182.9,145.6,182.2,145.5,181.5,145.3z"/>
	<path class="st1" d="M196.8,129.6c-0.2-0.2-0.3-0.4-0.3-0.7s0.1-0.5,0.3-0.7c0.2-0.2,0.4-0.3,0.7-0.3c0.3,0,0.5,0.1,0.7,0.3
		c0.2,0.2,0.3,0.4,0.3,0.7s-0.1,0.5-0.3,0.7s-0.5,0.3-0.7,0.3C197.3,129.9,197,129.8,196.8,129.6z M197,132.3h1v13h-1V132.3z"/>
	<path class="st1" d="M202.4,132.3h0.9l0.1,1.3c1.5-1,3.2-1.6,5.1-1.6c1.5,0,2.6,0.4,3.4,1.2c0.4,0.3,0.6,0.8,0.8,1.3
		c0.2,0.5,0.3,1.1,0.3,1.9v9h-1v-8.9c0-0.6-0.1-1.1-0.2-1.5c-0.1-0.4-0.3-0.8-0.6-1c-0.6-0.7-1.6-1-3-1c-0.9,0-1.7,0.1-2.5,0.4
		c-0.8,0.3-1.5,0.7-2.3,1.2v10.8h-1V132.3z"/>
	<path class="st1" d="M219.1,144.8c-0.9-0.6-1.6-1.4-2.1-2.4s-0.8-2.2-0.8-3.4c0-1.4,0.3-2.5,0.9-3.6c0.6-1,1.3-1.8,2.3-2.4
		s2-0.9,3.2-0.9c1.2,0,2.2,0.2,3,0.7c0.8,0.5,1.4,1,1.7,1.7h0v-7.1l1-0.3v14.7c0,1.6,0,2.9,0,3.6h-0.8c-0.1-0.6-0.2-1.3-0.2-2.1h0
		c-1.2,1.6-2.9,2.4-5,2.4C221.1,145.6,220,145.3,219.1,144.8z M225.3,144c0.8-0.5,1.5-1.2,2-2.1v-4.6c0-0.8-0.2-1.6-0.6-2.3
		c-0.4-0.7-0.9-1.2-1.7-1.6c-0.7-0.4-1.6-0.6-2.5-0.6c-1,0-2,0.3-2.8,0.8c-0.8,0.5-1.4,1.2-1.9,2.2c-0.5,0.9-0.7,2-0.7,3.1
		c0,1.2,0.2,2.3,0.7,3.1c0.5,0.9,1.1,1.5,1.9,2c0.8,0.5,1.6,0.7,2.6,0.7C223.5,144.8,224.5,144.5,225.3,144z"/>
	<path class="st1" d="M232.5,129.6c-0.2-0.2-0.3-0.4-0.3-0.7s0.1-0.5,0.3-0.7c0.2-0.2,0.4-0.3,0.7-0.3c0.3,0,0.5,0.1,0.7,0.3
		c0.2,0.2,0.3,0.4,0.3,0.7s-0.1,0.5-0.3,0.7s-0.5,0.3-0.7,0.3C232.9,129.9,232.7,129.8,232.5,129.6z M232.7,132.3h1v13h-1V132.3z"/>
	<path class="st1" d="M239.2,145.3c-0.7-0.2-1.3-0.5-1.8-0.8l0.1-0.9c0.6,0.4,1.2,0.6,1.9,0.8c0.7,0.2,1.4,0.3,2.1,0.3
		c2.2,0,3.3-0.9,3.3-2.8c0-0.5-0.1-1-0.3-1.3c-0.2-0.3-0.5-0.6-0.9-0.8c-0.4-0.2-1-0.5-1.7-0.8c-1-0.4-1.8-0.8-2.4-1.1
		c-0.6-0.4-1-0.7-1.2-1.2c-0.3-0.4-0.4-0.9-0.4-1.5c0-1,0.4-1.8,1.1-2.4c0.7-0.6,1.8-0.9,3.1-0.9c0.6,0,1.2,0.1,1.7,0.2
		c0.6,0.1,1,0.3,1.4,0.4l-0.2,0.8c-1-0.4-2-0.6-3-0.6c-1,0-1.8,0.2-2.4,0.6s-0.8,1-0.8,1.8c0,0.6,0.2,1.1,0.6,1.5
		c0.4,0.4,1.2,0.8,2.4,1.3c0.9,0.3,1.6,0.7,2.2,1c0.5,0.3,0.9,0.7,1.3,1.1c0.3,0.5,0.5,1.1,0.5,1.8c0,1.2-0.4,2-1.2,2.7
		s-1.9,1-3.2,1C240.6,145.6,239.9,145.5,239.2,145.3z"/>
	<path class="st1" d="M249.2,132.3h0.9l0.1,2.4c0.4-0.7,1-1.3,1.8-1.8s1.9-0.8,3.2-0.8c1.1,0,2,0.3,3,0.8c0.9,0.5,1.7,1.3,2.2,2.3
		c0.6,1,0.8,2.2,0.8,3.7c0,1.3-0.3,2.5-0.8,3.5s-1.2,1.8-2.1,2.4c-0.9,0.6-1.9,0.9-3.1,0.9c-1.1,0-2-0.2-2.9-0.5
		c-0.9-0.4-1.6-0.8-2.1-1.5v7.2l-1,0.3V132.3z M257.9,144c0.8-0.6,1.3-1.3,1.7-2.2s0.6-1.9,0.6-2.9c0-1.3-0.2-2.3-0.7-3.2
		c-0.5-0.9-1.1-1.5-1.9-2s-1.6-0.7-2.6-0.7c-0.8,0-1.6,0.2-2.3,0.5s-1.3,0.9-1.8,1.5c-0.5,0.7-0.7,1.4-0.7,2.2v5.1
		c0.6,0.8,1.3,1.3,2.1,1.8c0.8,0.4,1.8,0.6,2.8,0.6C256.2,144.8,257.1,144.5,257.9,144z"/>
	<path class="st1" d="M265.4,144c-1.1-1.1-1.7-2.8-1.7-5.1c0-1.3,0.2-2.5,0.7-3.5c0.5-1,1.2-1.8,2.1-2.4c0.9-0.6,2-0.9,3.3-0.9
		c1.7,0,3,0.5,3.8,1.4s1.3,2.2,1.3,3.7c0,0.6,0,1.2-0.1,1.8h-10.1c0.1,1.9,0.5,3.3,1.3,4.3c0.8,1,2.2,1.5,4.1,1.5
		c0.5,0,1.2-0.1,1.9-0.3c0.7-0.2,1.3-0.4,1.9-0.7l0.3,0.8c-0.6,0.3-1.3,0.6-2,0.8s-1.5,0.3-2.3,0.3
		C268.1,145.6,266.6,145.1,265.4,144z M273.8,138.2c0-0.3,0.1-0.6,0.1-0.9c0-1.3-0.3-2.3-1-3.1s-1.7-1.2-3.2-1.2s-2.7,0.5-3.5,1.5
		c-0.9,1-1.4,2.3-1.5,3.8H273.8z"/>
	<path class="st1" d="M278.1,132.3h0.9l0.1,1.3c1.5-1,3.2-1.6,5.1-1.6c1.5,0,2.6,0.4,3.4,1.2c0.4,0.3,0.6,0.8,0.8,1.3
		c0.2,0.5,0.3,1.1,0.3,1.9v9h-1v-8.9c0-0.6-0.1-1.1-0.2-1.5c-0.1-0.4-0.3-0.8-0.6-1c-0.6-0.7-1.6-1-3-1c-0.9,0-1.7,0.1-2.5,0.4
		c-0.8,0.3-1.5,0.7-2.3,1.2v10.8h-1V132.3z"/>
	<path class="st1" d="M293.9,145.3c-0.7-0.2-1.3-0.5-1.8-0.8l0.1-0.9c0.6,0.4,1.2,0.6,1.9,0.8c0.7,0.2,1.4,0.3,2.1,0.3
		c2.2,0,3.3-0.9,3.3-2.8c0-0.5-0.1-1-0.3-1.3c-0.2-0.3-0.5-0.6-0.9-0.8c-0.4-0.2-1-0.5-1.7-0.8c-1-0.4-1.8-0.8-2.4-1.1
		c-0.6-0.4-1-0.7-1.2-1.2c-0.3-0.4-0.4-0.9-0.4-1.5c0-1,0.4-1.8,1.1-2.4c0.7-0.6,1.8-0.9,3.1-0.9c0.6,0,1.2,0.1,1.7,0.2
		c0.6,0.1,1,0.3,1.4,0.4l-0.2,0.8c-1-0.4-2-0.6-3-0.6c-1,0-1.8,0.2-2.4,0.6s-0.8,1-0.8,1.8c0,0.6,0.2,1.1,0.6,1.5
		c0.4,0.4,1.2,0.8,2.4,1.3c0.9,0.3,1.6,0.7,2.2,1c0.5,0.3,0.9,0.7,1.3,1.1c0.3,0.5,0.5,1.1,0.5,1.8c0,1.2-0.4,2-1.2,2.7
		s-1.9,1-3.2,1C295.3,145.6,294.6,145.5,293.9,145.3z"/>
	<path class="st1" d="M304.6,144.6c-0.8-0.7-1.3-1.7-1.3-3c0-1,0.3-1.7,1-2.2c0.7-0.5,1.6-0.8,2.8-0.8h2.6c0.6,0,1.5,0,2.4,0.1V137
		c0-1.4-0.3-2.5-1-3.1c-0.6-0.7-1.6-1-2.9-1c-0.8,0-1.4,0.1-2,0.2c-0.6,0.1-1.2,0.3-1.8,0.5l-0.1-0.8c1.3-0.4,2.6-0.7,4.1-0.7
		c1.5,0,2.7,0.4,3.5,1.1c0.8,0.8,1.2,1.9,1.2,3.4v5.2c0,1.6,0,2.9,0,3.6h-0.8c-0.1-0.6-0.2-1.2-0.2-1.8h0c-0.4,0.6-0.9,1.1-1.6,1.5
		s-1.6,0.6-2.7,0.6C306.5,145.6,305.5,145.3,304.6,144.6z M311.1,143.8c0.8-0.7,1.1-1.6,1.1-2.9v-1.6h-5.3c-1.7,0-2.5,0.7-2.5,2.2
		c0,1,0.3,1.8,1,2.4c0.7,0.6,1.5,0.9,2.6,0.9C309.3,144.8,310.3,144.5,311.1,143.8z"/>
	<path class="st1" d="M317.6,144.4v-17l1-0.3v7.5h0.1c0.4-0.7,1-1.3,1.9-1.8c0.8-0.5,1.9-0.7,3.1-0.7c1.1,0,2.2,0.3,3.1,0.8
		c0.9,0.5,1.6,1.2,2.1,2.2s0.8,2.1,0.8,3.5c0,1.4-0.3,2.6-0.8,3.7s-1.3,1.9-2.3,2.5s-2.1,0.9-3.5,0.9
		C321,145.6,319.2,145.2,317.6,144.4z M327,143.2c1-1.1,1.5-2.6,1.5-4.5c0-1.9-0.5-3.3-1.4-4.3c-0.9-1-2.2-1.5-3.7-1.5
		c-0.8,0-1.6,0.2-2.3,0.6s-1.3,0.9-1.8,1.5c-0.4,0.7-0.7,1.4-0.7,2.2v6.7c0.6,0.3,1.2,0.5,2,0.6c0.8,0.2,1.6,0.3,2.4,0.3
		C324.7,144.8,326,144.3,327,143.2z"/>
	<path class="st1" d="M333,127.4l1-0.3v18.3h-1V127.4z"/>
	<path class="st1" d="M338.9,144c-1.1-1.1-1.7-2.8-1.7-5.1c0-1.3,0.2-2.5,0.7-3.5c0.5-1,1.2-1.8,2.1-2.4c0.9-0.6,2-0.9,3.3-0.9
		c1.7,0,3,0.5,3.8,1.4s1.3,2.2,1.3,3.7c0,0.6,0,1.2-0.1,1.8h-10.1c0.1,1.9,0.5,3.3,1.3,4.3c0.8,1,2.2,1.5,4.1,1.5
		c0.5,0,1.2-0.1,1.9-0.3c0.7-0.2,1.3-0.4,1.9-0.7l0.3,0.8c-0.6,0.3-1.3,0.6-2,0.8s-1.5,0.3-2.3,0.3C341.5,145.6,340,145.1,338.9,144
		z M347.3,138.2c0-0.3,0.1-0.6,0.1-0.9c0-1.3-0.3-2.3-1-3.1s-1.7-1.2-3.2-1.2s-2.7,0.5-3.5,1.5c-0.9,1-1.4,2.3-1.5,3.8H347.3z"/>
	<path class="st1" d="M367.3,143.3c-0.6,0.8-1.3,1.4-2.1,1.8c-0.8,0.4-1.8,0.6-2.9,0.6c-1.2,0-2.2-0.3-3.2-0.8
		c-0.9-0.5-1.7-1.3-2.2-2.3s-0.8-2.2-0.8-3.5c0-1.5,0.3-2.8,0.9-3.8c0.6-1,1.4-1.8,2.4-2.3c1-0.5,2-0.8,3-0.8c1.2,0,2.3,0.3,3.1,0.8
		c0.8,0.5,1.4,1.1,1.8,1.9l0.1-2.4h0.9v18.5l-1,0.3V143.3z M365.3,144c0.8-0.5,1.5-1.2,2-2.1v-4.6c0-0.7-0.2-1.4-0.6-2
		c-0.4-0.7-0.9-1.2-1.7-1.7c-0.7-0.4-1.5-0.6-2.5-0.6c-1,0-1.9,0.2-2.7,0.7c-0.8,0.5-1.5,1.2-2,2.1c-0.5,0.9-0.7,1.9-0.7,3.1
		c0,1.3,0.2,2.3,0.7,3.2s1.1,1.6,1.9,2c0.8,0.5,1.7,0.7,2.7,0.7C363.5,144.8,364.5,144.5,365.3,144z"/>
	<path class="st1" d="M374,144.4c-1-0.8-1.5-2.1-1.5-3.8v-8.3h1v8.3c0,1.3,0.4,2.3,1.2,3c0.8,0.7,1.9,1.1,3.3,1.1
		c1.3,0,2.3-0.4,3-1.1c0.7-0.7,1-1.7,1-3v-8.3h1v8.3c0,1.5-0.5,2.7-1.4,3.6c-0.9,0.9-2.2,1.4-3.8,1.4
		C376.3,145.6,375,145.2,374,144.4z"/>
	<path class="st1" d="M388,144c-1.1-1.1-1.7-2.8-1.7-5.1c0-1.3,0.2-2.5,0.7-3.5c0.5-1,1.2-1.8,2.1-2.4c0.9-0.6,2-0.9,3.3-0.9
		c1.7,0,3,0.5,3.8,1.4s1.3,2.2,1.3,3.7c0,0.6,0,1.2-0.1,1.8h-10.1c0.1,1.9,0.5,3.3,1.3,4.3c0.8,1,2.2,1.5,4.1,1.5
		c0.5,0,1.2-0.1,1.9-0.3c0.7-0.2,1.3-0.4,1.9-0.7l0.3,0.8c-0.6,0.3-1.3,0.6-2,0.8s-1.5,0.3-2.3,0.3C390.7,145.6,389.2,145.1,388,144
		z M396.4,138.2c0-0.3,0.1-0.6,0.1-0.9c0-1.3-0.3-2.3-1-3.1s-1.7-1.2-3.2-1.2s-2.7,0.5-3.5,1.5c-0.9,1-1.4,2.3-1.5,3.8H396.4z"/>
	<path class="st1" d="M406.2,127.4l1-0.3v18.3h-1V127.4z"/>
	<path class="st1" d="M413.2,144.7c-0.9-0.6-1.6-1.4-2.1-2.5c-0.5-1-0.7-2.1-0.7-3.4c0-1.2,0.2-2.4,0.7-3.4c0.5-1,1.2-1.8,2.2-2.5
		c1-0.6,2.2-0.9,3.6-0.9c1.3,0,2.4,0.3,3.3,0.9c0.9,0.6,1.6,1.4,2.1,2.5c0.5,1,0.7,2.2,0.7,3.4c0,1.2-0.2,2.3-0.7,3.3
		c-0.5,1-1.2,1.9-2.2,2.5c-1,0.6-2.2,1-3.6,1C415.2,145.6,414.1,145.3,413.2,144.7z M419.5,144c0.8-0.5,1.4-1.2,1.8-2.1
		c0.4-0.9,0.6-1.9,0.6-3.1c0-1.2-0.2-2.2-0.6-3.1c-0.4-0.9-1-1.6-1.8-2.1s-1.7-0.7-2.8-0.7c-1.1,0-2,0.2-2.8,0.7
		c-0.8,0.5-1.4,1.2-1.9,2.1c-0.4,0.9-0.7,1.9-0.7,3.1c0,1.2,0.2,2.2,0.7,3.1c0.4,0.9,1.1,1.6,1.9,2.1c0.8,0.5,1.7,0.7,2.7,0.7
		C417.7,144.8,418.7,144.5,419.5,144z"/>
	<path class="st1" d="M427.5,145.3c-0.7-0.2-1.3-0.5-1.8-0.8l0.1-0.9c0.6,0.4,1.2,0.6,1.9,0.8c0.7,0.2,1.4,0.3,2.1,0.3
		c2.2,0,3.3-0.9,3.3-2.8c0-0.5-0.1-1-0.3-1.3c-0.2-0.3-0.5-0.6-0.9-0.8c-0.4-0.2-1-0.5-1.7-0.8c-1-0.4-1.8-0.8-2.4-1.1
		c-0.6-0.4-1-0.7-1.2-1.2c-0.3-0.4-0.4-0.9-0.4-1.5c0-1,0.4-1.8,1.1-2.4c0.7-0.6,1.8-0.9,3.1-0.9c0.6,0,1.2,0.1,1.7,0.2
		c0.6,0.1,1,0.3,1.4,0.4l-0.2,0.8c-1-0.4-2-0.6-3-0.6c-1,0-1.8,0.2-2.4,0.6s-0.8,1-0.8,1.8c0,0.6,0.2,1.1,0.6,1.5
		c0.4,0.4,1.2,0.8,2.4,1.3c0.9,0.3,1.6,0.7,2.2,1c0.5,0.3,0.9,0.7,1.3,1.1c0.3,0.5,0.5,1.1,0.5,1.8c0,1.2-0.4,2-1.2,2.7
		s-1.9,1-3.2,1C428.9,145.6,428.2,145.5,427.5,145.3z"/>
	<path class="st1" d="M442.9,132.3h0.9l0.1,1.3c1.5-1,3.2-1.6,5.1-1.6c1.5,0,2.6,0.4,3.4,1.2c0.4,0.3,0.6,0.8,0.8,1.3
		c0.2,0.5,0.3,1.1,0.3,1.9v9h-1v-8.9c0-0.6-0.1-1.1-0.2-1.5c-0.1-0.4-0.3-0.8-0.6-1c-0.6-0.7-1.6-1-3-1c-0.9,0-1.7,0.1-2.5,0.4
		c-0.8,0.3-1.5,0.7-2.3,1.2v10.8h-1V132.3z"/>
	<path class="st1" d="M459.6,144.7c-0.9-0.6-1.6-1.4-2.1-2.5c-0.5-1-0.7-2.1-0.7-3.4c0-1.2,0.2-2.4,0.7-3.4c0.5-1,1.2-1.8,2.2-2.5
		c1-0.6,2.2-0.9,3.6-0.9c1.3,0,2.4,0.3,3.3,0.9c0.9,0.6,1.6,1.4,2.1,2.5c0.5,1,0.7,2.2,0.7,3.4c0,1.2-0.2,2.3-0.7,3.3
		c-0.5,1-1.2,1.9-2.2,2.5c-1,0.6-2.2,1-3.6,1C461.6,145.6,460.5,145.3,459.6,144.7z M465.8,144c0.8-0.5,1.4-1.2,1.8-2.1
		c0.4-0.9,0.6-1.9,0.6-3.1c0-1.2-0.2-2.2-0.6-3.1c-0.4-0.9-1-1.6-1.8-2.1s-1.7-0.7-2.8-0.7c-1.1,0-2,0.2-2.8,0.7
		c-0.8,0.5-1.4,1.2-1.9,2.1c-0.4,0.9-0.7,1.9-0.7,3.1c0,1.2,0.2,2.2,0.7,3.1c0.4,0.9,1.1,1.6,1.9,2.1c0.8,0.5,1.7,0.7,2.7,0.7
		C464.1,144.8,465,144.5,465.8,144z"/>
	<path class="st1" d="M472.7,132.3h0.9l0.1,1.3c0.6-0.5,1.2-0.9,2-1.2c0.8-0.3,1.6-0.4,2.4-0.4c0.8,0,1.6,0.2,2.2,0.5
		s1.1,0.7,1.4,1.2c0.6-0.5,1.3-0.9,2.2-1.2c0.9-0.3,1.8-0.4,2.6-0.4c0.7,0,1.3,0.1,1.9,0.3c0.6,0.2,1.1,0.5,1.4,0.9
		c0.4,0.4,0.6,0.8,0.8,1.4s0.3,1.2,0.3,1.8v8.9h-1v-8.6c0-1.2-0.2-2-0.7-2.6c-0.6-0.8-1.6-1.2-2.8-1.2c-0.8,0-1.5,0.1-2.4,0.4
		c-0.8,0.3-1.5,0.7-2,1.1c0.2,0.5,0.3,1.3,0.3,2.5v8.4h-1v-8c0-0.9,0-1.5-0.1-1.9c0-0.4-0.2-0.8-0.4-1.1c-0.3-0.4-0.6-0.8-1.1-1
		c-0.5-0.2-1.1-0.3-1.7-0.3c-0.8,0-1.6,0.2-2.4,0.5s-1.4,0.7-1.9,1.1v10.8h-1V132.3z"/>
	<path class="st1" d="M495.1,144.4v-17l1-0.3v7.5h0.1c0.4-0.7,1-1.3,1.9-1.8c0.8-0.5,1.9-0.7,3.1-0.7c1.1,0,2.2,0.3,3.1,0.8
		c0.9,0.5,1.6,1.2,2.1,2.2s0.8,2.1,0.8,3.5c0,1.4-0.3,2.6-0.8,3.7s-1.3,1.9-2.3,2.5s-2.1,0.9-3.5,0.9
		C498.5,145.6,496.7,145.2,495.1,144.4z M504.5,143.2c1-1.1,1.5-2.6,1.5-4.5c0-1.9-0.5-3.3-1.4-4.3c-0.9-1-2.2-1.5-3.7-1.5
		c-0.8,0-1.6,0.2-2.3,0.6s-1.3,0.9-1.8,1.5c-0.4,0.7-0.7,1.4-0.7,2.2v6.7c0.6,0.3,1.2,0.5,2,0.6c0.8,0.2,1.6,0.3,2.4,0.3
		C502.2,144.8,503.5,144.3,504.5,143.2z"/>
	<path class="st1" d="M510.5,132.3h0.9l0.1,1.9c0.5-0.6,1.2-1,2.1-1.4c0.8-0.4,1.7-0.6,2.7-0.7l-0.1,1c-0.8,0-1.6,0.2-2.5,0.6
		s-1.6,0.9-2.2,1.4v10.2h-1V132.3z"/>
	<path class="st1" d="M519.1,144c-1.1-1.1-1.7-2.8-1.7-5.1c0-1.3,0.2-2.5,0.7-3.5c0.5-1,1.2-1.8,2.1-2.4c0.9-0.6,2-0.9,3.3-0.9
		c1.7,0,3,0.5,3.8,1.4s1.3,2.2,1.3,3.7c0,0.6,0,1.2-0.1,1.8h-10.1c0.1,1.9,0.5,3.3,1.3,4.3c0.8,1,2.2,1.5,4.1,1.5
		c0.5,0,1.2-0.1,1.9-0.3c0.7-0.2,1.3-0.4,1.9-0.7l0.3,0.8c-0.6,0.3-1.3,0.6-2,0.8s-1.5,0.3-2.3,0.3
		C521.8,145.6,520.3,145.1,519.1,144z M527.5,138.2c0-0.3,0.1-0.6,0.1-0.9c0-1.3-0.3-2.3-1-3.1s-1.7-1.2-3.2-1.2s-2.7,0.5-3.5,1.5
		c-0.9,1-1.4,2.3-1.5,3.8H527.5z"/>
	<path class="st1" d="M532.9,145.3c-0.7-0.2-1.3-0.5-1.8-0.8l0.1-0.9c0.6,0.4,1.2,0.6,1.9,0.8c0.7,0.2,1.4,0.3,2.1,0.3
		c2.2,0,3.3-0.9,3.3-2.8c0-0.5-0.1-1-0.3-1.3c-0.2-0.3-0.5-0.6-0.9-0.8c-0.4-0.2-1-0.5-1.7-0.8c-1-0.4-1.8-0.8-2.4-1.1
		c-0.6-0.4-1-0.7-1.2-1.2c-0.3-0.4-0.4-0.9-0.4-1.5c0-1,0.4-1.8,1.1-2.4c0.7-0.6,1.8-0.9,3.1-0.9c0.6,0,1.2,0.1,1.7,0.2
		c0.6,0.1,1,0.3,1.4,0.4l-0.2,0.8c-1-0.4-2-0.6-3-0.6c-1,0-1.8,0.2-2.4,0.6s-0.8,1-0.8,1.8c0,0.6,0.2,1.1,0.6,1.5
		c0.4,0.4,1.2,0.8,2.4,1.3c0.9,0.3,1.6,0.7,2.2,1c0.5,0.3,0.9,0.7,1.3,1.1c0.3,0.5,0.5,1.1,0.5,1.8c0,1.2-0.4,2-1.2,2.7
		s-1.9,1-3.2,1C534.4,145.6,533.7,145.5,532.9,145.3z"/>
	<path class="st1" d="M549.5,145.3c-0.7-0.2-1.3-0.5-1.8-0.8l0.1-0.9c0.6,0.4,1.2,0.6,1.9,0.8c0.7,0.2,1.4,0.3,2.1,0.3
		c2.2,0,3.3-0.9,3.3-2.8c0-0.5-0.1-1-0.3-1.3c-0.2-0.3-0.5-0.6-0.9-0.8c-0.4-0.2-1-0.5-1.7-0.8c-1-0.4-1.8-0.8-2.4-1.1
		c-0.6-0.4-1-0.7-1.2-1.2c-0.3-0.4-0.4-0.9-0.4-1.5c0-1,0.4-1.8,1.1-2.4c0.7-0.6,1.8-0.9,3.1-0.9c0.6,0,1.2,0.1,1.7,0.2
		c0.6,0.1,1,0.3,1.4,0.4l-0.2,0.8c-1-0.4-2-0.6-3-0.6c-1,0-1.8,0.2-2.4,0.6s-0.8,1-0.8,1.8c0,0.6,0.2,1.1,0.6,1.5
		c0.4,0.4,1.2,0.8,2.4,1.3c0.9,0.3,1.6,0.7,2.2,1c0.5,0.3,0.9,0.7,1.3,1.1c0.3,0.5,0.5,1.1,0.5,1.8c0,1.2-0.4,2-1.2,2.7
		s-1.9,1-3.2,1C551,145.6,550.2,145.5,549.5,145.3z"/>
	<path class="st1" d="M560.4,144c-1.1-1.1-1.7-2.8-1.7-5.1c0-1.3,0.2-2.5,0.7-3.5c0.5-1,1.2-1.8,2.1-2.4c0.9-0.6,2-0.9,3.3-0.9
		c1.7,0,3,0.5,3.8,1.4s1.3,2.2,1.3,3.7c0,0.6,0,1.2-0.1,1.8h-10.1c0.1,1.9,0.5,3.3,1.3,4.3c0.8,1,2.2,1.5,4.1,1.5
		c0.5,0,1.2-0.1,1.9-0.3c0.7-0.2,1.3-0.4,1.9-0.7l0.3,0.8c-0.6,0.3-1.3,0.6-2,0.8s-1.5,0.3-2.3,0.3C563,145.6,561.5,145.1,560.4,144
		z M568.8,138.2c0-0.3,0.1-0.6,0.1-0.9c0-1.3-0.3-2.3-1-3.1s-1.7-1.2-3.2-1.2s-2.7,0.5-3.5,1.5c-0.9,1-1.4,2.3-1.5,3.8H568.8z"/>
	<path class="st1" d="M573.8,144.6c-0.8-0.7-1.3-1.7-1.3-3c0-1,0.3-1.7,1-2.2c0.7-0.5,1.6-0.8,2.8-0.8h2.6c0.6,0,1.5,0,2.4,0.1V137
		c0-1.4-0.3-2.5-1-3.1c-0.6-0.7-1.6-1-2.9-1c-0.8,0-1.4,0.1-2,0.2c-0.6,0.1-1.2,0.3-1.8,0.5l-0.1-0.8c1.3-0.4,2.6-0.7,4.1-0.7
		c1.5,0,2.7,0.4,3.5,1.1c0.8,0.8,1.2,1.9,1.2,3.4v5.2c0,1.6,0,2.9,0,3.6h-0.8c-0.1-0.6-0.2-1.2-0.2-1.8h0c-0.4,0.6-0.9,1.1-1.6,1.5
		s-1.6,0.6-2.7,0.6C575.7,145.6,574.6,145.3,573.8,144.6z M580.2,143.8c0.8-0.7,1.1-1.6,1.1-2.9v-1.6h-5.3c-1.7,0-2.5,0.7-2.5,2.2
		c0,1,0.3,1.8,1,2.4c0.7,0.6,1.5,0.9,2.6,0.9C578.4,144.8,579.5,144.5,580.2,143.8z"/>
	<path class="st1" d="M586.7,132.3h0.9l0.1,1.3c1.5-1,3.2-1.6,5.1-1.6c1.5,0,2.6,0.4,3.4,1.2c0.4,0.3,0.6,0.8,0.8,1.3
		c0.2,0.5,0.3,1.1,0.3,1.9v9h-1v-8.9c0-0.6-0.1-1.1-0.2-1.5c-0.1-0.4-0.3-0.8-0.6-1c-0.6-0.7-1.6-1-3-1c-0.9,0-1.7,0.1-2.5,0.4
		c-0.8,0.3-1.5,0.7-2.3,1.2v10.8h-1V132.3z"/>
	<path class="st1" d="M607.7,144c-1.1-1.1-1.7-2.8-1.7-5.1c0-1.3,0.2-2.5,0.7-3.5c0.5-1,1.2-1.8,2.1-2.4c0.9-0.6,2-0.9,3.3-0.9
		c1.7,0,3,0.5,3.8,1.4s1.3,2.2,1.3,3.7c0,0.6,0,1.2-0.1,1.8H607c0.1,1.9,0.5,3.3,1.3,4.3c0.8,1,2.2,1.5,4.1,1.5
		c0.5,0,1.2-0.1,1.9-0.3c0.7-0.2,1.3-0.4,1.9-0.7l0.3,0.8c-0.6,0.3-1.3,0.6-2,0.8s-1.5,0.3-2.3,0.3
		C610.3,145.6,608.8,145.1,607.7,144z M616.1,138.2c0-0.3,0.1-0.6,0.1-0.9c0-1.3-0.3-2.3-1-3.1s-1.7-1.2-3.2-1.2s-2.7,0.5-3.5,1.5
		c-0.9,1-1.4,2.3-1.5,3.8H616.1z"/>
	<path class="st1" d="M621.5,145.3c-0.7-0.2-1.3-0.5-1.8-0.8l0.1-0.9c0.6,0.4,1.2,0.6,1.9,0.8c0.7,0.2,1.4,0.3,2.1,0.3
		c2.2,0,3.3-0.9,3.3-2.8c0-0.5-0.1-1-0.3-1.3c-0.2-0.3-0.5-0.6-0.9-0.8c-0.4-0.2-1-0.5-1.7-0.8c-1-0.4-1.8-0.8-2.4-1.1
		c-0.6-0.4-1-0.7-1.2-1.2c-0.3-0.4-0.4-0.9-0.4-1.5c0-1,0.4-1.8,1.1-2.4c0.7-0.6,1.8-0.9,3.1-0.9c0.6,0,1.2,0.1,1.7,0.2
		c0.6,0.1,1,0.3,1.4,0.4l-0.2,0.8c-1-0.4-2-0.6-3-0.6c-1,0-1.8,0.2-2.4,0.6s-0.8,1-0.8,1.8c0,0.6,0.2,1.1,0.6,1.5
		c0.4,0.4,1.2,0.8,2.4,1.3c0.9,0.3,1.6,0.7,2.2,1c0.5,0.3,0.9,0.7,1.3,1.1c0.3,0.5,0.5,1.1,0.5,1.8c0,1.2-0.4,2-1.2,2.7
		s-1.9,1-3.2,1C622.9,145.6,622.2,145.5,621.5,145.3z"/>
	<path class="st1" d="M633.7,144.8c-1-0.5-1.8-1.3-2.3-2.3c-0.6-1-0.8-2.2-0.8-3.6c0-1.4,0.3-2.6,0.9-3.6c0.6-1,1.4-1.8,2.4-2.4
		c1-0.5,2.1-0.8,3.4-0.8c0.7,0,1.4,0.1,2.1,0.2c0.7,0.1,1.2,0.3,1.7,0.6l-0.2,0.8c-1-0.6-2.2-0.8-3.6-0.8c-1.1,0-2.1,0.3-3,0.8
		s-1.5,1.2-1.9,2.1c-0.4,0.9-0.7,1.9-0.7,3.1c0,1,0.2,1.9,0.5,2.8c0.3,0.9,0.9,1.6,1.8,2.2c0.8,0.6,1.9,0.9,3.2,0.9
		c0.6,0,1.3-0.1,2-0.3c0.7-0.2,1.4-0.4,1.9-0.7l0.2,0.8c-0.6,0.3-1.3,0.6-2,0.7c-0.7,0.2-1.4,0.3-2.2,0.3
		C635.9,145.6,634.7,145.4,633.7,144.8z"/>
	<path class="st1" d="M644.1,132.3h0.9l0.1,1.9c0.5-0.6,1.2-1,2.1-1.4c0.8-0.4,1.7-0.6,2.7-0.7l-0.1,1c-0.8,0-1.6,0.2-2.5,0.6
		s-1.6,0.9-2.2,1.4v10.2h-1V132.3z"/>
	<path class="st1" d="M652.3,129.6c-0.2-0.2-0.3-0.4-0.3-0.7s0.1-0.5,0.3-0.7c0.2-0.2,0.4-0.3,0.7-0.3c0.3,0,0.5,0.1,0.7,0.3
		c0.2,0.2,0.3,0.4,0.3,0.7s-0.1,0.5-0.3,0.7s-0.5,0.3-0.7,0.3C652.8,129.9,652.5,129.8,652.3,129.6z M652.5,132.3h1v13h-1V132.3z"/>
	<path class="st1" d="M658.7,144.7c-0.6-0.5-0.8-1.3-0.8-2.4v-13.1l1-0.3v3.4h4.8l-0.4,0.8h-4.4v8.8c0,1,0.2,1.7,0.5,2.1
		c0.4,0.4,1,0.6,2,0.6c0.6,0,1.4-0.1,2.2-0.3l0.1,0.8c-0.3,0.1-0.6,0.2-1.1,0.2c-0.5,0.1-0.9,0.1-1.4,0.1
		C660.1,145.5,659.3,145.2,658.7,144.7z"/>
	<path class="st1" d="M667.7,144.7c-0.9-0.6-1.6-1.4-2.1-2.5c-0.5-1-0.7-2.1-0.7-3.4c0-1.2,0.2-2.4,0.7-3.4c0.5-1,1.2-1.8,2.2-2.5
		c1-0.6,2.2-0.9,3.6-0.9c1.3,0,2.4,0.3,3.3,0.9c0.9,0.6,1.6,1.4,2.1,2.5c0.5,1,0.7,2.2,0.7,3.4c0,1.2-0.2,2.3-0.7,3.3
		c-0.5,1-1.2,1.9-2.2,2.5c-1,0.6-2.2,1-3.6,1C669.7,145.6,668.6,145.3,667.7,144.7z M673.9,144c0.8-0.5,1.4-1.2,1.8-2.1
		c0.4-0.9,0.6-1.9,0.6-3.1c0-1.2-0.2-2.2-0.6-3.1c-0.4-0.9-1-1.6-1.8-2.1s-1.7-0.7-2.8-0.7c-1.1,0-2,0.2-2.8,0.7
		c-0.8,0.5-1.4,1.2-1.9,2.1c-0.4,0.9-0.7,1.9-0.7,3.1c0,1.2,0.2,2.2,0.7,3.1c0.4,0.9,1.1,1.6,1.9,2.1c0.8,0.5,1.7,0.7,2.7,0.7
		C672.2,144.8,673.1,144.5,673.9,144z"/>
	<path class="st1" d="M681.9,145.3c-0.7-0.2-1.3-0.5-1.8-0.8l0.1-0.9c0.6,0.4,1.2,0.6,1.9,0.8c0.7,0.2,1.4,0.3,2.1,0.3
		c2.2,0,3.3-0.9,3.3-2.8c0-0.5-0.1-1-0.3-1.3c-0.2-0.3-0.5-0.6-0.9-0.8c-0.4-0.2-1-0.5-1.7-0.8c-1-0.4-1.8-0.8-2.4-1.1
		c-0.6-0.4-1-0.7-1.2-1.2c-0.3-0.4-0.4-0.9-0.4-1.5c0-1,0.4-1.8,1.1-2.4c0.7-0.6,1.8-0.9,3.1-0.9c0.6,0,1.2,0.1,1.7,0.2
		c0.6,0.1,1,0.3,1.4,0.4l-0.2,0.8c-1-0.4-2-0.6-3-0.6c-1,0-1.8,0.2-2.4,0.6s-0.8,1-0.8,1.8c0,0.6,0.2,1.1,0.6,1.5
		c0.4,0.4,1.2,0.8,2.4,1.3c0.9,0.3,1.6,0.7,2.2,1c0.5,0.3,0.9,0.7,1.3,1.1c0.3,0.5,0.5,1.1,0.5,1.8c0,1.2-0.4,2-1.2,2.7
		s-1.9,1-3.2,1C683.4,145.6,682.6,145.5,681.9,145.3z"/>
	<path class="st1" d="M699.6,144.8c-1-0.5-1.8-1.3-2.3-2.3c-0.6-1-0.8-2.2-0.8-3.6c0-1.4,0.3-2.6,0.9-3.6c0.6-1,1.4-1.8,2.4-2.4
		c1-0.5,2.1-0.8,3.4-0.8c0.7,0,1.4,0.1,2.1,0.2c0.7,0.1,1.2,0.3,1.7,0.6l-0.2,0.8c-1-0.6-2.2-0.8-3.6-0.8c-1.1,0-2.1,0.3-3,0.8
		s-1.5,1.2-1.9,2.1c-0.4,0.9-0.7,1.9-0.7,3.1c0,1,0.2,1.9,0.5,2.8c0.3,0.9,0.9,1.6,1.8,2.2c0.8,0.6,1.9,0.9,3.2,0.9
		c0.6,0,1.3-0.1,2-0.3c0.7-0.2,1.4-0.4,1.9-0.7l0.2,0.8c-0.6,0.3-1.3,0.6-2,0.7c-0.7,0.2-1.4,0.3-2.2,0.3
		C701.8,145.6,700.6,145.4,699.6,144.8z"/>
	<path class="st1" d="M711.7,144.7c-0.9-0.6-1.6-1.4-2.1-2.5c-0.5-1-0.7-2.1-0.7-3.4c0-1.2,0.2-2.4,0.7-3.4c0.5-1,1.2-1.8,2.2-2.5
		c1-0.6,2.2-0.9,3.6-0.9c1.3,0,2.4,0.3,3.3,0.9c0.9,0.6,1.6,1.4,2.1,2.5c0.5,1,0.7,2.2,0.7,3.4c0,1.2-0.2,2.3-0.7,3.3
		c-0.5,1-1.2,1.9-2.2,2.5c-1,0.6-2.2,1-3.6,1C713.7,145.6,712.6,145.3,711.7,144.7z M717.9,144c0.8-0.5,1.4-1.2,1.8-2.1
		c0.4-0.9,0.6-1.9,0.6-3.1c0-1.2-0.2-2.2-0.6-3.1c-0.4-0.9-1-1.6-1.8-2.1s-1.7-0.7-2.8-0.7c-1.1,0-2,0.2-2.8,0.7
		c-0.8,0.5-1.4,1.2-1.9,2.1c-0.4,0.9-0.7,1.9-0.7,3.1c0,1.2,0.2,2.2,0.7,3.1c0.4,0.9,1.1,1.6,1.9,2.1c0.8,0.5,1.7,0.7,2.7,0.7
		C716.2,144.8,717.2,144.5,717.9,144z"/>
	<path class="st1" d="M724.9,132.3h0.9l0.1,1.9c0.5-0.6,1.2-1,2.1-1.4c0.8-0.4,1.7-0.6,2.7-0.7l-0.1,1c-0.8,0-1.6,0.2-2.5,0.6
		s-1.6,0.9-2.2,1.4v10.2h-1V132.3z"/>
	<path class="st1" d="M733.2,132.3h0.9l0.1,1.9c0.5-0.6,1.2-1,2.1-1.4s1.7-0.6,2.7-0.7l-0.1,1c-0.8,0-1.6,0.2-2.5,0.6
		s-1.6,0.9-2.2,1.4v10.2h-1V132.3z"/>
	<path class="st1" d="M741.9,144c-1.2-1.1-1.7-2.8-1.7-5.1c0-1.3,0.2-2.5,0.7-3.5c0.5-1,1.2-1.8,2.1-2.4c0.9-0.6,2-0.9,3.3-0.9
		c1.7,0,3,0.5,3.8,1.4c0.9,0.9,1.3,2.2,1.3,3.7c0,0.6,0,1.2-0.1,1.8h-10.1c0,1.9,0.5,3.3,1.3,4.3c0.8,1,2.2,1.5,4.1,1.5
		c0.5,0,1.2-0.1,1.9-0.3s1.3-0.4,1.9-0.7l0.3,0.8c-0.6,0.3-1.3,0.6-2,0.8s-1.5,0.3-2.3,0.3C744.5,145.6,743,145.1,741.9,144z
		 M750.3,138.2c0-0.3,0.1-0.6,0.1-0.9c0-1.3-0.3-2.3-1-3.1s-1.7-1.2-3.2-1.2s-2.7,0.5-3.5,1.5c-0.9,1-1.4,2.3-1.5,3.8H750.3z"/>
	<path class="st1" d="M756.8,144.8c-1-0.5-1.8-1.3-2.3-2.3s-0.8-2.2-0.8-3.6c0-1.4,0.3-2.6,0.9-3.6c0.6-1,1.4-1.8,2.4-2.4
		c1-0.5,2.1-0.8,3.4-0.8c0.7,0,1.4,0.1,2.1,0.2c0.7,0.1,1.2,0.3,1.7,0.6l-0.2,0.8c-1-0.6-2.2-0.8-3.6-0.8c-1.2,0-2.1,0.3-3,0.8
		s-1.5,1.2-1.9,2.1c-0.4,0.9-0.7,1.9-0.7,3.1c0,1,0.2,1.9,0.5,2.8c0.3,0.9,0.9,1.6,1.8,2.2s1.9,0.9,3.2,0.9c0.6,0,1.3-0.1,2-0.3
		c0.7-0.2,1.4-0.4,1.9-0.7l0.2,0.8c-0.6,0.3-1.3,0.6-2,0.7c-0.7,0.2-1.4,0.3-2.2,0.3C759,145.6,757.8,145.4,756.8,144.8z"/>
	<path class="st1" d="M768.1,144.7c-0.6-0.5-0.8-1.3-0.8-2.4v-13.1l1-0.3v3.4h4.8l-0.4,0.8h-4.3v8.8c0,1,0.2,1.7,0.5,2.1
		c0.4,0.4,1,0.6,2,0.6c0.6,0,1.4-0.1,2.2-0.3l0.1,0.8c-0.3,0.1-0.6,0.2-1.1,0.2s-0.9,0.1-1.4,0.1
		C769.5,145.5,768.7,145.2,768.1,144.7z"/>
	<path class="st1" d="M776.2,144.6c-0.8-0.7-1.3-1.7-1.3-3c0-1,0.3-1.7,1-2.2c0.7-0.5,1.6-0.8,2.8-0.8h2.7c0.6,0,1.5,0,2.4,0.1V137
		c0-1.4-0.3-2.5-1-3.1c-0.6-0.7-1.6-1-2.9-1c-0.8,0-1.4,0.1-2,0.2c-0.6,0.1-1.2,0.3-1.8,0.5l-0.1-0.8c1.3-0.4,2.6-0.7,4.1-0.7
		c1.5,0,2.7,0.4,3.5,1.1c0.8,0.8,1.2,1.9,1.2,3.4v5.2c0,1.6,0,2.9,0,3.6H784c-0.1-0.6-0.2-1.2-0.2-1.8h0c-0.3,0.6-0.9,1.1-1.6,1.5
		c-0.7,0.4-1.6,0.6-2.7,0.6C778.1,145.6,777,145.3,776.2,144.6z M782.6,143.8c0.8-0.7,1.1-1.6,1.1-2.9v-1.6h-5.3
		c-1.7,0-2.5,0.7-2.5,2.2c0,1,0.3,1.8,1,2.4c0.7,0.6,1.5,0.9,2.6,0.9C780.8,144.8,781.9,144.5,782.6,143.8z"/>
	<path class="st1" d="M789.1,132.3h0.9l0.1,1.3c0.6-0.5,1.2-0.9,2-1.2c0.8-0.3,1.6-0.4,2.4-0.4c0.8,0,1.6,0.2,2.2,0.5
		s1.1,0.7,1.4,1.2c0.6-0.5,1.3-0.9,2.2-1.2c0.9-0.3,1.8-0.4,2.6-0.4c0.7,0,1.3,0.1,1.9,0.3c0.6,0.2,1.1,0.5,1.4,0.9
		c0.4,0.4,0.6,0.8,0.8,1.4s0.3,1.2,0.3,1.8v8.9h-1v-8.6c0-1.2-0.2-2-0.7-2.6c-0.6-0.8-1.6-1.2-2.8-1.2c-0.8,0-1.5,0.1-2.4,0.4
		c-0.8,0.3-1.5,0.7-2,1.1c0.2,0.5,0.3,1.3,0.3,2.5v8.4h-1v-8c0-0.9,0-1.5-0.1-1.9c0-0.4-0.2-0.8-0.4-1.1c-0.3-0.4-0.6-0.8-1.1-1
		c-0.5-0.2-1.1-0.3-1.7-0.3c-0.8,0-1.6,0.2-2.4,0.5s-1.4,0.7-1.9,1.1v10.8h-1V132.3z"/>
	<path class="st1" d="M812.4,144c-1.2-1.1-1.7-2.8-1.7-5.1c0-1.3,0.2-2.5,0.7-3.5c0.5-1,1.2-1.8,2.1-2.4c0.9-0.6,2-0.9,3.3-0.9
		c1.7,0,3,0.5,3.8,1.4c0.9,0.9,1.3,2.2,1.3,3.7c0,0.6,0,1.2-0.1,1.8h-10.1c0,1.9,0.5,3.3,1.3,4.3c0.8,1,2.2,1.5,4.1,1.5
		c0.5,0,1.2-0.1,1.9-0.3s1.3-0.4,1.9-0.7l0.3,0.8c-0.6,0.3-1.3,0.6-2,0.8s-1.5,0.3-2.3,0.3C815,145.6,813.5,145.1,812.4,144z
		 M820.8,138.2c0-0.3,0.1-0.6,0.1-0.9c0-1.3-0.3-2.3-1-3.1s-1.7-1.2-3.2-1.2s-2.7,0.5-3.5,1.5c-0.9,1-1.4,2.3-1.5,3.8H820.8z"/>
	<path class="st1" d="M825.1,132.3h0.9l0.1,1.3c1.5-1,3.2-1.6,5.1-1.6c1.5,0,2.6,0.4,3.4,1.2c0.4,0.3,0.6,0.8,0.8,1.3
		c0.2,0.5,0.3,1.1,0.3,1.9v9h-1v-8.9c0-0.6-0.1-1.1-0.2-1.5c-0.1-0.4-0.3-0.8-0.6-1c-0.6-0.7-1.6-1-3-1c-0.9,0-1.7,0.1-2.5,0.4
		c-0.8,0.3-1.5,0.7-2.3,1.2v10.8h-1V132.3z"/>
	<path class="st1" d="M840.6,144.7c-0.5-0.5-0.8-1.3-0.8-2.4v-13.1l1-0.3v3.4h4.8l-0.4,0.8h-4.4v8.8c0,1,0.2,1.7,0.5,2.1
		c0.4,0.4,1,0.6,2,0.6c0.7,0,1.4-0.1,2.2-0.3l0.1,0.8c-0.3,0.1-0.6,0.2-1.1,0.2c-0.5,0.1-0.9,0.1-1.4,0.1
		C842,145.5,841.1,145.2,840.6,144.7z"/>
	<path class="st1" d="M848.4,144c-1.1-1.1-1.7-2.8-1.7-5.1c0-1.3,0.2-2.5,0.7-3.5c0.5-1,1.2-1.8,2.1-2.4c0.9-0.6,2-0.9,3.3-0.9
		c1.7,0,3,0.5,3.8,1.4c0.9,0.9,1.3,2.2,1.3,3.7c0,0.6,0,1.2-0.1,1.8h-10.1c0.1,1.9,0.5,3.3,1.3,4.3s2.2,1.5,4.1,1.5
		c0.5,0,1.2-0.1,1.9-0.3c0.7-0.2,1.3-0.4,1.9-0.7l0.3,0.8c-0.6,0.3-1.3,0.6-2,0.8s-1.5,0.3-2.3,0.3
		C851.1,145.6,849.6,145.1,848.4,144z M856.8,138.2c0-0.3,0.1-0.6,0.1-0.9c0-1.3-0.3-2.3-1-3.1s-1.7-1.2-3.2-1.2s-2.7,0.5-3.5,1.5
		s-1.3,2.3-1.5,3.8H856.8z"/>
	<path class="st1" d="M866.6,132.3h0.9l0.1,2.4c0.3-0.7,1-1.3,1.8-1.8s1.9-0.8,3.2-0.8c1.1,0,2,0.3,3,0.8c0.9,0.5,1.7,1.3,2.2,2.3
		c0.6,1,0.8,2.2,0.8,3.7c0,1.3-0.3,2.5-0.8,3.5s-1.2,1.8-2.2,2.4s-1.9,0.9-3,0.9c-1.1,0-2-0.2-2.9-0.5c-0.8-0.4-1.6-0.8-2.1-1.5v7.2
		l-1,0.3V132.3z M875.3,144c0.8-0.6,1.3-1.3,1.7-2.2c0.4-0.9,0.5-1.9,0.5-2.9c0-1.3-0.2-2.3-0.7-3.2s-1.1-1.5-1.9-2
		s-1.7-0.7-2.6-0.7c-0.8,0-1.6,0.2-2.3,0.5c-0.7,0.4-1.3,0.9-1.8,1.5c-0.5,0.7-0.7,1.4-0.7,2.2v5.1c0.6,0.8,1.3,1.3,2.1,1.8
		c0.8,0.4,1.8,0.6,2.8,0.6C873.6,144.8,874.5,144.5,875.3,144z"/>
	<path class="st1" d="M882.7,144.6c-0.8-0.7-1.3-1.7-1.3-3c0-1,0.3-1.7,1-2.2c0.7-0.5,1.6-0.8,2.8-0.8h2.7c0.6,0,1.5,0,2.4,0.1V137
		c0-1.4-0.3-2.5-1-3.1c-0.6-0.7-1.6-1-2.9-1c-0.8,0-1.4,0.1-2,0.2c-0.6,0.1-1.2,0.3-1.8,0.5l-0.1-0.8c1.3-0.4,2.6-0.7,4.1-0.7
		c1.5,0,2.7,0.4,3.5,1.1c0.8,0.8,1.2,1.9,1.2,3.4v5.2c0,1.6,0,2.9,0,3.6h-0.8c-0.1-0.6-0.2-1.2-0.2-1.8h0c-0.3,0.6-0.9,1.1-1.6,1.5
		c-0.7,0.4-1.6,0.6-2.7,0.6C884.6,145.6,883.5,145.3,882.7,144.6z M889.1,143.8c0.8-0.7,1.1-1.6,1.1-2.9v-1.6H885
		c-1.7,0-2.5,0.7-2.5,2.2c0,1,0.3,1.8,1,2.4c0.7,0.6,1.5,0.9,2.6,0.9C887.3,144.8,888.4,144.5,889.1,143.8z"/>
	<path class="st1" d="M895.6,132.3h0.9l0.1,1.9c0.5-0.6,1.2-1,2.1-1.4c0.8-0.4,1.7-0.6,2.7-0.7l-0.1,1c-0.8,0-1.6,0.2-2.5,0.6
		s-1.6,0.9-2.2,1.4v10.2h-1V132.3z"/>
	<path class="st1" d="M904,144.6c-0.8-0.7-1.3-1.7-1.3-3c0-1,0.3-1.7,1-2.2c0.7-0.5,1.6-0.8,2.8-0.8h2.7c0.6,0,1.5,0,2.4,0.1V137
		c0-1.4-0.3-2.5-1-3.1c-0.6-0.7-1.6-1-2.9-1c-0.8,0-1.4,0.1-2,0.2c-0.6,0.1-1.2,0.3-1.8,0.5l-0.1-0.8c1.3-0.4,2.6-0.7,4.1-0.7
		c1.5,0,2.7,0.4,3.5,1.1c0.8,0.8,1.2,1.9,1.2,3.4v5.2c0,1.6,0,2.9,0,3.6h-0.8c-0.1-0.6-0.2-1.2-0.2-1.8h0c-0.3,0.6-0.9,1.1-1.6,1.5
		c-0.7,0.4-1.6,0.6-2.7,0.6C905.9,145.6,904.8,145.3,904,144.6z M910.5,143.8c0.8-0.7,1.1-1.6,1.1-2.9v-1.6h-5.3
		c-1.7,0-2.5,0.7-2.5,2.2c0,1,0.3,1.8,1,2.4c0.7,0.6,1.5,0.9,2.6,0.9C908.7,144.8,909.7,144.5,910.5,143.8z"/>
</g>
<g>
	<path class="st1" d="M192.9,174.8c-0.9-0.6-1.6-1.4-2.1-2.4s-0.8-2.2-0.8-3.4c0-1.4,0.3-2.5,0.9-3.6c0.6-1,1.3-1.8,2.3-2.4
		s2-0.9,3.2-0.9c1.2,0,2.2,0.2,3,0.7c0.8,0.5,1.4,1,1.7,1.7h0v-7.1l1-0.3v14.7c0,1.6,0,2.9,0,3.6h-0.8c-0.1-0.6-0.2-1.3-0.2-2.1h0
		c-1.2,1.6-2.9,2.4-5,2.4C194.9,175.6,193.9,175.3,192.9,174.8z M199.2,174c0.8-0.5,1.5-1.2,2-2.1v-4.6c0-0.8-0.2-1.6-0.6-2.3
		c-0.4-0.7-0.9-1.2-1.7-1.6c-0.7-0.4-1.6-0.6-2.5-0.6c-1,0-2,0.3-2.8,0.8c-0.8,0.5-1.4,1.2-1.9,2.2c-0.5,0.9-0.7,2-0.7,3.1
		c0,1.2,0.2,2.3,0.7,3.1c0.5,0.9,1.1,1.5,1.9,2c0.8,0.5,1.6,0.7,2.6,0.7C197.4,174.8,198.4,174.5,199.2,174z"/>
	<path class="st1" d="M207.2,174.6c-0.8-0.7-1.3-1.7-1.3-3c0-1,0.3-1.7,1-2.2c0.7-0.5,1.6-0.8,2.8-0.8h2.6c0.6,0,1.5,0,2.4,0.1V167
		c0-1.4-0.3-2.5-1-3.1c-0.6-0.7-1.6-1-2.9-1c-0.8,0-1.4,0.1-2,0.2c-0.6,0.1-1.2,0.3-1.8,0.5l-0.1-0.8c1.3-0.4,2.6-0.7,4.1-0.7
		c1.5,0,2.7,0.4,3.5,1.1c0.8,0.8,1.2,1.9,1.2,3.4v5.2c0,1.6,0,2.9,0,3.6H215c-0.1-0.6-0.2-1.2-0.2-1.8h0c-0.4,0.6-0.9,1.1-1.6,1.5
		s-1.6,0.6-2.7,0.6C209.1,175.6,208,175.3,207.2,174.6z M213.7,173.8c0.8-0.7,1.1-1.6,1.1-2.9v-1.6h-5.3c-1.7,0-2.5,0.7-2.5,2.2
		c0,1,0.3,1.8,1,2.4c0.7,0.6,1.5,0.9,2.6,0.9C211.9,174.8,212.9,174.5,213.7,173.8z"/>
	<path class="st1" d="M220.2,162.3h0.9l0.1,1.9c0.5-0.6,1.2-1,2.1-1.4c0.8-0.4,1.7-0.6,2.7-0.7l-0.1,1c-0.8,0-1.6,0.2-2.5,0.6
		s-1.6,0.9-2.2,1.4v10.2h-1V162.3z"/>
	<path class="st1" d="M228.6,157.4l1-0.3v18.3h-1V157.4z"/>
	<path class="st1" d="M234.5,174c-1.1-1.1-1.7-2.8-1.7-5.1c0-1.3,0.2-2.5,0.7-3.5c0.5-1,1.2-1.8,2.1-2.4c0.9-0.6,2-0.9,3.3-0.9
		c1.7,0,3,0.5,3.8,1.4s1.3,2.2,1.3,3.7c0,0.6,0,1.2-0.1,1.8h-10.1c0.1,1.9,0.5,3.3,1.3,4.3c0.8,1,2.2,1.5,4.1,1.5
		c0.5,0,1.2-0.1,1.9-0.3c0.7-0.2,1.3-0.4,1.9-0.7l0.3,0.8c-0.6,0.3-1.3,0.6-2,0.8s-1.5,0.3-2.3,0.3
		C237.1,175.6,235.6,175.1,234.5,174z M242.9,168.2c0-0.3,0.1-0.6,0.1-0.9c0-1.3-0.3-2.3-1-3.1s-1.7-1.2-3.2-1.2s-2.7,0.5-3.5,1.5
		c-0.9,1-1.4,2.3-1.5,3.8H242.9z"/>
	<path class="st1" d="M251,162.3h1.1l4.9,11.6h0.1l5-11.6h1.1l-5.8,13h-0.6L251,162.3z"/>
	<path class="st1" d="M265.6,174.6c-0.8-0.7-1.3-1.7-1.3-3c0-1,0.3-1.7,1-2.2c0.7-0.5,1.6-0.8,2.8-0.8h2.6c0.6,0,1.5,0,2.4,0.1V167
		c0-1.4-0.3-2.5-1-3.1c-0.6-0.7-1.6-1-2.9-1c-0.8,0-1.4,0.1-2,0.2c-0.6,0.1-1.2,0.3-1.8,0.5l-0.1-0.8c1.3-0.4,2.6-0.7,4.1-0.7
		c1.5,0,2.7,0.4,3.5,1.1c0.8,0.8,1.2,1.9,1.2,3.4v5.2c0,1.6,0,2.9,0,3.6h-0.8c-0.1-0.6-0.2-1.2-0.2-1.8h0c-0.4,0.6-0.9,1.1-1.6,1.5
		s-1.6,0.6-2.7,0.6C267.5,175.6,266.5,175.3,265.6,174.6z M272.1,173.8c0.8-0.7,1.1-1.6,1.1-2.9v-1.6h-5.3c-1.7,0-2.5,0.7-2.5,2.2
		c0,1,0.3,1.8,1,2.4c0.7,0.6,1.5,0.9,2.6,0.9C270.3,174.8,271.3,174.5,272.1,173.8z"/>
	<path class="st1" d="M278.7,157.4l1-0.3v18.3h-1V157.4z"/>
	<path class="st1" d="M283.9,159.6c-0.2-0.2-0.3-0.4-0.3-0.7s0.1-0.5,0.3-0.7c0.2-0.2,0.4-0.3,0.7-0.3c0.3,0,0.5,0.1,0.7,0.3
		s0.3,0.4,0.3,0.7s-0.1,0.5-0.3,0.7s-0.5,0.3-0.7,0.3C284.4,159.9,284.1,159.8,283.9,159.6z M284.1,162.3h1v13h-1V162.3z"/>
	<path class="st1" d="M291.5,174.8c-0.9-0.6-1.6-1.4-2.1-2.4s-0.8-2.2-0.8-3.4c0-1.4,0.3-2.5,0.9-3.6c0.6-1,1.3-1.8,2.3-2.4
		s2-0.9,3.2-0.9c1.2,0,2.2,0.2,3,0.7c0.8,0.5,1.4,1,1.7,1.7h0v-7.1l1-0.3v14.7c0,1.6,0,2.9,0,3.6h-0.8c-0.1-0.6-0.2-1.3-0.2-2.1h0
		c-1.2,1.6-2.9,2.4-5,2.4C293.5,175.6,292.4,175.3,291.5,174.8z M297.7,174c0.8-0.5,1.5-1.2,2-2.1v-4.6c0-0.8-0.2-1.6-0.6-2.3
		c-0.4-0.7-0.9-1.2-1.7-1.6c-0.7-0.4-1.6-0.6-2.5-0.6c-1,0-2,0.3-2.8,0.8c-0.8,0.5-1.4,1.2-1.9,2.2c-0.5,0.9-0.7,2-0.7,3.1
		c0,1.2,0.2,2.3,0.7,3.1c0.5,0.9,1.1,1.5,1.9,2c0.8,0.5,1.6,0.7,2.6,0.7C295.9,174.8,296.9,174.5,297.7,174z"/>
	<path class="st1" d="M305.5,174c-1.1-1.1-1.7-2.8-1.7-5.1c0-1.3,0.2-2.5,0.7-3.5c0.5-1,1.2-1.8,2.1-2.4c0.9-0.6,2-0.9,3.3-0.9
		c1.7,0,3,0.5,3.8,1.4s1.3,2.2,1.3,3.7c0,0.6,0,1.2-0.1,1.8h-10.1c0.1,1.9,0.5,3.3,1.3,4.3c0.8,1,2.2,1.5,4.1,1.5
		c0.5,0,1.2-0.1,1.9-0.3c0.7-0.2,1.3-0.4,1.9-0.7l0.3,0.8c-0.6,0.3-1.3,0.6-2,0.8s-1.5,0.3-2.3,0.3
		C308.1,175.6,306.6,175.1,305.5,174z M313.9,168.2c0-0.3,0.1-0.6,0.1-0.9c0-1.3-0.3-2.3-1-3.1s-1.7-1.2-3.2-1.2s-2.7,0.5-3.5,1.5
		c-0.9,1-1.4,2.3-1.5,3.8H313.9z"/>
	<path class="st1" d="M316.8,174.9l9.4-11.8h-8.5l-0.4-0.8h10.5v0.4l-9.4,11.8h9.4l-0.4,0.8h-10.5V174.9z"/>
	<path class="st1" d="M337,174.6c-0.8-0.7-1.3-1.7-1.3-3c0-1,0.3-1.7,1-2.2c0.7-0.5,1.6-0.8,2.8-0.8h2.6c0.6,0,1.5,0,2.4,0.1V167
		c0-1.4-0.3-2.5-1-3.1c-0.6-0.7-1.6-1-2.9-1c-0.8,0-1.4,0.1-2,0.2c-0.6,0.1-1.2,0.3-1.8,0.5l-0.1-0.8c1.3-0.4,2.6-0.7,4.1-0.7
		c1.5,0,2.7,0.4,3.5,1.1c0.8,0.8,1.2,1.9,1.2,3.4v5.2c0,1.6,0,2.9,0,3.6h-0.8c-0.1-0.6-0.2-1.2-0.2-1.8h0c-0.4,0.6-0.9,1.1-1.6,1.5
		s-1.6,0.6-2.7,0.6C338.9,175.6,337.8,175.3,337,174.6z M343.4,173.8c0.8-0.7,1.1-1.6,1.1-2.9v-1.6h-5.3c-1.7,0-2.5,0.7-2.5,2.2
		c0,1,0.3,1.8,1,2.4c0.7,0.6,1.5,0.9,2.6,0.9C341.6,174.8,342.7,174.5,343.4,173.8z"/>
	<path class="st1" d="M350,157.4l1-0.3v18.3h-1V157.4z"/>
	<path class="st1" d="M360.8,162.3h0.9l0.1,1.9c0.5-0.6,1.2-1,2.1-1.4c0.8-0.4,1.7-0.6,2.7-0.7l-0.1,1c-0.8,0-1.6,0.2-2.5,0.6
		s-1.6,0.9-2.2,1.4v10.2h-1V162.3z"/>
	<path class="st1" d="M369.5,174c-1.1-1.1-1.7-2.8-1.7-5.1c0-1.3,0.2-2.5,0.7-3.5c0.5-1,1.2-1.8,2.1-2.4c0.9-0.6,2-0.9,3.3-0.9
		c1.7,0,3,0.5,3.8,1.4s1.3,2.2,1.3,3.7c0,0.6,0,1.2-0.1,1.8h-10.1c0.1,1.9,0.5,3.3,1.3,4.3c0.8,1,2.2,1.5,4.1,1.5
		c0.5,0,1.2-0.1,1.9-0.3c0.7-0.2,1.3-0.4,1.9-0.7l0.3,0.8c-0.6,0.3-1.3,0.6-2,0.8s-1.5,0.3-2.3,0.3
		C372.1,175.6,370.6,175.1,369.5,174z M377.9,168.2c0-0.3,0.1-0.6,0.1-0.9c0-1.3-0.3-2.3-1-3.1s-1.7-1.2-3.2-1.2s-2.7,0.5-3.5,1.5
		c-0.9,1-1.4,2.3-1.5,3.8H377.9z"/>
	<path class="st1" d="M384.4,174.8c-1-0.5-1.8-1.3-2.3-2.3c-0.6-1-0.8-2.2-0.8-3.6c0-1.4,0.3-2.6,0.9-3.6c0.6-1,1.4-1.8,2.4-2.4
		c1-0.5,2.1-0.8,3.4-0.8c0.7,0,1.4,0.1,2.1,0.2c0.7,0.1,1.2,0.3,1.7,0.6l-0.2,0.8c-1-0.6-2.2-0.8-3.6-0.8c-1.1,0-2.1,0.3-3,0.8
		s-1.5,1.2-1.9,2.1c-0.4,0.9-0.7,1.9-0.7,3.1c0,1,0.2,1.9,0.5,2.8c0.3,0.9,0.9,1.6,1.8,2.2c0.8,0.6,1.9,0.9,3.2,0.9
		c0.6,0,1.3-0.1,2-0.3c0.7-0.2,1.4-0.4,1.9-0.7l0.2,0.8c-0.6,0.3-1.3,0.6-2,0.7c-0.7,0.2-1.4,0.3-2.2,0.3
		C386.6,175.6,385.4,175.4,384.4,174.8z"/>
	<path class="st1" d="M396.5,174.7c-0.9-0.6-1.6-1.4-2.1-2.5c-0.5-1-0.7-2.1-0.7-3.4c0-1.2,0.2-2.4,0.7-3.4c0.5-1,1.2-1.8,2.2-2.5
		c1-0.6,2.2-0.9,3.6-0.9c1.3,0,2.4,0.3,3.3,0.9c0.9,0.6,1.6,1.4,2.1,2.5c0.5,1,0.7,2.2,0.7,3.4c0,1.2-0.2,2.3-0.7,3.3
		c-0.5,1-1.2,1.9-2.2,2.5c-1,0.6-2.2,1-3.6,1C398.5,175.6,397.4,175.3,396.5,174.7z M402.7,174c0.8-0.5,1.4-1.2,1.8-2.1
		c0.4-0.9,0.6-1.9,0.6-3.1c0-1.2-0.2-2.2-0.6-3.1c-0.4-0.9-1-1.6-1.8-2.1S401,163,400,163c-1.1,0-2,0.2-2.8,0.7
		c-0.8,0.5-1.4,1.2-1.9,2.1c-0.4,0.9-0.7,1.9-0.7,3.1c0,1.2,0.2,2.2,0.7,3.1c0.4,0.9,1.1,1.6,1.9,2.1c0.8,0.5,1.7,0.7,2.7,0.7
		C401,174.8,401.9,174.5,402.7,174z"/>
	<path class="st1" d="M409.6,162.3h0.9l0.1,1.3c1.5-1,3.2-1.6,5.1-1.6c1.5,0,2.6,0.4,3.4,1.2c0.4,0.3,0.6,0.8,0.8,1.3
		c0.2,0.5,0.3,1.1,0.3,1.9v9h-1v-8.9c0-0.6-0.1-1.1-0.2-1.5c-0.1-0.4-0.3-0.8-0.6-1c-0.6-0.7-1.6-1-3-1c-0.9,0-1.7,0.1-2.5,0.4
		c-0.8,0.3-1.5,0.7-2.3,1.2v10.8h-1V162.3z"/>
	<path class="st1" d="M426.3,174.7c-0.9-0.6-1.6-1.4-2.1-2.5c-0.5-1-0.7-2.1-0.7-3.4c0-1.2,0.2-2.4,0.7-3.4c0.5-1,1.2-1.8,2.2-2.5
		c1-0.6,2.2-0.9,3.6-0.9c1.3,0,2.4,0.3,3.3,0.9c0.9,0.6,1.6,1.4,2.1,2.5c0.5,1,0.7,2.2,0.7,3.4c0,1.2-0.2,2.3-0.7,3.3
		c-0.5,1-1.2,1.9-2.2,2.5c-1,0.6-2.2,1-3.6,1C428.3,175.6,427.2,175.3,426.3,174.7z M432.5,174c0.8-0.5,1.4-1.2,1.8-2.1
		c0.4-0.9,0.6-1.9,0.6-3.1c0-1.2-0.2-2.2-0.6-3.1c-0.4-0.9-1-1.6-1.8-2.1s-1.7-0.7-2.8-0.7c-1.1,0-2,0.2-2.8,0.7
		c-0.8,0.5-1.4,1.2-1.9,2.1c-0.4,0.9-0.7,1.9-0.7,3.1c0,1.2,0.2,2.2,0.7,3.1c0.4,0.9,1.1,1.6,1.9,2.1c0.8,0.5,1.7,0.7,2.7,0.7
		C430.8,174.8,431.7,174.5,432.5,174z"/>
	<path class="st1" d="M441.7,174.8c-1-0.5-1.8-1.3-2.3-2.3c-0.6-1-0.8-2.2-0.8-3.6c0-1.4,0.3-2.6,0.9-3.6c0.6-1,1.4-1.8,2.4-2.4
		c1-0.5,2.1-0.8,3.4-0.8c0.7,0,1.4,0.1,2.1,0.2c0.7,0.1,1.2,0.3,1.7,0.6l-0.2,0.8c-1-0.6-2.2-0.8-3.6-0.8c-1.1,0-2.1,0.3-3,0.8
		s-1.5,1.2-1.9,2.1c-0.4,0.9-0.7,1.9-0.7,3.1c0,1,0.2,1.9,0.5,2.8c0.3,0.9,0.9,1.6,1.8,2.2c0.8,0.6,1.9,0.9,3.2,0.9
		c0.6,0,1.3-0.1,2-0.3c0.7-0.2,1.4-0.4,1.9-0.7l0.2,0.8c-0.6,0.3-1.3,0.6-2,0.7c-0.7,0.2-1.4,0.3-2.2,0.3
		C443.8,175.6,442.6,175.4,441.7,174.8z"/>
	<path class="st1" d="M451.9,159.6c-0.2-0.2-0.3-0.4-0.3-0.7s0.1-0.5,0.3-0.7c0.2-0.2,0.4-0.3,0.7-0.3c0.3,0,0.5,0.1,0.7,0.3
		s0.3,0.4,0.3,0.7s-0.1,0.5-0.3,0.7s-0.5,0.3-0.7,0.3C452.3,159.9,452.1,159.8,451.9,159.6z M452.1,162.3h1v13h-1V162.3z"/>
	<path class="st1" d="M457.4,162.3h0.9l0.1,1.3c0.6-0.5,1.2-0.9,2-1.2c0.8-0.3,1.6-0.4,2.4-0.4c0.8,0,1.6,0.2,2.2,0.5
		s1.1,0.7,1.4,1.2c0.6-0.5,1.3-0.9,2.2-1.2c0.9-0.3,1.8-0.4,2.6-0.4c0.7,0,1.3,0.1,1.9,0.3c0.6,0.2,1.1,0.5,1.4,0.9
		c0.4,0.4,0.6,0.8,0.8,1.4s0.3,1.2,0.3,1.8v8.9h-1v-8.6c0-1.2-0.2-2-0.7-2.6c-0.6-0.8-1.6-1.2-2.8-1.2c-0.8,0-1.5,0.1-2.4,0.4
		c-0.8,0.3-1.5,0.7-2,1.1c0.2,0.5,0.3,1.3,0.3,2.5v8.4h-1v-8c0-0.9,0-1.5-0.1-1.9c0-0.4-0.2-0.8-0.4-1.1c-0.3-0.4-0.6-0.8-1.1-1
		c-0.5-0.2-1.1-0.3-1.7-0.3c-0.8,0-1.6,0.2-2.4,0.5s-1.4,0.7-1.9,1.1v10.8h-1V162.3z"/>
	<path class="st1" d="M479.7,159.6c-0.2-0.2-0.3-0.4-0.3-0.7s0.1-0.5,0.3-0.7c0.2-0.2,0.4-0.3,0.7-0.3c0.3,0,0.5,0.1,0.7,0.3
		s0.3,0.4,0.3,0.7s-0.1,0.5-0.3,0.7s-0.5,0.3-0.7,0.3C480.2,159.9,479.9,159.8,479.7,159.6z M479.9,162.3h1v13h-1V162.3z"/>
	<path class="st1" d="M486.1,174c-1.1-1.1-1.7-2.8-1.7-5.1c0-1.3,0.2-2.5,0.7-3.5c0.5-1,1.2-1.8,2.1-2.4c0.9-0.6,2-0.9,3.3-0.9
		c1.7,0,3,0.5,3.8,1.4s1.3,2.2,1.3,3.7c0,0.6,0,1.2-0.1,1.8h-10.1c0.1,1.9,0.5,3.3,1.3,4.3c0.8,1,2.2,1.5,4.1,1.5
		c0.5,0,1.2-0.1,1.9-0.3c0.7-0.2,1.3-0.4,1.9-0.7l0.3,0.8c-0.6,0.3-1.3,0.6-2,0.8s-1.5,0.3-2.3,0.3
		C488.8,175.6,487.3,175.1,486.1,174z M494.5,168.2c0-0.3,0.1-0.6,0.1-0.9c0-1.3-0.3-2.3-1-3.1s-1.7-1.2-3.2-1.2s-2.7,0.5-3.5,1.5
		c-0.9,1-1.4,2.3-1.5,3.8H494.5z"/>
	<path class="st1" d="M498.8,162.3h0.9l0.1,1.3c1.5-1,3.2-1.6,5.1-1.6c1.5,0,2.6,0.4,3.4,1.2c0.4,0.3,0.6,0.8,0.8,1.3
		c0.2,0.5,0.3,1.1,0.3,1.9v9h-1v-8.9c0-0.6-0.1-1.1-0.2-1.5c-0.1-0.4-0.3-0.8-0.6-1c-0.6-0.7-1.6-1-3-1c-0.9,0-1.7,0.1-2.5,0.4
		c-0.8,0.3-1.5,0.7-2.3,1.2v10.8h-1V162.3z"/>
	<path class="st1" d="M514.3,174.7c-0.6-0.5-0.8-1.3-0.8-2.4v-13.1l1-0.3v3.4h4.8l-0.4,0.8h-4.4v8.8c0,1,0.2,1.7,0.5,2.1
		c0.4,0.4,1,0.6,2,0.6c0.6,0,1.4-0.1,2.2-0.3l0.1,0.8c-0.3,0.1-0.6,0.2-1.1,0.2c-0.5,0.1-0.9,0.1-1.4,0.1
		C515.7,175.5,514.9,175.2,514.3,174.7z"/>
	<path class="st1" d="M523.3,174.7c-0.9-0.6-1.6-1.4-2.1-2.5c-0.5-1-0.7-2.1-0.7-3.4c0-1.2,0.2-2.4,0.7-3.4c0.5-1,1.2-1.8,2.2-2.5
		c1-0.6,2.2-0.9,3.6-0.9c1.3,0,2.4,0.3,3.3,0.9c0.9,0.6,1.6,1.4,2.1,2.5c0.5,1,0.7,2.2,0.7,3.4c0,1.2-0.2,2.3-0.7,3.3
		c-0.5,1-1.2,1.9-2.2,2.5c-1,0.6-2.2,1-3.6,1C525.3,175.6,524.2,175.3,523.3,174.7z M529.5,174c0.8-0.5,1.4-1.2,1.8-2.1
		c0.4-0.9,0.6-1.9,0.6-3.1c0-1.2-0.2-2.2-0.6-3.1c-0.4-0.9-1-1.6-1.8-2.1s-1.7-0.7-2.8-0.7c-1.1,0-2,0.2-2.8,0.7
		c-0.8,0.5-1.4,1.2-1.9,2.1c-0.4,0.9-0.7,1.9-0.7,3.1c0,1.2,0.2,2.2,0.7,3.1c0.4,0.9,1.1,1.6,1.9,2.1c0.8,0.5,1.7,0.7,2.7,0.7
		C527.8,174.8,528.7,174.5,529.5,174z"/>
	<path class="st1" d="M536.5,173.7c0.3,0.3,0.4,0.7,0.4,1.3c0,0.9-0.2,1.8-0.6,2.5c-0.4,0.7-1,1.3-1.6,1.8l-0.5-0.5
		c0.6-0.4,1-0.9,1.3-1.4c0.3-0.5,0.5-1,0.5-1.6c-0.2,0-0.3,0.1-0.4,0.1c-0.3,0-0.6-0.1-0.8-0.3s-0.3-0.5-0.3-0.8
		c0-0.3,0.1-0.6,0.4-0.8c0.3-0.2,0.5-0.4,0.9-0.4C536,173.3,536.3,173.4,536.5,173.7z"/>
	<path class="st1" d="M546.8,162.3h0.9l0.1,1.3c1.5-1,3.2-1.6,5.1-1.6c1.5,0,2.6,0.4,3.4,1.2c0.4,0.3,0.6,0.8,0.8,1.3
		c0.2,0.5,0.3,1.1,0.3,1.9v9h-1v-8.9c0-0.6-0.1-1.1-0.2-1.5c-0.1-0.4-0.3-0.8-0.6-1c-0.6-0.7-1.6-1-3-1c-0.9,0-1.7,0.1-2.5,0.4
		c-0.8,0.3-1.5,0.7-2.3,1.2v10.8h-1V162.3z"/>
	<path class="st1" d="M563.4,174.7c-0.9-0.6-1.6-1.4-2.1-2.5c-0.5-1-0.7-2.1-0.7-3.4c0-1.2,0.2-2.4,0.7-3.4c0.5-1,1.2-1.8,2.2-2.5
		c1-0.6,2.2-0.9,3.6-0.9c1.3,0,2.4,0.3,3.3,0.9c0.9,0.6,1.6,1.4,2.1,2.5c0.5,1,0.7,2.2,0.7,3.4c0,1.2-0.2,2.3-0.7,3.3
		c-0.5,1-1.2,1.9-2.2,2.5c-1,0.6-2.2,1-3.6,1C565.4,175.6,564.3,175.3,563.4,174.7z M569.6,174c0.8-0.5,1.4-1.2,1.8-2.1
		c0.4-0.9,0.6-1.9,0.6-3.1c0-1.2-0.2-2.2-0.6-3.1c-0.4-0.9-1-1.6-1.8-2.1s-1.7-0.7-2.8-0.7c-1.1,0-2,0.2-2.8,0.7
		c-0.8,0.5-1.4,1.2-1.9,2.1c-0.4,0.9-0.7,1.9-0.7,3.1c0,1.2,0.2,2.2,0.7,3.1c0.4,0.9,1.1,1.6,1.9,2.1c0.8,0.5,1.7,0.7,2.7,0.7
		C567.9,174.8,568.8,174.5,569.6,174z"/>
	<path class="st1" d="M583.4,174.4c-1-0.8-1.5-2.1-1.5-3.8v-8.3h1v8.3c0,1.3,0.4,2.3,1.2,3c0.8,0.7,1.9,1.1,3.3,1.1
		c1.3,0,2.3-0.4,3-1.1c0.7-0.7,1-1.7,1-3v-8.3h1v8.3c0,1.5-0.5,2.7-1.4,3.6c-0.9,0.9-2.2,1.4-3.8,1.4
		C585.7,175.6,584.4,175.2,583.4,174.4z"/>
	<path class="st1" d="M597.7,175.3c-0.7-0.2-1.3-0.5-1.8-0.8l0.1-0.9c0.6,0.4,1.2,0.6,1.9,0.8c0.7,0.2,1.4,0.3,2.1,0.3
		c2.2,0,3.3-0.9,3.3-2.8c0-0.5-0.1-1-0.3-1.3c-0.2-0.3-0.5-0.6-0.9-0.8c-0.4-0.2-1-0.5-1.7-0.8c-1-0.4-1.8-0.8-2.4-1.1
		c-0.6-0.4-1-0.7-1.2-1.2c-0.3-0.4-0.4-0.9-0.4-1.5c0-1,0.4-1.8,1.1-2.4c0.7-0.6,1.8-0.9,3.1-0.9c0.6,0,1.2,0.1,1.7,0.2
		c0.6,0.1,1,0.3,1.4,0.4l-0.2,0.8c-1-0.4-2-0.6-3-0.6c-1,0-1.8,0.2-2.4,0.6s-0.8,1-0.8,1.8c0,0.6,0.2,1.1,0.6,1.5
		c0.4,0.4,1.2,0.8,2.4,1.3c0.9,0.3,1.6,0.7,2.2,1c0.5,0.3,0.9,0.7,1.3,1.1c0.3,0.5,0.5,1.1,0.5,1.8c0,1.2-0.4,2-1.2,2.7
		s-1.9,1-3.2,1C599.1,175.6,598.4,175.5,597.7,175.3z"/>
	<path class="st1" d="M608.4,174.6c-0.8-0.7-1.3-1.7-1.3-3c0-1,0.3-1.7,1-2.2c0.7-0.5,1.6-0.8,2.8-0.8h2.6c0.6,0,1.5,0,2.4,0.1V167
		c0-1.4-0.3-2.5-1-3.1c-0.6-0.7-1.6-1-2.9-1c-0.8,0-1.4,0.1-2,0.2c-0.6,0.1-1.2,0.3-1.8,0.5l-0.1-0.8c1.3-0.4,2.6-0.7,4.1-0.7
		c1.5,0,2.7,0.4,3.5,1.1c0.8,0.8,1.2,1.9,1.2,3.4v5.2c0,1.6,0,2.9,0,3.6h-0.8c-0.1-0.6-0.2-1.2-0.2-1.8h0c-0.4,0.6-0.9,1.1-1.6,1.5
		s-1.6,0.6-2.7,0.6C610.3,175.6,609.2,175.3,608.4,174.6z M614.9,173.8c0.8-0.7,1.1-1.6,1.1-2.9v-1.6h-5.3c-1.7,0-2.5,0.7-2.5,2.2
		c0,1,0.3,1.8,1,2.4c0.7,0.6,1.5,0.9,2.6,0.9C613.1,174.8,614.1,174.5,614.9,173.8z"/>
	<path class="st1" d="M621.4,162.3h0.9l0.1,1.9c0.5-0.6,1.2-1,2.1-1.4c0.8-0.4,1.7-0.6,2.7-0.7l-0.1,1c-0.8,0-1.6,0.2-2.5,0.6
		s-1.6,0.9-2.2,1.4v10.2h-1V162.3z"/>
	<path class="st1" d="M635.9,174.6c-0.8-0.7-1.3-1.7-1.3-3c0-1,0.3-1.7,1-2.2c0.7-0.5,1.6-0.8,2.8-0.8h2.6c0.6,0,1.5,0,2.4,0.1V167
		c0-1.4-0.3-2.5-1-3.1c-0.6-0.7-1.6-1-2.9-1c-0.8,0-1.4,0.1-2,0.2c-0.6,0.1-1.2,0.3-1.8,0.5l-0.1-0.8c1.3-0.4,2.6-0.7,4.1-0.7
		c1.5,0,2.7,0.4,3.5,1.1c0.8,0.8,1.2,1.9,1.2,3.4v5.2c0,1.6,0,2.9,0,3.6h-0.8c-0.1-0.6-0.2-1.2-0.2-1.8h0c-0.4,0.6-0.9,1.1-1.6,1.5
		s-1.6,0.6-2.7,0.6C637.8,175.6,636.7,175.3,635.9,174.6z M642.4,173.8c0.8-0.7,1.1-1.6,1.1-2.9v-1.6h-5.3c-1.7,0-2.5,0.7-2.5,2.2
		c0,1,0.3,1.8,1,2.4c0.7,0.6,1.5,0.9,2.6,0.9C640.6,174.8,641.6,174.5,642.4,173.8z"/>
	<path class="st1" d="M648.9,162.3h0.9l0.1,2.4c0.4-0.7,1-1.3,1.8-1.8s1.9-0.8,3.2-0.8c1.1,0,2,0.3,3,0.8c0.9,0.5,1.7,1.3,2.2,2.3
		c0.6,1,0.8,2.2,0.8,3.7c0,1.3-0.3,2.5-0.8,3.5s-1.2,1.8-2.1,2.4c-0.9,0.6-1.9,0.9-3.1,0.9c-1.1,0-2-0.2-2.9-0.5
		c-0.9-0.4-1.6-0.8-2.1-1.5v7.2l-1,0.3V162.3z M657.6,174c0.8-0.6,1.3-1.3,1.7-2.2s0.6-1.9,0.6-2.9c0-1.3-0.2-2.3-0.7-3.2
		c-0.5-0.9-1.1-1.5-1.9-2s-1.6-0.7-2.6-0.7c-0.8,0-1.6,0.2-2.3,0.5s-1.3,0.9-1.8,1.5c-0.5,0.7-0.7,1.4-0.7,2.2v5.1
		c0.6,0.8,1.3,1.3,2.1,1.8c0.8,0.4,1.8,0.6,2.8,0.6C655.9,174.8,656.8,174.5,657.6,174z"/>
	<path class="st1" d="M666.2,174.7c-0.9-0.6-1.6-1.4-2.1-2.5c-0.5-1-0.7-2.1-0.7-3.4c0-1.2,0.2-2.4,0.7-3.4c0.5-1,1.2-1.8,2.2-2.5
		c1-0.6,2.2-0.9,3.6-0.9c1.3,0,2.4,0.3,3.3,0.9c0.9,0.6,1.6,1.4,2.1,2.5c0.5,1,0.7,2.2,0.7,3.4c0,1.2-0.2,2.3-0.7,3.3
		c-0.5,1-1.2,1.9-2.2,2.5c-1,0.6-2.2,1-3.6,1C668.3,175.6,667.2,175.3,666.2,174.7z M672.5,174c0.8-0.5,1.4-1.2,1.8-2.1
		c0.4-0.9,0.6-1.9,0.6-3.1c0-1.2-0.2-2.2-0.6-3.1c-0.4-0.9-1-1.6-1.8-2.1s-1.7-0.7-2.8-0.7c-1.1,0-2,0.2-2.8,0.7
		c-0.8,0.5-1.4,1.2-1.9,2.1c-0.4,0.9-0.7,1.9-0.7,3.1c0,1.2,0.2,2.2,0.7,3.1c0.4,0.9,1.1,1.6,1.9,2.1c0.8,0.5,1.7,0.7,2.7,0.7
		C670.8,174.8,671.7,174.5,672.5,174z"/>
	<path class="st1" d="M681.4,174.8c-0.9-0.6-1.6-1.4-2.1-2.4s-0.8-2.2-0.8-3.4c0-1.4,0.3-2.5,0.9-3.6c0.6-1,1.3-1.8,2.3-2.4
		s2-0.9,3.2-0.9c1.2,0,2.2,0.2,3,0.7c0.8,0.5,1.4,1,1.7,1.7h0v-7.1l1-0.3v14.7c0,1.6,0,2.9,0,3.6h-0.8c-0.1-0.6-0.2-1.3-0.2-2.1h0
		c-1.2,1.6-2.9,2.4-5,2.4C683.3,175.6,682.3,175.3,681.4,174.8z M687.6,174c0.8-0.5,1.5-1.2,2-2.1v-4.6c0-0.8-0.2-1.6-0.6-2.3
		c-0.4-0.7-0.9-1.2-1.7-1.6c-0.7-0.4-1.6-0.6-2.5-0.6c-1,0-2,0.3-2.8,0.8c-0.8,0.5-1.4,1.2-1.9,2.2c-0.5,0.9-0.7,2-0.7,3.1
		c0,1.2,0.2,2.3,0.7,3.1c0.5,0.9,1.1,1.5,1.9,2c0.8,0.5,1.6,0.7,2.6,0.7C685.8,174.8,686.8,174.5,687.6,174z"/>
	<path class="st1" d="M696.5,174.7c-0.9-0.6-1.6-1.4-2.1-2.5c-0.5-1-0.7-2.1-0.7-3.4c0-1.2,0.2-2.4,0.7-3.4c0.5-1,1.2-1.8,2.2-2.5
		c1-0.6,2.2-0.9,3.6-0.9c1.3,0,2.4,0.3,3.3,0.9c0.9,0.6,1.6,1.4,2.1,2.5c0.5,1,0.7,2.2,0.7,3.4c0,1.2-0.2,2.3-0.7,3.3
		c-0.5,1-1.2,1.9-2.2,2.5c-1,0.6-2.2,1-3.6,1C698.5,175.6,697.4,175.3,696.5,174.7z M702.7,174c0.8-0.5,1.4-1.2,1.8-2.1
		c0.4-0.9,0.6-1.9,0.6-3.1c0-1.2-0.2-2.2-0.6-3.1c-0.4-0.9-1-1.6-1.8-2.1S701,163,700,163c-1.1,0-2,0.2-2.8,0.7
		c-0.8,0.5-1.4,1.2-1.9,2.1c-0.4,0.9-0.7,1.9-0.7,3.1c0,1.2,0.2,2.2,0.7,3.1c0.4,0.9,1.1,1.6,1.9,2.1c0.8,0.5,1.7,0.7,2.7,0.7
		C701,174.8,702,174.5,702.7,174z"/>
	<path class="st1" d="M710.7,175.3c-0.7-0.2-1.3-0.5-1.8-0.8l0.1-0.9c0.6,0.4,1.2,0.6,1.9,0.8c0.7,0.2,1.4,0.3,2.1,0.3
		c2.2,0,3.3-0.9,3.3-2.8c0-0.5-0.1-1-0.3-1.3c-0.2-0.3-0.5-0.6-0.9-0.8c-0.4-0.2-1-0.5-1.7-0.8c-1-0.4-1.8-0.8-2.4-1.1
		c-0.6-0.4-1-0.7-1.2-1.2c-0.3-0.4-0.4-0.9-0.4-1.5c0-1,0.4-1.8,1.1-2.4c0.7-0.6,1.8-0.9,3.1-0.9c0.6,0,1.2,0.1,1.7,0.2
		c0.6,0.1,1,0.3,1.4,0.4l-0.2,0.8c-1-0.4-2-0.6-3-0.6c-1,0-1.8,0.2-2.4,0.6s-0.8,1-0.8,1.8c0,0.6,0.2,1.1,0.6,1.5
		c0.4,0.4,1.2,0.8,2.4,1.3c0.9,0.3,1.6,0.7,2.2,1c0.5,0.3,0.9,0.7,1.3,1.1c0.3,0.5,0.5,1.1,0.5,1.8c0,1.2-0.4,2-1.2,2.7
		s-1.9,1-3.2,1C712.2,175.6,711.5,175.5,710.7,175.3z"/>
	<path class="st1" d="M721.7,173.7c0.3,0.3,0.4,0.7,0.4,1.3c0,0.9-0.2,1.8-0.6,2.5c-0.4,0.7-1,1.3-1.6,1.8l-0.5-0.5
		c0.6-0.4,1-0.9,1.3-1.4c0.3-0.5,0.5-1,0.5-1.6c-0.2,0-0.3,0.1-0.4,0.1c-0.3,0-0.6-0.1-0.8-0.3s-0.3-0.5-0.3-0.8
		c0-0.3,0.1-0.6,0.4-0.8c0.3-0.2,0.5-0.4,0.9-0.4C721.1,173.3,721.4,173.4,721.7,173.7z"/>
	<path class="st1" d="M731.9,162.3h0.9l0.1,1.3c1.5-1,3.2-1.6,5.1-1.6c1.5,0,2.6,0.4,3.4,1.2c0.4,0.3,0.6,0.8,0.8,1.3
		c0.2,0.5,0.3,1.1,0.3,1.9v9h-1v-8.9c0-0.6-0.1-1.1-0.2-1.5c-0.1-0.4-0.3-0.8-0.6-1c-0.6-0.7-1.6-1-3-1c-0.9,0-1.7,0.1-2.5,0.4
		c-0.8,0.3-1.5,0.7-2.3,1.2v10.8h-1V162.3z"/>
	<path class="st1" d="M746.4,159.6c-0.2-0.2-0.3-0.4-0.3-0.7s0.1-0.5,0.3-0.7s0.4-0.3,0.7-0.3s0.5,0.1,0.7,0.3
		c0.2,0.2,0.3,0.4,0.3,0.7s-0.1,0.5-0.3,0.7c-0.2,0.2-0.5,0.3-0.7,0.3S746.6,159.8,746.4,159.6z M746.6,162.3h1v13h-1V162.3z"/>
	<path class="st1" d="M759.4,174.8c-0.9-0.6-1.6-1.4-2.1-2.4s-0.8-2.2-0.8-3.4c0-1.4,0.3-2.5,0.9-3.6c0.6-1,1.3-1.8,2.3-2.4
		s2-0.9,3.2-0.9c1.2,0,2.2,0.2,3,0.7c0.8,0.5,1.4,1,1.7,1.7h0v-7.1l1-0.3v14.7c0,1.6,0,2.9,0,3.6h-0.8c-0.1-0.6-0.2-1.3-0.2-2.1h0
		c-1.2,1.6-2.9,2.4-5,2.4C761.4,175.6,760.4,175.3,759.4,174.8z M765.7,174c0.8-0.5,1.5-1.2,2-2.1v-4.6c0-0.8-0.2-1.6-0.6-2.3
		c-0.4-0.7-0.9-1.2-1.7-1.6c-0.7-0.4-1.6-0.6-2.5-0.6c-1,0-2,0.3-2.8,0.8c-0.8,0.5-1.4,1.2-1.9,2.2c-0.5,0.9-0.7,2-0.7,3.1
		c0,1.2,0.2,2.3,0.7,3.1s1.1,1.5,1.9,2c0.8,0.5,1.6,0.7,2.6,0.7C763.9,174.8,764.9,174.5,765.7,174z"/>
	<path class="st1" d="M772.9,159.6c-0.2-0.2-0.3-0.4-0.3-0.7s0.1-0.5,0.3-0.7c0.2-0.2,0.4-0.3,0.7-0.3c0.3,0,0.5,0.1,0.7,0.3
		c0.2,0.2,0.3,0.4,0.3,0.7s-0.1,0.5-0.3,0.7c-0.2,0.2-0.5,0.3-0.7,0.3C773.3,159.9,773.1,159.8,772.9,159.6z M773.1,162.3h1v13h-1
		V162.3z"/>
	<path class="st1" d="M778.4,162.3h0.9l0.1,1.3c0.6-0.5,1.2-0.9,2-1.2c0.8-0.3,1.6-0.4,2.4-0.4c0.8,0,1.6,0.2,2.2,0.5
		s1.1,0.7,1.4,1.2c0.6-0.5,1.3-0.9,2.2-1.2c0.9-0.3,1.8-0.4,2.6-0.4c0.7,0,1.3,0.1,1.9,0.3c0.6,0.2,1.1,0.5,1.4,0.9
		c0.3,0.4,0.6,0.8,0.8,1.4s0.3,1.2,0.3,1.8v8.9h-1v-8.6c0-1.2-0.2-2-0.7-2.6c-0.6-0.8-1.6-1.2-2.8-1.2c-0.8,0-1.5,0.1-2.4,0.4
		s-1.5,0.7-2,1.1c0.2,0.5,0.3,1.3,0.3,2.5v8.4h-1v-8c0-0.9,0-1.5-0.1-1.9s-0.2-0.8-0.4-1.1c-0.3-0.4-0.6-0.8-1.1-1s-1.1-0.3-1.7-0.3
		c-0.8,0-1.6,0.2-2.4,0.5s-1.4,0.7-1.9,1.1v10.8h-1V162.3z"/>
	<path class="st1" d="M800.7,159.6c-0.2-0.2-0.3-0.4-0.3-0.7s0.1-0.5,0.3-0.7c0.2-0.2,0.4-0.3,0.7-0.3c0.3,0,0.5,0.1,0.7,0.3
		c0.2,0.2,0.3,0.4,0.3,0.7s-0.1,0.5-0.3,0.7c-0.2,0.2-0.5,0.3-0.7,0.3C801.2,159.9,800.9,159.8,800.7,159.6z M800.9,162.3h1v13h-1
		V162.3z"/>
	<path class="st1" d="M806.3,162.3h0.9l0.1,1.3c1.5-1,3.2-1.6,5.1-1.6c1.5,0,2.6,0.4,3.4,1.2c0.4,0.3,0.6,0.8,0.8,1.3
		c0.2,0.5,0.3,1.1,0.3,1.9v9h-1v-8.9c0-0.6-0.1-1.1-0.2-1.5c-0.1-0.4-0.3-0.8-0.6-1c-0.6-0.7-1.6-1-3-1c-0.9,0-1.7,0.1-2.5,0.4
		c-0.8,0.3-1.5,0.7-2.3,1.2v10.8h-1V162.3z"/>
	<path class="st1" d="M822.4,174.4c-1-0.8-1.5-2.1-1.5-3.8v-8.3h1v8.3c0,1.3,0.4,2.3,1.2,3c0.8,0.7,1.9,1.1,3.3,1.1
		c1.3,0,2.3-0.4,3-1.1c0.7-0.7,1-1.7,1-3v-8.3h1v8.3c0,1.5-0.5,2.7-1.3,3.6c-0.9,0.9-2.2,1.4-3.8,1.4
		C824.7,175.6,823.4,175.2,822.4,174.4z"/>
	<path class="st1" d="M836.4,174.7c-0.6-0.5-0.8-1.3-0.8-2.4v-13.1l1-0.3v3.4h4.8l-0.4,0.8h-4.3v8.8c0,1,0.2,1.7,0.5,2.1
		c0.4,0.4,1,0.6,2,0.6c0.6,0,1.4-0.1,2.2-0.3l0.1,0.8c-0.3,0.1-0.6,0.2-1.1,0.2s-0.9,0.1-1.4,0.1
		C837.8,175.5,836.9,175.2,836.4,174.7z"/>
	<path class="st1" d="M843.9,159.6c-0.2-0.2-0.3-0.4-0.3-0.7s0.1-0.5,0.3-0.7s0.4-0.3,0.7-0.3s0.5,0.1,0.7,0.3
		c0.2,0.2,0.3,0.4,0.3,0.7s-0.1,0.5-0.3,0.7c-0.2,0.2-0.5,0.3-0.7,0.3S844.1,159.8,843.9,159.6z M844.1,162.3h1v13h-1V162.3z"/>
	<path class="st1" d="M847.8,162.3h1.1l5,11.6h0l5-11.6h1.1l-5.8,13h-0.6L847.8,162.3z"/>
	<path class="st1" d="M864.1,174.7c-0.9-0.6-1.6-1.4-2.1-2.5s-0.7-2.1-0.7-3.4c0-1.2,0.2-2.4,0.7-3.4s1.2-1.8,2.2-2.5
		c1-0.6,2.2-0.9,3.6-0.9c1.3,0,2.4,0.3,3.3,0.9c0.9,0.6,1.6,1.4,2.1,2.5s0.7,2.2,0.7,3.4c0,1.2-0.2,2.3-0.7,3.3
		c-0.5,1-1.2,1.9-2.2,2.5c-1,0.6-2.2,1-3.6,1C866.1,175.6,865,175.3,864.1,174.7z M870.3,174c0.8-0.5,1.4-1.2,1.8-2.1
		c0.4-0.9,0.6-1.9,0.6-3.1c0-1.2-0.2-2.2-0.6-3.1s-1-1.6-1.8-2.1c-0.8-0.5-1.7-0.7-2.8-0.7c-1.1,0-2,0.2-2.8,0.7
		c-0.8,0.5-1.4,1.2-1.9,2.1s-0.7,1.9-0.7,3.1c0,1.2,0.2,2.2,0.7,3.1c0.4,0.9,1.1,1.6,1.9,2.1c0.8,0.5,1.7,0.7,2.7,0.7
		C868.6,174.8,869.5,174.5,870.3,174z"/>
	<path class="st1" d="M878.3,175.3c-0.7-0.2-1.3-0.5-1.8-0.8l0.1-0.9c0.6,0.4,1.2,0.6,1.9,0.8c0.7,0.2,1.4,0.3,2.1,0.3
		c2.2,0,3.3-0.9,3.3-2.8c0-0.5-0.1-1-0.3-1.3c-0.2-0.3-0.5-0.6-0.9-0.8s-1-0.5-1.7-0.8c-1-0.4-1.8-0.8-2.4-1.1s-1-0.7-1.2-1.2
		c-0.3-0.4-0.4-0.9-0.4-1.5c0-1,0.4-1.8,1.1-2.4c0.7-0.6,1.8-0.9,3.1-0.9c0.6,0,1.2,0.1,1.7,0.2s1,0.3,1.4,0.4l-0.2,0.8
		c-1-0.4-2-0.6-3-0.6c-1,0-1.8,0.2-2.3,0.6s-0.8,1-0.8,1.8c0,0.6,0.2,1.1,0.6,1.5c0.4,0.4,1.2,0.8,2.4,1.3c0.9,0.3,1.6,0.7,2.2,1
		c0.5,0.3,0.9,0.7,1.3,1.1c0.3,0.5,0.5,1.1,0.5,1.8c0,1.2-0.4,2-1.2,2.7s-1.9,1-3.2,1C879.8,175.6,879,175.5,878.3,175.3z"/>
	<path class="st1" d="M888,175.2c-0.2-0.2-0.3-0.5-0.3-0.9c0-0.3,0.1-0.6,0.4-0.8c0.2-0.2,0.5-0.4,0.8-0.4c0.3,0,0.6,0.1,0.9,0.4
		c0.2,0.2,0.4,0.5,0.4,0.8c0,0.3-0.1,0.6-0.4,0.9c-0.2,0.2-0.5,0.3-0.9,0.3C888.5,175.6,888.2,175.4,888,175.2z"/>
</g>
<g>
	<g>
		<rect x="0" y="1.1" class="st2" width="4.6" height="227.9"/>
	</g>
	<g>
		<rect x="0" y="1.1" transform="matrix(0.9329 -0.3602 0.3602 0.9329 -41.2758 8.5669)" class="st2" width="4.6" height="227.9"/>
	</g>
	<g>
		<rect x="0" y="1.1" transform="matrix(0.7071 -0.7071 0.7071 0.7071 -80.6447 35.3476)" class="st2" width="4.6" height="227.9"/>
	</g>
	<g>
		
			<rect x="0" y="1.1" transform="matrix(0.3558 -0.9345 0.9345 0.3558 -105.9813 76.2848)" class="st2" width="4.6" height="227.9"/>
	</g>
	<g>
		<rect x="-111.6" y="112.7" class="st2" width="227.9" height="4.6"/>
	</g>
	<g>
		
			<rect x="-111.6" y="112.7" transform="matrix(0.9329 -0.3602 0.3602 0.9329 -41.2711 8.5651)" class="st2" width="227.9" height="4.6"/>
	</g>
	<g>
		
			<rect x="-111.6" y="112.7" transform="matrix(0.7071 -0.7071 0.7071 0.7071 -80.6446 35.3477)" class="st2" width="227.9" height="4.6"/>
	</g>
	<g>
		
			<rect x="-111.6" y="112.7" transform="matrix(0.3558 -0.9345 0.9345 0.3558 -105.9808 76.2835)" class="st2" width="227.9" height="4.6"/>
	</g>
</g>
<g>
	<g>
		<rect x="1075.2" y="0.3" class="st2" width="4.6" height="229.4"/>
	</g>
	<g>
		
			<rect x="1075.2" y="0.3" transform="matrix(0.9329 -0.3602 0.3602 0.9329 30.9044 395.8669)" class="st2" width="4.6" height="229.4"/>
	</g>
	<g>
		
			<rect x="1075.2" y="0.3" transform="matrix(0.7071 -0.7071 0.7071 0.7071 234.2617 795.6019)" class="st2" width="4.6" height="229.4"/>
	</g>
	<g>
		
			<rect x="1075.2" y="0.3" transform="matrix(0.3558 -0.9345 0.9345 0.3558 586.5995 1081.0778)" class="st2" width="4.6" height="229.4"/>
	</g>
	<g>
		<rect x="962.8" y="112.7" class="st2" width="229.4" height="4.6"/>
	</g>
	<g>
		
			<rect x="962.8" y="112.7" transform="matrix(0.9329 -0.3602 0.3602 0.9329 30.8921 395.8211)" class="st2" width="229.4" height="4.6"/>
	</g>
	<g>
		
			<rect x="962.8" y="112.7" transform="matrix(0.7071 -0.7071 0.7071 0.7071 234.2639 795.6041)" class="st2" width="229.4" height="4.6"/>
	</g>
	<g>
		
			<rect x="962.8" y="112.7" transform="matrix(0.3558 -0.9345 0.9345 0.3558 586.5876 1081.0718)" class="st2" width="229.4" height="4.6"/>
	</g>
</g>
</svg>
