<?xml version="1.0" encoding="utf-8"?>
<!-- Generator: Adobe Illustrator 23.0.6, SVG Export Plug-In . SVG Version: 6.00 Build 0)  -->
<svg version="1.1" id="Capa_1" xmlns="http://www.w3.org/2000/svg" xmlns:xlink="http://www.w3.org/1999/xlink" x="0px" y="0px"
	 viewBox="0 0 1080 933.1" style="enable-background:new 0 0 1080 933.1;" xml:space="preserve">
<style type="text/css">
	.st0{fill:#3A0A27;}
	.st1{filter:url(#Adobe_OpacityMaskFilter);}
	.st2{clip-path:url(#SVGID_1_);fill:url(#SVGID_3_);}
	.st3{clip-path:url(#SVGID_1_);mask:url(#SVGID_2_);fill:url(#SVGID_4_);}
	.st4{filter:url(#Adobe_OpacityMaskFilter_1_);}
	.st5{clip-path:url(#SVGID_5_);fill:url(#SVGID_7_);}
	.st6{clip-path:url(#SVGID_5_);mask:url(#SVGID_6_);fill:url(#SVGID_8_);}
	.st7{filter:url(#Adobe_OpacityMaskFilter_2_);}
	.st8{clip-path:url(#SVGID_9_);fill:url(#SVGID_11_);}
	.st9{clip-path:url(#SVGID_9_);mask:url(#SVGID_10_);fill:url(#SVGID_12_);}
	.st10{filter:url(#Adobe_OpacityMaskFilter_3_);}
	.st11{clip-path:url(#SVGID_13_);fill:url(#SVGID_15_);}
	.st12{clip-path:url(#SVGID_13_);mask:url(#SVGID_14_);fill:url(#SVGID_16_);}
	.st13{filter:url(#Adobe_OpacityMaskFilter_4_);}
	.st14{clip-path:url(#SVGID_17_);fill:url(#SVGID_19_);}
	.st15{clip-path:url(#SVGID_17_);mask:url(#SVGID_18_);fill:url(#SVGID_20_);}
	.st16{filter:url(#Adobe_OpacityMaskFilter_5_);}
	.st17{clip-path:url(#SVGID_21_);fill:url(#SVGID_23_);}
	.st18{clip-path:url(#SVGID_21_);mask:url(#SVGID_22_);fill:url(#SVGID_24_);}
	.st19{filter:url(#Adobe_OpacityMaskFilter_6_);}
	.st20{clip-path:url(#SVGID_25_);fill:url(#SVGID_27_);}
	.st21{clip-path:url(#SVGID_25_);mask:url(#SVGID_26_);fill:url(#SVGID_28_);}
	.st22{filter:url(#Adobe_OpacityMaskFilter_7_);}
	.st23{clip-path:url(#SVGID_29_);fill:url(#SVGID_31_);}
	.st24{clip-path:url(#SVGID_29_);mask:url(#SVGID_30_);fill:url(#SVGID_32_);}
	.st25{filter:url(#Adobe_OpacityMaskFilter_8_);}
	.st26{clip-path:url(#SVGID_33_);fill:url(#SVGID_35_);}
	.st27{clip-path:url(#SVGID_33_);mask:url(#SVGID_34_);fill:url(#SVGID_36_);}
	.st28{filter:url(#Adobe_OpacityMaskFilter_9_);}
	.st29{clip-path:url(#SVGID_37_);fill:url(#SVGID_39_);}
	.st30{clip-path:url(#SVGID_37_);mask:url(#SVGID_38_);fill:url(#SVGID_40_);}
	.st31{filter:url(#Adobe_OpacityMaskFilter_10_);}
	.st32{clip-path:url(#SVGID_41_);fill:url(#SVGID_43_);}
	.st33{clip-path:url(#SVGID_41_);mask:url(#SVGID_42_);fill:url(#SVGID_44_);}
</style>
<g>
	<rect class="st0" width="1080" height="933.1"/>
	<g>
		<defs>
			<path id="SVGID_56_" d="M115.3,232.8c-0.4,0.4-0.4,1,0,1.4c35.3,35.3,54.7,82.2,54.7,132.1c0,49.9-19.4,96.8-54.7,132.1
				c-0.4,0.4-0.4,1,0,1.4c0.2,0.2,0.5,0.3,0.7,0.3c0.3,0,0.5-0.1,0.7-0.3c35.7-35.7,55.3-83.1,55.3-133.5
				c0-50.4-19.6-97.9-55.3-133.5c-0.2-0.2-0.5-0.3-0.7-0.3C115.8,232.5,115.5,232.6,115.3,232.8"/>
		</defs>
		<clipPath id="SVGID_1_">
			<use xlink:href="#SVGID_56_"  style="overflow:visible;"/>
		</clipPath>
		<defs>
			<filter id="Adobe_OpacityMaskFilter" filterUnits="userSpaceOnUse" x="114.9" y="232.5" width="57.1" height="267.7">
				<feColorMatrix  type="matrix" values="1 0 0 0 0  0 1 0 0 0  0 0 1 0 0  0 0 0 1 0"/>
			</filter>
		</defs>
		<mask maskUnits="userSpaceOnUse" x="114.9" y="232.5" width="57.1" height="267.7" id="SVGID_2_">
			<g class="st1">
				
					<linearGradient id="SVGID_3_" gradientUnits="userSpaceOnUse" x1="-518.2762" y1="900.604" x2="-517.2762" y2="900.604" gradientTransform="matrix(-144.011 0 0 144.011 -74469.3438 -129330.5234)">
					<stop  offset="0" style="stop-color:#000000"/>
					<stop  offset="1" style="stop-color:#FFFFFF"/>
				</linearGradient>
				<rect x="114.9" y="232.5" class="st2" width="57.1" height="267.7"/>
			</g>
		</mask>
		
			<linearGradient id="SVGID_4_" gradientUnits="userSpaceOnUse" x1="-518.2762" y1="900.604" x2="-517.2762" y2="900.604" gradientTransform="matrix(-144.011 0 0 144.011 -74469.3438 -129330.5234)">
			<stop  offset="0" style="stop-color:#F7BDC2"/>
			<stop  offset="1" style="stop-color:#E50000"/>
		</linearGradient>
		<rect x="114.9" y="232.5" class="st3" width="57.1" height="267.7"/>
	</g>
	<g>
		<defs>
			<path id="SVGID_61_" d="M145,366.3c0,83.6-63.7,152.5-145,161v2c82.5-8.5,147-78.3,147-163c0-0.6-0.4-1-1-1
				C145.5,365.3,145,365.8,145,366.3"/>
		</defs>
		<clipPath id="SVGID_5_">
			<use xlink:href="#SVGID_61_"  style="overflow:visible;"/>
		</clipPath>
		<defs>
			<filter id="Adobe_OpacityMaskFilter_1_" filterUnits="userSpaceOnUse" x="0" y="365.3" width="147" height="164">
				<feColorMatrix  type="matrix" values="1 0 0 0 0  0 1 0 0 0  0 0 1 0 0  0 0 0 1 0"/>
			</filter>
		</defs>
		<mask maskUnits="userSpaceOnUse" x="0" y="365.3" width="147" height="164" id="SVGID_6_">
			<g class="st4">
				
					<linearGradient id="SVGID_7_" gradientUnits="userSpaceOnUse" x1="-518.2762" y1="901.1664" x2="-517.2762" y2="901.1664" gradientTransform="matrix(-144.011 0 0 144.011 -74469.3438 -129330.5234)">
					<stop  offset="0" style="stop-color:#000000"/>
					<stop  offset="1" style="stop-color:#FFFFFF"/>
				</linearGradient>
				<rect y="365.3" class="st5" width="147" height="164"/>
			</g>
		</mask>
		
			<linearGradient id="SVGID_8_" gradientUnits="userSpaceOnUse" x1="-518.2762" y1="901.1664" x2="-517.2762" y2="901.1664" gradientTransform="matrix(-144.011 0 0 144.011 -74469.3438 -129330.5234)">
			<stop  offset="0" style="stop-color:#F7BDC2"/>
			<stop  offset="1" style="stop-color:#E50000"/>
		</linearGradient>
		<rect y="365.3" class="st6" width="147" height="164"/>
	</g>
	<g>
		<defs>
			<path id="SVGID_66_" d="M0,255.7c53.7,8.1,95,54.6,95,110.6c0,56-41.3,102.5-95,110.6v2c54.8-8.2,97-55.6,97-112.6
				c0-57.1-42.2-104.5-97-112.6V255.7z"/>
		</defs>
		<clipPath id="SVGID_9_">
			<use xlink:href="#SVGID_66_"  style="overflow:visible;"/>
		</clipPath>
		<defs>
			<filter id="Adobe_OpacityMaskFilter_2_" filterUnits="userSpaceOnUse" x="0" y="253.7" width="97" height="225.3">
				<feColorMatrix  type="matrix" values="1 0 0 0 0  0 1 0 0 0  0 0 1 0 0  0 0 0 1 0"/>
			</filter>
		</defs>
		<mask maskUnits="userSpaceOnUse" x="0" y="253.7" width="97" height="225.3" id="SVGID_10_">
			<g class="st7">
				
					<linearGradient id="SVGID_11_" gradientUnits="userSpaceOnUse" x1="-518.2762" y1="900.604" x2="-517.2762" y2="900.604" gradientTransform="matrix(-144.011 0 0 144.011 -74469.3438 -129330.5234)">
					<stop  offset="0" style="stop-color:#000000"/>
					<stop  offset="1" style="stop-color:#FFFFFF"/>
				</linearGradient>
				<rect y="253.7" class="st8" width="97" height="225.3"/>
			</g>
		</mask>
		
			<linearGradient id="SVGID_12_" gradientUnits="userSpaceOnUse" x1="-518.2762" y1="900.604" x2="-517.2762" y2="900.604" gradientTransform="matrix(-144.011 0 0 144.011 -74469.3438 -129330.5234)">
			<stop  offset="0" style="stop-color:#F7BDC2"/>
			<stop  offset="1" style="stop-color:#E50000"/>
		</linearGradient>
		<rect y="253.7" class="st9" width="97" height="225.3"/>
	</g>
	<g>
		<defs>
			<path id="SVGID_71_" d="M70,366.3c0,42.1-30.2,77.4-70,85.2v2c41-7.9,72-44,72-87.3c0-0.6-0.4-1-1-1
				C70.5,365.3,70,365.8,70,366.3"/>
		</defs>
		<clipPath id="SVGID_13_">
			<use xlink:href="#SVGID_71_"  style="overflow:visible;"/>
		</clipPath>
		<defs>
			<filter id="Adobe_OpacityMaskFilter_3_" filterUnits="userSpaceOnUse" x="0" y="365.3" width="72" height="88.3">
				<feColorMatrix  type="matrix" values="1 0 0 0 0  0 1 0 0 0  0 0 1 0 0  0 0 0 1 0"/>
			</filter>
		</defs>
		<mask maskUnits="userSpaceOnUse" x="0" y="365.3" width="72" height="88.3" id="SVGID_14_">
			<g class="st10">
				
					<linearGradient id="SVGID_15_" gradientUnits="userSpaceOnUse" x1="-518.2762" y1="900.9035" x2="-517.2758" y2="900.9035" gradientTransform="matrix(-144.011 0 0 144.011 -74469.3438 -129330.5234)">
					<stop  offset="0" style="stop-color:#000000"/>
					<stop  offset="1" style="stop-color:#FFFFFF"/>
				</linearGradient>
				<rect y="365.3" class="st11" width="72" height="88.3"/>
			</g>
		</mask>
		
			<linearGradient id="SVGID_16_" gradientUnits="userSpaceOnUse" x1="-518.2762" y1="900.9035" x2="-517.2758" y2="900.9035" gradientTransform="matrix(-144.011 0 0 144.011 -74469.3438 -129330.5234)">
			<stop  offset="0" style="stop-color:#F7BDC2"/>
			<stop  offset="1" style="stop-color:#E50000"/>
		</linearGradient>
		<rect y="365.3" class="st12" width="72" height="88.3"/>
	</g>
	<g>
		<defs>
			<path id="SVGID_76_" d="M24.2,318.7c-0.4,0.4-0.3,1,0.1,1.4C37.5,331.8,45,348.7,45,366.3c0,17.4-7.4,34.2-20.4,45.9
				c-4,3.6-8.4,6.7-13.2,9.1c-0.5,0.3-0.7,0.9-0.4,1.3c0.2,0.3,0.5,0.5,0.9,0.5c0.2,0,0.3,0,0.5-0.1c4.9-2.5,9.5-5.7,13.6-9.4
				c13.4-12.1,21-29.4,21-47.4c0-18.2-7.8-35.6-21.5-47.8c-0.2-0.2-0.4-0.3-0.7-0.3C24.6,318.3,24.4,318.4,24.2,318.7"/>
		</defs>
		<clipPath id="SVGID_17_">
			<use xlink:href="#SVGID_76_"  style="overflow:visible;"/>
		</clipPath>
		<defs>
			<filter id="Adobe_OpacityMaskFilter_4_" filterUnits="userSpaceOnUse" x="10.8" y="318.3" width="36.3" height="104.9">
				<feColorMatrix  type="matrix" values="1 0 0 0 0  0 1 0 0 0  0 0 1 0 0  0 0 0 1 0"/>
			</filter>
		</defs>
		<mask maskUnits="userSpaceOnUse" x="10.8" y="318.3" width="36.3" height="104.9" id="SVGID_18_">
			<g class="st13">
				
					<linearGradient id="SVGID_19_" gradientUnits="userSpaceOnUse" x1="-518.2762" y1="900.604" x2="-517.2762" y2="900.604" gradientTransform="matrix(-144.011 0 0 144.011 -74469.3438 -129326.0625)">
					<stop  offset="0" style="stop-color:#000000"/>
					<stop  offset="1" style="stop-color:#FFFFFF"/>
				</linearGradient>
				<rect x="10.8" y="318.3" class="st14" width="36.3" height="104.9"/>
			</g>
		</mask>
		
			<linearGradient id="SVGID_20_" gradientUnits="userSpaceOnUse" x1="-518.2762" y1="900.604" x2="-517.2762" y2="900.604" gradientTransform="matrix(-144.011 0 0 144.011 -74469.3438 -129326.0625)">
			<stop  offset="0" style="stop-color:#F7BDC2"/>
			<stop  offset="1" style="stop-color:#E50000"/>
		</linearGradient>
		<rect x="10.8" y="318.3" class="st15" width="36.3" height="104.9"/>
	</g>
	<g>
		<defs>
			<path id="SVGID_81_" d="M1064.5,182.5c-49.1,11.5-90.8,41.5-117.4,84.4c-26.6,42.9-34.9,93.5-23.3,142.7c0.1,0.5,0.5,0.8,1,0.8
				c0.1,0,0.2,0,0.2,0c0.5-0.1,0.9-0.7,0.7-1.2c-11.4-48.6-3.2-98.7,23.1-141.1c26.3-42.4,67.5-72.1,116.1-83.5
				c0.5-0.1,0.9-0.7,0.7-1.2c-0.1-0.5-0.5-0.8-1-0.8C1064.7,182.4,1064.6,182.5,1064.5,182.5"/>
		</defs>
		<clipPath id="SVGID_21_">
			<use xlink:href="#SVGID_81_"  style="overflow:visible;"/>
		</clipPath>
		<defs>
			<filter id="Adobe_OpacityMaskFilter_5_" filterUnits="userSpaceOnUse" x="912.3" y="182.4" width="153.5" height="227.8">
				<feColorMatrix  type="matrix" values="1 0 0 0 0  0 1 0 0 0  0 0 1 0 0  0 0 0 1 0"/>
			</filter>
		</defs>
		<mask maskUnits="userSpaceOnUse" x="912.3" y="182.4" width="153.5" height="227.8" id="SVGID_22_">
			<g class="st16">
				
					<linearGradient id="SVGID_23_" gradientUnits="userSpaceOnUse" x1="-511.5441" y1="900.1755" x2="-510.5441" y2="900.1755" gradientTransform="matrix(162.9802 0 0 -162.9802 84285.7344 147007.1406)">
					<stop  offset="0" style="stop-color:#000000"/>
					<stop  offset="1" style="stop-color:#FFFFFF"/>
				</linearGradient>
				<rect x="912.3" y="182.4" class="st17" width="153.5" height="227.8"/>
			</g>
		</mask>
		
			<linearGradient id="SVGID_24_" gradientUnits="userSpaceOnUse" x1="-511.5441" y1="900.1755" x2="-510.5441" y2="900.1755" gradientTransform="matrix(162.9802 0 0 -162.9802 84285.7344 147007.1406)">
			<stop  offset="0" style="stop-color:#F7BDC2"/>
			<stop  offset="1" style="stop-color:#E50000"/>
		</linearGradient>
		<rect x="912.3" y="182.4" class="st18" width="153.5" height="227.8"/>
	</g>
	<g>
		<defs>
			<path id="SVGID_86_" d="M968.4,280c-47.6,76.8-23.8,178,53,225.6c18.2,11.3,38.1,18.8,58.6,22.3v-2c-20.2-3.5-39.7-10.9-57.6-22
				c-75.9-47-99.3-147-52.3-222.8c25.3-40.8,65.9-66.5,109.9-74.1v-2C1035.4,212.6,994.1,238.6,968.4,280"/>
		</defs>
		<clipPath id="SVGID_25_">
			<use xlink:href="#SVGID_86_"  style="overflow:visible;"/>
		</clipPath>
		<defs>
			<filter id="Adobe_OpacityMaskFilter_6_" filterUnits="userSpaceOnUse" x="920.8" y="204.9" width="159.2" height="323">
				<feColorMatrix  type="matrix" values="1 0 0 0 0  0 1 0 0 0  0 0 1 0 0  0 0 0 1 0"/>
			</filter>
		</defs>
		<mask maskUnits="userSpaceOnUse" x="920.8" y="204.9" width="159.2" height="323" id="SVGID_26_">
			<g class="st19">
				
					<linearGradient id="SVGID_27_" gradientUnits="userSpaceOnUse" x1="-511.5441" y1="900.1753" x2="-510.5441" y2="900.1753" gradientTransform="matrix(162.9802 0 0 -162.9802 84285.7344 147077.1563)">
					<stop  offset="0" style="stop-color:#000000"/>
					<stop  offset="1" style="stop-color:#FFFFFF"/>
				</linearGradient>
				<rect x="920.8" y="204.9" class="st20" width="159.2" height="323"/>
			</g>
		</mask>
		
			<linearGradient id="SVGID_28_" gradientUnits="userSpaceOnUse" x1="-511.5441" y1="900.1753" x2="-510.5441" y2="900.1753" gradientTransform="matrix(162.9802 0 0 -162.9802 84285.7344 147077.1563)">
			<stop  offset="0" style="stop-color:#F7BDC2"/>
			<stop  offset="1" style="stop-color:#E50000"/>
		</linearGradient>
		<rect x="920.8" y="204.9" class="st21" width="159.2" height="323"/>
	</g>
	<g>
		<defs>
			<path id="SVGID_91_" d="M989.6,293.2c-40.3,65.1-20.2,150.9,44.9,191.2c0.2,0.1,0.3,0.1,0.5,0.1c0.3,0,0.7-0.2,0.9-0.5
				c0.3-0.5,0.1-1.1-0.3-1.4c-64.2-39.7-84-124.3-44.3-188.4c0.3-0.5,0.1-1.1-0.3-1.4c-0.2-0.1-0.3-0.2-0.5-0.2
				C990.2,292.7,989.8,292.9,989.6,293.2"/>
		</defs>
		<clipPath id="SVGID_29_">
			<use xlink:href="#SVGID_91_"  style="overflow:visible;"/>
		</clipPath>
		<defs>
			<filter id="Adobe_OpacityMaskFilter_7_" filterUnits="userSpaceOnUse" x="949.3" y="292.7" width="86.9" height="191.8">
				<feColorMatrix  type="matrix" values="1 0 0 0 0  0 1 0 0 0  0 0 1 0 0  0 0 0 1 0"/>
			</filter>
		</defs>
		<mask maskUnits="userSpaceOnUse" x="949.3" y="292.7" width="86.9" height="191.8" id="SVGID_30_">
			<g class="st22">
				
					<linearGradient id="SVGID_31_" gradientUnits="userSpaceOnUse" x1="-511.5441" y1="900.1755" x2="-510.5441" y2="900.1755" gradientTransform="matrix(162.9802 0 0 -162.9802 84285.7344 147099.3906)">
					<stop  offset="0" style="stop-color:#000000"/>
					<stop  offset="1" style="stop-color:#FFFFFF"/>
				</linearGradient>
				<rect x="949.3" y="292.7" class="st23" width="86.9" height="191.8"/>
			</g>
		</mask>
		
			<linearGradient id="SVGID_32_" gradientUnits="userSpaceOnUse" x1="-511.5441" y1="900.1755" x2="-510.5441" y2="900.1755" gradientTransform="matrix(162.9802 0 0 -162.9802 84285.7344 147099.3906)">
			<stop  offset="0" style="stop-color:#F7BDC2"/>
			<stop  offset="1" style="stop-color:#E50000"/>
		</linearGradient>
		<rect x="949.3" y="292.7" class="st24" width="86.9" height="191.8"/>
	</g>
	<g>
		<defs>
			<path id="SVGID_96_" d="M1047.4,461.7c-0.3,0.5-0.1,1.1,0.3,1.4c10.3,6.4,21.2,10.9,32.3,13.7v-2.1c-10.8-2.7-21.3-7.1-31.2-13.3
				c-0.2-0.1-0.3-0.2-0.5-0.2C1047.9,461.3,1047.6,461.4,1047.4,461.7 M1060.7,262.6c-0.5,0.2-0.7,0.8-0.5,1.3
				c0.2,0.5,0.8,0.7,1.3,0.5c6-2.7,12.2-4.9,18.5-6.5v-2.1C1073.4,257.5,1067,259.8,1060.7,262.6"/>
		</defs>
		<clipPath id="SVGID_33_">
			<use xlink:href="#SVGID_96_"  style="overflow:visible;"/>
		</clipPath>
		<defs>
			<filter id="Adobe_OpacityMaskFilter_8_" filterUnits="userSpaceOnUse" x="1047.1" y="255.9" width="32.9" height="220.9">
				<feColorMatrix  type="matrix" values="1 0 0 0 0  0 1 0 0 0  0 0 1 0 0  0 0 0 1 0"/>
			</filter>
		</defs>
		<mask maskUnits="userSpaceOnUse" x="1047.1" y="255.9" width="32.9" height="220.9" id="SVGID_34_">
			<g class="st25">
				
					<linearGradient id="SVGID_35_" gradientUnits="userSpaceOnUse" x1="-511.5441" y1="900.1754" x2="-510.5441" y2="900.1754" gradientTransform="matrix(162.9802 0 0 -162.9802 84285.7344 147077.0781)">
					<stop  offset="0" style="stop-color:#000000"/>
					<stop  offset="1" style="stop-color:#FFFFFF"/>
				</linearGradient>
				<rect x="1047.1" y="255.9" class="st26" width="32.9" height="220.9"/>
			</g>
		</mask>
		
			<linearGradient id="SVGID_36_" gradientUnits="userSpaceOnUse" x1="-511.5441" y1="900.1754" x2="-510.5441" y2="900.1754" gradientTransform="matrix(162.9802 0 0 -162.9802 84285.7344 147077.0781)">
			<stop  offset="0" style="stop-color:#F7BDC2"/>
			<stop  offset="1" style="stop-color:#E50000"/>
		</linearGradient>
		<rect x="1047.1" y="255.9" class="st27" width="32.9" height="220.9"/>
	</g>
	<g>
		<defs>
			<path id="SVGID_101_" d="M1032.1,319.5c-25.8,41.7-12.9,96.5,28.7,122.3c6.1,3.8,12.6,6.8,19.1,8.9v-2.1
				c-6.2-2.1-12.3-4.9-18.1-8.5c-40.7-25.2-53.3-78.9-28.1-119.6c11.1-17.9,27.6-30.3,46.2-36.5v-2.1
				C1060.8,288.2,1043.6,301,1032.1,319.5"/>
		</defs>
		<clipPath id="SVGID_37_">
			<use xlink:href="#SVGID_101_"  style="overflow:visible;"/>
		</clipPath>
		<defs>
			<filter id="Adobe_OpacityMaskFilter_9_" filterUnits="userSpaceOnUse" x="1006.3" y="281.9" width="73.7" height="168.9">
				<feColorMatrix  type="matrix" values="1 0 0 0 0  0 1 0 0 0  0 0 1 0 0  0 0 0 1 0"/>
			</filter>
		</defs>
		<mask maskUnits="userSpaceOnUse" x="1006.3" y="281.9" width="73.7" height="168.9" id="SVGID_38_">
			<g class="st28">
				
					<linearGradient id="SVGID_39_" gradientUnits="userSpaceOnUse" x1="-511.5441" y1="900.1754" x2="-510.5441" y2="900.1754" gradientTransform="matrix(162.9802 0 0 -162.9802 84285.7344 147077.1094)">
					<stop  offset="0" style="stop-color:#000000"/>
					<stop  offset="1" style="stop-color:#FFFFFF"/>
				</linearGradient>
				<rect x="1006.3" y="281.9" class="st29" width="73.7" height="168.9"/>
			</g>
		</mask>
		
			<linearGradient id="SVGID_40_" gradientUnits="userSpaceOnUse" x1="-511.5441" y1="900.1754" x2="-510.5441" y2="900.1754" gradientTransform="matrix(162.9802 0 0 -162.9802 84285.7344 147077.1094)">
			<stop  offset="0" style="stop-color:#F7BDC2"/>
			<stop  offset="1" style="stop-color:#E50000"/>
		</linearGradient>
		<rect x="1006.3" y="281.9" class="st30" width="73.7" height="168.9"/>
	</g>
	<g>
		<defs>
			<path id="SVGID_106_" d="M1053.4,332.7c-12.3,19.9-12.8,45-1.2,65.3c0.2,0.3,0.5,0.5,0.9,0.5c0.2,0,0.3,0,0.5-0.1
				c0.5-0.3,0.6-0.9,0.4-1.4c-11.3-19.7-10.8-44,1.1-63.3c6.1-9.8,14.8-17.6,24.9-22.7v-2.2C1069.2,314,1059.8,322.3,1053.4,332.7"
				/>
		</defs>
		<clipPath id="SVGID_41_">
			<use xlink:href="#SVGID_106_"  style="overflow:visible;"/>
		</clipPath>
		<defs>
			<filter id="Adobe_OpacityMaskFilter_10_" filterUnits="userSpaceOnUse" x="1040.6" y="308.8" width="39.4" height="89.7">
				<feColorMatrix  type="matrix" values="1 0 0 0 0  0 1 0 0 0  0 0 1 0 0  0 0 0 1 0"/>
			</filter>
		</defs>
		<mask maskUnits="userSpaceOnUse" x="1040.6" y="308.8" width="39.4" height="89.7" id="SVGID_42_">
			<g class="st31">
				
					<linearGradient id="SVGID_43_" gradientUnits="userSpaceOnUse" x1="-511.5441" y1="900.1567" x2="-510.5441" y2="900.1567" gradientTransform="matrix(162.9802 0 0 -162.9802 84285.7344 147061.375)">
					<stop  offset="0" style="stop-color:#000000"/>
					<stop  offset="1" style="stop-color:#FFFFFF"/>
				</linearGradient>
				<rect x="1040.6" y="308.8" class="st32" width="39.4" height="89.7"/>
			</g>
		</mask>
		
			<linearGradient id="SVGID_44_" gradientUnits="userSpaceOnUse" x1="-511.5441" y1="900.1567" x2="-510.5441" y2="900.1567" gradientTransform="matrix(162.9802 0 0 -162.9802 84285.7344 147061.375)">
			<stop  offset="0" style="stop-color:#F7BDC2"/>
			<stop  offset="1" style="stop-color:#E50000"/>
		</linearGradient>
		<rect x="1040.6" y="308.8" class="st33" width="39.4" height="89.7"/>
	</g>
</g>
</svg>
