<?xml version="1.0" encoding="utf-8"?>
<!-- Generator: Adobe Illustrator 23.0.6, SVG Export Plug-In . SVG Version: 6.00 Build 0)  -->
<svg version="1.1" id="Capa_1" xmlns="http://www.w3.org/2000/svg" xmlns:xlink="http://www.w3.org/1999/xlink" x="0px" y="0px"
	 viewBox="0 0 535 159.5" style="enable-background:new 0 0 535 159.5;" xml:space="preserve">
<style type="text/css">
	.st0{fill:#FFFFFF;stroke:#FFFFFF;stroke-width:2.708;stroke-linecap:round;stroke-miterlimit:10;}
	.st1{fill:#FFFFFF;}
</style>
<g>
	<line class="st0" x1="233.2" y1="1.4" x2="197.4" y2="158.2"/>
	<polygon class="st1" points="277,45.3 267.3,45.3 267.3,16.7 259.9,16.7 259.9,52.4 277,52.4 	"/>
	<rect x="279.1" y="25.8" class="st1" width="7.2" height="26.6"/>
	<path class="st1" d="M282.7,24.3c1.2,0,2.3-0.4,3.2-1.3c0.9-0.9,1.3-2,1.3-3.2c0-1.3-0.4-2.4-1.3-3.2c-0.9-0.9-1.9-1.3-3.2-1.3
		c-1.2,0-2.3,0.4-3.2,1.3c-0.9,0.9-1.3,1.9-1.3,3.2c0,1.3,0.4,2.4,1.3,3.3C280.4,23.9,281.5,24.3,282.7,24.3"/>
	<polygon class="st1" points="299,52.4 303.7,52.4 315,25.8 307.6,25.8 301.3,40.5 295,25.8 287.6,25.8 298.9,52.2 	"/>
	<path class="st1" d="M319.9,24.3c1.2,0,2.3-0.4,3.2-1.3c0.9-0.9,1.3-2,1.3-3.2c0-1.3-0.4-2.4-1.3-3.2c-0.9-0.9-1.9-1.3-3.2-1.3
		c-1.2,0-2.3,0.4-3.2,1.3c-0.9,0.9-1.3,1.9-1.3,3.2c0,1.3,0.4,2.4,1.3,3.3C317.6,23.9,318.7,24.3,319.9,24.3"/>
	<rect x="316.3" y="25.8" class="st1" width="7.2" height="26.6"/>
	<path class="st1" d="M351.5,52.4V35c0-3.1-0.8-5.4-2.4-7c-1.8-1.9-4.1-2.8-6.8-2.8c-1.3,0-2.6,0.3-3.8,0.8
		c-1.1,0.4-2.2,1.2-3.5,2.2v-2.2h-7.2v26.6h7.2V41.7c0-2.7,0.1-4.4,0.3-5.2c0.3-1.5,1-2.6,1.8-3.5c0.9-0.8,1.9-1.2,3.1-1.2
		c0.9,0,1.7,0.2,2.3,0.7c0.6,0.5,1.1,1.2,1.3,2.1c0.3,1,0.4,3,0.4,6v11.7H351.5z"/>
	<path class="st1" d="M382.5,48.3V25.8h-7.2v2.4c-1.2-1-2.3-1.7-3.5-2.2c-1.4-0.6-2.8-0.8-4.4-0.8c-3.3,0-6.1,1.2-8.5,3.5
		c-2.6,2.5-3.9,6-3.9,10.1c0,3.9,1.2,7.2,3.7,9.7c2.4,2.6,5.5,3.9,9,3.9c1.6,0,3.1-0.3,4.4-0.8c1.1-0.4,2.1-1.1,3.1-1.9
		c-0.1,1.6-0.3,2.7-0.6,3.4c-0.4,0.8-1.1,1.4-2.1,1.9c-1,0.5-2.4,0.8-4,0.8c-1.3,0-2.5-0.2-3.4-0.5c-0.9-0.3-1.7-0.9-2.3-1.5
		l-0.1-0.1h-7.8l0.2,0.5c0.6,1.8,1.5,3.4,2.7,4.6c1.2,1.3,2.7,2.2,4.5,2.9c1.8,0.6,3.9,1,6.5,1c4.8,0,8.5-1.4,10.9-4.3
		C381.5,56.1,382.5,52.8,382.5,48.3 M375.6,38.9c0,2.1-0.6,3.8-1.9,5c-1.2,1.3-2.8,1.9-4.7,1.9c-1.9,0-3.6-0.7-4.9-2
		c-1.3-1.3-1.9-3-1.9-5c0-2,0.6-3.6,1.9-4.9c1.3-1.3,2.9-1.9,4.8-1.9c2,0,3.6,0.6,4.8,1.9C375,35.1,375.6,36.8,375.6,38.9"/>
	<path class="st1" d="M276.8,62.5c-3.3,0-6.5,0.8-9.3,2.5c-2.9,1.7-5.2,4-6.8,6.8c-1.6,2.8-2.5,6-2.5,9.4c0,5.1,1.8,9.5,5.3,13.2
		c3.5,3.7,8,5.5,13.3,5.5c5.1,0,9.5-1.8,13-5.4c3.6-3.6,5.4-8,5.4-13.2c0-5.2-1.8-9.7-5.4-13.3C286.2,64.4,281.8,62.5,276.8,62.5
		 M287.8,81.3c0,3.2-1.1,6-3.2,8.2c-2.1,2.2-4.8,3.3-7.8,3.3c-2.7,0-5.1-0.9-7.2-2.6c-2.7-2.2-4-5.2-4-8.9c0-3.4,1.1-6.2,3.2-8.3
		c2.1-2.2,4.8-3.3,7.9-3.3c3.1,0,5.7,1.1,7.9,3.3C286.7,75.3,287.8,78.1,287.8,81.3"/>
	<path class="st1" d="M313.8,85.5c0,2.4-0.1,4-0.4,4.6c-0.3,0.9-0.9,1.6-1.5,2.1c-0.7,0.5-1.5,0.7-2.5,0.7c-1,0-1.8-0.2-2.5-0.7
		c-0.7-0.5-1.2-1.2-1.5-2c-0.3-0.9-0.5-2.5-0.5-4.9V72.5h-7.3v11.1c0,4.2,0.3,7,0.8,8.7c0.7,2.3,2,4.2,3.8,5.5c1.8,1.3,4.2,2,7.1,2
		c2.7,0,4.9-0.6,6.7-1.7c1.8-1.1,3.1-2.7,4-4.8c0.7-1.7,1.1-4.8,1.1-9.4V72.5h-7.2V85.5z"/>
	<path class="st1" d="M330.9,72.9c-0.7,0.5-1.3,1.1-1.8,1.8v-2.2h-6.3V99h7.2V88.2l0-1.3c0-3.5,0.3-5.9,1-7.1
		c0.6-1.1,1.3-1.7,2.2-1.7c0.4,0,1,0.2,1.7,0.5l0.4,0.2l2.3-6.3l-0.3-0.1C334.8,71.4,332.7,71.7,330.9,72.9"/>
	<polygon class="st1" points="362.5,87.5 354.1,63.6 354,63.4 346.4,63.4 358.9,98.8 359,99 365.9,99 378.6,63.9 378.8,63.4 
		371.2,63.4 	"/>
	<path class="st1" d="M399.1,74.8c-1-0.9-2.1-1.6-3.3-2.1c-1.4-0.6-2.9-0.9-4.5-0.9c-3.5,0-6.4,1.3-8.8,3.9c-2.4,2.6-3.6,6-3.6,10.1
		c0,3.9,1.3,7.3,3.7,9.9c2.5,2.7,5.5,4,8.9,4c1.5,0,3-0.3,4.3-0.8c1.1-0.5,2.2-1.2,3.3-2.1V99h7.2V72.5h-7.2V74.8z M397.5,80.5
		c1.3,1.3,1.9,3.1,1.9,5.2c0,2.2-0.6,4-1.9,5.3c-1.3,1.3-2.9,2-4.8,2c-1.9,0-3.4-0.7-4.7-2c-1.3-1.4-1.9-3.1-1.9-5.3
		c0-2.1,0.6-3.9,1.9-5.2c1.2-1.3,2.8-2,4.7-2C394.6,78.5,396.2,79.2,397.5,80.5"/>
	<rect x="408.9" y="62.5" class="st1" width="7.2" height="36.5"/>
	<path class="st1" d="M435,85.5c0,2.4-0.1,3.9-0.4,4.6c-0.3,0.9-0.9,1.6-1.5,2.1c-0.7,0.5-1.5,0.7-2.5,0.7c-1,0-1.8-0.2-2.5-0.7
		c-0.7-0.5-1.2-1.2-1.5-2c-0.3-0.9-0.5-2.5-0.5-4.9V72.5h-7.3v11.1c0,4.2,0.3,7,0.8,8.7c0.7,2.3,2,4.2,3.8,5.5c1.8,1.3,4.2,2,7.1,2
		c2.7,0,4.9-0.6,6.7-1.7c1.8-1.1,3.1-2.7,4-4.8c0.7-1.7,1.1-4.8,1.1-9.4V72.5H435V85.5z"/>
	<path class="st1" d="M464.3,90.8c-1.7,1.6-3.7,2.4-6,2.4c-1.9,0-3.5-0.5-4.8-1.5c-1.1-0.9-1.9-2.2-2.2-3.7h20.7l0-1.6
		c0-4.3-1.3-7.9-3.9-10.6c-2.6-2.7-6-4-10.2-4c-3.9,0-7.2,1.3-9.8,4c-2.6,2.7-3.9,6.1-3.9,10.1c0,3.9,1.3,7.2,3.9,9.9
		c2.6,2.6,6,3.9,10.2,3.9c2.7,0,5-0.5,6.9-1.4c1.9-0.9,3.6-2.4,5-4.4l0.2-0.4l-6.1-2.9L464.3,90.8z M464.8,82.2h-13
		c0.6-1.3,1.3-2.2,2-2.7c1.3-1,2.8-1.4,4.5-1.4c1.6,0,3,0.4,4.2,1.3C463.6,80.1,464.3,81,464.8,82.2"/>
	<path class="st1" d="M489.7,86.6c-1-1.3-2.7-2.6-5.3-3.9l-2.4-1.2c-1.3-0.6-1.7-1-1.8-1.1c-0.2-0.2-0.3-0.5-0.3-0.7
		c0-0.3,0.2-0.6,0.5-0.9c0.4-0.3,0.9-0.4,1.5-0.4c1.2,0,2.6,0.8,4.2,2.3l0.3,0.3l4.5-4.5l-0.2-0.3c-1.1-1.4-2.4-2.5-3.9-3.3
		c-1.5-0.8-3.2-1.1-4.9-1.1c-2.5,0-4.6,0.8-6.3,2.3c-1.6,1.5-2.5,3.4-2.5,5.5c0,3.3,2.2,6.1,6.5,8.2l2.2,1.1
		c1.7,0.9,2.6,1.8,2.6,2.6c0,0.4-0.2,0.8-0.6,1.1c-0.9,0.7-2.4,0.8-4.4-0.2c-1-0.5-1.8-1.2-2.6-2.1l-0.3-0.3l-4.5,4.9l0.2,0.2
		c2.3,3,5.4,4.6,9.3,4.6c2.9,0,5.3-0.8,7-2.4c1.8-1.6,2.6-3.6,2.6-6C491.2,89.5,490.7,87.9,489.7,86.6"/>
	<polygon class="st1" points="260.6,110.4 280.6,110.4 280.6,113.8 264.1,113.8 264.1,124.8 280.4,124.8 280.4,128.2 264.1,128.2 
		264.1,141.9 280.4,141.9 280.4,145.3 260.6,145.3 	"/>
	<polygon class="st1" points="288.9,110.4 292.7,110.4 304.3,137.4 316,110.4 319.8,110.4 304.7,145.3 303.9,145.3 	"/>
	<polygon class="st1" points="330.7,110.4 350.7,110.4 350.7,113.8 334.2,113.8 334.2,124.8 350.6,124.8 350.6,128.2 334.2,128.2 
		334.2,141.9 350.6,141.9 350.6,145.3 330.7,145.3 	"/>
	<path class="st1" d="M361.9,110.4h7c3.9,0,6.5,0.2,7.9,0.5c2.1,0.5,3.8,1.5,5.1,3.1c1.3,1.6,1.9,3.5,1.9,5.8c0,1.9-0.4,3.6-1.3,5
		c-0.9,1.4-2.2,2.5-3.8,3.3c-1.7,0.7-4,1.1-6.9,1.1l12.6,16.2h-4.3l-12.6-16.2h-2v16.2h-3.5V110.4z M365.4,113.8v11.9l6,0
		c2.3,0,4.1-0.2,5.2-0.7c1.1-0.4,2-1.2,2.6-2.1c0.6-1,0.9-2.1,0.9-3.3c0-1.2-0.3-2.2-1-3.2c-0.6-1-1.5-1.6-2.5-2.1
		c-1-0.4-2.7-0.6-5.1-0.6H365.4z"/>
	<polygon class="st1" points="393.4,110.4 397.4,110.4 406.4,124.8 415.2,110.4 419.2,110.4 408.1,128.6 408.1,145.3 404.7,145.3 
		404.7,128.6 	"/>
	<path class="st1" d="M429.9,145.3v-34.9h7.2c5.2,0,9,0.4,11.4,1.3c3.4,1.2,6,3.2,7.9,6.2c1.9,2.9,2.9,6.4,2.9,10.5
		c0,3.5-0.8,6.6-2.3,9.2c-1.5,2.7-3.5,4.6-5.9,5.9c-2.4,1.3-5.8,1.9-10.1,1.9H429.9z M433.2,142h4c4.8,0,8.2-0.3,10-0.9
		c2.6-0.9,4.7-2.4,6.2-4.6c1.5-2.2,2.3-4.9,2.3-8.2c0-3.4-0.8-6.2-2.4-8.6c-1.6-2.4-3.9-4-6.8-4.9c-2.2-0.7-5.8-1-10.8-1h-2.5V142z"
		/>
	<path class="st1" d="M485.3,110.4l16.3,34.9h-3.8l-5.5-11.5h-15l-5.4,11.5H468l16.5-34.9H485.3z M484.9,117.8l-6,12.6h11.9
		L484.9,117.8z"/>
	<polygon class="st1" points="509.2,110.4 513.2,110.4 522.2,124.8 531,110.4 535,110.4 523.9,128.6 523.9,145.3 520.5,145.3 
		520.5,128.6 	"/>
	<g>
		<path class="st1" d="M53.7,77.2c-5.9,0-10.7-4.8-10.7-10.7s4.8-10.7,10.7-10.7h36.9l10.3-42.9H52.6C23.7,12.8,0,36.5,0,65.4v2.1
			c0,28.9,23.7,52.6,52.6,52.6h22.5l10.3-42.9H53.7z"/>
		<path class="st1" d="M138.4,12.8h-24.7l-10.3,42.9h31.8c5.9,0,10.7,4.8,10.7,10.7s-4.8,10.7-10.7,10.7H98.3L88,120.1h0.3L81.6,148
			h40.8l6.7-27.9h9.4c28.9,0,52.6-23.7,52.6-52.6v-2.1C191,36.5,167.3,12.8,138.4,12.8z"/>
	</g>
</g>
</svg>
