<?xml version="1.0" encoding="utf-8"?>
<!-- Generator: Adobe Illustrator 23.0.6, SVG Export Plug-In . SVG Version: 6.00 Build 0)  -->
<svg version="1.1" id="Capa_1" xmlns="http://www.w3.org/2000/svg" xmlns:xlink="http://www.w3.org/1999/xlink" x="0px" y="0px"
	 viewBox="0 0 528 527.5" style="enable-background:new 0 0 528 527.5;" xml:space="preserve">
<style type="text/css">
	.st0{fill:none;stroke:#FFFFFF;stroke-miterlimit:10;}
	.st1{fill:#F9C1C5;stroke:#F9C1C5;stroke-miterlimit:10;}
	.st2{fill:#870037;}
	.st3{fill:#FFF7EC;}
	.st4{fill:#D2010D;}
</style>
<g>
	<path class="st0" d="M527.5,264L527.5,264c0-0.1,0-0.2,0-0.3C527.5,263.8,527.5,263.9,527.5,264z"/>
	<path class="st0" d="M264,16.5c136.5,0,247.2,110.5,247.5,247h16C527.2,118.2,409.4,0.5,264,0.5S0.8,118.2,0.5,263.5h16
		C16.8,127,127.5,16.5,264,16.5z"/>
	<path class="st0" d="M0.5,264L0.5,264c0-0.1,0-0.2,0-0.3C0.5,263.8,0.5,263.9,0.5,264z"/>
	<path class="st0" d="M264,16.5c-136.5,0-247.2,110.5-247.5,247h15c0.3-128.2,104.3-232,232.5-232s232.2,103.8,232.5,232h15
		C511.2,127,400.5,16.5,264,16.5z"/>
	<path class="st0" d="M264,47.5c119.4,0,216.2,96.7,216.5,216h16c-0.3-128.2-104.3-232-232.5-232S31.8,135.3,31.5,263.5h16
		C47.8,144.2,144.6,47.5,264,47.5z"/>
	<path class="st0" d="M264,47.5c-119.4,0-216.2,96.7-216.5,216h16c0.3-110.5,89.9-200,200.5-200s200.2,89.5,200.5,200h16
		C480.2,144.2,383.4,47.5,264,47.5z"/>
	<path class="st0" d="M264,63.5c-110.6,0-200.2,89.5-200.5,200h15c0.3-102.2,83.2-185,185.5-185s185.2,82.8,185.5,185h15
		C464.2,153,374.6,63.5,264,63.5z"/>
	<path class="st0" d="M264,78.5c-102.3,0-185.2,82.8-185.5,185h1.3C79.9,161.9,162.4,79.6,264,79.6s184.1,82.3,184.2,183.9h1.3
		C449.2,161.3,366.3,78.5,264,78.5z"/>
	<path class="st1" d="M0.5,263.5c0,0.1,0,0.2,0,0.3C0.5,263.7,0.5,263.6,0.5,263.5L0.5,263.5z"/>
	<path class="st1" d="M527.5,263.5L527.5,263.5c0,0.1,0,0.2,0,0.3C527.5,263.7,527.5,263.6,527.5,263.5z"/>
	<path class="st1" d="M496.5,264h-16h-16h-15h-1.3c-0.1,101.6-82.5,183.9-184.2,183.9S79.9,365.6,79.8,264h-1.3h-15h-16h-16h-15h-16
		C0.8,409.3,118.6,527,264,527s263.2-117.7,263.5-263h-16H496.5z"/>
	<path class="st1" d="M527.5,263.5h-16c0,0.2,0,0.3,0,0.5h16c0-0.1,0-0.2,0-0.3C527.5,263.7,527.5,263.6,527.5,263.5z"/>
	<path class="st1" d="M16.5,263.5h-16c0,0.1,0,0.2,0,0.3c0,0.1,0,0.2,0,0.3h16C16.5,263.8,16.5,263.7,16.5,263.5z"/>
	<path class="st1" d="M496.5,264h15c0-0.2,0-0.3,0-0.5h-15C496.5,263.7,496.5,263.8,496.5,264z"/>
	<path class="st1" d="M16.5,263.5c0,0.2,0,0.3,0,0.5h15c0-0.2,0-0.3,0-0.5H16.5z"/>
	<path class="st1" d="M480.5,263.5c0,0.2,0,0.3,0,0.5h16c0-0.2,0-0.3,0-0.5H480.5z"/>
	<path class="st1" d="M31.5,263.5c0,0.2,0,0.3,0,0.5h16c0-0.2,0-0.3,0-0.5H31.5z"/>
	<path class="st1" d="M464.5,263.5c0,0.2,0,0.3,0,0.5h16c0-0.2,0-0.3,0-0.5H464.5z"/>
	<path class="st1" d="M47.5,263.5c0,0.2,0,0.3,0,0.5h16c0-0.2,0-0.3,0-0.5H47.5z"/>
	<path class="st1" d="M449.5,263.5c0,0.2,0,0.3,0,0.5h15c0-0.2,0-0.3,0-0.5H449.5z"/>
	<path class="st1" d="M63.5,263.5c0,0.2,0,0.3,0,0.5h15c0-0.2,0-0.3,0-0.5H63.5z"/>
	<path class="st1" d="M448.2,263.5c0,0.1,0,0.2,0,0.2v0c0,0.1,0,0.2,0,0.2h1.3c0-0.2,0-0.3,0-0.5H448.2z"/>
	<path class="st1" d="M79.8,263.7c0-0.1,0-0.2,0-0.2h-1.3c0,0.2,0,0.3,0,0.5h1.3C79.8,263.9,79.8,263.8,79.8,263.7L79.8,263.7z"/>
	<path class="st2" d="M158.6,263.5h-1.1c0,0.2,0,0.3,0,0.5h1.1c0-0.1,0-0.2,0-0.3S158.6,263.6,158.6,263.5z"/>
</g>
<g>
	<g>
		<path class="st3" d="M186.8,262.2c-2.5-1.4-4.3-3.2-5.5-5.5c-1.2-2.3-1.8-4.9-1.8-7.8c0-3.1,0.7-5.8,2.1-8.2
			c1.4-2.4,3.3-4.2,5.8-5.5c2.5-1.3,5.4-2,8.6-2c3.1,0,5.7,0.3,7.6,0.8l-0.6,6.8c-0.7-0.2-1.7-0.4-2.9-0.5c-1.3-0.1-2.5-0.2-3.8-0.2
			c-1.6,0-3.1,0.3-4.4,1c-1.3,0.6-2.4,1.6-3.2,2.9c-0.8,1.3-1.2,2.9-1.2,4.7c0,2.8,0.8,4.9,2.3,6.5c1.5,1.6,3.7,2.3,6.6,2.3
			c2.3,0,4.6-0.2,6.8-0.6l0.5,6.6c-0.9,0.3-2,0.5-3.4,0.6c-1.4,0.2-2.8,0.2-4.3,0.2C192.3,264.2,189.2,263.5,186.8,262.2z"/>
		<path class="st3" d="M208.9,262c-1.6-1.5-2.5-3.5-2.5-6.1c0-2.3,0.8-4,2.4-5.1c1.6-1.1,4-1.7,7.2-1.7h2.1c1,0,1.9,0,2.7,0.1v-0.5
			c0-0.9-0.3-1.5-1-1.8c-0.6-0.4-1.9-0.5-3.7-0.5c-1.1,0-2.3,0.1-3.6,0.3s-2.4,0.4-3.3,0.7l-0.4-6.2c1.2-0.3,2.6-0.6,4.4-0.8
			c1.7-0.2,3.4-0.3,5.1-0.3c3.6,0,6.2,0.7,7.8,2c1.6,1.3,2.4,3.5,2.4,6.4v10.8c0,2.1,0,3.6,0.1,4.5H222c-0.1-0.8-0.3-1.7-0.3-2.6
			h-0.1c-1.1,2.1-3.2,3.1-6.3,3.1C212.7,264.2,210.6,263.5,208.9,262z M219.9,257.7c0.6-0.6,0.9-1.5,0.9-2.7v-1.1h-3.5
			c-1,0-1.8,0.2-2.3,0.5c-0.5,0.3-0.7,0.9-0.7,1.7c0,0.8,0.3,1.4,0.8,1.8c0.6,0.4,1.3,0.7,2.1,0.7
			C218.4,258.6,219.3,258.3,219.9,257.7z"/>
		<path class="st3" d="M237.2,262.8c-1.7-0.9-3-2.3-4-4.1c-1-1.8-1.4-4-1.4-6.6c0-2.4,0.6-4.5,1.7-6.3c1.1-1.8,2.6-3.3,4.5-4.3
			c1.9-1,4-1.5,6.2-1.5c0.7,0,1.5,0.1,2.4,0.3c0.8,0.2,1.5,0.5,1.9,0.8h0.1V233l7.7-2v25.8c0,3,0,5.4,0.1,7h-6.5
			c-0.2-0.6-0.3-1.3-0.4-2.1h-0.1c-0.7,0.7-1.6,1.3-2.7,1.8c-1.1,0.5-2.3,0.7-3.8,0.7C240.8,264.2,238.8,263.7,237.2,262.8z
			 M247,257.3c0.7-0.2,1.3-0.6,1.7-1v-5.5c0-1.5-0.3-2.6-1-3.3c-0.7-0.7-1.7-1.1-2.9-1.1c-1.5,0-2.7,0.5-3.7,1.6
			c-1,1-1.5,2.4-1.5,3.9c0,1.9,0.5,3.3,1.4,4.3c0.9,1,2.2,1.5,4,1.5C245.6,257.6,246.3,257.5,247,257.3z"/>
		<path class="st3" d="M263.3,261c-2.3-2.1-3.5-5.1-3.5-9.1c0-2.2,0.5-4.2,1.5-6c1-1.8,2.4-3.3,4.2-4.3c1.8-1.1,4-1.6,6.5-1.6
			s4.6,0.5,6.2,1.6c1.6,1.1,2.8,2.5,3.5,4.2c0.7,1.7,1.1,3.7,1.1,5.7c0,1.3-0.1,2.2-0.3,3H268c0.3,1,1,1.8,2,2.4
			c1,0.6,2.4,0.9,4.2,0.9c2.4,0,4.4-0.3,6.3-1l0.5,6.1c-2.1,0.8-4.6,1.3-7.5,1.3C269,264.2,265.6,263.1,263.3,261z M275.2,250
			c0-0.4,0-0.7,0-0.9c-0.1-1.1-0.5-1.9-1-2.5c-0.6-0.6-1.3-0.9-2.3-0.9c-1.2,0-2.2,0.4-2.9,1.2c-0.7,0.8-1,1.9-1,3.2H275.2z"/>
		<path class="st3" d="M286.4,240.4h6.8l0.4,2.1c0.9-0.7,2-1.3,3.2-1.8c1.3-0.5,2.5-0.7,3.8-0.7c2.8,0,4.9,0.9,6.2,2.6
			c1.3,1.6,1.9,3.9,1.9,6.9v14.2H301v-13.3c0-1.4-0.3-2.5-0.8-3.1c-0.5-0.5-1.3-0.8-2.4-0.8c-0.7,0-1.4,0.1-2,0.3
			c-0.7,0.2-1.2,0.5-1.7,0.8v16h-7.7V240.4z"/>
		<path class="st3" d="M314,262c-1.6-1.5-2.5-3.5-2.5-6.1c0-2.3,0.8-4,2.4-5.1c1.6-1.1,4-1.7,7.2-1.7h2.1c1,0,1.9,0,2.7,0.1v-0.5
			c0-0.9-0.3-1.5-1-1.8c-0.6-0.4-1.9-0.5-3.7-0.5c-1.1,0-2.3,0.1-3.5,0.3s-2.4,0.4-3.3,0.7l-0.4-6.2c1.2-0.3,2.6-0.6,4.4-0.8
			s3.4-0.3,5.1-0.3c3.6,0,6.2,0.7,7.8,2c1.6,1.3,2.4,3.5,2.4,6.4v10.8c0,2.1,0,3.6,0.1,4.5h-6.6c-0.1-0.8-0.3-1.7-0.3-2.6h-0.1
			c-1.1,2.1-3.2,3.1-6.3,3.1C317.8,264.2,315.7,263.5,314,262z M325,257.7c0.6-0.6,0.9-1.5,0.9-2.7v-1.1h-3.5c-1,0-1.8,0.2-2.3,0.5
			c-0.5,0.3-0.7,0.9-0.7,1.7c0,0.8,0.3,1.4,0.8,1.8c0.6,0.4,1.3,0.7,2.1,0.7C323.5,258.6,324.4,258.3,325,257.7z"/>
		<path class="st3" d="M352.4,262.8c-1.7-0.9-3-2.3-4-4.1c-1-1.8-1.4-4-1.4-6.6c0-2.4,0.6-4.5,1.7-6.3c1.1-1.8,2.6-3.3,4.5-4.3
			s4-1.5,6.2-1.5c0.7,0,1.5,0.1,2.4,0.3c0.8,0.2,1.5,0.5,1.9,0.8h0.1V233l7.7-2v25.8c0,3,0,5.4,0.1,7h-6.5c-0.2-0.6-0.3-1.3-0.4-2.1
			h-0.1c-0.7,0.7-1.6,1.3-2.7,1.8c-1.1,0.5-2.3,0.7-3.8,0.7C356,264.2,354.1,263.7,352.4,262.8z M362.2,257.3c0.7-0.2,1.3-0.6,1.7-1
			v-5.5c0-1.5-0.3-2.6-1-3.3c-0.7-0.7-1.7-1.1-2.9-1.1c-1.5,0-2.7,0.5-3.7,1.6c-1,1-1.5,2.4-1.5,3.9c0,1.9,0.5,3.3,1.4,4.3
			c0.9,1,2.2,1.5,4,1.5C360.8,257.6,361.5,257.5,362.2,257.3z"/>
		<path class="st3" d="M378.6,261c-2.3-2.1-3.5-5.1-3.5-9.1c0-2.2,0.5-4.2,1.5-6c1-1.8,2.4-3.3,4.2-4.3s4-1.6,6.5-1.6
			c2.5,0,4.6,0.5,6.2,1.6c1.6,1.1,2.8,2.5,3.5,4.2s1.1,3.7,1.1,5.7c0,1.3-0.1,2.2-0.3,3h-14.5c0.3,1,1,1.8,2,2.4
			c1,0.6,2.4,0.9,4.2,0.9c2.4,0,4.4-0.3,6.3-1l0.5,6.1c-2.1,0.8-4.6,1.3-7.5,1.3C384.3,264.2,380.9,263.1,378.6,261z M390.4,250
			c0-0.4,0-0.7,0-0.9c-0.1-1.1-0.5-1.9-1-2.5c-0.6-0.6-1.3-0.9-2.3-0.9c-1.2,0-2.2,0.4-2.9,1.2c-0.7,0.8-1,1.9-1,3.2H390.4z"/>
	</g>
	<path class="st3" d="M180.7,279.2h8.4v32.3h-8.4V279.2z M194.1,286.5h7.3l0.4,2.2c1-0.8,2.1-1.4,3.4-1.9c1.3-0.5,2.7-0.7,4.1-0.7
		c3,0,5.2,0.9,6.6,2.8c1.3,1.7,2,4.2,2,7.4v15.2h-8.2v-14.2c0-1.5-0.3-2.6-0.9-3.3c-0.6-0.6-1.4-0.9-2.5-0.9c-0.7,0-1.5,0.1-2.2,0.3
		c-0.7,0.2-1.3,0.5-1.8,0.9v17.2h-8.2V286.5z M235.7,282.8c-1.7,0-2.9,0.3-3.6,0.9c-0.8,0.6-1.2,1.6-1.2,3h9.2l-1.7,6.9h-7.5v17.8
		h-8.2v-23.7c0-7.9,4.1-11.8,12.2-11.8c1.9,0,3.9,0.2,5.7,0.7l-0.7,6.5C238.7,282.9,237.3,282.8,235.7,282.8L235.7,282.8z
		 M243.9,278.6l8.2-2.2v35.1h-8.2V278.6z M268.2,312c-3.9,0-6.8-0.8-8.7-2.4c-1.9-1.6-2.8-4.2-2.8-7.9v-15.2h8.2v15
		c0,1.3,0.3,2.3,0.8,2.9c0.6,0.6,1.4,0.9,2.7,0.9c1.2,0,2.1-0.3,2.7-0.9c0.6-0.6,0.8-1.6,0.8-3v-15h8.2v15.2c0,3.6-1,6.2-3,7.8
		C275.1,311.2,272.1,312,268.2,312L268.2,312z M298.3,312c-4.8,0-8.4-1.1-10.9-3.4c-2.5-2.3-3.7-5.5-3.7-9.7c0-2.4,0.5-4.5,1.6-6.5
		c1-1.9,2.5-3.5,4.5-4.6c2-1.1,4.3-1.7,7-1.7c2.7,0,4.9,0.6,6.6,1.7c1.7,1.1,3,2.7,3.8,4.5c0.8,1.9,1.2,3.9,1.2,6.1
		c0,1.3-0.1,2.4-0.3,3.2h-15.5c0.3,1.1,1,1.9,2.2,2.6c1.1,0.6,2.6,1,4.5,1c2.5,0,4.8-0.4,6.7-1.1l0.6,6.5
		C304.2,311.5,301.5,312,298.3,312L298.3,312z M300.1,296.7c0-0.4,0-0.7,0-1c-0.1-1.1-0.5-2-1.1-2.7c-0.6-0.7-1.4-1-2.5-1
		c-1.3,0-2.3,0.4-3.1,1.3c-0.7,0.8-1.1,2-1.1,3.4H300.1z M312.2,286.5h7.3l0.4,2.2c1-0.8,2.1-1.4,3.4-1.9c1.3-0.5,2.7-0.7,4.1-0.7
		c3,0,5.2,0.9,6.6,2.8c1.3,1.7,2,4.2,2,7.4v15.2h-8.2v-14.2c0-1.5-0.3-2.6-0.9-3.3c-0.6-0.6-1.4-0.9-2.5-0.9c-0.7,0-1.5,0.1-2.2,0.3
		c-0.7,0.2-1.3,0.5-1.8,0.9v17.2h-8.2V286.5z M354,312c-2.8,0-5.3-0.5-7.5-1.5c-2.2-1-3.8-2.5-5-4.4c-1.2-1.9-1.8-4.3-1.8-6.9
		s0.6-5,1.7-7c1.2-2,2.8-3.5,5-4.5c2.2-1,4.6-1.6,7.5-1.6c2.5,0,4.8,0.3,7.1,0.9l-0.9,6.7c-1.6-0.5-3.4-0.8-5.4-0.8
		c-1.8,0-3.4,0.5-4.7,1.4c-1.3,1-2,2.5-2,4.5c0,2.2,0.7,3.7,2,4.7c1.3,1,2.9,1.4,4.9,1.4c2.2,0,4-0.3,5.5-0.9l0.6,6.7
		c-0.6,0.3-1.6,0.6-2.9,0.8C356.7,311.9,355.4,312,354,312L354,312z M369.5,283.8c-1.4,0-2.6-0.5-3.6-1.4c-1-0.9-1.4-2.1-1.4-3.5
		s0.5-2.6,1.4-3.5c1-0.9,2.2-1.4,3.6-1.4c1.4,0,2.6,0.5,3.6,1.4c1,0.9,1.5,2.1,1.5,3.5c0,1.4-0.5,2.6-1.5,3.5
		C372.1,283.3,370.9,283.8,369.5,283.8L369.5,283.8z M365.4,286.5h8.2v25h-8.2V286.5z M386.4,312c-2.8,0-5.1-0.8-6.8-2.4
		c-1.8-1.6-2.6-3.7-2.6-6.5c0-2.5,0.8-4.3,2.5-5.5c1.7-1.2,4.3-1.8,7.7-1.8h2.2c1.1,0,2,0,2.9,0.1v-0.5c0-0.9-0.3-1.6-1-2
		c-0.7-0.4-2-0.6-4-0.6c-1.1,0-2.4,0.1-3.8,0.3c-1.4,0.2-2.6,0.4-3.6,0.7l-0.5-6.6c1.3-0.4,2.8-0.6,4.7-0.8c1.8-0.2,3.7-0.3,5.5-0.3
		c3.8,0,6.6,0.7,8.3,2.1c1.7,1.4,2.6,3.7,2.6,6.9v11.6c0,2.2,0,3.8,0.1,4.8h-7.1c-0.2-0.8-0.3-1.8-0.3-2.8h-0.1
		C392,310.9,389.8,312,386.4,312L386.4,312z M388.5,306c1.2,0,2.1-0.3,2.8-1c0.7-0.7,1-1.6,1-2.8V301h-3.8c-1.1,0-1.9,0.2-2.4,0.6
		c-0.5,0.4-0.7,1-0.7,1.8c0,0.8,0.3,1.5,0.9,2C386.9,305.8,387.7,306,388.5,306L388.5,306z"/>
	<g>
		<path class="st4" d="M146.4,289.3L146.4,289.3c-3.3,0-6-2.7-6-6v-33.4c0-3.3,2.7-6,6-6s6,2.7,6,6v33.4
			C152.5,286.6,149.7,289.3,146.4,289.3"/>
		<path class="st4" d="M146.4,242.4L146.4,242.4c-3.3,0-6-2.7-6-6c0-3.3,2.7-6,6-6s6,2.7,6,6C152.5,239.7,149.7,242.4,146.4,242.4"
			/>
		<path class="st3" d="M146.4,198.7c-10.5,0-19,8.5-19,19v24.6c0,7.3,4.1,13.6,10.1,16.8v-19.3v-9v-10.5c0-4.9,4-9,9-9s9,4,9,9v10.5
			v28.3c6-3.2,10.1-9.5,10.1-16.8v-24.6C165.5,207.2,156.9,198.7,146.4,198.7"/>
		<path class="st3" d="M155.4,268.4v38.9c0,2-0.7,3.9-1.8,5.4c-1.6,2.2-4.2,3.6-7.1,3.6c-3.1,0-5.8-1.6-7.4-3.9
			c-0.2-0.2-0.3-0.5-0.4-0.7c-0.3-0.5-0.5-1-0.7-1.6c-0.3-0.8-0.4-1.7-0.4-2.7v-19.6v-19.3c-6,3.2-10.1,9.5-10.1,16.8v24.6
			c0,10.5,8.5,19,19,19c10.5,0,19-8.5,19-19v-24.6C165.4,277.9,161.4,271.6,155.4,268.4"/>
	</g>
</g>
</svg>
