<?xml version="1.0" encoding="utf-8"?>
<!-- Generator: Adobe Illustrator 23.0.6, SVG Export Plug-In . SVG Version: 6.00 Build 0)  -->
<svg version="1.1" id="Capa_1" xmlns="http://www.w3.org/2000/svg" xmlns:xlink="http://www.w3.org/1999/xlink" x="0px" y="0px"
	 viewBox="0 0 530.1 529.1" style="enable-background:new 0 0 530.1 529.1;" xml:space="preserve">
<style type="text/css">
	.st0{fill:#BE1E2D;}
	.st1{fill:#FF2C46;}
	.st2{fill:#FEC61E;}
	.st3{fill:#FEE37C;}
	.st4{fill:#FE8B00;}
	.st5{fill:#FFFFFF;}
	.st6{fill:#FEBE01;}
</style>
<path class="st0" d="M156.6,264.2v158c0,18.6,9.8,35.8,25.7,45.4l27.5,16.5V264.2H156.6z"/>
<path class="st0" d="M320.3,264.2v217.5l35.1-22.6c15.1-9.7,24.3-26.5,24.3-44.5V264.2H320.3z"/>
<path class="st1" d="M209.7,264.2v219.9l22.8,13.7c19.9,11.9,44.9,11.6,64.4-1l23.3-15V264.2H209.7z"/>
<path class="st2" d="M265.9,21.4v60l36.8,36.8l-99.6,164.9L161.4,189l-64.2,0.2c0,0,0,0.1,0,0.1c0,92.7,75.1,167.8,167.9,167.8
	c92.7,0,167.8-75.1,167.8-167.8C432.9,96.9,358.2,21.9,265.9,21.4"/>
<path class="st3" d="M203.1,283.1l99.6-164.9l-36.8-36.8v-60c-0.3,0-0.6,0-0.8,0c-92.7,0-167.8,75.1-167.8,167.7l64.2-0.2
	L203.1,283.1z"/>
<path class="st4" d="M389.2,189.3c0,68.6-55.6,124.1-124.1,124.1c-68.6,0-124.1-55.6-124.1-124.1c0-68.6,55.6-124.1,124.1-124.1
	C333.6,65.1,389.2,120.7,389.2,189.3"/>
<path class="st5" d="M205.3,106l3.2,5.8c0.2,0.4,0.6,0.8,1,1l5.8,3.2c1.7,0.9,1.7,3.4,0,4.4l-5.8,3.2c-0.4,0.2-0.8,0.6-1,1l-3.2,5.8
	c-0.9,1.7-3.4,1.7-4.4,0l-3.2-5.8c-0.2-0.4-0.6-0.8-1-1l-5.8-3.2c-1.7-0.9-1.7-3.4,0-4.4l5.8-3.2c0.4-0.2,0.8-0.6,1-1l3.2-5.8
	C201.9,104.3,204.4,104.3,205.3,106"/>
<path class="st5" d="M362,211.8l3.2,5.8c0.2,0.4,0.6,0.8,1,1l5.8,3.2c1.7,0.9,1.7,3.4,0,4.4l-5.8,3.2c-0.4,0.2-0.8,0.6-1,1l-3.2,5.8
	c-0.9,1.7-3.4,1.7-4.4,0l-3.2-5.8c-0.2-0.4-0.6-0.8-1-1l-5.8-3.2c-1.7-0.9-1.7-3.4,0-4.4l5.8-3.2c0.4-0.2,0.8-0.6,1-1l3.2-5.8
	C358.6,210,361.1,210,362,211.8"/>
<path class="st6" d="M343.7,184.2c8.7-8.4,3.9-23.2-8.1-24.9l-31.1-4.5c-5-0.7-9.3-3.9-11.6-8.4l-3.3-6.6l-75.2,124.5
	c4.3,3.7,10.6,5,16.4,2l27.9-14.6c4.5-2.4,9.8-2.4,14.3,0l27.9,14.6c10.7,5.6,23.2-3.5,21.2-15.4l-5.3-31c-0.9-5,0.8-10.1,4.4-13.6
	L343.7,184.2z"/>
<path class="st3" d="M279,118.2c-5.4-10.8-20.8-10.8-26.2,0l-13.9,28.2c-2.2,4.5-6.6,7.7-11.6,8.4l-31.1,4.5
	c-12,1.7-16.7,16.4-8.1,24.9l22.5,22c3.6,3.5,5.3,8.6,4.4,13.6l-5.3,31c-0.9,5.5,1.2,10.3,4.8,13.4l75.2-124.5L279,118.2z"/>
</svg>
